<?xml version="1.0" encoding="UTF-8"?>
<svg id="Capa_1" xmlns="http://www.w3.org/2000/svg" width="1366" height="406.51" version="1.1" viewBox="0 0 1366 406.51">
  <!-- Generator: Adobe Illustrator 29.4.0, SVG Export Plug-In . SVG Version: 2.1.0 Build 152)  -->
  <defs>
    <style>
      .st0 {
        fill: #99a040;
      }
    </style>
  </defs>
  <path class="st0" d="M1366,57.31v349.2H0V58c24.94,1.24,43.58,1.91,52.26,1.51,35.44-1.61,30.09-2.5,30.09-2.5,0,0,1.79-25.84,12.48-25.84s14.25,21.09,14.25,21.09h67.72s5.34-43.36,18.71-43.36,13.36,42.77,13.36,42.77c0,0,81.99,4.72,175.52,3.82,93.52-.89,172.8-.89,172.8-.89,0,0-4.46-39.19,10.69-39.19s22.27,32.96,22.27,32.96c0,0,16.03-27.61,28.5-25.83,12.47,1.78-1.78,28.5,3.56,34.74,0,0,338.03-5.73,399.49-3.89,61.46,1.83,133.02,4.59,133.02,4.59,0,0-10.09-41.28,0-42.2,10.09-.92,33.02,34.86,33.02,34.86,0,0,11.01-54.12,28.44-50.46,17.25,3.63.36,50.38.01,51.35.44-.65,14.76-21.98,21.08-21.07,6.43.91,0,25.68,0,25.68,0,0,74.14-1.5,128.73,1.17Z"/>
</svg>