<?xml version="1.0" encoding="UTF-8"?>
<svg id="Capa_1" xmlns="http://www.w3.org/2000/svg" width="3456" height="705.05" version="1.1" viewBox="0 0 3456 705.05">
  <!-- Generator: Adobe Illustrator 29.4.0, SVG Export Plug-In . SVG Version: 2.1.0 Build 152)  -->
  <defs>
    <style>
      .st0 {
        fill: #648489;
      }
    </style>
  </defs>
  <path class="st0" d="M-62.63,70.47C-15.33,30.78,293.81,1.45,443.41,6.63c149.6,5.17,232.97,24.61,248.86,52.63,15.89,28.03,55.13,138.56,80.35,144.96,25.23,6.4,54.42-115.24,146.76-115.24s166.22-4.41,196.44,16.27c30.22,20.67,201.48,261.41,201.48,261.41,0,0,176.29-10.95,213.23,2.6,36.94,13.55,58.94,90.55,90.67,102.44s240.1-9.98,273.68-8.3,62.12-90.67,104.1-94.02c41.97-3.36,172.94,3.36,213.23-1.68,40.3-5.04,67.16-108.21,183.01-111.19s338.98.05,406.32,2.06c67.33,2.01,87.31-73.88,132.64-72.2,45.33,1.68,280.39-23.51,325.72,10.07s68.84,164.54,90.67,177.97c21.83,13.43,161.18-10.07,181.33,16.79,20.15,26.86,0,319.88,0,319.88H-62.63V70.47Z"/>
</svg>