<?xml version="1.0" encoding="UTF-8"?>
<svg id="Capa_1" xmlns="http://www.w3.org/2000/svg" width="491.65" height="474.41" xmlns:xlink="http://www.w3.org/1999/xlink" version="1.1" viewBox="0 0 491.65 474.41">
  <!-- Generator: Adobe Illustrator 29.4.0, SVG Export Plug-In . SVG Version: 2.1.0 Build 152)  -->
  <defs>
    <style>
      .st0 {
        fill: #e2c033;
      }

      .st1 {
        fill: #f4da6e;
      }

      .st2 {
        fill: #fff;
      }

      .st3 {
        clip-path: url(#clippath);
      }
    </style>
    <clipPath id="clippath">
      <path class="st0" d="M270.74,55.51l46.15,81.38c4.08,7.2,11.07,12.28,19.18,13.93l91.66,18.74c21.8,4.46,30.41,30.97,15.4,47.39l-63.14,69.04c-5.58,6.1-8.25,14.32-7.32,22.54l10.5,92.96c2.5,22.11-20.06,38.49-40.31,29.29l-85.17-38.71c-7.53-3.42-16.17-3.42-23.7,0l-85.17,38.71c-20.25,9.21-42.81-7.18-40.31-29.29l10.5-92.96c.93-8.22-1.74-16.44-7.32-22.54l-63.14-69.04c-15.01-16.42-6.4-42.93,15.4-47.39l91.66-18.74c8.1-1.66,15.1-6.74,19.18-13.93l46.15-81.38c10.97-19.35,38.86-19.35,49.83,0Z"/>
    </clipPath>
  </defs>
  <path class="st2" d="M245.82,41c9.71,0,19.43,4.84,24.92,14.51l46.15,81.38c4.08,7.2,11.07,12.28,19.18,13.93l91.66,18.74c21.8,4.46,30.41,30.97,15.4,47.39l-63.14,69.04c-5.58,6.1-8.25,14.32-7.32,22.54l10.5,92.96c2.01,17.8-12.23,31.9-28.43,31.9-3.91,0-7.94-.82-11.88-2.61l-85.17-38.71c-3.77-1.71-7.81-2.57-11.85-2.57s-8.09.86-11.85,2.57l-85.17,38.71c-3.94,1.79-7.97,2.61-11.88,2.61-16.2,0-30.45-14.1-28.43-31.9l10.5-92.96c.93-8.22-1.74-16.44-7.32-22.54l-63.14-69.04c-15.01-16.42-6.4-42.93,15.4-47.39l91.66-18.74c8.1-1.66,15.1-6.74,19.18-13.93l46.15-81.38c5.49-9.68,15.2-14.51,24.92-14.51M245.82,0c-11.93,0-23.7,3.06-34.04,8.84-11.05,6.17-20.22,15.32-26.54,26.45l-43.38,76.49-86.16,17.62c-12.54,2.56-24.07,8.46-33.36,17.06-8.7,8.05-15.24,18.3-18.92,29.65-3.68,11.34-4.42,23.48-2.11,35.11,2.46,12.42,8.32,23.97,16.96,33.41l59.35,64.89-9.87,87.38c-2.22,19.69,4.04,39.43,17.19,54.14,13.26,14.85,32.21,23.36,51.99,23.36,9.96,0,19.67-2.12,28.84-6.29l80.06-36.39,80.06,36.39c9.18,4.17,18.88,6.29,28.84,6.29,19.77,0,38.72-8.51,51.99-23.36,13.15-14.72,19.41-34.45,17.19-54.14l-9.87-87.38,59.35-64.89c8.63-9.44,14.5-21,16.96-33.41,2.3-11.63,1.57-23.77-2.11-35.11-3.69-11.34-10.23-21.59-18.92-29.65-9.29-8.6-20.82-14.5-33.36-17.06l-86.16-17.62-43.38-76.49c-6.31-11.13-15.49-20.28-26.54-26.45-10.35-5.78-22.12-8.84-34.04-8.84h0Z"/>
  <g>
    <path class="st0" d="M270.74,55.51l46.15,81.38c4.08,7.2,11.07,12.28,19.18,13.93l91.66,18.74c21.8,4.46,30.41,30.97,15.4,47.39l-63.14,69.04c-5.58,6.1-8.25,14.32-7.32,22.54l10.5,92.96c2.5,22.11-20.06,38.49-40.31,29.29l-85.17-38.71c-7.53-3.42-16.17-3.42-23.7,0l-85.17,38.71c-20.25,9.21-42.81-7.18-40.31-29.29l10.5-92.96c.93-8.22-1.74-16.44-7.32-22.54l-63.14-69.04c-15.01-16.42-6.4-42.93,15.4-47.39l91.66-18.74c8.1-1.66,15.1-6.74,19.18-13.93l46.15-81.38c10.97-19.35,38.86-19.35,49.83,0Z"/>
    <g class="st3">
      <path class="st1" d="M187.17,445.51c-23.45,0-46.83-1.12-69.89-2.22-2.2-.11-3.91-1.98-3.8-4.18.11-2.2,1.99-3.93,4.18-3.8,54.49,2.61,110.84,5.31,164.83-7.07,59.35-13.6,107.51-45.71,132.11-88.08,8.6-14.82,14.59-30.94,20.97-48.96,6.52-18.41,12.15-35.06,15.04-52.44,6.05-36.48-.92-75.12-20.17-111.75-17.97-34.19-46.05-64.92-79.07-86.52-18.23-11.92-33.96-18.97-49.52-22.16-28.24-5.8-57.77,1.05-86.33,7.67l-10.23,2.36c-21.46,4.91-43.64,9.98-62.91,20.49-25.02,13.64-44.32,36.17-58.33,54.27-37.45,48.38-57.97,93.62-62.71,138.3-5.79,54.51,15.37,107.22,53.89,134.29,25,17.57,58.32,26.25,101.86,26.53,40.88.3,99.65-6.65,147.54-41.17,44.64-32.17,69.86-84.02,64.24-132.09-2.25-19.21-9.05-37.42-16.06-54.24-13.96-33.45-34.85-74.07-72.9-91.42-21.51-9.8-58.88-16.32-114.75,8.31-49.17,21.67-86.07,54.87-103.92,93.47-9.87,21.34-13.71,45.97-10.82,69.36,3.05,24.68,13.12,45.91,29.14,61.4,23.07,22.31,58.63,33.84,105.7,34.25,27.07.25,92.81-4.31,118.18-51.67,10.19-19.03,11.55-41.89,11.6-59.68.05-20.53-1.49-46.97-14.02-69.31-21.38-38.12-75.19-55.07-117.51-37.02-20.08,8.57-37.08,23.91-49.15,44.37-11.66,19.76-17.59,42.91-16.7,65.18.43,10.75,2.26,20.38,5.44,28.61,6.27,16.26,19.37,29.93,36.88,38.5,17.1,8.36,36.46,11.08,54.51,7.65,36.97-7.02,66.43-39.06,67.08-72.94.34-17.81-8.96-36.46-24.27-48.68-13.57-10.82-29.76-14.95-44.43-11.31-8.63,2.14-17.24,6.6-27.09,14.05-8.46,6.4-14.12,12.29-17.8,18.55-7.49,12.73-7.44,29.8.13,42.48,7.56,12.68,22.55,20.83,37.32,20.3,13.66-.5,26.45-8.48,31.82-19.86,5.64-11.95,2.34-27.18-7.51-34.68-4.92-3.75-11.85-5.32-18.52-4.22-6.03,1-11.23,4.09-14.31,8.51-2.11,4.67-1.33,10.68,2.06,15.76,3.45,5.17,8.81,8.23,14.04,7.95,2.2-.08,4.08,1.58,4.2,3.78s-1.58,4.08-3.78,4.2c-8.13.43-16.02-3.88-21.1-11.5-5.08-7.62-6.01-16.56-2.49-23.91l.29-.5c4.28-6.36,11.5-10.8,19.81-12.17,8.94-1.48,17.93.62,24.67,5.75,12.74,9.7,17.08,29.22,9.9,44.45-6.61,14.01-22.19,23.83-38.76,24.43-17.86.66-35.32-8.84-44.48-24.19-9.16-15.35-9.22-35.22-.15-50.63,4.23-7.19,10.55-13.83,19.87-20.88,10.74-8.12,20.27-13.02,29.99-15.43,17.1-4.24,35.81.44,51.34,12.82,17.21,13.74,27.67,34.84,27.28,55.08-.36,18.77-8.42,37.42-22.69,52.52-13.71,14.51-31.79,24.49-50.89,28.12-19.74,3.75-40.88.79-59.52-8.33-19.33-9.45-33.83-24.65-40.83-42.8-3.49-9.05-5.5-19.54-5.97-31.17-.95-23.79,5.37-48.49,17.8-69.57,12.94-21.94,31.24-38.42,52.9-47.66,21.67-9.24,47.76-10.34,71.6-3.02,24.64,7.57,44.53,23.01,56.02,43.49,13.44,23.96,15.1,51.73,15.04,73.24-.05,18.72-1.52,42.85-12.54,63.43-27.42,51.2-96.77,56.15-125.29,55.88-49.19-.44-86.6-12.72-111.19-36.5-17.34-16.77-28.24-39.65-31.51-66.16-3.07-24.84,1.02-51.02,11.5-73.69,18.66-40.37,57-74.97,107.95-97.43,58.59-25.83,98.3-18.75,121.29-8.27,17.8,8.12,33.21,21.28,47.09,40.24,10.74,14.66,20.23,32.26,29.87,55.38,7.24,17.35,14.26,36.2,16.62,56.39,5.95,50.9-20.54,105.66-67.5,139.5-49.65,35.78-110.19,42.96-152.27,42.68-45.22-.3-80.02-9.46-106.4-27.99-40.87-28.71-63.34-84.32-57.25-141.67,4.91-46.2,25.95-92.76,64.34-142.34,14.49-18.72,34.5-42.05,60.83-56.4,20.24-11.03,42.97-16.23,64.95-21.26l10.21-2.35c29.39-6.82,59.79-13.87,89.74-7.72,16.58,3.41,33.19,10.81,52.29,23.3,34.14,22.33,63.18,54.11,81.77,89.49,20.07,38.19,27.32,78.57,20.98,116.78-2.99,18.02-8.74,35.03-15.39,53.8-6.52,18.4-12.64,34.89-21.59,50.3-13.58,23.39-33.37,43.48-58.8,59.71-22.69,14.47-49.81,25.59-78.44,32.15-31.99,7.33-64.6,9.48-97.1,9.48Z"/>
    </g>
  </g>
</svg>