<?xml version="1.0" encoding="UTF-8"?>
<svg id="Capa_1" xmlns="http://www.w3.org/2000/svg" width="252.31" height="241.94" version="1.1" viewBox="0 0 252.31 241.94">
  <!-- Generator: Adobe Illustrator 29.4.0, SVG Export Plug-In . SVG Version: 2.1.0 Build 152)  -->
  <defs>
    <style>
      .st0 {
        fill: #e2c033;
      }
    </style>
  </defs>
  <path class="st0" d="M191.52,241.94c-2.9,0-5.75-.62-8.45-1.86l-51.12-23.24c-1.83-.83-3.78-1.25-5.79-1.25s-3.96.42-5.79,1.25l-51.12,23.24c-2.71,1.23-5.55,1.86-8.45,1.86-5.78,0-11.33-2.51-15.24-6.88-3.89-4.35-5.67-9.98-5.01-15.83l6.3-55.8c.45-4.02-.85-8.03-3.58-11.01L5.37,110.98c-5.02-5.49-6.64-12.99-4.35-20.06,2.3-7.07,8.02-12.19,15.31-13.68l55.02-11.25c3.96-.81,7.38-3.29,9.37-6.81l27.7-48.85c3.67-6.47,10.3-10.33,17.74-10.33s14.07,3.86,17.74,10.33l27.7,48.85c1.99,3.52,5.41,6,9.37,6.81l55.02,11.25c7.29,1.49,13.01,6.6,15.31,13.68,2.3,7.07.67,14.57-4.35,20.06l-37.9,41.44c-2.73,2.98-4.03,7-3.58,11.01l6.3,55.8c.66,5.85-1.12,11.47-5.01,15.83-3.9,4.37-9.46,6.88-15.24,6.88Z"/>
</svg>