<?xml version="1.0" encoding="UTF-8"?>
<svg id="Capa_1" xmlns="http://www.w3.org/2000/svg" width="3460.69" height="758.57" version="1.1" viewBox="0 0 3460.69 758.57">
  <!-- Generator: Adobe Illustrator 29.4.0, SVG Export Plug-In . SVG Version: 2.1.0 Build 152)  -->
  <defs>
    <style>
      .st0 {
        fill: #648489;
      }
    </style>
  </defs>
  <path class="st0" d="M0,758.57V120.69s108.98,5.98,197.48,5.98S294.93,24.27,320.03,11.47c25.1-12.8,245.89-17.6,271.44,0,25.55,17.6,100.36,257.57,111.31,278.36,10.95,20.8,67.52-8,107.66,14.4,40.14,22.4,104.01,188.77,120.43,196.77,16.42,8,43.79-63.99,65.69-71.99,21.9-8,126.8-9.6,163.76,3.2,36.96,12.8,66.81,153.58,105.72,150.38s51.68-70.39,88.18-71.99c36.5-1.6,174.17-6.4,207.52,0,33.35,6.4,53.42-59.19,89.92-63.99h157.41c36.5,4.8,56.57,70.39,89.92,63.99,33.35-6.4,171.02-1.6,207.52,0,36.5,1.6,49.27,68.79,88.18,71.99,38.91,3.2,68.75-137.58,105.72-150.38,36.96-12.8,141.86-11.2,163.76-3.2,21.9,8,49.27,79.99,65.69,71.99,16.42-8,80.29-174.38,120.43-196.77,40.14-22.4,96.71,6.4,107.66-14.4,10.95-20.8,85.76-260.77,111.31-278.36,25.55-17.6,246.34-12.8,271.44,0,25.1,12.8,34.05,115.2,122.55,115.2,88.5,0,197.48-5.98,197.48-5.98v637.88H0Z"/>
</svg>