<?xml version="1.0" encoding="UTF-8"?>
<svg id="Capa_1" xmlns="http://www.w3.org/2000/svg" width="360.95" height="203.57" version="1.1" viewBox="0 0 360.95 203.57">
  <!-- Generator: Adobe Illustrator 29.4.0, SVG Export Plug-In . SVG Version: 2.1.0 Build 152)  -->
  <defs>
    <style>
      .st0 {
        fill: #fff;
      }
    </style>
  </defs>
  <path class="st0" d="M348.08,192.18c-27.8,23.52-287.74,3.03-323.06,4.85-35.32,1.82-29.85-61.78-4.6-61.15,25.25.63,30.11,20.48,30.11,20.48,0,0-48-122.76-10.01-144.15,37.98-21.39,97-20.78,153.91,52.44,0,0,14.32-11.19,41.68,5.29,27.36,16.47,28.14,49.27,28.14,49.27,0,0,22.36.09,35.87,8.01,13.5,7.92,13.45,20.33,13.45,20.33,0,0,77.24,8.5,34.53,44.63Z"/>
</svg>