<?xml version="1.0" encoding="UTF-8"?>
<svg id="Capa_1" xmlns="http://www.w3.org/2000/svg" width="3456" height="696.81" version="1.1" viewBox="0 0 3456 696.81">
  <!-- Generator: Adobe Illustrator 29.4.0, SVG Export Plug-In . SVG Version: 2.1.0 Build 152)  -->
  <defs>
    <style>
      .st0 {
        fill: #d87544;
      }

      .st1 {
        fill: none;
        stroke: #99a040;
        stroke-linecap: round;
        stroke-linejoin: round;
        stroke-width: 6px;
      }

      .st2 {
        fill: #b6bf56;
      }

      .st3 {
        fill: #6f929b;
      }
    </style>
  </defs>
  <path class="st2" d="M0,73.09h637.08s-.79-23.63,10.25-23.63,21.29,23.63,21.29,23.63c0,0,9.46-49.65,25.23-48.86,15.77.79,7.89,54.41,7.89,54.41,0,0,326.91,3.71,389.92,0,63.01-3.71,139.26-11.59,139.26-11.59,0,0,3.23-24.79,15.09-23.72,11.86,1.08,15.09,19.4,15.09,19.4,0,0,170.78-17.72,290-17.72s320.61,16.11,356.06,14.5c35.44-1.61,30.1-2.5,30.1-2.5,0,0,1.78-25.84,12.47-25.84s14.26,21.08,14.26,21.08h67.71s5.35-43.36,18.71-43.36,13.36,42.77,13.36,42.77c0,0,81.98,4.72,175.51,3.83s172.8-.89,172.8-.89c0,0-4.45-39.19,10.69-39.19s22.27,32.96,22.27,32.96c0,0,16.03-27.61,28.5-25.83,12.47,1.78-1.78,28.5,3.56,34.74,0,0,338.03-5.72,399.49-3.89,61.46,1.83,133.01,4.59,133.01,4.59,0,0-10.09-41.28,0-42.2,10.09-.92,33.02,34.86,33.02,34.86,0,0,11.01-54.12,28.44-50.45,17.43,3.67,0,51.37,0,51.37,0,0,14.68-22.02,21.1-21.1,6.42.92,0,25.69,0,25.69,0,0,82.79-1.67,137.82,1.67,55.03,3.34,85.04,3.34,85.04,3.34,0,0,4.75-22.1,14.02-21.39,9.27.71,10.69,21.39,10.69,21.39,0,0,76.13-3.01,116.24-1.5v637.18H0V73.09Z"/>
  <g>
    <path class="st1" d="M1693.72,601.5c-2.6-14.85-10.82-28.64-22.63-38"/>
    <path class="st1" d="M1712.15,603.79v-77.15"/>
    <path class="st1" d="M1735.77,599.5c-.97-12.97.45-26.12,4.16-38.59"/>
    <path class="st1" d="M1758.97,601.75c-.43-20.06,9.6-40.05,25.94-51.69"/>
  </g>
  <g>
    <path class="st1" d="M2416.3,414.46c13.43,3.65,24.82,14.11,29.6,27.18"/>
    <path class="st1" d="M2461.78,407.05v34.49"/>
    <path class="st1" d="M2508.99,412.34c-12.77,2.31-22.21,16.16-19.71,28.89"/>
  </g>
  <path class="st0" d="M2132.75,545.8c21.02-9.93,57.11-25.07,103.58-4.74,46.46,20.33-.97,53.24-58.08,44.53s-74.95-25.86-45.5-39.78Z"/>
  <path class="st0" d="M2320.26,565.1c-26.32-.91-46.97-27.04-14.94-29.18s52.66,1.42,51.95,14.59-16.37,15.3-37.01,14.59Z"/>
  <path class="st3" d="M1537.62,607.1s-72.72,1.05-89.44,0c0,0,11.57-12.63,3.22-13.91-8.36-1.29-14.15,14.38-14.15,14.38h-16.72s14.79-33.03,5.79-33.03-14.79,33.03-14.79,33.03c0,0-25.72.23-38.58,0s-33.44-3.45-45.01-4.09-8.36-18.01-3.86-28.94c4.5-10.93,15.43-30.22,18.65-37.94,3.22-7.72,9-39.23,19.93-43.08s72.66,3.86,98.39,3.22,42.44,14.79,50.16,35.37c7.72,20.58,30.34,35.54,26.42,75Z"/>
  <path class="st0" d="M921.54,460.46c39.1-31.53,90.99-29.04,132.61-19.36,41.62,9.68,42.59,56.14-52.27,61.95-94.86,5.81-110.35-18.39-80.34-42.59Z"/>
  <path class="st0" d="M1088.03,503.93c21.02-9.93,57.11-25.07,103.58-4.74,46.46,20.33-.97,53.24-58.08,44.53s-74.95-25.86-45.5-39.78Z"/>
  <path class="st0" d="M994.39,536.94c34.19-4.64,85.95-4.84,79.63,16.46-6.32,21.3-60.02,21.3-79.63,11.62-19.61-9.68-26.92-24.42,0-28.07Z"/>
</svg>