<?xml version="1.0" encoding="UTF-8"?>
<svg id="Capa_1" xmlns="http://www.w3.org/2000/svg" width="3460.69" height="817.76" version="1.1" viewBox="0 0 3460.69 817.76">
  <!-- Generator: Adobe Illustrator 29.4.0, SVG Export Plug-In . SVG Version: 2.1.0 Build 152)  -->
  <defs>
    <style>
      .st0 {
        fill: #bfc6d1;
      }

      .st1 {
        fill: #7f9aa0;
      }
    </style>
  </defs>
  <path class="st0" d="M1056.88,436.14s-15.1-283.23-62.47-283.23-58.57,96-58.57,96c0,0-5.6-138.3-69.45-149.65-50.77-9.02-79.78,115.25-83.57,171.67s-15.14,207.08-15.14,207.08l289.19-41.87Z"/>
  <path class="st0" d="M2832.46,255.75S2850.93-7.53,2929.46.17s95.46,209.4,95.46,209.4c0,0,10.78-101.62,92.38-98.54s92.38,126.25,92.38,126.25c0,0,0-165.14,40.03-164.17s40.03,227.3,40.03,227.3c0,0,0-49.27,41.57-46.19,41.57,3.08,50.81,227.87,50.81,227.87l-532.29-25.22-17.37-201.11Z"/>
  <path class="st1" d="M0,136.29c57.74-18.33,114.21-42.53,134.38-22.37s90.75,229.91,145.2,231.92,42.35-82.69,88.74-84.7,141.17-8.07,163.35,14.12,112.94,155.29,112.94,155.29l724-66.55s80.67-155.29,104.87-167.39,165.37,2.02,165.37,2.02l284.36,100.84s64.54-16.13,104.87-16.13,10.08-102.85,42.35-104.87,78.65-4.03,108.9-2.02,44.37,123.02,92.77,123.02,116.97,4.48,153.27-31.04c36.3-35.52,74.62-190.8,135.12-200.89s171.42-20.17,193.61-6.05c22.18,14.12,121,248.06,209.74,296.46,88.74,48.4,90.75,26.22,108.9-2.02,18.15-28.23,28.23-36.3,72.6-38.32s125.04,4.03,153.27,22.18c28.23,18.15,22.18,112.94,66.55,116.97s95.53-32.27,95.53-32.27v393.26H0V136.29Z"/>
</svg>