<?xml version="1.0" encoding="UTF-8"?>
<svg id="Capa_1" xmlns="http://www.w3.org/2000/svg" width="3240.41" height="915.11" version="1.1" viewBox="0 0 3240.41 915.11">
  <!-- Generator: Adobe Illustrator 29.4.0, SVG Export Plug-In . SVG Version: 2.1.0 Build 152)  -->
  <defs>
    <style>
      .st0 {
        fill: #ceb33e;
      }

      .st1 {
        fill: #bca33b;
      }

      .st2 {
        fill: #415256;
      }

      .st3 {
        fill: #a08d3a;
      }

      .st4 {
        fill: #c9d67c;
      }

      .st5 {
        fill: #8c7a2d;
      }

      .st6 {
        fill: none;
        stroke: #ddc55f;
        stroke-linecap: round;
        stroke-linejoin: round;
        stroke-width: 4px;
      }
    </style>
  </defs>
  <path class="st4" d="M0,587.63s188.1-17.87,423.86-120.7c235.76-102.83,398.78-245.79,594.41-238.27s514.15,223.22,702.26,255.82c188.1,32.6,595.5-125.4,884.64-95.31s437.11,260.84,635.24,268.36v257.56H0v-327.48Z"/>
  <path class="st2" d="M1100.31,417.51c-2.47,9.75-11.52,31.96-7.4,38.54s43.6,7.4,45.25,0-4.94-52.1-4.94-52.1l-32.91,13.56Z"/>
  <path class="st2" d="M927.55,474.97c0,9.05-4.94,37.84,0,41.96,4.94,4.11,32.08,4.94,41.13,0s0-47.71,0-47.71l-41.13,5.76Z"/>
  <path class="st2" d="M835.41,334.73s-9.05,30-9.05,48.93,23.86,8.15,36.2,7.78,0-51.38,0-51.38l-27.15-5.32Z"/>
  <path class="st2" d="M999.12,290.69s3.29,25.5,0,37.84,28.79,16.5,28.79,6.19-7.93-48.15-7.93-48.15l-20.86,4.11Z"/>
  <path class="st2" d="M1231.93,321.96s-6.58,32.99-4.94,42.82,38.67,5.8,39.49,0-5.76-48.08-5.76-48.08l-28.79,5.26Z"/>
  <path class="st2" d="M1275.87,422.49s-3.77,40.77,0,38.81,34.21-1.96,35.86-6.07-5.17-32.74-5.17-32.74h-30.68Z"/>
  <path class="st2" d="M419.96,499.33s0,25.82,3.29,34.87c3.29,9.05,31.26.82,38.67,0,7.4-.82-13.99-43.6-13.99-43.6l-27.97,8.73Z"/>
  <path class="st2" d="M331.11,499.65s4.94,19.74,4.94,26.33-29.62,8.23-29.62,3.29,3.29-29.62,3.29-29.62h21.39Z"/>
  <path class="st1" d="M884.65,475.42c-9.97,14.34,90.02,22.84,122.27,8.06,32.25-14.78-4.45-49.71-11.63-88.68s-11.58-87.34-42.97-76.59-46.17,126.3-67.67,157.2Z"/>
  <path class="st0" d="M1059.74,413.83c1.31,11.25,107.49,11.84,119.58,0s-17.96-70.9-18.81-106.54-7.88-101.47-39.55-96.09-39.73,79.21-42.41,105.44-21.5,74.09-18.81,97.19Z"/>
  <path class="st0" d="M894.05,349.12c4.95-30.97,22.79-158.55-10.1-158.55s-59.77,115.55-69.17,137.05,77.32,33.7,79.27,21.5Z"/>
  <path class="st3" d="M977.36,283.28c0,17.47,67.18,26.92,72.56,14.13s10.75-102.81-17.47-106.84-55.09,92.71-55.09,92.71Z"/>
  <path class="st5" d="M1204.37,323.6c1.6,13.9,82.49,13.61,95.66,5.55s6.45-169.58-20.42-170.11-79.27,129.44-75.24,164.56Z"/>
  <path class="st1" d="M1255.48,418.98c1.71,11.97,44.5,20.15,68.6,20.15s2.61-96.74-14.86-95.4-56.43,56.43-53.74,75.24Z"/>
  <path class="st0" d="M400.94,513.04c13.83.35,63.15-2.01,80.62-21.83,17.47-19.82-68.52-177.02-88.68-168.96s-21.62,190.05,8.06,190.79Z"/>
  <path class="st1" d="M288.83,508.45c5.99,11.27,53,9.41,61.06,0s-4.44-85.11-28.42-86.22-42.45,67.76-32.64,86.22Z"/>
  <path class="st2" d="M2470.24,339.55c0,25.58-7.1,107.26,5.68,116.15,12.79,8.89,60.67-.96,55.91-10.96s-23.23-113.71-23.23-113.71l-38.36,8.52Z"/>
  <path class="st2" d="M2660.29,332.47s-24.82,38.09-23.78,60.83,74.93,40.48,87.72,38,0-84.89,0-84.89l-63.94-13.94Z"/>
  <path class="st2" d="M2558.93,157.75s2.04,43.14-4.09,52.83c-6.12,9.69-47.81,14.54-47.81,14.54l6.3,24.24s56.23-14.54,63.5-36.35,0-47.99,0-47.99l-17.91-7.27Z"/>
  <path class="st0" d="M2434.84,347.48c16.06,13.09,94.33,11.93,119.27,0,24.94-11.93-53.13-219.35-88.91-212.52-35.78,6.84-59.64,188.66-30.36,212.52Z"/>
  <path class="st1" d="M2535.03,165.95c9.91,15.58,48.79,21.69,65.06,0S2572.98-3.2,2535.03.05s-15.18,142.04,0,165.89Z"/>
  <path class="st5" d="M2605.16,322.49c1.33,22.99,145.46,59.64,170.4,58.55s-2.17-143.12-53.13-148.55-118.52,68.31-117.27,90Z"/>
  <path class="st6" d="M984.93,421.51c3.51,12.37,4.9,25.34,4.09,38.18"/>
  <path class="st6" d="M957.83,415.59c-3.74,8.43-5.62,17.67-5.49,26.89"/>
  <path class="st6" d="M938.81,388.32c.48,10.15-.75,20.38-3.63,30.12"/>
  <path class="st6" d="M961.06,351.92c.6,11.18,1.2,22.35,1.8,33.53"/>
  <path class="st6" d="M922.72,440.53c-1.47,10.49-2.2,21.08-2.2,31.66"/>
  <path class="st6" d="M850.15,296.86c-2.16,1.25-2.73,4.06-3.08,6.54-.77,5.47-1.54,10.94-2.32,16.4"/>
  <path class="st6" d="M883.55,282.88c.39,8.9.62,18.45-4.16,25.97"/>
  <path class="st6" d="M870.44,244.64c-4.48,9.8-7.98,20.05-10.41,30.55"/>
  <path class="st6" d="M887.98,216.28c0,5.75,0,11.5,0,17.25"/>
  <path class="st6" d="M1010.51,250.19c-1.35,2.21-1.66,4.88-1.9,7.46-.62,6.8-.91,13.63-.84,20.46"/>
  <path class="st6" d="M1030.8,232.09c0,7.99,0,15.97,0,23.96"/>
  <path class="st6" d="M1021.67,212.38c-2.13.83-2.99,3.33-3.57,5.55-1.06,4.04-2.01,8.11-2.87,12.2"/>
  <path class="st6" d="M1095.2,357.19c-.96,11.83-.43,23.78,1.55,35.48"/>
  <path class="st6" d="M1136.96,349.05c.71,8.12,1.14,16.27,1.3,24.42"/>
  <path class="st6" d="M1115.37,295.72c-.91,2.1-1.01,4.46-1.1,6.75-.43,11.79-.83,23.84,2.64,35.1"/>
  <path class="st6" d="M1136.71,256.54v27.8"/>
  <path class="st6" d="M1118.5,230.58c-1.4-.03-2.31,1.44-2.9,2.71-3.54,7.53-7.15,15.4-6.99,23.72"/>
  <path class="st6" d="M1156.61,369.13c.48,8.1.9,16.2,1.26,24.3.09,2.04.13,4.24-1.02,5.92"/>
  <path class="st6" d="M1239.58,276.69c-.96,11.63-1.28,23.3-.97,34.96"/>
  <path class="st6" d="M1284.65,269.97c1.02,10.41.3,20.99-2.12,31.17"/>
  <path class="st6" d="M1264.85,240.28c1.29,9.23,1.88,18.56,1.78,27.89-.03,2.6-.14,5.32-1.44,7.57"/>
  <path class="st6" d="M1270.84,185.35c-1.28.7-1.66,2.31-1.92,3.75-.62,3.41-1.23,6.81-1.85,10.22-.96,5.29-1.92,10.65-1.41,16"/>
  <path class="st6" d="M1287.62,214.36c.19,8.79.14,17.58-.14,26.37"/>
  <path class="st6" d="M1289.88,386.21c-5.77,8.77-6.17,19.91-6.07,30.41"/>
  <path class="st6" d="M1308.84,367.7c1.12,6.97,1.44,14.07.96,21.11"/>
  <path class="st6" d="M1319.11,401.29c1.27,7.55-.47,15.57-4.77,21.91"/>
  <path class="st6" d="M404.46,459.55c.18,4.86.94,9.7,2.28,14.37,1.67,5.85,4.26,11.44,7.64,16.5"/>
  <path class="st6" d="M427.54,447.36c3.37,7.58,5.6,15.67,6.59,23.91"/>
  <path class="st6" d="M458,451.57c6.63,7.92,6.63,19.27,6.3,29.6"/>
  <path class="st6" d="M400.84,393.62c-1.28,12.67-.32,25.56,2.81,37.91"/>
  <path class="st6" d="M427.59,398.35l4.61,7.79c3.04,5.14,6.2,10.82,5.26,16.72"/>
  <path class="st6" d="M398.74,345.4c2.25,11.68,5.31,23.2,9.15,34.46"/>
  <path class="st6" d="M318.31,460.08c-1.21,1-1.3,2.79-1.3,4.36.02,9.25.04,18.49.05,27.74"/>
  <path class="st6" d="M329.69,442.06c2.38,6.88,3.7,14.12,3.88,21.4"/>
  <path class="st6" d="M302.69,479.78v24.16"/>
  <path class="st6" d="M2463.51,270.26c-1.69,16.59.15,33.52,5.38,49.35"/>
  <path class="st6" d="M2501.39,258.23c.62,13.66,2.1,27.27,4.43,40.74"/>
  <path class="st6" d="M2470.14,204.21c2.48,17.21,4.96,34.41,7.44,51.62"/>
  <path class="st6" d="M2479.33,170.77c3.46,10.73,6.93,21.45,10.39,32.18"/>
  <path class="st6" d="M2574.99,121.25c1.5,11.64,1.74,23.45.69,35.14"/>
  <path class="st6" d="M2544.48,88.4c.71,11.87,2.73,23.67,6,35.1"/>
  <path class="st6" d="M2544.34,26.52c7.55,11.29,13.24,23.82,16.76,36.94"/>
  <path class="st6" d="M2712.66,301.85c1.44,16.11.2,32.46-3.65,48.17"/>
  <path class="st6" d="M2749.94,323.04c.31,10.23.62,20.46.93,30.7"/>
  <path class="st6" d="M2676.37,271.86c-3.32-1.11-6.28,2.3-8.13,5.27-5.66,9.09-11.43,18.45-13.37,28.98"/>
  <path class="st6" d="M2717.67,256.27c-11.75,9.8-19.29,24.49-20.41,39.75"/>
  <path class="st6" d="M2736.27,292.33c0,9.26,0,18.52,0,27.78"/>
  <path class="st6" d="M2672.67,314.99v24.85"/>
</svg>