<?xml version="1.0" encoding="UTF-8"?>
<svg id="Capa_1" xmlns="http://www.w3.org/2000/svg" width="3348.25" height="1461.38" xmlns:xlink="http://www.w3.org/1999/xlink" version="1.1" viewBox="0 0 3348.25 1461.38">
  <!-- Generator: Adobe Illustrator 29.4.0, SVG Export Plug-In . SVG Version: 2.1.0 Build 152)  -->
  <defs>
    <style>
      .st0, .st1, .st2, .st3, .st4, .st5, .st6, .st7, .st8 {
        fill: none;
      }

      .st1 {
        stroke: #4a705e;
        stroke-width: 7.44px;
      }

      .st1, .st4, .st7, .st8 {
        stroke-linecap: round;
        stroke-linejoin: round;
      }

      .st2 {
        stroke: #2e4144;
      }

      .st2, .st3, .st4, .st6, .st7, .st8 {
        stroke-width: 5px;
      }

      .st2, .st3, .st5, .st6 {
        stroke-miterlimit: 10;
      }

      .st9 {
        fill: #ceb33e;
      }

      .st3 {
        stroke: #305442;
      }

      .st10 {
        fill: #d87544;
      }

      .st11 {
        fill: #4a707c;
      }

      .st12 {
        fill: #74aa90;
      }

      .st4 {
        stroke: #99a040;
      }

      .st13 {
        fill: #415256;
      }

      .st14 {
        clip-path: url(#clippath-1);
      }

      .st15 {
        clip-path: url(#clippath-3);
      }

      .st16 {
        clip-path: url(#clippath-2);
      }

      .st17 {
        fill: #cd6262;
      }

      .st18 {
        fill: #a08d3a;
      }

      .st19 {
        fill: #6f929b;
      }

      .st5 {
        stroke-width: 4.59px;
      }

      .st5, .st6 {
        stroke: #af4545;
      }

      .st20 {
        fill: #4a705e;
      }

      .st7 {
        stroke: #4a6d6a;
      }

      .st21 {
        fill: #6b8e7e;
      }

      .st22 {
        clip-path: url(#clippath);
      }

      .st8 {
        stroke: #ddc55f;
      }
    </style>
    <clipPath id="clippath">
      <path class="st0" d="M1370.43,960.5s146.68,38.26,240.22,44.64,325.25,0,325.25,0c0,0-29.76-291.24-29.76-369.89s-6.38-110.54,53.15-123.3c59.52-12.75,99.91-27.64,114.79-72.28,14.88-44.64,25.51-138.18,25.51-138.18l-99.91-44.64s-4.25,110.54-65.9,119.05-178.57,17.01-187.07-19.13,10.63-184.95,10.63-184.95l-70.15-104.16-61.65,89.28s21.26,199.83-10.63,206.2-95.66-46.77-125.42-57.4-36.14-153.06-36.14-153.06l-82.91,14.88s19.13,201.95,95.66,265.73,83.14,75.61,80.9,117.52-176.56,409.68-176.56,409.68h0Z"/>
    </clipPath>
    <clipPath id="clippath-1">
      <path class="st0" d="M997.58,0s56.07,296.1,278.09,280.4,242.21-87.46,242.21-87.46c0,0,8.97,112.13,76.25,109.89s87.46-87.46,87.46-87.46c0,0,37.1,113.6,170.44,112.13s100.92-163.74,100.92-163.74c0,0-11.21,251.21,163.71,251.21s168.2-244.45,168.2-244.45c0,0,11.21,78.49,100.92,60.55,89.71-17.94,85.22-145.77,85.22-145.77,0,0,125.59,15.55,165.96-85.29H997.58Z"/>
    </clipPath>
    <clipPath id="clippath-2">
      <path class="st0" d="M593.7,1158.72h90.39s-31.62-31.67-14.25-37.8,32.69,18.9,32.69,18.9c0,0-6.13-32.18,19.41-32.18s9.19,31.67,9.19,31.67c0,0,26.56-26.56,36.78-13.28s-21.45,32.69-21.45,32.69h145.08s-119.21-500.1-130.05-565.13,36.13-102.96,110.18-130.05,153.53-37.93,155.34-93.93-29.43-162.13-29.43-162.13l-28.38,8.6s19.87,84.9,3.61,95.73-61.41-86.7-61.41-86.7l-41.54-17.63s65.03,104.33,61.41,138.65-101.15,61.82-144.5,63.42-46.96-153.74-46.96-153.74l-184.24,7.23s19.87,260.55,12.64,274.78-34.32,5.19-88.51-47.19-55.99-242.04-55.99-242.04l-70.44,5.42s46.96,218.56,61.41,263.72,115.6,101.15,148.11,151.73,30.91,489.26,30.91,489.26h0Z"/>
    </clipPath>
    <clipPath id="clippath-3">
      <path class="st0" d="M57.21,0S-48.47,158.01,27.44,207.48c0,0-23.39,245.76,108.45,252.14,131.84,6.38,112.7-237.1,112.7-237.1,0,0,44.66,98.88,165.87,92.5s110.58-70.17,110.58-70.17c0,0-2.13,187.13,57.41,187.13s61.67-107.28,61.67-107.28c0,0,85.06,62.84,155.23,0s70.51-117.22,70.51-117.22c0,0,48.57,109.67,208.06,48s136.09-150.98,136.09-150.98c0,0,159.49,56.8,167.99-104.5H57.21Z"/>
    </clipPath>
  </defs>
  <g>
    <path class="st13" d="M1370.43,960.5s146.68,38.26,240.22,44.64,325.25,0,325.25,0c0,0-29.76-291.24-29.76-369.89s-6.38-110.54,53.15-123.3c59.52-12.75,99.91-27.64,114.79-72.28,14.88-44.64,25.51-138.18,25.51-138.18l-99.91-44.64s-4.25,110.54-65.9,119.05-178.57,17.01-187.07-19.13,10.63-184.95,10.63-184.95l-70.15-104.16-61.65,89.28s21.26,199.83-10.63,206.2-95.66-46.77-125.42-57.4-36.14-153.06-36.14-153.06l-82.91,14.88s19.13,201.95,95.66,265.73,83.14,75.61,80.9,117.52-176.56,409.68-176.56,409.68h0Z"/>
    <g class="st22">
      <g>
        <path class="st2" d="M1556.44,1049.35c-21.5-123.6,17.62-263.63,120.46-335.49,109.89-76.79,265.28-62.82,373.42-142.06,18.39-13.47,35.79-30.8,40.7-53.06"/>
        <path class="st2" d="M1446.28,762.79c-7.3-24.72,10.19-49.62,28.55-67.72,99.34-97.97,244.87-128.09,370.72-188.31,34.24-16.38,71.08-40.41,76.23-78.02,4.26-31.09-14.97-60.02-33.27-85.51"/>
        <path class="st2" d="M1542.83,332.28c-7.96,19.97,1.96,42.18,11.69,61.35,6.34,12.5,12.87,25.25,22.94,35.01s24.51,16.15,38.18,13.03c17.66-4.03,28.55-22.27,32.35-39.98,3.8-17.71,2.61-36.24,6.77-53.88,8.09-34.31,34.92-60.56,60.54-84.77,13.47-12.73,26.95-25.47,40.42-38.2"/>
      </g>
    </g>
  </g>
  <g>
    <path class="st17" d="M997.58,0s56.07,296.1,278.09,280.4,242.21-87.46,242.21-87.46c0,0,8.97,112.13,76.25,109.89s87.46-87.46,87.46-87.46c0,0,37.1,113.6,170.44,112.13s100.92-163.74,100.92-163.74c0,0-11.21,251.21,163.71,251.21s168.2-244.45,168.2-244.45c0,0,11.21,78.49,100.92,60.55s85.22-145.77,85.22-145.77c0,0,125.59,15.55,165.96-85.29H997.58Z"/>
    <g class="st14">
      <g>
        <path class="st6" d="M1498.23-30.43c12.79,37.56,37.28,71.65,70.89,92.73s76.47,28.21,114.13,15.74c22.45-7.43,42.33-21.27,64.71-28.9,34.86-11.89,74.94-7.39,106.29,11.95,23.51,14.5,41.53,36.27,63.06,53.58,58.44,46.97,143.42,57.28,212.29,27.65,68.87-29.63,119.4-97.15,130.62-171.28,5.67-37.49-.39-80.73-30.18-104.18"/>
        <path class="st5" d="M2625.6,115.28c-4.16-25.38-21.26-45.13-39.8-58.74-47.68-34.99-110.67-38.49-160.9-8.94-35.51,20.89-63.43,55.99-89.72,91.17-26.3,35.18-52.34,71.72-85.8,96.93s-76.39,37.67-113.23,20.31c-21.2-9.99-38.51-28.76-58.24-42.35-35.96-24.77-80.44-31.5-120.49-18.23-76.99,25.52-127.65,122.58-127.42,217.4"/>
        <path class="st6" d="M1316.27,326.28c60.92-53.09,76.27-152.97,149.93-186.2,18.05-8.14,38-11.22,57.77-12.2,27.72-1.37,60.38,4.21,73.19,28.83,6.63,12.74,6.26,27.85,5.71,42.2-1.35,34.79-2.85,69.87,2.85,104.22s19.23,68.38,44.04,92.8"/>
      </g>
    </g>
  </g>
  <path class="st18" d="M112.49,336.29s127.59,301.96,389.15,236.04c261.56-65.92,248.8-133.97,248.8-133.97,0,0-6.38,157.36,238.17,80.81,244.55-76.55,223.28-208.39,223.28-208.39,0,0,187.13-92.81,38.28-243.11l-982.43,9.19-174.37,93.56,19.14,165.87h-.02Z"/>
  <g>
    <path class="st20" d="M593.7,1158.72h90.39s-31.62-31.67-14.25-37.8,32.69,18.9,32.69,18.9c0,0-6.13-32.18,19.41-32.18s9.19,31.67,9.19,31.67c0,0,26.56-26.56,36.78-13.28s-21.45,32.69-21.45,32.69h145.08s-119.21-500.1-130.05-565.13,36.13-102.96,110.18-130.05,153.53-37.93,155.34-93.93-29.43-162.13-29.43-162.13l-28.38,8.6s19.87,84.9,3.61,95.73-61.41-86.7-61.41-86.7l-41.54-17.63s65.03,104.33,61.41,138.65-101.15,61.82-144.5,63.42-46.96-153.74-46.96-153.74l-184.24,7.23s19.87,260.55,12.64,274.78-34.32,5.19-88.51-47.19-55.99-242.04-55.99-242.04l-70.44,5.42s46.96,218.56,61.41,263.72,115.6,101.15,148.11,151.73,30.91,489.26,30.91,489.26h0Z"/>
    <g class="st16">
      <g>
        <path class="st3" d="M574.97,1148.18c-3.13-51.91,36.72-96.79,80.2-125.32,43.48-28.53,93.52-47.86,131.25-83.65,58.22-55.24,77.02-147.98,44.9-221.52"/>
        <path class="st3" d="M791.51,610.35c.89,31.9-22.48,59.02-46.52,80.01-24.04,20.99-51.32,40.92-63.26,70.51-5.72,14.18-7.45,29.94-4.93,45.02,1.5,8.97,4.75,18.12,11.64,24.05,10.18,8.76,25.65,8.18,38.21,3.44s23.52-12.96,35.72-18.58c20.12-9.26,42.73-11.12,64.81-12.83,7.08-.55,17.17,1.88,16.08,8.9"/>
        <path class="st3" d="M550.16,810.32c32.74-31.69,65.95-63.98,88.2-103.74s32.36-88.78,16.13-131.35c-6.61-17.32-17.3-33.02-22.35-50.86-13.76-48.59,17.12-98.31,51.63-135.18,22.91-24.48,50.05-51.5,47.96-84.97"/>
        <path class="st3" d="M822.48,362.99c-2.3,17.83-.6,36.16,4.92,53.27,3.57,11.06,10.53,23,22.05,24.56,7.42,1,14.58-2.69,21.16-6.27,31.36-17.05,62.72-34.09,94.08-51.14,17.25-9.38,34.79-18.87,53.96-23.15,19.17-4.28,40.52-2.76,56.57,8.55s24.8,33.86,16.57,51.69"/>
        <path class="st3" d="M393.44,466.98c-2.83,9.25,4.13,18.41,10.86,25.35,22.76,23.46,48.65,43.88,76.77,60.55,31.58,18.72,68.98,36.04,81.18,70.66,13.43,38.1-12.25,81.06-47.38,101.02"/>
      </g>
    </g>
  </g>
  <g>
    <path class="st9" d="M57.21,0S-48.47,158.01,27.44,207.48c0,0-23.39,245.76,108.45,252.14,131.84,6.38,112.7-237.1,112.7-237.1,0,0,44.66,98.88,165.87,92.5s110.58-70.17,110.58-70.17c0,0-2.13,187.13,57.41,187.13s61.67-107.28,61.67-107.28c0,0,85.06,62.84,155.23,0s70.51-117.22,70.51-117.22c0,0,48.57,109.67,208.06,48s136.09-150.98,136.09-150.98c0,0,159.49,56.8,167.99-104.5H57.21Z"/>
    <g class="st15">
      <g>
        <path class="st8" d="M221.3-36.13c32.24,56.32,72.05,115.21,133.92,134.81,64.65,20.48,134.01-8.05,193.61-40.42,91-49.42,177.59-109.71,276.74-139.59,99.14-29.89,217.84-23.01,291.77,49.51"/>
        <path class="st8" d="M57.27-13.23c-7.05,75.71,25.06,158.14,91.36,195.37,38.76,21.76,84.64,26.52,129.08,27.44,42.12.87,85.83-1.69,123.24-21.07,45.98-23.81,83.27-72.66,135.03-71.21,44.96,1.26,78.38,40.49,118.62,60.58,44.87,22.4,101.35,19.58,143.77-7.18,54.97-34.68,80.33-100.38,102.2-161.59l55.29-154.74"/>
        <path class="st8" d="M855.34,285.51c32.31,2.46,67.34,4.27,94.39-13.58,14.75-9.73,25.49-24.39,34.91-39.33,27.77-44.04,47.39-93.87,82.9-131.94,35.51-38.08,94.85-61.63,140.18-36.03,46.19,26.09,55.78,87.29,60.29,140.15"/>
      </g>
    </g>
  </g>
  <path class="st11" d="M197.79,1126.01c-5.98,37.86,46.4,31.13,114.99,32.72,68.59,1.58,131.13,10.09,131.13-16.36s-10.09-101.09-48.42-101.09-90.78,2.02-110.96,0-80.7,46.4-86.75,84.73h0Z"/>
  <path class="st19" d="M89.24,1278.05c136.87-3.11,235.68,15.55,231.38-7.78-4.3-23.33-36.96-80.88-55.63-90.21-18.66-9.33-18.66-59.1-118.21-63.77s-71.55,82.43-104.21,93.32c-32.66,10.89-35.77,40.44-35.77,57.55s82.43,10.89,82.43,10.89h.01Z"/>
  <path class="st20" d="M95.98,845s-34.41-88.48-7.65-113.92c26.76-25.44,7.65,113.92,7.65,113.92Z"/>
  <path class="st20" d="M66.56,908.79s53.88-58.43,85.99-41.94-85.99,41.94-85.99,41.94Z"/>
  <path class="st20" d="M64.93,985.84s-45.1-41.49-46.17-19.01,46.17,19.01,46.17,19.01Z"/>
  <g>
    <path class="st4" d="M1192.27,996.35c8.19,1.93,14.53,8.74,18.04,16.38s4.61,16.13,5.68,24.48"/>
    <path class="st4" d="M1240.46,972.5v58.69"/>
    <path class="st4" d="M1281.99,987.1c-13.64,14.84-20.16,35.95-17.27,55.89"/>
    <path class="st4" d="M1298.96,1005.28c-5.86,11.59-8.55,24.76-7.7,37.71"/>
  </g>
  <path class="st4" d="M657.26,1359.59c13.25,23.82,18.99,51.74,16.22,78.86"/>
  <path class="st4" d="M713.19,1369.51c-1.94,18.09-.14,36.57,5.26,53.95"/>
  <path class="st4" d="M756.81,1379.66c-10.98,11.71-17.07,27.88-16.52,43.93"/>
  <path class="st4" d="M644.23,1401.29c6.23,7.29,9.66,16.91,9.44,26.5"/>
  <path class="st4" d="M692.83,1358.55c-3.29,24.28-3.77,48.94-1.4,73.33"/>
  <path class="st4" d="M2151.26,1209.37c5.31-2.76,12.08-1.03,16.73,2.73s7.6,9.19,10.19,14.58c5.13,10.64,9.4,21.7,12.74,33.03"/>
  <path class="st4" d="M2205.76,1194.54v67"/>
  <path class="st4" d="M2256.67,1215.98c-16.75,9.8-35.34,22.27-37.59,41.55"/>
  <path class="st4" d="M1549.38,1183.37c7.67,10.72,13.72,22.61,17.87,35.12"/>
  <path class="st4" d="M1588.54,1187c-7.79,6.66-10.81,18.37-7.21,27.96"/>
  <path class="st4" d="M453.55,999.77c2.08,9.69,4.16,19.37,6.24,29.06"/>
  <path class="st4" d="M471.75,1003.5v19.43"/>
  <path class="st4" d="M500.46,1000.64c-8.8,4.23-14.24,14.53-12.77,24.18"/>
  <path class="st4" d="M3265.19,1295.41c9.97,15.11,14.35,33.82,12.13,51.79"/>
  <path class="st4" d="M3300.65,1303.6v45.76"/>
  <path class="st4" d="M3320.34,1347.06c-.94-12.49.07-25.23,4.12-37.08s11.26-22.77,21.29-30.26"/>
  <path class="st13" d="M3161.14,1133.12c61.87,0,95.62,7.5,116.24-9.37,20.62-16.87,106.87-153.74,52.5-155.61s-75.51,41.55-75.51,41.55c0,0,47.39-112.79-27.61-109.04s-35.62,117.03-35.62,117.03c0,0-50.51-80.22-91.87-47.66s61.87,163.11,61.87,163.11h0Z"/>
  <g>
    <path class="st12" d="M2166.4,925.77c12.61-13.77,70.9-67.07,122.9-23.09s40.97,119.61,0,127.49c-40.97,7.88-50.42-12.61-52,25.21s0,66.18-50.42,66.18-78.49-1.58-87.3-48.85,66.82-146.95,66.82-146.95h0Z"/>
    <path class="st21" d="M1827.85,1176.81c36.58,27.87,152.18,12.34,170.69-53.47,18.51-65.81-28.79-164.52-85.35-207.71-56.55-43.19-151.16-117.29-206.68-51.45-55.53,65.84-4.11,207.74,49.36,213.91s28.79,65.81,71.98,98.71h0Z"/>
    <path class="st7" d="M2047.08,1218.34c-34.33-16.96-67.1-49.97-94.21-77-68.38-68.19-136.34-139.25-179.97-225.41"/>
    <path class="st7" d="M2047.08,1218.34c7.49-30.6,19.98-63.72,36.14-90.76,36.88-61.68,81.95-118.47,133.64-168.41,14.18-13.7,29.6-27.31,48.59-32.6"/>
    <path class="st7" d="M1713.69,970.91c19.22,7.86,38.86,14.67,58.82,20.39,18.36,5.26,36.98,9.59,55.69,13.47"/>
    <path class="st7" d="M1873.96,1057.09c5.81-47.72,8.35-95.83,7.61-143.89"/>
    <path class="st7" d="M2201.34,981.08c24.73,17.3,56.23,24.64,86.06,20.04"/>
    <path class="st21" d="M2067.13,1103.17c25.06,28.21,100.84-9.96,111.87-39.9s62.07-76.63,48.85-170.17c-13.23-93.54,9.45-83.51,18.91-135.51,9.45-52-78.78-85.09-115.02-52s-24.91,67.75-32.15,102.42c-7.24,34.66-128.56,186.95-32.45,295.16h-.01Z"/>
    <path class="st7" d="M2181.64,756.19c-57.68,149.92-102.75,304.69-134.56,462.15"/>
    <path class="st7" d="M2153.71,830.08c-13.83-22.92-20.46-50.12-18.72-76.84"/>
    <path class="st7" d="M2128.3,912.1c25.57-3.12,50.16-13.9,69.79-30.6"/>
    <path class="st12" d="M1928.47,1077.45c38.44,45.06,127.63,25.21,157.57-15.76s53.87-118.17,13.54-141.81-62.17-50.5-74.89-96.12c-12.71-45.61-72.59-89.81-123.01-70.9s-34.66,155.99-11.03,192.23-7.88,78.78,37.82,132.36Z"/>
    <path class="st7" d="M1941.41,816.99c66.56,120.7,108.17,263.54,105.67,401.35"/>
    <path class="st7" d="M2018.61,1007.31c-6.09-.55-11.76-3.23-17.28-5.87-21.88-10.45-44.22-21.21-61.36-38.36"/>
    <path class="st7" d="M1973.01,883.64c1.78.31,3.01-1.68,3.68-3.35,9.4-23.55,14.3-48.89,14.38-74.25"/>
  </g>
  <path class="st10" d="M1259.63,1108.36c21.02-9.93,57.11-25.07,103.58-4.74,46.46,20.33-.97,53.24-58.08,44.53s-74.95-25.86-45.5-39.78h0Z"/>
  <path class="st10" d="M3200.6,1252.13c68.42,18.16,161.27-7.99,124.45-39.06-36.83-31.07-111.16-17.91-135-13.46-23.84,4.44-49.65,36.54,10.55,52.52Z"/>
  <path class="st10" d="M3141.72,1302.08c11.33-7.43,51.49-7.67,64.63-1.1s21.91,23-7.67,26.29c-29.58,3.29-88.73-4.38-56.96-25.19h0Z"/>
  <path class="st10" d="M1782,1264.48c-39.78,7.96-12.75,39.67,22.67,41.08,35.42,1.42,80.75-21.25,56.67-34s-51-12.75-79.33-7.08h-.01Z"/>
  <path class="st10" d="M1445.28,1085.04c-1.32,13.23,29.88,20.08,51.85,14.87s14.06-30.69-5.27-29.81c-19.33.88-44.82-2.64-46.58,14.94h0Z"/>
  <path class="st10" d="M1411.62,1134.21c16.92-12.66,49.25-7.91,56.28,5.27s-7.07,20.53-28.14,19.05c-21.07-1.48-45.76-11.14-28.14-24.33h0Z"/>
  <path class="st1" d="M163.78,776.38S1.55,882.55,85.27,1041.21"/>
</svg>