<?xml version="1.0" encoding="UTF-8"?>
<svg id="Capa_1" xmlns="http://www.w3.org/2000/svg" width="3460.69" height="1170.27" version="1.1" viewBox="0 0 3460.69 1170.27">
  <!-- Generator: Adobe Illustrator 29.4.0, SVG Export Plug-In . SVG Version: 2.1.0 Build 152)  -->
  <defs>
    <style>
      .st0 {
        fill: #99a040;
      }

      .st1 {
        fill: #b6bf56;
      }
    </style>
  </defs>
  <path class="st1" d="M0,179.11c80.84-11.2,366.38-34.55,723.09,17.84S1587.73-41.46,2118.91,5.06c531.19,46.53,635.88,201.62,953.81,221.01s387.97-29.12,387.97-29.12v973.32H0V179.11Z"/>
  <path class="st0" d="M0,800.99h639.94s-.79-23.63,10.25-23.63,21.29,23.63,21.29,23.63c0,0,9.46-49.65,25.23-48.86,15.77.79,7.89,54.41,7.89,54.41,0,0,326.91,3.71,389.92,0,63.01-3.71,139.26-11.59,139.26-11.59,0,0,3.23-24.79,15.09-23.72,11.86,1.07,15.09,19.4,15.09,19.4,0,0,170.78-17.72,290-17.72,119.22,0,320.61,16.11,356.06,14.5,35.45-1.61,30.1-2.5,30.1-2.5,0,0,1.78-25.84,12.47-25.84s14.26,21.08,14.26,21.08h67.71s5.35-43.36,18.71-43.36,13.36,42.77,13.36,42.77c0,0,81.98,4.72,175.51,3.83s172.8-.89,172.8-.89c0,0-4.45-39.19,10.69-39.19,15.14,0,22.27,32.96,22.27,32.96,0,0,16.03-27.61,28.5-25.83s-1.78,28.5,3.56,34.74c0,0,338.03-5.72,399.49-3.89,61.46,1.83,133.01,4.59,133.01,4.59,0,0-10.09-41.28,0-42.2,10.09-.92,33.02,34.86,33.02,34.86,0,0,11.01-54.12,28.44-50.45,17.43,3.67,0,51.37,0,51.37,0,0,14.68-22.02,21.1-21.1,6.42.92,0,25.69,0,25.69,0,0,82.79-1.67,137.82,1.67,55.03,3.34,85.04,3.34,85.04,3.34,0,0,4.75-22.1,14.02-21.39,9.27.71,10.69,21.39,10.69,21.39,0,0,77.99-3.01,118.1-1.5v382.71H0v-369.28h0Z"/>
</svg>