<?xml version="1.0" encoding="UTF-8"?>
<svg id="Capa_1" xmlns="http://www.w3.org/2000/svg" width="147.76" height="174.04" version="1.1" viewBox="0 0 147.76 174.04">
  <!-- Generator: Adobe Illustrator 29.4.0, SVG Export Plug-In . SVG Version: 2.1.0 Build 152)  -->
  <defs>
    <style>
      .st0 {
        fill: #8fc3d0;
      }

      .st1 {
        fill: #fff;
      }
    </style>
  </defs>
  <path class="st1" d="M73.88,174.04c-4.58,0-8.67-2.37-10.96-6.33l-4.54-7.86c-5.41-9.36-12.91-17.02-21.7-22.15C13.13,123.96-.91,98.48.05,71.23c.66-18.91,8.54-36.68,22.19-50.05C35.88,7.81,53.82.3,72.74,0c.38,0,.76,0,1.14,0,40.74,0,73.88,33.14,73.88,73.88,0,25.87-13.82,50.19-36.07,63.46-9.3,5.55-16.89,13.13-21.97,21.92l-4.88,8.46c-2.29,3.96-6.38,6.33-10.96,6.33Z"/>
  <path class="st0" d="M142.76,73.88c0-38.4-31.42-69.45-69.95-68.87C36.36,5.56,6.32,34.97,5.04,71.4c-.93,26.42,13.04,49.66,34.16,61.98,9.82,5.73,17.82,14.12,23.51,23.97l4.54,7.86c2.95,5.1,10.31,5.1,13.26,0l4.88-8.46c5.69-9.85,13.97-17.88,23.74-23.71,20.14-12.02,33.63-34.01,33.63-59.17Z"/>
  <g>
    <path class="st1" d="M39.88,62.78c3.11,0,5.64,1.08,7.58,3.23,1.94,2.16,2.92,4.81,2.92,7.95,0,2.83-.98,5.16-2.94,7-1.96,1.84-4.29,2.76-6.97,2.76-2.05,0-3.97-.45-5.75-1.35-1.78-.9-3.23-2.15-4.35-3.74-1.11-1.59-1.67-3.41-1.67-5.46,0-1.94.51-3.69,1.54-5.25,1.02-1.55,2.39-2.8,4.11-3.74,1.71-.94,3.56-1.4,5.54-1.4Z"/>
    <path class="st1" d="M73.38,62.78c3.11,0,5.63,1.08,7.58,3.23,1.94,2.16,2.92,4.81,2.92,7.95,0,2.83-.98,5.16-2.94,7-1.96,1.84-4.29,2.76-6.97,2.76-2.05,0-3.97-.45-5.75-1.35-1.78-.9-3.23-2.15-4.35-3.74s-1.67-3.41-1.67-5.46c0-1.94.51-3.69,1.54-5.25,1.02-1.55,2.39-2.8,4.11-3.74,1.71-.94,3.56-1.4,5.54-1.4Z"/>
    <path class="st1" d="M106.87,62.78c3.11,0,5.64,1.08,7.58,3.23,1.94,2.16,2.92,4.81,2.92,7.95,0,2.83-.98,5.16-2.94,7s-4.29,2.76-6.97,2.76c-2.05,0-3.97-.45-5.75-1.35-1.79-.9-3.23-2.15-4.35-3.74-1.11-1.59-1.67-3.41-1.67-5.46,0-1.94.51-3.69,1.54-5.25,1.02-1.55,2.39-2.8,4.11-3.74,1.71-.94,3.56-1.4,5.54-1.4Z"/>
  </g>
</svg>