<?xml version="1.0" encoding="UTF-8"?>
<svg id="Capa_1" xmlns="http://www.w3.org/2000/svg" width="279.06" height="279.06" xmlns:xlink="http://www.w3.org/1999/xlink" version="1.1" viewBox="0 0 279.06 279.06">
  <!-- Generator: Adobe Illustrator 29.4.0, SVG Export Plug-In . SVG Version: 2.1.0 Build 152)  -->
  <defs>
    <style>
      .st0 {
        fill: #415256;
      }

      .st1 {
        fill: #fff;
      }

      .st2 {
        fill: none;
        stroke: #5f7d82;
        stroke-miterlimit: 10;
        stroke-width: 6px;
      }

      .st3 {
        clip-path: url(#clippath);
      }
    </style>
    <clipPath id="clippath">
      <circle class="st0" cx="139.53" cy="139.53" r="131.69"/>
    </clipPath>
  </defs>
  <g>
    <path class="st0" d="M139.53,275.22C64.71,275.22,3.84,214.35,3.84,139.53S64.71,3.84,139.53,3.84s135.69,60.87,135.69,135.69-60.87,135.69-135.69,135.69Z"/>
    <path class="st1" d="M139.53,7.83c72.73,0,131.69,58.96,131.69,131.69s-58.96,131.69-131.69,131.69S7.84,212.26,7.84,139.53,66.8,7.83,139.53,7.83M139.53-.17C102.22-.17,67.14,14.37,40.75,40.75,14.37,67.14-.16,102.22-.16,139.53s14.53,72.39,40.92,98.78c26.38,26.38,61.47,40.92,98.78,40.92s72.39-14.53,98.78-40.92c26.38-26.38,40.92-61.47,40.92-98.78s-14.53-72.39-40.92-98.78C211.92,14.37,176.84-.17,139.53-.17h0Z"/>
  </g>
  <g>
    <circle class="st0" cx="139.53" cy="139.53" r="131.69"/>
    <g class="st3">
      <path class="st2" d="M115.19-20.5c-1.06,12.09-1.83,24.18.15,36.11,6.15,39.81,37.15,71.41,72.96,87.42,20.33,9.69,43.33,14,63.13,24.39,29.3,15.68,40.44,39.62,43.18,71.72"/>
      <path class="st2" d="M7.84,88.62c1.13,14.96,2.68,29.88,7.21,44.15,10.92,35.49,36.32,66.36,69.43,83.32,44.01,23.08,98.62,21.76,139.3,52.47,33.94,24.5,43.62,70.86,15.34,103.59-9.8,11.42-23.2,18.16-36.91,24.27"/>
    </g>
  </g>
  <path class="st1" d="M152.91,167.98c-4.43,0-8.41-.06-11.93-.2-3.52-.13-6.89-.29-10.12-.49-3.23-.2-6.7-.49-10.41-.88,0-8.73,1.74-16.55,5.23-23.46,3.49-6.91,8.42-13.23,14.81-18.97,3.58-3.19,6.45-6.26,8.6-9.19,2.15-2.93,3.23-5.9,3.23-8.9,0-3.72-1.22-6.58-3.67-8.6-2.44-2.02-5.75-3.03-9.92-3.03-3.26,0-6.19.51-8.8,1.52-2.61,1.01-4.94,2.43-6.99,4.25-2.05,1.83-3.85,4.04-5.38,6.65-1.53,2.61-2.88,5.54-4.06,8.8l-24.73-14.18c1.63-7.36,4.92-13.59,9.87-18.67,4.95-5.08,10.97-8.95,18.04-11.59,7.07-2.64,14.55-3.96,22.44-3.96,8.54,0,16.21,1.29,23.02,3.86,6.81,2.58,12.2,6.45,16.18,11.63,3.97,5.18,5.96,11.68,5.96,19.5,0,5.8-.75,10.71-2.25,14.71-1.5,4.01-3.47,7.46-5.91,10.36-2.44,2.9-5.07,5.59-7.87,8.07-2.54,2.22-4.97,4.92-7.28,8.11-2.31,3.19-4.2,6.83-5.67,10.9-1.47,4.07-2.27,8.65-2.39,13.74ZM138.83,211.97c-5.41,0-10.12-1.55-14.13-4.64-4.01-3.09-6.01-7.45-6.01-13.05,0-3.06.91-5.95,2.74-8.65,1.82-2.7,4.22-4.89,7.19-6.55,2.96-1.66,6.14-2.49,9.53-2.49,5.93,0,10.87,1.52,14.81,4.55,3.94,3.03,5.91,7.02,5.91,11.98,0,3.52-.93,6.71-2.79,9.58-1.86,2.87-4.3,5.13-7.33,6.79-3.03,1.66-6.34,2.49-9.92,2.49Z"/>
</svg>