<?xml version="1.0" encoding="UTF-8"?>
<svg id="Capa_1" xmlns="http://www.w3.org/2000/svg" width="198.79" height="220.01" xmlns:xlink="http://www.w3.org/1999/xlink" version="1.1" viewBox="0 0 198.79 220.01">
  <!-- Generator: Adobe Illustrator 29.4.0, SVG Export Plug-In . SVG Version: 2.1.0 Build 152)  -->
  <defs>
    <style>
      .st0 {
        fill: #415256;
      }

      .st1 {
        fill: #fff;
      }

      .st2 {
        fill: none;
        stroke: #5f7d82;
        stroke-miterlimit: 10;
        stroke-width: 6px;
      }

      .st3 {
        clip-path: url(#clippath);
      }
    </style>
    <clipPath id="clippath">
      <path class="st0" d="M19.2,129.94l136.73,78.94c15.35,8.86,34.54-2.22,34.54-19.94V31.06c0-17.73-19.19-28.8-34.54-19.94L19.2,90.06c-15.35,8.86-15.35,31.02,0,39.88Z"/>
    </clipPath>
  </defs>
  <g>
    <path class="st0" d="M167.42,216.01c-4.68,0-9.34-1.26-13.48-3.66L17.2,133.41c-8.46-4.89-13.51-13.64-13.51-23.41s5.05-18.52,13.51-23.4L153.94,7.66c4.14-2.39,8.8-3.66,13.48-3.66,14.92,0,27.06,12.14,27.06,27.06v157.89c0,7.45-2.93,14.36-8.25,19.46-5.04,4.83-11.89,7.6-18.81,7.6h0Z"/>
    <path class="st1" d="M167.42,8c12.03,0,23.06,9.62,23.06,23.06v157.89c0,13.44-11.03,23.06-23.06,23.06-3.83,0-7.77-.98-11.48-3.12L19.2,129.94c-15.35-8.86-15.35-31.02,0-39.88L155.94,11.12c3.71-2.14,7.64-3.12,11.48-3.12M167.42,0c-5.38,0-10.73,1.45-15.48,4.19L15.2,83.13C5.49,88.74-.31,98.79-.31,110s5.8,21.26,15.51,26.87l136.73,78.94c4.75,2.74,10.1,4.19,15.48,4.19,17.13,0,31.06-13.93,31.06-31.06V31.06c0-17.13-13.93-31.06-31.06-31.06h0Z"/>
  </g>
  <g>
    <path class="st0" d="M19.2,129.94l136.73,78.94c15.35,8.86,34.54-2.22,34.54-19.94V31.06c0-17.73-19.19-28.8-34.54-19.94L19.2,90.06c-15.35,8.86-15.35,31.02,0,39.88Z"/>
    <g class="st3">
      <path class="st2" d="M213.58,82.97c-9.08-4.24-18.77-8.3-28.7-6.05-23.03,5.07-30.89,34.52-18.21,53.01,10.44,16.45,30.71,20.73,48.82,23.21"/>
      <path class="st2" d="M199.74,46.36c-22.64,1.11-47.3,4.48-64.41,20.68-18.03,17.39-23.32,57.86-9.54,78.98,18.78,28.42,56.32,30.09,87.24,29.3"/>
      <path class="st2" d="M201.03,25.41c-9.18.14-18.4.37-27.45,2.06-30.18,5.93-61.96,27.8-79.6,53.4-17.69,26.28-10.93,57.52,10.31,79.47,27.19,27.55,65.77,39.4,102.28,49.14"/>
    </g>
  </g>
</svg>