<?xml version="1.0" encoding="UTF-8"?>
<svg id="Capa_1" xmlns="http://www.w3.org/2000/svg" width="310.56" height="299.49" xmlns:xlink="http://www.w3.org/1999/xlink" version="1.1" viewBox="0 0 310.56 299.49">
  <!-- Generator: Adobe Illustrator 29.4.0, SVG Export Plug-In . SVG Version: 2.1.0 Build 152)  -->
  <defs>
    <style>
      .st0 {
        fill: #e2c033;
      }

      .st1 {
        fill: #fff;
      }

      .st2 {
        fill: none;
        stroke: #f4da6e;
        stroke-linecap: round;
        stroke-miterlimit: 10;
        stroke-width: 6px;
      }

      .st3 {
        clip-path: url(#clippath);
      }
    </style>
    <clipPath id="clippath">
      <path class="st0" d="M180.2,22.91l26.83,47.32c4.08,7.2,11.07,12.28,19.18,13.93l53.3,10.9c21.8,4.46,30.41,30.97,15.4,47.39l-36.71,40.14c-5.58,6.1-8.25,14.32-7.32,22.54l6.1,54.06c2.5,22.11-20.06,38.49-40.31,29.29l-49.52-22.51c-7.53-3.42-16.17-3.42-23.7,0l-49.52,22.51c-20.25,9.21-42.81-7.18-40.31-29.29l6.1-54.06c.93-8.22-1.74-16.44-7.32-22.54l-36.71-40.14c-15.01-16.42-6.4-42.93,15.4-47.39l53.3-10.9c8.1-1.66,15.1-6.74,19.18-13.93l26.83-47.32c10.97-19.35,38.86-19.35,49.83,0Z"/>
    </clipPath>
  </defs>
  <g>
    <path class="st0" d="M228.53,295.09c-4.64,0-9.19-1-13.53-2.97l-49.52-22.51c-3.22-1.47-6.65-2.21-10.2-2.21s-6.97.74-10.2,2.21l-49.52,22.51c-4.34,1.97-8.89,2.97-13.53,2.97-9.25,0-18.14-4.01-24.4-11.01-6.23-6.97-9.07-15.97-8.01-25.34l6.1-54.06c.8-7.07-1.5-14.14-6.3-19.4l-36.71-40.14c-8.04-8.79-10.64-20.79-6.96-32.12,3.68-11.32,12.84-19.51,24.5-21.89l53.3-10.9c6.97-1.43,12.99-5.8,16.5-11.99l26.83-47.32c5.87-10.36,16.49-16.54,28.39-16.54s22.52,6.18,28.39,16.54l26.83,47.32c3.51,6.19,9.52,10.56,16.5,11.99l53.3,10.9c11.67,2.39,20.83,10.57,24.5,21.89s1.08,23.33-6.96,32.12l-36.71,40.14c-4.8,5.25-7.1,12.32-6.3,19.4l6.1,54.06c1.06,9.37-1.79,18.37-8.01,25.34-6.25,7-15.15,11.01-24.4,11.01h0Z"/>
    <path class="st1" d="M155.28,8.39c9.71,0,19.43,4.84,24.92,14.51l26.83,47.32c4.08,7.2,11.07,12.28,19.18,13.93l53.3,10.9c21.8,4.46,30.41,30.97,15.4,47.39l-36.71,40.14c-5.58,6.1-8.25,14.32-7.32,22.54l6.1,54.06c2.01,17.8-12.23,31.9-28.43,31.9-3.91,0-7.94-.82-11.88-2.61l-49.52-22.51c-3.77-1.71-7.81-2.57-11.85-2.57s-8.09.86-11.85,2.57l-49.52,22.51c-3.94,1.79-7.97,2.61-11.88,2.61-16.2,0-30.45-14.1-28.43-31.9l6.1-54.06c.93-8.22-1.74-16.44-7.32-22.54l-36.71-40.14c-15.01-16.42-6.4-42.93,15.4-47.39l53.3-10.9c8.1-1.66,15.1-6.74,19.18-13.93l26.83-47.32c5.49-9.68,15.2-14.51,24.92-14.51M155.28.39c-13.37,0-25.28,6.94-31.87,18.57l-26.83,47.32c-2.94,5.19-7.98,8.85-13.82,10.04l-53.3,10.9c-13.09,2.68-23.38,11.87-27.51,24.58-4.13,12.71-1.21,26.19,7.81,36.05l36.71,40.14c4.02,4.4,5.95,10.32,5.28,16.25l-6.1,54.06c-1.19,10.52,2.01,20.62,9,28.45,7.01,7.85,16.99,12.35,27.38,12.35,5.22,0,10.33-1.12,15.19-3.33l49.52-22.51c2.7-1.23,5.57-1.85,8.54-1.85s5.84.62,8.54,1.85l49.52,22.51c4.86,2.21,9.97,3.33,15.19,3.33,10.39,0,20.37-4.5,27.38-12.35,6.99-7.83,10.19-17.93,9.01-28.45l-6.1-54.06c-.67-5.93,1.26-11.85,5.28-16.25l36.71-40.14c9.02-9.86,11.94-23.34,7.81-36.05-4.13-12.71-14.41-21.9-27.51-24.58l-53.3-10.9c-5.84-1.19-10.88-4.85-13.82-10.04l-26.83-47.32C180.56,7.33,168.65.39,155.28.39h0Z"/>
  </g>
  <g>
    <path class="st0" d="M180.2,22.91l26.83,47.32c4.08,7.2,11.07,12.28,19.18,13.93l53.3,10.9c21.8,4.46,30.41,30.97,15.4,47.39l-36.71,40.14c-5.58,6.1-8.25,14.32-7.32,22.54l6.1,54.06c2.5,22.11-20.06,38.49-40.31,29.29l-49.52-22.51c-7.53-3.42-16.17-3.42-23.7,0l-49.52,22.51c-20.25,9.21-42.81-7.18-40.31-29.29l6.1-54.06c.93-8.22-1.74-16.44-7.32-22.54l-36.71-40.14c-15.01-16.42-6.4-42.93,15.4-47.39l53.3-10.9c8.1-1.66,15.1-6.74,19.18-13.93l26.83-47.32c10.97-19.35,38.86-19.35,49.83,0Z"/>
    <g class="st3">
      <path class="st2" d="M145.8,162.95c-10.73.56-19.5-12.6-14.85-22.29,6.12-9.1,20.36-10.75,29.08-4.11,8.72,6.64,11.21,19.79,6.53,29.7s-15.54,16.22-26.49,16.63c-12.22.45-24.44-6.2-30.7-16.7-6.26-10.5-6.3-24.41-.1-34.95,3.48-5.92,8.66-10.66,14.14-14.8,6.46-4.88,13.57-9.12,21.43-11.07,27.37-6.78,55.84,19.81,55.3,48.01-.54,28.19-25.1,52.39-52.8,57.65-28.69,5.45-61.46-9.27-71.97-36.51-2.75-7.14-3.97-14.79-4.28-22.44-1.41-35.2,18.86-71.31,51.26-85.13,32.4-13.82,74.78-1.64,92.01,29.09,9,16.06,10.96,35.1,10.91,53.51-.04,15.86-1.57,32.23-9.06,46.21-16.55,30.9-56.34,40.68-91.39,40.37-29.26-.26-60.38-6.22-81.41-26.56-26.22-25.36-29.69-68.47-14.39-101.58s46.15-56.94,79.53-71.66c27.93-12.31,60.83-18.88,88.6-6.22,27.96,12.74,44.42,41.85,56.25,70.21,5.58,13.37,10.59,27.14,12.27,41.53,4.6,39.34-17.31,78.79-49.45,101.95-32.14,23.16-72.93,31.74-112.54,31.47-27.36-.18-55.79-4.74-78.17-20.47-31.95-22.45-45.84-64.76-41.72-103.59C-12.11,112.37,7.55,76.73,31.45,45.85c12.55-16.21,26.73-31.73,44.73-41.54,16.02-8.73,34.18-12.48,51.96-16.58,22.96-5.3,46.71-11.38,69.8-6.64,13.75,2.82,26.47,9.38,38.22,17.07,50.1,32.77,85.62,92.79,75.82,151.85-2.27,13.66-6.8,26.83-11.42,39.88-4.52,12.76-9.18,25.56-15.98,37.26-20.94,36.06-60.46,58.23-101.11,67.55s-82.91,7.37-124.56,5.38"/>
    </g>
  </g>
</svg>