<?xml version="1.0" encoding="UTF-8"?>
<svg id="Capa_1" xmlns="http://www.w3.org/2000/svg" width="1313.77" height="1495.86" xmlns:xlink="http://www.w3.org/1999/xlink" version="1.1" viewBox="0 0 1313.77 1495.86">
  <!-- Generator: Adobe Illustrator 29.4.0, SVG Export Plug-In . SVG Version: 2.1.0 Build 152)  -->
  <defs>
    <style>
      .st0 {
        stroke: #2e4144;
        stroke-width: 6px;
      }

      .st0, .st1 {
        fill: none;
        stroke-miterlimit: 10;
      }

      .st2 {
        fill: #aa573a;
      }

      .st3 {
        fill: #e2a771;
      }

      .st4 {
        fill: #415256;
      }

      .st5 {
        clip-path: url(#clippath-1);
      }

      .st1 {
        stroke: #f4d6a6;
        stroke-width: 4px;
      }

      .st6 {
        fill: #ede2a2;
      }

      .st7 {
        clip-path: url(#clippath);
      }
    </style>
    <clipPath id="clippath">
      <path class="st4" d="M0,1495.86h328.16s-34.65-43.2-16.09-48.15,48.27,32.18,48.27,32.18c0,0,16.09-35.56,33.41-32.63s0,48.6,0,48.6h141.08s16.07-65.73,0-118.69c-16.07-52.96-70.54-132.42-170.79-176.97s-77.8-187.34-56.93-367.02c20.88-179.68,66.83-217.11,149.75-253s194.3-95.29,219.05-186.87,21.04-180.02,21.04-180.02h-99.01s6.19,139.18-22.28,175.07-117.57,77.97-179.45,96.53-85.39,27.23-99.01,21.04,1.24-142.32,1.24-142.32l-106.43,22.28s13.61,280.93-48.27,282.17-35.89-283.41-35.89-283.41l-107.87,1.24v1109.99Z"/>
    </clipPath>
    <clipPath id="clippath-1">
      <path class="st3" d="M.36,440.78s46.76,61.14,185.23,17.98,154.66-97.11,154.66-97.11c0,0-16.19,183.43,77.33,181.63s64.74-330.02,64.74-330.02c0,0,191.25,116.1,333.01-40.4,0,0-2.97,206.77,77.49,208.57s106.4-160.05,106.4-160.05c0,0,8.69,55.75,75,48.56s55.47-136.85,55.47-136.85c0,0,150.52,50.18,184.08-133.08H0l.36,440.78Z"/>
    </clipPath>
  </defs>
  <g>
    <path class="st4" d="M0,1495.86h328.16s-34.65-43.2-16.09-48.15,48.27,32.18,48.27,32.18c0,0,16.09-35.56,33.41-32.63s0,48.6,0,48.6h141.08s16.07-65.73,0-118.69c-16.07-52.96-70.54-132.42-170.79-176.97s-77.8-187.34-56.93-367.02c20.88-179.68,66.83-217.11,149.75-253s194.3-95.29,219.05-186.87,21.04-180.02,21.04-180.02h-99.01s6.19,139.18-22.28,175.07-117.57,77.97-179.45,96.53-85.39,27.23-99.01,21.04,1.24-142.32,1.24-142.32l-106.43,22.28s13.61,280.93-48.27,282.17-35.89-283.41-35.89-283.41l-107.87,1.24v1109.99Z"/>
    <g class="st7">
      <path class="st0" d="M616.11,229.23c-2.1,52.9,27.71,101.16,56.43,145.64,13.47,20.86,26.94,41.73,40.42,62.59"/>
      <path class="st0" d="M572.35,334.67c-4.99,29.69,7.66,59.23,20.4,86.52,10.37,22.23,21,44.34,31.88,66.33,7.02,14.19,14.31,28.56,25.22,40.03"/>
      <path class="st0" d="M-41.68,478.11c6.47,63.88,33.23,125.55,75.46,173.91,34.59,39.61,80.09,71.84,100.72,120.22,10.56,24.77,13.7,52.01,15.7,78.87,2.64,35.37,3.5,70.88,2.59,106.34-1.15,44.95-5.38,90.73-23.06,132.08-8.7,20.34-20.48,39.19-30.57,58.89-27.85,54.39-42.24,120.11-18.84,176.56,12.21,29.47,33.65,54.02,50.19,81.29,30.48,50.26,44.02,110.61,37.92,169.08"/>
      <path class="st0" d="M-48.13,733.7c15.99,48.8,62.07,80.34,93.28,121.12,31.46,41.11,47.75,92.08,55.57,143.26,4.61,30.18,6.37,61.69-3.24,90.67-9.09,27.44-27.7,50.63-47.34,71.84-35.39,38.19-78.56,73.56-130.17,80.41"/>
      <path class="st0" d="M326.8,456.01c-11.66,104.09-45.77,205.54-47.41,310.27-.68,43.33,4.83,88.43,27.99,125.06,26.8,42.4,73.17,67.63,117.53,91.04"/>
      <path class="st0" d="M342.25,1143.23c-6.96,66.36-.32,138.04,39.81,191.36,47.76,63.47,132.71,87.39,212.11,89.51"/>
      <path class="st0" d="M317.73,1112.39c-23.3,16.42-35.14,45.01-39.77,73.14-11.26,68.46,13.52,137.86,46.01,199.16,24.94,47.06,55.33,92.33,96.92,125.59,41.59,33.26,95.75,53.47,148.43,45.63"/>
    </g>
  </g>
  <g>
    <path class="st3" d="M.36,440.78s46.76,61.14,185.23,17.98,154.66-97.11,154.66-97.11c0,0-16.19,183.43,77.33,181.63s64.74-330.02,64.74-330.02c0,0,191.25,116.1,333.01-40.4,0,0-2.97,206.77,77.49,208.57s106.4-160.05,106.4-160.05c0,0,8.69,55.75,75,48.56s55.47-136.85,55.47-136.85c0,0,150.52,50.18,184.08-133.08H0l.36,440.78Z"/>
    <g class="st5">
      <path class="st1" d="M-49.62,101.18C-21.2,82.48,8.16,63.39,41.55,56.85c61.81-12.09,122.22,20.58,180.68,44,49.04,19.65,101.37,33.41,154.16,31.38,52.79-2.03,106.27-21.16,142.7-59.43,25.56-26.85,41.38-61.22,61.07-92.63,19.69-31.41,45.76-61.74,81.36-72.1"/>
      <path class="st1" d="M-104.01,240.32c121.43-26.94,248.41-53.84,368.75-22.42,60.47,15.79,116.73,45.83,177.86,58.8,61.13,12.97,133.03,4.58,172.76-43.66,23.28-28.27,31.82-65.44,41.78-100.68,23.27-82.3,64.69-168.4,143.04-202.69"/>
      <path class="st1" d="M1042.37-31.09c-75.46-11.86-150.37,35.31-193.83,98.13s-61.86,139.1-79.52,213.41c-6.25,26.29-12.7,53.07-26.66,76.21-20.96,34.73-56.72,57.8-93.19,75.56-60.76,29.58-129.02,47.96-195.99,38.87-44-5.97-85.46-23.42-127.31-38.24-78.98-27.96-162.53-47.1-246.12-41.4-83.59,5.7-167.57,38.4-223.36,100.9"/>
      <path class="st1" d="M789.58,332.48c99.29-15.74,181.18-90.61,230.81-178.04,32.85-57.85,56.42-124.77,109.69-164.62,31.91-23.87,71.25-35.27,109.96-44.76,55.26-13.54,111.25-24.14,167.64-31.74"/>
    </g>
  </g>
  <g>
    <path class="st6" d="M331.51,980.47c-5.9,8.8-32.75,53.24-58.41,51.46-25.66-1.78-56.23-44.91-57.32-53.64s92.8-10.37,103.72-10.37,19.49,1.4,12.01,12.56Z"/>
    <path class="st2" d="M349.26,962.33c-.54,7.77,2.69,15.87-77.84,18.86-80.53,2.99-74.85-1.11-62.57-13.28,12.27-12.17,41.91-18.76,54.19-18.46s47.6-4.19,61.67-1.5c14.07,2.69,25.15,5.69,24.55,14.37Z"/>
    <path class="st6" d="M203.86,884.02c-2.24,4.28-36.23,48.2-53.89,47.9-17.66-.3-43.71-24.85-48.5-36.52-4.79-11.68-15.87-20.66,8.98-20.96s103.29-9.28,93.41,9.58Z"/>
    <path class="st2" d="M222.12,872.04c-4.55,6.68-10.18,14.67-55.98,13.77-45.81-.9-68.56,6.59-80.53,1.8-11.98-4.79-11.08-13.47,23.05-20.96s63.47-14.37,86.52-11.38c23.05,2.99,32.43,8.7,26.94,16.76Z"/>
    <path class="st6" d="M270.95,753.74c-3.85,7.52-41.31,41.61-58.38,41.31-17.06-.3-38.92-25.15-46.4-47-7.48-21.85,42.21-8.68,59.58-8.98,17.36-.3,51.79,1.8,45.21,14.67Z"/>
    <path class="st2" d="M288.91,754.34c-6.09,2.86-50.9,0-75.15,0-24.25,0-63.17,4.19-67.96-3.89-4.79-8.08,11.38-27.84,27.24-28.14,15.87-.3,33.27,5.99,43.88,5.99s19.89-8.08,43.84-2.4c23.95,5.69,37.72,23.95,28.14,28.44Z"/>
  </g>
</svg>