<?xml version="1.0" encoding="UTF-8"?>
<svg id="Capa_1" xmlns="http://www.w3.org/2000/svg" width="548.31" height="526.67" version="1.1" viewBox="0 0 548.31 526.67">
  <!-- Generator: Adobe Illustrator 29.4.0, SVG Export Plug-In . SVG Version: 2.1.0 Build 152)  -->
  <defs>
    <style>
      .st0 {
        fill: #ba321c;
      }
    </style>
  </defs>
  <path class="st0" d="M548.31,263.34c0,28.5-24.02,52.85-32.37,78.56-8.65,26.65-3.83,60.41-19.97,82.6-16.3,22.4-50.02,28.18-72.42,44.48-22.18,16.14-38,46.51-64.65,55.17-25.71,8.35-56.24-6.65-84.74-6.65s-59.03,15-84.74,6.65c-26.65-8.65-42.47-39.02-64.65-55.17-22.4-16.3-56.12-22.08-72.42-44.48-16.14-22.18-11.32-55.95-19.97-82.6S0,291.83,0,263.34s24.02-52.85,32.37-78.56,3.83-60.41,19.97-82.6c16.3-22.4,50.02-28.18,72.42-44.48S162.77,11.18,189.42,2.53s56.24,6.65,84.74,6.65,59.03-15,84.74-6.65c26.65,8.65,42.47,39.02,64.65,55.17,22.4,16.3,56.12,22.08,72.42,44.48,16.14,22.18,11.32,55.95,19.97,82.6s32.37,50.07,32.37,78.56Z"/>
</svg>