<?xml version="1.0" encoding="UTF-8"?>
<svg id="Capa_1" xmlns="http://www.w3.org/2000/svg" width="718.69" height="144.91" version="1.1" viewBox="0 0 718.69 144.91">
  <!-- Generator: Adobe Illustrator 29.4.0, SVG Export Plug-In . SVG Version: 2.1.0 Build 152)  -->
  <defs>
    <style>
      .st0 {
        fill: #99a040;
      }
    </style>
  </defs>
  <path class="st0" d="M0,15.2h132.48s-.16-4.91,2.13-4.91,4.43,4.91,4.43,4.91c0,0,1.97-10.33,5.25-10.16s1.64,11.31,1.64,11.31c0,0,67.98.77,81.09,0,13.1-.77,28.96-2.41,28.96-2.41,0,0,.67-5.16,3.14-4.93s3.14,4.04,3.14,4.04c0,0,35.51-3.69,60.31-3.69s66.67,3.35,74.04,3.02,6.26-.52,6.26-.52c0,0,.37-5.37,2.59-5.37s2.96,4.38,2.96,4.38h14.08s1.11-9.02,3.89-9.02,2.78,8.89,2.78,8.89c0,0,17.05.98,36.5.8,19.45-.19,35.94-.19,35.94-.19,0,0-.93-8.15,2.22-8.15s4.63,6.85,4.63,6.85c0,0,3.33-5.74,5.93-5.37s-.37,5.93.74,7.22c0,0,70.3-1.19,83.08-.81,12.78.38,27.66.95,27.66.95,0,0-2.1-8.58,0-8.78s6.87,7.25,6.87,7.25c0,0,2.29-11.26,5.91-10.49s0,10.68,0,10.68c0,0,3.05-4.58,4.39-4.39s0,5.34,0,5.34c0,0,17.22-.35,28.66.35s17.69.69,17.69.69c0,0,.99-4.6,2.91-4.45s2.22,4.45,2.22,4.45c0,0,15.83-.63,24.17-.31v132.51H0V15.2Z"/>
</svg>