<?xml version="1.0" encoding="UTF-8"?>
<svg id="Capa_1" xmlns="http://www.w3.org/2000/svg" width="1720.45" height="335.56" version="1.1" viewBox="0 0 1720.45 335.56">
  <!-- Generator: Adobe Illustrator 29.4.0, SVG Export Plug-In . SVG Version: 2.1.0 Build 152)  -->
  <defs>
    <style>
      .st0 {
        fill: #c19d08;
      }

      .st1 {
        fill: #337c8a;
      }

      .st2 {
        fill: #7976b7;
      }

      .st3 {
        fill: #b55d5c;
      }

      .st4 {
        fill: #fff;
      }

      .st5 {
        fill: #4a705e;
      }

      .st6 {
        fill: #e38e5b;
      }

      .st7 {
        fill: #7d5391;
      }

      .st8 {
        fill: #999947;
      }

      .st9 {
        fill: #93537b;
      }
    </style>
  </defs>
  <path class="st4" d="M1683.74,157.29c-11.04-54.95-36.58-89.2-95.9-93.5-22.71-1.58-46.89,2.19-67.65,11.14-7.66,3.29-16.68,7.79-24.59,8.3-10.16.97-18.94-5.65-28.73-8.65-21.17-6.57-37.54,15.97-55.3,21.77-16.54,4.34-10.99-23.44-11.63-34.01-.09-13.79,1.98-28.54-2.64-41.61-6.97-18.29-27.81-19.68-45.66-20.47-20.42-1.16-38.85,1.09-45.66,22.09-5.59,14.98-24.36-23.32-61.33-14.8-23.41,4.05-41.75,25.72-41.27,49.55-1.78,11.4,13.47,58.98,1.18,61.26-17.92-12.64-24.07-23.95-49.71-27.21-15.82-2.84-35.05,3.55-43.32-12.64-9.18-21.37-1.42-53.05-19.24-70.02-14.06-11.59-52.38-3.95-66.76,3.38-13.24,6.58-12.29,23.7-20.54,33.93-9.15,10.5-26.67,4.26-30.15-8.4-4.69-11.44.95-28.12-12.39-33.03-10.58-2.91-22.18-.45-33.66.24-12.4,1.35-29.53,1.44-39.39,5.92-14.28,7.11-5.54,25.93-12.55,37.61-4.68,9.45-16.18,11.66-24.96,17.23-5.82,3.3-10.43,8.8-16.23,11.85-8.65,4.1-18.39-2.63-27.04-5.64-40.63-16.75-89.95-6.73-127.19,15.52-5.04,2.05-9.58,2.85-14.03,2.08-8.27-1.45-15.55-7.7-22.85-12.03-13.53-8.3-31.27-13.24-48.98-13.18-29.34,1.81-57.9-3.15-87.13.86-21.96,2.17-38.49,10.17-41.38,33.13-1.28,9.16-6.04,5.98-11.36.28-23.08-28.7-65.26-37.63-99.52-22.61-7.12,2.64-14.46,5.27-21.76,5.5-14.16.69-26.11-7.27-40.35-9.86-12.03-2.07-24.23-1.51-36.32-1.22-21.97.18-45.17,1.07-67.15,3.81-27.59,2.62-17.21-25.61-24.5-41.86-5.23-11.23-19.35-11.64-30.3-11.28-32.6,1.11-67.81,4.41-101.43,10.1-6.79,1.23-13.69,3.23-19.14,6.76C4.28,44.41,2.02,58.02,1.69,70.29c-1.5,59.81-3.6,125.62,1.77,187.07,2.62,14.57,14.93,20.7,28.7,21.5,30.58,1.92,61.36,3.02,91.93,4.89,31.94,3.35,34.66-19.99,45.63-10.34,9.92,9.51,27.13,11.69,41.5,11.34,18.27.62,36.99-1.02,54.99-1.85,18.82-.89,37.61.88,56.43,1.27,31.03-.26,61.34-1.46,92.2.35,19.22.22,45.25-8.64,44.69,17.35.72,11.78-3.03,11.22,1.78,22.51,6.57,13.74,24.53,11.18,37.44,10.63,14.18-1.25,29.33-1.45,40.17-8.32,27.04-15.97,1.4-45.26,32.68-54.59,9.44-2.42,23.89-1.39,35.18-4.18,27.6-3.44,46.41-32.98,64.83-17.27,24.88,25.56,55.72,36.48,91.68,33.46,16.38-.91,31.68-6.95,47.36-7.31,37.54,1.69,38.11,10.22,79.05-1.29,20.99-4.22,38.38,11.44,59.35,12.78,17.9,2.71,36.55-4.15,53.49-6.86,16.17-2.56,30.75,1.69,47.42,3.1,21.1,2.02,42.06-2.81,62.86-3.49,16.15-.69,32,1.84,48.39,1.99,13,.06,25.92-.98,38.82-1.16,42.61.66,84.64.15,127.18,4.7,19.36-.26,45.41,5.33,58.41-12.15,5.74-8.48,5.08-19.97,9.95-26.46,8.76-4.74,17.36,16.42,22.45,22.35,23.72,41.27,61.16-2.74,95.26,4.93,21.95,4.74,46.67,12.08,69.99,8.42,19.07-2.37,37.57-9.27,56.92-5.78,14.35,2.06,30.15,5.99,44.86,2,16.84-3.94,34.29-17.13,35.37-35.27.15-9.62-4.21-18.87-8.47-27.46-9.56-19.32-21.77-38.9-28.18-59.66l-.05-.18Z"/>
  <g>
    <path class="st1" d="M143.54,262.92c-10.63-.77-21.21-1.43-31.73-1.97-10.52-.55-21.21-1.04-32.06-1.48-8.77-.44-17.73-.9-26.88-1.4-9.15-.49-18.11-.96-26.88-1.4-.77-18.41-1.32-36.3-1.64-53.67-.33-17.37-.49-33.67-.49-48.9,0-24.44.25-45.2.74-62.3.49-17.1.96-29.37,1.4-36.82,20.6-3.83,39.75-6.66,57.45-8.46,17.7-1.81,32.49-2.93,44.38-3.37,11.89-.44,19.32-.66,22.27-.66,0,7.13-.22,14.11-.66,20.96-.44,6.85-.99,14.05-1.64,21.62l-70.36,5.75c-.11,1.43-.22,3.67-.33,6.74-.11,3.07-.19,6.36-.25,9.86-.06,3.51-.08,6.8-.08,9.86v6.74c2.52,0,5.78-.03,9.78-.08,4-.05,8.38-.14,13.15-.25,4.77-.11,9.56-.22,14.38-.33,4.82-.11,9.34-.19,13.56-.25,4.22-.05,7.81-.14,10.77-.25l-.66,45.21c-1.43-.11-4.22-.25-8.38-.41-4.17-.16-8.96-.36-14.38-.58-5.42-.22-10.88-.38-16.36-.49-5.48-.11-10.3-.22-14.47-.33-4.17-.11-7.02-.16-8.55-.16-.11,1.1-.19,2.93-.25,5.51-.06,2.58-.11,5.48-.16,8.71-.06,3.23-.08,6.58-.08,10.03s-.03,6.63-.08,9.53c-.06,2.91-.08,5.23-.08,6.99,1.42,0,5.26-.03,11.51-.08,6.25-.05,12.66-.08,19.23-.08,5.48,0,10.96.11,16.44.33,5.48.22,10.57.47,15.29.74,4.71.28,8.55.52,11.51.74,0,4.38-.22,9.4-.66,15.04-.44,5.65-.9,11.21-1.4,16.69-.49,5.48-1.04,10.27-1.64,14.38-.6,4.11-1.18,6.88-1.73,8.3Z"/>
    <path class="st5" d="M188.74,261.93c-.55-7.01-1.1-16.08-1.64-27.21-.55-11.12-.99-23.18-1.32-36.16-.33-12.99-.63-25.89-.9-38.71-.28-12.82-.49-24.68-.66-35.59-.16-10.9-.25-19.64-.25-26.22,2.63-.77,6.16-1.5,10.6-2.22,4.44-.71,9.12-1.37,14.05-1.97,4.93-.6,9.62-1.09,14.05-1.48,4.44-.38,8.03-.57,10.77-.57.11,1.86.22,4.11.33,6.74.11,2.63.19,5.37.25,8.22.05,2.85.08,5.42.08,7.73v5.26c.66-2.08,2.19-4.77,4.6-8.05,2.41-3.29,5.73-6.58,9.95-9.86,4.22-3.29,9.34-6.05,15.37-8.3,6.03-2.25,12.99-3.37,20.88-3.37s13.97,1.43,19.23,4.27c5.26,2.85,9.64,6.58,13.15,11.18,3.51,4.6,6.25,9.59,8.22,14.96.99,2.63,1.78,5.32,2.38,8.05.6,2.74,1.07,5.42,1.4,8.05,2.41-8,6.44-15.64,12.08-22.93,5.64-7.29,12.68-13.26,21.12-17.92,8.44-4.66,18.14-6.99,29.09-6.99,13.15,0,23.97,2.36,32.47,7.07,8.49,4.71,15.09,11.67,19.81,20.88,4.71,9.21,8,20.49,9.86,33.86,1.86,13.37,2.79,28.66,2.79,45.86,0,6.8-.14,13.92-.41,21.37-.27,7.45-.63,14.96-1.07,22.52-.44,7.56-.88,14.9-1.32,22.03-3.94.22-8.05.41-12.33.58-4.27.16-8.55.25-12.82.25s-8.77-.08-13.15-.25c-4.38-.16-8.82-.41-13.31-.74,2.19-16.33,4-31.37,5.42-45.12,1.42-13.75,2.14-25.83,2.14-36.25,0-15.12-1.73-26.71-5.18-34.77-3.45-8.05-9.34-12.08-17.67-12.08-7.56,0-13.7,2.3-18.41,6.9-4.71,4.6-8.38,10.96-11.01,19.07-2.63,8.11-4.52,17.51-5.67,28.19-1.15,10.68-1.95,22.11-2.38,34.27-.22,6.14-.44,12.55-.66,19.23-.22,6.69-.33,13.48-.33,20.38-2.19.11-5.29.25-9.29.41-4,.16-8.19.25-12.58.25-5.15,0-10.14-.08-14.96-.25-4.82-.16-8.33-.41-10.52-.74-.11-7.45-.16-14.44-.16-20.96v-20.3c0-12.49-.28-24.03-.82-34.6-.55-10.58-1.76-19.78-3.62-27.62-1.87-7.83-4.63-13.94-8.3-18.33-3.67-4.38-8.63-6.58-14.88-6.58-4.27,0-8.44.93-12.49,2.79-4.05,1.86-7.75,4.27-11.1,7.23-3.34,2.96-6.14,6.22-8.38,9.78-2.25,3.56-3.81,7.1-4.69,10.6.66,17.42,1.37,33.32,2.14,47.67.77,14.36,1.48,26.08,2.14,35.18.66,9.1,1.09,14.52,1.32,16.27-1.21.11-3.73.22-7.56.33-3.84.11-7.18.16-10.03.16-6.9,0-13.81-.16-20.71-.49-6.9-.33-11.95-.66-15.12-.99Z"/>
    <path class="st8" d="M480.84,313.96c1.42-17.97,2.63-16.36,3.62-36.09.99-19.73,1.83-39.29,2.55-58.68.71-19.4,1.29-37.64,1.73-54.74.44-17.1.77-32.08.99-44.96.22-12.88.33-22.6.33-29.18,6.79-2.19,14.63-3.75,23.51-4.69,8.88-.93,17.48-1.4,25.81-1.4.33,3.62.6,7.78.82,12.49.22,4.71.33,9.04.33,12.99,2.08-2.74,5.7-6.11,10.85-10.11,5.15-4,11.61-7.53,19.4-10.6,7.78-3.07,16.71-4.6,26.8-4.6,22.25,0,38.71,7.04,49.4,21.12,10.69,14.08,16.03,33.67,16.03,58.77,0,17.65-3.34,32.88-10.03,45.7-6.69,12.82-15.78,22.66-27.29,29.51-11.51,6.85-24.66,10.27-39.45,10.27-6.69,0-13.45-.85-20.3-2.55-6.85-1.7-12.93-3.81-18.25-6.33-5.32-2.52-8.96-5.04-10.93-7.56,0,2.74-.14,7.15-.41,13.23-.27,6.08-.57,13.07-.9,20.96-.33,7.89-.74,15.86-1.23,23.92-.49,8.05-.96,9.04-1.4,15.89-.44,6.85-.88-1.75-1.32,2.19-5.81,1.09-11.97,1.97-18.49,2.63-6.52.66-12.63,1.12-18.33,1.4-5.7.27-10.3.41-13.81.41ZM578.32,198.81c7.56,0,13.92-1.53,19.07-4.6,5.15-3.07,9.04-7.48,11.67-13.23,2.63-5.75,3.94-12.63,3.94-20.63,0-10.74-2.52-19.01-7.56-24.82-5.04-5.81-13.04-8.71-24-8.71-6.69,0-12.77,1.04-18.25,3.12-5.48,2.08-10.11,4.58-13.89,7.48-3.78,2.91-6.66,5.62-8.63,8.14,0,1.64-.06,4.14-.16,7.48-.11,3.34-.22,6.99-.33,10.93-.11,3.94-.22,7.67-.33,11.18-.11,3.51-.16,6.25-.16,8.22,1.86,1.87,4.44,4,7.73,6.41,3.29,2.41,7.45,4.52,12.49,6.33,5.04,1.81,11.18,2.71,18.41,2.71Z"/>
    <path class="st0" d="M754.54,263.41c-13.59,0-25.95-1.84-37.07-5.51-11.12-3.67-20.03-9.64-26.71-17.92-6.69-8.27-10.03-19.26-10.03-32.96s3.89-24.74,11.67-33.12c7.78-8.38,17.97-14.47,30.57-18.25,12.6-3.78,26.24-5.67,40.93-5.67,5.7,0,11.18.44,16.44,1.31,5.26.88,9.89,1.92,13.89,3.12,4,1.21,6.88,2.36,8.63,3.45-.11-2.74-.69-5.72-1.73-8.96-1.04-3.23-2.55-5.94-4.52-8.14-3.29-4.49-7.73-8.24-13.32-11.26-5.59-3.01-13.04-4.52-22.36-4.52s-17.37,2.11-24.49,6.33c-7.13,4.22-12.55,9.02-16.28,14.38l-40.11-25.97c4.93-7.01,11.59-13.15,19.97-18.41,8.38-5.26,17.92-9.37,28.6-12.33,10.69-2.96,21.89-4.44,33.62-4.44,19.4,0,35.12,3.18,47.18,9.53,12.05,6.36,20.98,15.23,26.8,26.63,2.74,5.48,4.98,11.51,6.74,18.08,1.75,6.58,2.96,14.14,3.62,22.68.44,7.34.77,14.19.99,20.55.22,6.36.44,12.38.66,18.08.22,8.33,1.15,13.75,2.79,16.27,1.64,2.52,4,3.78,7.07,3.78,2.85,0,5.4-.79,7.64-2.38,2.24-1.59,3.7-3.7,4.36-6.33l17.1,32.71c-1.21,5.04-4.6,9.26-10.19,12.66-5.59,3.4-12.66,5.1-21.21,5.1-6.36,0-12.3-1.07-17.84-3.2-5.54-2.14-10.14-5.04-13.81-8.71-3.67-3.67-5.78-7.81-6.33-12.41-1.75,4.17-5.42,8.25-11.01,12.25-5.59,4-12.77,7.26-21.53,9.78-8.77,2.52-19.01,3.78-30.74,3.78ZM765.56,224.78c5.15,0,10.44-.79,15.86-2.38,5.42-1.59,10.36-3.59,14.79-6,4.44-2.41,7.86-4.87,10.27-7.4-.33-3.4-.55-6.9-.66-10.52-.11-3.62-.11-6.68,0-9.21-2.41-.99-6.99-2.05-13.73-3.2-6.74-1.15-13.78-1.73-21.12-1.73-6.69,0-12.93.71-18.74,2.14-5.81,1.42-10.55,3.62-14.22,6.58-3.67,2.96-5.51,6.8-5.51,11.51,0,5.04,1.37,9.04,4.11,12,2.74,2.96,6.58,5.07,11.51,6.33,4.93,1.26,10.74,1.89,17.42,1.89Z"/>
    <path class="st6" d="M1011.15,239.08c-2.08,4.06-5.34,8.36-9.78,12.9-4.44,4.55-10.19,8.44-17.26,11.67-7.07,3.23-15.64,4.85-25.73,4.85-13.26,0-24.11-2.79-32.55-8.38-8.44-5.59-14.63-13.04-18.57-22.36-3.94-9.31-5.92-19.5-5.92-30.57,0-6.03.08-12.46.25-19.32.17-6.85.36-13.64.58-20.38.22-6.74.47-13.12.74-19.15.27-6.03.52-11.37.74-16.03.22-4.66.38-8.25.49-10.77-8.55.88-16.52,1.86-23.92,2.96-7.4,1.1-12.47,1.92-15.2,2.47-1.1-6.03-1.95-12.25-2.55-18.66-.6-6.41-1.01-11.97-1.23-16.69-.22-4.71-.33-7.61-.33-8.71,6.35-.88,13.15-1.67,20.38-2.38,7.23-.71,14.85-1.23,22.85-1.56-.11-2.63-.25-6.74-.41-12.33-.16-5.59-.3-10.63-.41-15.12-.11-4.05-.33-8.14-.66-12.25-.33-4.11-.6-7.42-.82-9.95l48.66-4.27c0,1.31.03,4.38.08,9.21.05,4.82.08,10.63.08,17.42,0,3.4.05,7.32.17,11.75.11,4.44.22,8.79.33,13.07,3.62-.22,7.83-.44,12.66-.66,4.82-.22,8.66-.38,11.51-.49,4.6-.22,8.77-.35,12.49-.41,3.72-.05,6.82-.08,9.29-.08s4.13.06,5.01.16c.66,5.15,1.09,11.73,1.32,19.73.22,8,.33,15.02.33,21.04-1.1-.11-4.66-.05-10.69.16-6.03.22-11.95.44-17.75.66-4.06.11-8.55.36-13.48.74-4.93.39-8.82.69-11.67.9-.11,2.3-.25,5.45-.41,9.45-.16,4-.33,8.49-.49,13.48-.16,4.99-.33,10.14-.49,15.45-.16,5.32-.3,10.44-.41,15.37-.11,4.93-.16,9.32-.16,13.15,0,7.23.36,13.73,1.07,19.48.71,5.75,2.3,10.3,4.77,13.64,2.47,3.34,6.27,5.01,11.42,5.01,3.4,0,6.3-.99,8.71-2.96,2.41-1.97,4.41-4.3,6-6.99,1.59-2.68,2.98-5.07,4.19-7.15,1.42,1.97,3.42,4.58,6,7.81,2.57,3.23,5.32,6.6,8.22,10.11,2.9,3.51,5.53,6.63,7.89,9.37,2.36,2.74,3.92,4.6,4.69,5.59Z"/>
    <path class="st3" d="M1083.47,262.42c-2.52.44-6.06.77-10.6.99-4.55.22-9.23.33-14.05.33-5.7,0-11.01-.19-15.95-.58-4.93-.39-8.55-1.01-10.85-1.89.88-6.58,1.67-15.15,2.38-25.73.71-10.57,1.32-22.44,1.81-35.59s.74-26.9.74-41.26-.25-30-.74-45.29-1.12-30.11-1.89-44.47c-.77-14.35-1.54-27.39-2.3-39.12.88-.33,3.34-.82,7.4-1.48,4.05-.66,8.77-1.37,14.14-2.14,5.37-.77,10.46-1.42,15.29-1.97,4.82-.55,8.44-.82,10.85-.82,1.75,8.22,3.29,18.03,4.6,29.42,1.32,11.4,2.41,23.86,3.29,37.4.88,13.54,1.48,27.7,1.81,42.49,3.73-4.16,8.44-7.92,14.14-11.26,5.7-3.34,11.92-5.97,18.66-7.89,6.74-1.92,13.45-2.88,20.14-2.88,13.37,0,23.61,2.55,30.74,7.64,7.12,5.1,12.08,12.49,14.88,22.19,2.79,9.7,4.19,21.51,4.19,35.42,0,8.77-.36,18.22-1.07,28.36-.71,10.14-1.62,20.05-2.71,29.75-1.1,9.7-2.3,18.44-3.62,26.22-3.84.55-7.78.99-11.84,1.32-4.05.33-8.17.49-12.33.49-4.38,0-8.74-.19-13.07-.57-4.33-.39-8.25-.9-11.75-1.56.77-4.93,1.59-10.74,2.47-17.42.88-6.68,1.7-13.56,2.47-20.63.77-7.07,1.4-13.81,1.89-20.22.49-6.41.74-11.86.74-16.36,0-6.47-.63-11.94-1.89-16.44-1.26-4.49-3.29-7.92-6.08-10.27-2.79-2.36-6.6-3.53-11.43-3.53-3.94,0-7.73.74-11.34,2.22-3.62,1.48-6.93,3.34-9.95,5.59-3.02,2.25-5.67,4.55-7.97,6.9-2.3,2.36-4.11,4.41-5.43,6.16,0,11.29-.27,22.55-.82,33.78-.55,11.23-1.26,21.45-2.14,30.66-.88,9.21-1.81,16.55-2.79,22.03Z"/>
    <path class="st9" d="M1256.07,88.5c-9.97,0-18.28-2.88-24.9-8.63-6.63-5.75-9.94-13.34-9.94-22.77,0-6.47,1.59-12,4.77-16.6,3.18-4.6,7.32-8.14,12.41-10.6,5.1-2.47,10.44-3.7,16.03-3.7,9.2,0,16.79,2.96,22.77,8.88,5.97,5.92,8.96,13.54,8.96,22.85,0,8.66-2.85,15.92-8.55,21.78-5.7,5.86-12.88,8.79-21.53,8.79ZM1274.48,260.28c-1.86.11-5.4.36-10.6.74-5.21.38-10.71.58-16.52.58-4.27,0-8.58-.14-12.9-.41-4.33-.27-8.58-.63-12.74-1.07.44-2.85,1.01-8.66,1.73-17.42.71-8.77,1.45-19.15,2.22-31.15.77-12,1.5-24.38,2.22-37.15.71-12.77,1.26-24.74,1.64-35.92.38-11.18.58-20.16.58-26.96,2.19-.11,5.42-.27,9.7-.49,4.27-.22,8.88-.41,13.81-.58,4.93-.16,9.64-.33,14.14-.49,4.49-.16,8.05-.25,10.68-.25.55,3.51.99,9.02,1.32,16.52.33,7.51.49,15.92.49,25.23,0,9.97-.14,20.55-.41,31.73-.27,11.18-.66,22-1.15,32.47-.49,10.47-1.13,19.67-1.89,27.62-.77,7.95-1.54,13.62-2.3,17.01Z"/>
    <path class="st7" d="M1441.33,269.16c-1.54-3.29-3.92-7.54-7.15-12.74-3.23-5.2-6.9-10.74-11.01-16.6-4.11-5.86-8.38-11.59-12.82-17.18-4.44-5.59-8.69-10.49-12.74-14.71-4.05-4.22-7.56-7.2-10.52-8.96-1.54.99-3.45,2.41-5.75,4.27-2.3,1.87-4.44,3.62-6.41,5.26-1.97,1.64-3.34,2.79-4.11,3.45-.11,4.71-.28,9.64-.49,14.79-.22,5.15-.44,10.17-.66,15.04-.22,4.88-.47,9.32-.74,13.31-.27,4-.52,7.15-.74,9.45-4.05.44-8.11.77-12.16.99-4.06.22-8.11.33-12.16.33-5.26,0-10.27-.19-15.04-.58-4.77-.39-8.85-.74-12.25-1.07.11-2.63.41-8.41.9-17.34.49-8.93,1.04-19.94,1.64-33.04.6-13.09,1.26-27.34,1.97-42.74.71-15.4,1.42-30.9,2.14-46.52.71-15.62,1.34-30.35,1.89-44.22.55-13.86,1.01-25.86,1.4-36,.38-10.14.58-17.34.58-21.62,3.51-.33,7.09-.6,10.77-.82,3.67-.22,7.37-.33,11.1-.33,5.15,0,10.16.27,15.04.82,4.88.55,9.4,1.48,13.56,2.79,0,8.55-.08,17.92-.25,28.11-.17,10.19-.44,20.52-.82,30.99-.38,10.47-.8,20.47-1.23,30-.44,9.53-.85,18-1.23,25.4-.38,7.4-.74,13.01-1.07,16.85,5.59-5.81,12.11-11.73,19.56-17.75,7.45-6.03,15.18-11.86,23.18-17.51,8-5.64,15.72-10.96,23.18-15.95,7.45-4.99,14.03-9.34,19.73-13.07,1.75,1.64,3.95,4.11,6.58,7.4,2.63,3.29,5.34,6.85,8.14,10.69,2.79,3.84,5.4,7.56,7.81,11.18,2.41,3.62,4.33,6.63,5.75,9.04-4.38,2.74-9.53,6.03-15.45,9.86-5.92,3.84-11.97,7.75-18.16,11.75-6.19,4-11.92,7.81-17.18,11.42-5.26,3.62-9.37,6.52-12.33,8.71,2.85,1.97,6.3,4.85,10.36,8.63,4.05,3.78,8.46,8.25,13.23,13.4,4.77,5.15,9.62,10.77,14.55,16.85,4.93,6.08,9.81,12.44,14.63,19.07,4.82,6.63,9.2,13.29,13.15,19.97-1.64.99-4.6,2.38-8.88,4.19-4.27,1.81-9.04,3.76-14.3,5.84-5.26,2.08-10.19,3.95-14.79,5.59-4.6,1.64-8.05,2.74-10.36,3.29Z"/>
    <path class="st2" d="M1567.08,263.41c-13.59,0-25.95-1.84-37.07-5.51-11.12-3.67-20.03-9.64-26.71-17.92-6.69-8.27-10.03-19.26-10.03-32.96s3.89-24.74,11.67-33.12c7.78-8.38,17.97-14.47,30.57-18.25,12.6-3.78,26.24-5.67,40.93-5.67,5.7,0,11.18.44,16.44,1.31,5.26.88,9.89,1.92,13.89,3.12,4,1.21,6.88,2.36,8.63,3.45-.11-2.74-.69-5.72-1.73-8.96-1.04-3.23-2.55-5.94-4.52-8.14-3.29-4.49-7.73-8.24-13.32-11.26-5.59-3.01-13.04-4.52-22.36-4.52s-17.37,2.11-24.49,6.33c-7.13,4.22-12.55,9.02-16.28,14.38l-40.11-25.97c4.93-7.01,11.59-13.15,19.97-18.41,8.38-5.26,17.92-9.37,28.6-12.33,10.69-2.96,21.89-4.44,33.62-4.44,19.4,0,35.12,3.18,47.18,9.53,12.05,6.36,20.98,15.23,26.8,26.63,2.74,5.48,4.98,11.51,6.74,18.08,1.75,6.58,2.96,14.14,3.62,22.68.44,7.34.77,14.19.99,20.55.22,6.36.44,12.38.66,18.08.22,8.33,1.15,13.75,2.79,16.27,1.64,2.52,4,3.78,7.07,3.78,2.85,0,5.4-.79,7.64-2.38,2.24-1.59,3.7-3.7,4.36-6.33l17.1,32.71c-1.21,5.04-4.6,9.26-10.19,12.66-5.59,3.4-12.66,5.1-21.21,5.1-6.36,0-12.3-1.07-17.84-3.2-5.54-2.14-10.14-5.04-13.81-8.71-3.67-3.67-5.78-7.81-6.33-12.41-1.75,4.17-5.42,8.25-11.01,12.25-5.59,4-12.77,7.26-21.53,9.78-8.77,2.52-19.01,3.78-30.74,3.78ZM1578.1,224.78c5.15,0,10.44-.79,15.86-2.38,5.42-1.59,10.36-3.59,14.79-6,4.44-2.41,7.86-4.87,10.27-7.4-.33-3.4-.55-6.9-.66-10.52-.11-3.62-.11-6.68,0-9.21-2.41-.99-6.99-2.05-13.73-3.2-6.74-1.15-13.78-1.73-21.12-1.73-6.69,0-12.93.71-18.74,2.14-5.81,1.42-10.55,3.62-14.22,6.58-3.67,2.96-5.51,6.8-5.51,11.51,0,5.04,1.37,9.04,4.11,12,2.74,2.96,6.58,5.07,11.51,6.33,4.93,1.26,10.74,1.89,17.42,1.89Z"/>
  </g>
</svg>