<?xml version="1.0" encoding="UTF-8"?>
<svg id="Capa_1" xmlns="http://www.w3.org/2000/svg" width="240.53" height="231.05" xmlns:xlink="http://www.w3.org/1999/xlink" version="1.1" viewBox="0 0 240.53 231.05">
  <!-- Generator: Adobe Illustrator 29.4.0, SVG Export Plug-In . SVG Version: 2.1.0 Build 152)  -->
  <defs>
    <style>
      .st0 {
        fill: #ffe888;
      }

      .st1 {
        fill: none;
        stroke: #f4da6e;
        stroke-linecap: round;
        stroke-miterlimit: 10;
        stroke-width: 4.9px;
      }

      .st2 {
        clip-path: url(#clippath);
      }
    </style>
    <clipPath id="clippath">
      <path class="st0" d="M140.63,11.86l21.93,38.67c3.33,5.88,9.05,10.03,15.67,11.39l43.56,8.91c17.81,3.64,24.85,25.32,12.59,38.73l-30,32.81c-4.56,4.99-6.75,11.71-5.99,18.42l4.99,44.18c2.04,18.07-16.4,31.46-32.95,23.94l-40.48-18.4c-6.15-2.8-13.22-2.8-19.37,0l-40.48,18.4c-16.55,7.52-34.99-5.87-32.95-23.94l4.99-44.18c.76-6.72-1.42-13.44-5.99-18.42L6.15,109.56c-12.27-13.42-5.23-35.09,12.59-38.73l43.56-8.91c6.62-1.35,12.34-5.51,15.67-11.39l21.93-38.67c8.97-15.82,31.76-15.82,40.73,0Z"/>
    </clipPath>
  </defs>
  <path class="st0" d="M140.63,11.86l21.93,38.67c3.33,5.88,9.05,10.03,15.67,11.39l43.56,8.91c17.81,3.64,24.85,25.32,12.59,38.73l-30,32.81c-4.56,4.99-6.75,11.71-5.99,18.42l4.99,44.18c2.04,18.07-16.4,31.46-32.95,23.94l-40.48-18.4c-6.15-2.8-13.22-2.8-19.37,0l-40.48,18.4c-16.55,7.52-34.99-5.87-32.95-23.94l4.99-44.18c.76-6.72-1.42-13.44-5.99-18.42L6.15,109.56c-12.27-13.42-5.23-35.09,12.59-38.73l43.56-8.91c6.62-1.35,12.34-5.51,15.67-11.39l21.93-38.67c8.97-15.82,31.76-15.82,40.73,0Z"/>
  <g class="st2">
    <path class="st1" d="M112.52,126.32c-8.77.46-15.94-10.29-12.14-18.21,5-7.43,16.64-8.79,23.77-3.36,7.13,5.43,9.17,16.17,5.34,24.27-3.82,8.1-12.7,13.26-21.65,13.59-9.98.37-19.98-5.07-25.09-13.65s-5.15-19.95-.09-28.57c2.85-4.84,7.08-8.71,11.56-12.1,5.28-3.99,11.09-7.45,17.51-9.04,22.37-5.54,45.64,16.19,45.19,39.24s-20.51,42.82-43.15,47.12c-23.45,4.45-50.23-7.58-58.82-29.84-2.25-5.83-3.25-12.09-3.5-18.34-1.15-28.77,15.41-58.28,41.89-69.57,26.48-11.3,61.12-1.34,75.2,23.77,7.36,13.12,8.95,28.68,8.91,43.73-.03,12.96-1.29,26.34-7.41,37.77-13.53,25.25-46.05,33.25-74.69,33-23.91-.21-49.35-5.08-66.54-21.71-21.43-20.73-24.27-55.96-11.76-83.02,12.51-27.06,37.72-46.54,65-58.57,22.82-10.06,49.72-15.43,72.42-5.09,22.85,10.42,36.31,34.2,45.98,57.38,4.56,10.92,8.65,22.18,10.03,33.94,3.76,32.16-14.15,64.39-40.42,83.32-26.26,18.93-59.6,25.94-91.98,25.72-22.36-.15-45.59-3.87-63.89-16.73-26.11-18.35-37.47-52.93-34.1-84.66C-16.54,84.98-.47,55.85,19.06,30.61,29.32,17.37,40.91,4.68,55.62-3.34c13.09-7.14,27.94-10.2,42.47-13.55,18.77-4.33,38.18-9.3,57.05-5.42,11.24,2.31,21.63,7.67,31.23,13.95,40.95,26.79,69.98,75.84,61.97,124.11-1.85,11.16-5.56,21.93-9.33,32.59-3.69,10.43-7.5,20.89-13.06,30.45-17.11,29.47-49.42,47.59-82.63,55.2-33.22,7.61-67.76,6.02-101.8,4.4"/>
  </g>
</svg>