<?xml version="1.0" encoding="UTF-8"?>
<svg id="Capa_1" xmlns="http://www.w3.org/2000/svg" width="279.39" height="279.39" xmlns:xlink="http://www.w3.org/1999/xlink" version="1.1" viewBox="0 0 279.39 279.39">
  <!-- Generator: Adobe Illustrator 29.4.0, SVG Export Plug-In . SVG Version: 2.1.0 Build 152)  -->
  <defs>
    <style>
      .st0 {
        fill: #415256;
      }

      .st1 {
        fill: #fff;
      }

      .st2 {
        fill: none;
        stroke: #5f7d82;
        stroke-miterlimit: 10;
        stroke-width: 6px;
      }

      .st3 {
        clip-path: url(#clippath);
      }
    </style>
    <clipPath id="clippath">
      <circle class="st0" cx="139.69" cy="139.69" r="131.69"/>
    </clipPath>
  </defs>
  <g>
    <path class="st0" d="M139.69,275.39c-74.82,0-135.69-60.87-135.69-135.69S64.87,4,139.69,4s135.69,60.87,135.69,135.69-60.87,135.69-135.69,135.69Z"/>
    <path class="st1" d="M139.69,8c72.73,0,131.69,58.96,131.69,131.69s-58.96,131.69-131.69,131.69S8,212.43,8,139.69,66.96,8,139.69,8M139.69,0c-37.31,0-72.39,14.53-98.78,40.92C14.53,67.3,0,102.38,0,139.69s14.53,72.39,40.92,98.78,61.47,40.92,98.78,40.92,72.39-14.53,98.78-40.92c26.38-26.38,40.92-61.47,40.92-98.78s-14.53-72.39-40.92-98.78C212.09,14.53,177.01,0,139.69,0h0Z"/>
  </g>
  <g>
    <circle class="st0" cx="139.69" cy="139.69" r="131.69"/>
    <g class="st3">
      <path class="st2" d="M115.36-20.34c-1.06,12.09-1.83,24.18.15,36.11,6.15,39.81,37.15,71.41,72.96,87.42,20.33,9.69,43.33,14,63.13,24.39,29.3,15.68,40.44,39.62,43.18,71.72"/>
      <path class="st2" d="M8,88.78c1.13,14.96,2.68,29.88,7.21,44.15,10.92,35.49,36.32,66.36,69.43,83.32,44.01,23.08,98.62,21.76,139.3,52.47,33.94,24.5,43.62,70.86,15.34,103.59-9.8,11.42-23.2,18.16-36.91,24.27"/>
    </g>
  </g>
  <path class="st1" d="M141.22,99.29c-6.37,0-11.67-1.84-15.9-5.51-4.24-3.67-6.35-8.52-6.35-14.54,0-4.13,1.01-7.66,3.04-10.6,2.03-2.94,4.67-5.2,7.93-6.77,3.25-1.57,6.67-2.36,10.24-2.36,5.88,0,10.72,1.89,14.54,5.67,3.81,3.78,5.72,8.64,5.72,14.59,0,5.53-1.82,10.17-5.46,13.91-3.64,3.74-8.22,5.62-13.75,5.62ZM152.97,208.99c-1.19.07-3.45.23-6.77.47-3.32.24-6.84.37-10.55.37-2.73,0-5.48-.09-8.24-.26-2.76-.17-5.48-.4-8.14-.68.28-1.82.65-5.53,1.1-11.13.45-5.6.93-12.23,1.42-19.89.49-7.66.96-15.57,1.42-23.72.45-8.15.8-15.8,1.05-22.94.25-7.14.37-12.88.37-17.22,1.4-.07,3.46-.17,6.19-.31,2.73-.14,5.67-.26,8.82-.37,3.15-.11,6.16-.21,9.03-.31,2.87-.11,5.14-.16,6.82-.16.35,2.24.63,5.76.84,10.55s.32,10.17.32,16.11c0,6.37-.09,13.12-.26,20.26-.18,7.14-.42,14.05-.73,20.73-.32,6.68-.72,12.56-1.21,17.64-.49,5.08-.98,8.7-1.47,10.87Z"/>
</svg>