<?xml version="1.0" encoding="UTF-8"?>
<svg id="Capa_1" xmlns="http://www.w3.org/2000/svg" width="1344.85" height="431.16" version="1.1" viewBox="0 0 1344.85 431.16">
  <!-- Generator: Adobe Illustrator 29.4.0, SVG Export Plug-In . SVG Version: 2.1.0 Build 152)  -->
  <defs>
    <style>
      .st0 {
        fill: #b6bf56;
      }
    </style>
  </defs>
  <path class="st0" d="M1344.85,427.55c0-119.93-78.96-226.35-194.39-258.91-1.49-.42-2.99-.83-4.49-1.23-83.94-22.26-176.7-7.18-249.73,40.6-12.2,7.98-26.07,17.24-40.02,13.27-6.76-1.93-12.3-6.76-17.65-11.41-52.99-46.16-109.27-88.37-168.25-126.18-38.13-24.44-77.72-47.2-120.57-61.3C495.52,4.54,437.81,1.11,380.83.05,294.87-1.54,0,38.13,0,38.13v391.86c6.28,1.6,33.6,1.5,76.37.07l1268.48,1.1v-3.6Z"/>
</svg>