<?xml version="1.0" encoding="UTF-8"?>
<svg id="Capa_1" xmlns="http://www.w3.org/2000/svg" width="1644.42" height="675.13" version="1.1" viewBox="0 0 1644.42 675.13">
  <!-- Generator: Adobe Illustrator 29.4.0, SVG Export Plug-In . SVG Version: 2.1.0 Build 152)  -->
  <defs>
    <style>
      .st0 {
        fill: #648489;
      }
    </style>
  </defs>
  <path class="st0" d="M0,105.92s83.86,5.25,151.95,5.25S226.94,21.3,246.25,10.07s189.2-15.44,208.86,0,77.22,226.06,85.65,244.31,51.95-7.02,82.84,12.64,80.03,165.68,92.67,172.7,33.7-56.16,50.55-63.18,97.57-8.42,126.01,2.81,51.41,134.79,81.34,131.98,39.77-61.78,67.85-63.18,134.01-5.62,159.68,0c25.66,5.62,41.11-51.95,69.19-56.16,28.08-4.21,60.38,1.4,80.03,2.81s57.89,137.6,81.6,150.24,30.16-25.27,56.42-29.49c26.26-4.21,43.11,0,62.76,1.4s81.44,127.77,92.67,148.83c11.23,21.06-1644.36,0-1644.36,0V105.92Z"/>
</svg>