<?xml version="1.0" encoding="UTF-8"?>
<svg id="Capa_1" xmlns="http://www.w3.org/2000/svg" width="387.33" height="498.23" version="1.1" viewBox="0 0 387.33 498.23">
  <!-- Generator: Adobe Illustrator 29.4.0, SVG Export Plug-In . SVG Version: 2.1.0 Build 152)  -->
  <defs>
    <style>
      .st0 {
        fill: #fff;
      }
    </style>
  </defs>
  <path class="st0" d="M0,129.47s317.76,141.31,362.99,148.8c45.24,7.49,18.16-72.36-6.99-82.36-25.15-10-33.47,25.78-33.47,25.78,0,0,16.63-81.35-16.63-92.22s-33.57,38.9-33.57,38.9c0,0,23.59-164.49-106.09-157.84S0,129.47,0,129.47Z"/>
  <path class="st0" d="M153.83,383.99c9.22,14.06,108.07,34.27,133.01,37.34,24.94,3.06,11.64-76.74-18.29-73.42-29.93,3.33-26.6,36.08-26.6,36.08,0,0,6.65-71-43.23-74.32s-64.84,43.9-44.89,74.32Z"/>
  <path class="st0" d="M338.66,52.13c20.9,6.42,47.89-6.12,47.34-25.8-.56-19.68-14.31-26.33-47.34-26.33s-46.78,37.76,0,52.13Z"/>
  <path class="st0" d="M312.54,465.43c23.94,2.87,47.79,11.29,43.04,26.67s-56.97-1.43-63.31-15.14c-6.34-13.71,1.61-13.77,20.27-11.53Z"/>
</svg>