<?xml version="1.0" encoding="UTF-8"?>
<svg id="Capa_1" xmlns="http://www.w3.org/2000/svg" width="474.59" height="514.28" xmlns:xlink="http://www.w3.org/1999/xlink" version="1.1" viewBox="0 0 474.59 514.28">
  <!-- Generator: Adobe Illustrator 29.4.0, SVG Export Plug-In . SVG Version: 2.1.0 Build 152)  -->
  <defs>
    <style>
      .st0 {
        fill: #4b7f66;
      }

      .st1 {
        clip-path: url(#clippath);
      }

      .st2 {
        fill: none;
        stroke: #87b29e;
        stroke-miterlimit: 10;
        stroke-width: 4px;
      }
    </style>
    <clipPath id="clippath">
      <path class="st0" d="M471.63,514.28H0V0s51.97-.34,120.3,17.25l-11.18,190.38L199.54,44.38c44,19.23,89.15,46.8,128.41,86.32l-109.71,139.07,164.8-68.53c28.83,45.27,48.81,87.27,62.57,124.87l-183.74,49.74,208.97,48.9c7.94,56.39.79,89.53.79,89.53Z"/>
    </clipPath>
  </defs>
  <path class="st0" d="M471.63,514.28H0V0s51.97-.34,120.3,17.25l-11.18,190.38L199.54,44.38c44,19.23,89.15,46.8,128.41,86.32l-109.71,139.07,164.8-68.53c28.83,45.27,48.81,87.27,62.57,124.87l-183.74,49.74,208.97,48.9c7.94,56.39.79,89.53.79,89.53Z"/>
  <g class="st1">
    <path class="st2" d="M-2.15,520.72c8.44-53.62,16.89-107.25,25.33-160.87C44.42,224.93,65.72,89.44,67.44-47.13"/>
    <path class="st2" d="M-1.14,510.78C105,353.2,213.78,197.39,325.15,43.45"/>
    <path class="st2" d="M.6,512.13c126.83-119.38,275.43-215.56,436.27-282.38"/>
    <path class="st2" d="M3.02,515.23c42.19,1.77,83.02-13.11,123.73-24.33,143.87-39.67,295.76-34.78,444.91-29.59"/>
  </g>
</svg>