<?xml version="1.0" encoding="UTF-8"?>
<svg id="Capa_1" xmlns="http://www.w3.org/2000/svg" width="759.75" height="478.93" xmlns:xlink="http://www.w3.org/1999/xlink" version="1.1" viewBox="0 0 759.75 478.93">
  <!-- Generator: Adobe Illustrator 29.4.0, SVG Export Plug-In . SVG Version: 2.1.0 Build 152)  -->
  <defs>
    <style>
      .st0 {
        fill: #c68c58;
      }

      .st1 {
        fill: none;
        stroke: #9b6234;
        stroke-linecap: round;
        stroke-linejoin: round;
        stroke-width: 6px;
      }

      .st2 {
        clip-path: url(#clippath);
      }
    </style>
    <clipPath id="clippath">
      <path class="st0" d="M74.38,478.93h606.88s141.17-176.79,44.86-233.52c-96.31-56.73-170.19,46.18-170.19,46.18,0,0,106.86-288.93-23.75-291.57-130.61-2.64-187.34,239.46-187.34,239.46,0,0-51.45-122.04-143.81-70.58s-48.81,154.36-48.81,154.36c0,0-127.97-72.56-149.08,19.79s71.24,135.89,71.24,135.89Z"/>
    </clipPath>
  </defs>
  <path class="st0" d="M74.38,478.93h606.88s141.17-176.79,44.86-233.52c-96.31-56.73-170.19,46.18-170.19,46.18,0,0,106.86-288.93-23.75-291.57-130.61-2.64-187.34,239.46-187.34,239.46,0,0-51.45-122.04-143.81-70.58s-48.81,154.36-48.81,154.36c0,0-127.97-72.56-149.08,19.79s71.24,135.89,71.24,135.89Z"/>
  <g class="st2">
    <path class="st1" d="M384.81,478.22C436.3,317.61,490.63,157.9,547.74-.8"/>
    <path class="st1" d="M391.58,479.5c103.98-51.33,201.71-115.29,290.39-190,17.77-14.97,35.68-31.04,45.27-52.2"/>
    <path class="st1" d="M386.11,480.55c-85.61-88.33-153.58-193.67-198.78-308.08"/>
    <path class="st1" d="M379.87,478.93c-94.12-4.98-185.6-54.27-272.31-91.2-42.89-18.27-85.78-36.53-128.67-54.8"/>
    <path class="st1" d="M564.83,381.86c76.67-13.52,152.67-30.85,227.62-51.91"/>
    <path class="st1" d="M555.94,381.08c46.22-65.08,84.16-136.04,112.61-210.63"/>
    <path class="st1" d="M456.75,264.2c64.52-44.15,125.91-92.87,183.56-145.67"/>
    <path class="st1" d="M274.35,343.51c-2.12-83.51,49.01-162.01,44.32-245.41"/>
    <path class="st1" d="M275.46,340.56c-61.35-20.3-122.71-40.6-184.06-60.89"/>
    <path class="st1" d="M176.53,417.55c-11.62-29.75-37.99-50.87-56.05-77.2-16.28-23.74-25.83-51.81-43.89-74.23"/>
    <path class="st1" d="M165.57,413.37c-11.95,5.7-22.84,13.36-33.67,20.98-32.96,23.2-65.93,46.41-98.89,69.61"/>
  </g>
</svg>