<?xml version="1.0" encoding="UTF-8"?>
<svg id="Capa_1" xmlns="http://www.w3.org/2000/svg" width="4024.53" height="971.25" version="1.1" viewBox="0 0 4024.53 971.25">
  <!-- Generator: Adobe Illustrator 29.4.0, SVG Export Plug-In . SVG Version: 2.1.0 Build 152)  -->
  <defs>
    <style>
      .st0 {
        fill: #bfc6d1;
      }

      .st1 {
        fill: #7f9aa0;
      }
    </style>
  </defs>
  <path class="st0" d="M3695.5,234.37c-67.33-14.77-99.83,35.66-99.83,35.66,0,0,23.22-222.88-92.87-229.84-96.24-5.77-95.14,143.25-91.95,194.36-4-35.35-18.94-114.13-72.89-117.68-61.79-4.07-46.83,156.19-42.67,192.4-3.41-22.49-18.92-90.71-82.7-104.24-76.61-16.25-87.33,223.68-87.33,223.68l36.25,122.24,598.98,18.57s2.32-320.39-65.01-335.16h.02Z"/>
  <path class="st0" d="M1492.35,371.45s-7.2-259.43,91.2-254.52c98.4,4.91,100.29,206.9,100.29,206.9,0,0,7.71-84.57,77.31-79.67,69.6,4.89,105.6,349.5,105.6,349.5l-374.53-27.58.12-194.63h.01Z"/>
  <path class="st1" d="M0,216.82v750.61h4024.53v-429.88c-20.15-26.86-249.5-3.36-271.33-16.79s-45.33-144.39-90.67-177.97-280.39-8.39-325.72-10.07-65.31,74.21-132.64,72.2c-67.33-2.01-290.47-5.04-406.32-2.06s-142.71,106.15-183.01,111.19c-40.3,5.04-171.26-1.68-213.23,1.68s-70.52,95.7-104.1,94.02-241.95,20.2-273.68,8.3-53.73-88.89-90.67-102.44-213.23-2.6-213.23-2.6c0,0-171.26-240.74-201.48-261.41-30.22-20.67-104.1-16.27-196.44-16.27s-121.54,121.63-146.76,115.24-64.47-116.93-80.35-144.96c-15.89-28.03-99.21-49.35-248.86-52.63-167.05-3.67-214.66,70.4-360.15,70.4S303.38,3.82,184.35,1.18,0,1.18,0,1.18v215.64h0Z"/>
</svg>