<?xml version="1.0" encoding="UTF-8"?>
<svg id="Capa_1" xmlns="http://www.w3.org/2000/svg" width="3459.33" height="1945.87" xmlns:xlink="http://www.w3.org/1999/xlink" version="1.1" viewBox="0 0 3459.33 1945.87">
  <!-- Generator: Adobe Illustrator 29.4.0, SVG Export Plug-In . SVG Version: 2.1.0 Build 152)  -->
  <defs>
    <style>
      .st0, .st1, .st2, .st3, .st4, .st5, .st6 {
        fill: none;
      }

      .st1 {
        stroke: #4a705e;
        stroke-linejoin: round;
        stroke-width: 7.44px;
      }

      .st1, .st5 {
        stroke-linecap: round;
      }

      .st7 {
        fill: #5f9b88;
      }

      .st2 {
        stroke: #2e4144;
      }

      .st2, .st3, .st4, .st5, .st6 {
        stroke-miterlimit: 10;
      }

      .st2, .st3, .st5, .st6 {
        stroke-width: 6px;
      }

      .st3 {
        stroke: #606028;
      }

      .st8 {
        fill: #d87544;
      }

      .st9 {
        fill: #4a707c;
      }

      .st10 {
        fill: #99a040;
      }

      .st11 {
        fill: #aa573a;
      }

      .st12 {
        fill: #e2a771;
      }

      .st13 {
        fill: #e2c033;
      }

      .st14 {
        fill: #415256;
      }

      .st15 {
        clip-path: url(#clippath-1);
      }

      .st16 {
        clip-path: url(#clippath-3);
      }

      .st17 {
        clip-path: url(#clippath-2);
      }

      .st18 {
        fill: #797a43;
      }

      .st4 {
        stroke: #f4d6a6;
        stroke-width: 4px;
      }

      .st19 {
        fill: #b6bf56;
      }

      .st20 {
        fill: #6f929b;
      }

      .st5 {
        stroke: #446b5a;
      }

      .st21 {
        fill: #4a705e;
      }

      .st22 {
        fill: #6b8e7e;
      }

      .st23 {
        fill: #ede2a2;
      }

      .st6 {
        stroke: #5f7d82;
      }

      .st24 {
        clip-path: url(#clippath);
      }
    </style>
    <clipPath id="clippath">
      <path class="st0" d="M2207.22,1002.51s53.83-128.81,109.59-182.64c55.75-53.83,26.92-232.63,26.92-232.63,0,0-174.95-55.75-203.79-92.28s-103.82-274.93-103.82-274.93l44.22-9.61s53.83,184.57,86.52,199.95,174.06,26.73,174.06,26.73c0,0,29.04-61.14-71.34-142.69-26.69-21.69-81.8-145.51-75.91-183.96h26.28s44.97,128.81,93.03,144.19c48.06,15.38,123.04-9.61,123.04-9.61V14.31h353.75s-17.3,273.01-9.61,305.69,134.58,17.3,176.88-42.3c42.3-59.6,23.07-226.86,23.07-226.86l67.29,3.85s17.3,171.11-13.46,259.55c-30.76,88.44-215.33,211.48-224.94,257.62-9.61,46.14-1.92,173.03,32.68,224.94s117.28,115.35,107.66,219.17h-140.44s13.28-32.25,0-36.05-21.82,24.66-21.82,24.66c0,0-3.79-41.74-20.87-36.99-17.07,4.74-6.64,48.38-6.64,48.38,0,0-160.31-10.43-195.41-10.43s-79.68,9.49-94.86,10.43c0,0,20.87-54.07,3.79-54.07s-22.77,36.05-22.77,36.05c0,0,3.79-36.05-8.54-36.05s-7.59,54.07-7.59,54.07c0,0-9.49-31.3-22.77-26.56s-5.69,26.56-5.69,26.56c0,0-74.94,0-100.55-7.59,0,0,5.69-33.2-7.59-33.2s-11.38,31.3-11.38,31.3l-79.01-3.97h.02Z"/>
    </clipPath>
    <clipPath id="clippath-1">
      <path class="st0" d="M3339.98,0h-1686.66s-3.99,188.6,94.69,195.91c98.68,7.31,113.3-122.44,113.3-122.44,0,0,18.27,202.85,140.72,199.19,122.44-3.65,144.37-202.85,144.37-202.85,0,0,12.79,105.99,129.75,102.34,49.59-1.55,72.89-17.22,83.29-34.77-6.59,100.88-8.99,315.77,90.32,314.37,129.75-1.83,71.27-323.46,71.27-323.46,0,0,25.58,131.58,158.99,124.27s126.1-188.23,126.1-188.23c0,0,9.14,102.34,109.65,98.68,60.97-2.22,81.59-28.64,88.38-49.08-3.12,35.85-2.88,99.46,37.72,102.08,39.51,2.55,47.91-58.89,49.37-96.31,1.97,61.9,17.81,204.78,122.41,200.48,133.41-5.48,212.22-214.18,126.33-320.17h0Z"/>
    </clipPath>
    <clipPath id="clippath-2">
      <path class="st0" d="M993.38,1007.25s-17.46-506.38-17.46-595.87,13.1-257.45,32.74-411.38h-91.67s-34.92,297.88-43.65,313.16-43.65-15.28-50.2-37.11S796.94,0,796.94,0h-34.92s-6.55,243.32,0,295.7,69.85,124.41,69.85,152.79-100.4,547.85-100.4,547.85l31.54.85s-14.49-23.01-4.26-24.72,18.75,23.01,18.75,23.01c0,0,.85-22.16,11.93-21.31s5.11,25.57,5.11,25.57l109.95.85s-4.26-25.57,9.38-25.57,12.79,32.22,12.79,32.22h66.74-.02,0Z"/>
    </clipPath>
    <clipPath id="clippath-3">
      <path class="st0" d="M2013.05,1210.14s114.79-.02,190-62.03,29.03-98.94-5.28-94.99-83.12,23.75-120.07,63.33c0,0,75.21-165.91-15.83-161.46s-83.12,165.42-83.12,165.42c0,0-87.28-124.44-129.3-58.05-54.28,85.75,163.61,147.78,163.61,147.78h0Z"/>
    </clipPath>
  </defs>
  <path class="st19" d="M-1.33,918.84s337.35-57.18,476.66-29.32,448.34,62.57,531.93,65.48,141.85,0,141.85,0c0,0-11.08-28.59,0-29.44s24.73,30.74,24.73,30.74c0,0,7.67-30.74,21.32-30.74s7.67,30.74,7.67,30.74c0,0,197.77,12.8,334.11-20.16s540.87-77.91,582.82-77.91c0,0-16.04-21.85-8.74-25.1,7.31-3.25,20.29,17.05,20.29,17.05,0,0,3.25-40.58,13.8-39.77s4.06,27.6,4.06,27.6c0,0,6.49-11.36,12.99-7.31s-5.68,24.35-5.68,24.35c0,0,325.52,6.06,554.14,46.94,204.71,36.6,298.41-24.87,625.24,39.56,38.18,7.53,64.49,22.87,123.49,28.09l-.03,941.81L-1.33,1910.01v-991.16h0Z"/>
  <path class="st10" d="M-1.33,1576.59h640.08s-.79-23.63,10.25-23.63,21.29,23.63,21.29,23.63c0,0,9.46-49.65,25.23-48.86s7.89,54.41,7.89,54.41c0,0,326.91,3.71,389.92,0s139.26-11.59,139.26-11.59c0,0,3.23-24.79,15.09-23.72s15.09,19.4,15.09,19.4c0,0,170.78-17.72,290-17.72s320.61,16.11,356.06,14.5,30.1-2.5,30.1-2.5c0,0,1.78-25.84,12.47-25.84s14.26,21.08,14.26,21.08h67.71s5.35-43.36,18.71-43.36,13.36,42.77,13.36,42.77c0,0,81.98,4.72,175.51,3.83s172.8-.89,172.8-.89c0,0-4.45-39.19,10.69-39.19s22.27,32.96,22.27,32.96c0,0,16.03-27.61,28.5-25.83s-1.78,28.5,3.56,34.74c0,0,338.03-5.72,399.49-3.89s133.01,4.59,133.01,4.59c0,0-10.09-41.28,0-42.2s33.02,34.86,33.02,34.86c0,0,11.01-54.12,28.44-50.45s0,51.37,0,51.37c0,0,14.68-22.02,21.1-21.1s0,25.69,0,25.69c0,0,82.79-1.67,137.82,1.67s85.04,3.34,85.04,3.34c0,0,4.75-22.1,14.02-21.39s10.69,21.39,10.69,21.39c0,0,78.13-3.01,118.24-1.5v382.71H-1.33v-369.28h0Z"/>
  <g>
    <path class="st18" d="M2207.22,1002.51s53.83-128.81,109.59-182.64c55.75-53.83,26.92-232.63,26.92-232.63,0,0-174.95-55.75-203.79-92.28s-103.82-274.93-103.82-274.93l44.22-9.61s53.83,184.57,86.52,199.95,174.06,26.73,174.06,26.73c0,0,29.04-61.14-71.34-142.69-26.69-21.69-81.8-145.51-75.91-183.96h26.28s44.97,128.81,93.03,144.19c48.06,15.38,123.04-9.61,123.04-9.61V14.31h353.75s-17.3,273.01-9.61,305.69,134.58,17.3,176.88-42.3c42.3-59.6,23.07-226.86,23.07-226.86l67.29,3.85s17.3,171.11-13.46,259.55c-30.76,88.44-215.33,211.48-224.94,257.62-9.61,46.14-1.92,173.03,32.68,224.94s117.28,115.35,107.66,219.17h-140.44s13.28-32.25,0-36.05-21.82,24.66-21.82,24.66c0,0-3.79-41.74-20.87-36.99-17.07,4.74-6.64,48.38-6.64,48.38,0,0-160.31-10.43-195.41-10.43s-79.68,9.49-94.86,10.43c0,0,20.87-54.07,3.79-54.07s-22.77,36.05-22.77,36.05c0,0,3.79-36.05-8.54-36.05s-7.59,54.07-7.59,54.07c0,0-9.49-31.3-22.77-26.56s-5.69,26.56-5.69,26.56c0,0-74.94,0-100.55-7.59,0,0,5.69-33.2-7.59-33.2s-11.38,31.3-11.38,31.3l-79.01-3.97h.02Z"/>
    <g class="st24">
      <g>
        <path class="st3" d="M2037.98,299.15c10.9,48.68,33.39,95.24,67.72,131.43,34.33,36.2,80.85,61.5,130.45,66.85,8.31.9,17.02,1.34,24.27,5.49,10.36,5.92,15.36,17.89,19.66,29.02,5.5,14.22,11.08,28.83,11.17,44.07.1,15.24-6.48,31.5-19.94,38.65"/>
        <path class="st3" d="M2326.29,209.72c38.03,60.63,76.07,121.26,114.1,181.9,31.37,50.01,64.06,106.63,52.26,164.47-8.28,40.57-37.08,73.26-57.98,109.01-30.87,52.79-45.11,115.15-40.21,176.11,1.71,21.31,5.69,42.78,2.43,63.9-2.48,16.05-9.03,31.14-14.89,46.29-18.25,47.16-30.27,96.72-35.66,147"/>
        <path class="st3" d="M2511.74,194.67c-18.75,61.15,5.36,126.94,35.23,183.5s66.56,111.93,75.13,175.31c11.71,86.58-31.21,173.72-19.21,260.26,4.52,32.58,16.66,63.54,28.71,94.14,29.97,76.1,59.93,152.19,89.9,228.29"/>
        <path class="st3" d="M2839.86,690.16c-37.19-25.91-75.73-53.32-97.02-93.33s-19.04-96.48,17.31-123.55c22.65-16.87,52.6-18.9,79.82-26.43,38.27-10.59,73.08-33.32,98.15-64.11,12.13-14.89,22.12-31.87,26.64-50.54,10.43-43.12-9.3-87.19-28.53-127.17"/>
        <path class="st3" d="M2829.85,288.64c-31.96,28.24-80.42,33.78-120.3,18.67-39.88-15.11-71.15-48.62-89.21-87.26-18.06-38.63-23.86-82.08-23.04-124.72"/>
        <path class="st3" d="M2192.79,213.22c26.83.98,53.56,4.38,79.78,10.15,14.35,3.16,28.79,7.13,41.23,14.94s22.8,20.01,25.36,34.48c4.35,24.53-13.69,46.82-30.5,65.21-13.28,14.53-26.56,29.05-39.85,43.58"/>
      </g>
    </g>
  </g>
  <g>
    <path class="st12" d="M3339.98,0h-1686.66s-3.99,188.6,94.69,195.91,113.3-122.44,113.3-122.44c0,0,18.27,202.85,140.72,199.19,122.44-3.65,144.37-202.85,144.37-202.85,0,0,12.79,105.99,129.75,102.34,49.59-1.55,72.89-17.22,83.29-34.77-6.59,100.88-8.99,315.77,90.32,314.37,129.75-1.83,71.27-323.46,71.27-323.46,0,0,25.58,131.58,158.99,124.27s126.1-188.23,126.1-188.23c0,0,9.14,102.34,109.65,98.68,60.97-2.22,81.59-28.64,88.38-49.08-3.12,35.85-2.88,99.46,37.72,102.08,39.51,2.55,47.91-58.89,49.37-96.31,1.97,61.9,17.81,204.78,122.41,200.48,133.41-5.48,212.22-214.18,126.33-320.17h0Z"/>
    <g class="st15">
      <g>
        <path class="st4" d="M1592.32,154.63c17.91-25.34,37.13-50.56,64.47-65.57,26.78-15.14,58.83-19.44,88.76-12.74,35.37,7.61,65.69,27.87,97.69,45.08,61.99,34.86,130.01,47.79,199.68,30.82,44.19-10.33,83.37-34.07,121.35-58.45,30.44-19.33,61.53-37.14,96.3-46.46,86.46-23.26,164.72,5.45,229.84,63.54,25.02,21.16,50.16,43.38,79.31,58.11,39.75,20.64,85.25,26.76,129.6,27.11,65.11.73,130.26-12.58,186.86-45.03,51.03-28.08,95.82-68.62,149.35-91.83,47.34-21.26,103.24-23.31,150.53-.96,16.72,7.67,32.19,18.03,45.88,30.34,31.24,27.58,52.2,66.27,81.63,94.8,14.33,14.01,30.96,25.55,49.26,33.74,48.33,21,109.49,25.37,157.4,2.24,21.03-10.43,37.63-27.03,53.77-44.08"/>
        <path class="st4" d="M2210.47,272.76c34.06-10.69,68.84-19.17,104.33-23.24,28.54-3.2,58.79-4.99,85.81,6.31,43.38,18.05,64.66,64.93,100.13,94.21,45.96,39.48,109.89,56.4,169.51,46.71,20.51-3.15,39.95-10.31,59.03-18.44"/>
        <path class="st4" d="M1886.55-36.83c11.87,15.66,23.83,31.37,37.76,45.23,27.42,27.95,64.46,46.34,103.22,49.64,107.21,8.82,197.54-71.06,290.44-113.28,43.09-19.82,91.05-33.05,138.6-25.7,79.15,12.14,111.63,65.53,165.59,114.93,51.32,47.1,119.91,67.12,188.87,76.02,32.44,4.12,66.01,5.71,97.96-1.83,47.87-10.89,87.7-43.02,124.55-75.57,47.33-41.92,90.22-90.63,113.8-149.64,4.52-10.68,8.69-21.51,12.85-32.34"/>
      </g>
    </g>
  </g>
  <g>
    <path class="st14" d="M993.38,1007.25s-17.46-506.38-17.46-595.87,13.1-257.45,32.74-411.38h-91.67s-34.92,297.88-43.65,313.16-43.65-15.28-50.2-37.11S796.94,0,796.94,0h-34.92s-6.55,243.32,0,295.7,69.85,124.41,69.85,152.79-100.4,547.85-100.4,547.85l31.54.85s-14.49-23.01-4.26-24.72,18.75,23.01,18.75,23.01c0,0,.85-22.16,11.93-21.31s5.11,25.57,5.11,25.57l109.95.85s-4.26-25.57,9.38-25.57,12.79,32.22,12.79,32.22h66.74-.02,0Z"/>
    <g class="st17">
      <g>
        <path class="st2" d="M994.88-8.81c-23.94,119.27-38.59,240.4-43.79,361.94-1.55,36.25-2.26,72.58-6.16,108.66-11.19,103.62-48.43,203.57-54.08,307.64-5.41,99.7,18.38,198.42,42,295.44"/>
        <path class="st2" d="M839.01,1038.65c-5.19-70.3-2.17-141.21,8.97-210.81,9.07-56.66,23.54-112.88,23.86-170.26.44-79.61-28.29-160.28-84.09-217.05"/>
        <path class="st2" d="M804.07,458.47c-3.94-61.47,4.63-122.99,13.17-183.99,1.5-10.68,3.01-21.45,6.59-31.63,6.17-17.54,18.09-32.37,29.79-46.81"/>
        <path class="st2" d="M748.4,248.79c-4.27-38.12,9.79-76.01,28.02-109.76,22.2-41.1,50.98-78.65,84.9-110.77"/>
      </g>
    </g>
  </g>
  <g>
    <path class="st14" d="M2013.05,1210.14s114.79-.02,190-62.03,29.03-98.94-5.28-94.99-83.12,23.75-120.07,63.33c0,0,75.21-165.91-15.83-161.46s-83.12,165.42-83.12,165.42c0,0-87.28-124.44-129.3-58.05-54.28,85.75,163.61,147.78,163.61,147.78h0Z"/>
    <g class="st16">
      <g>
        <path class="st6" d="M1990.02,1215.44c-8.68-13.44-17.95-30.04-8.55-45.32,11.46-18.58,46.13-22.58,64.38-13.09,15.36,7.66,20.53,26.62,14.88,42.21-2.38,7.19-6.67,13.99-11.04,20.77"/>
        <path class="st6" d="M1958.05,1202.54c-4.62-27.77-8.96-58.33,3.98-84.42,20.39-43.49,79.78-51.2,115.17-21.41,34.8,28.74,33.55,78.01,36.81,119.35"/>
        <path class="st6" d="M1908.35,1189.2c-12.36-20.5-17.9-39.11-11.91-62.84,4.35-17.67,13.26-33.93,23.06-49.16,19.76-30.36,46.21-58.65,82.11-67.64,28.81-7.41,59.87-1.34,85.46,13.38,70.63,41.23,79.59,126.62,54.15,198.12"/>
      </g>
    </g>
  </g>
  <path class="st14" d="M3371.4,1229.41c-33.84-20.1-50.51,13.69-56.44,30.47,5.28-20.63,12.15-71.22-47.46-71.22-74.88,0-57.42,84.81-57.42,84.81,0,0-74-21.62-66.52,43.24h217.03s57.09-59.82,10.81-87.31h0Z"/>
  <path class="st9" d="M2311.75,1245.57c-.97,22.99,88.51,3.62,141.61,7.12,0,0-15.25-24.26-5.46-24.26s16.65,19.58,16.65,19.58c0,0,1.96-17.62,14.69-19.58s0,24.26,0,24.26c0,0,53.85-.22,66.58,0s9.79-38.95,0-62.45-17.62-43.08-51.9-53.85c-34.27-10.77-93.02-43.08-116.52-36.23s-31.33,47.98-41.12,65.6-23.6,57.77-24.53,79.8h0Z"/>
  <path class="st20" d="M2418.53,1315.58s-72.72,1.05-89.44,0c0,0,11.57-12.63,3.22-13.91s-14.15,14.38-14.15,14.38h-16.72s14.79-33.03,5.79-33.03-14.79,33.03-14.79,33.03c0,0-25.72.23-38.58,0s-33.44-3.45-45.01-4.09-8.36-18.01-3.86-28.94c4.5-10.93,15.43-30.22,18.65-37.94s9-39.23,19.93-43.08,72.66,3.86,98.39,3.22,42.44,14.79,50.16,35.37,30.34,35.54,26.42,75h0Z"/>
  <path class="st20" d="M739.84,1139.46c-9.84-18.33-9.1-70.2,20.8-72.8s65-24.7,93.61-24.7,54.6,16.9,62.4,32.5,33.8,2.6,36.4,16.25,5.2,35.75-6.5,48.75-53.01,8.65-53.01,8.65c0,0,10.6-8.01,6.3-12.93s-15.36,12.93-15.36,12.93c0,0-68.19.02-78.63,0,0,0,15.36-37.5,4.91-38.73s-16.59,24.57-16.59,24.57c0,0,4.3-25.19-8.6-25.19s7.99,40.15-1.23,40.04-39.24.45-44.5-9.35h0Z"/>
  <path class="st7" d="M174.3,1072.64s120.68-11.84,134.09-47.58-39.27-37.66-39.27-37.66c0,0,114.96-26.03,82.38-87.72s-80.47-8.06-80.47-8.06c0,0,60.42-88.12-5.23-111.1-65.65-22.99-69.48,51.72-64.69,92.9,0,0-22.99-74.71-72.79-45.97s-6.7,102.48,31.61,113.02c0,0-49.74-16.28-54.08,17.24s25.35,75.66,68.45,114.93h0Z"/>
  <path class="st5" d="M245.5,828.23s-54.74,120.73-71.2,244.41c-2.01,15.07-3.5,29.03-4.58,41.93"/>
  <path class="st22" d="M1938.47,1196.38l-64.85,18.23,56.12,11.21c-8.85,23.36-19.55,40.26-19.55,40.26h-181.26s-9.78-15.22-18.38-36.73l64.2-7.97-73.36-20.82c-5.06-21.84-5.85-45.68,4.82-65.66l76.67,58.04-45.82-87.42c15.17-7.95,35.61-13.45,62.72-15.36h.01l19.77,79.76,23.71-79.77c21.59,1.57,38.79,5.57,52.35,11.35l-32.83,79.25,69.36-48.44c10.9,19.24,10.8,42.44,6.32,64.07h0Z"/>
  <path class="st1" d="M3175.45,837.97s72.63,54.81,46.59,152.1"/>
  <path class="st21" d="M3218.6,898.83s9.88-35.66,51.24-43.05,59.08-2.22,49.48,12.55c-9.6,14.77-30.11,46.22-100.72,30.49h0Z"/>
  <polygon class="st23" points="3157.58 759.04 3157.58 688.15 3117.71 691.84 3146.51 762.73 3111.06 718.42 3088.9 733.19 3133.96 770.12 3060.1 740.58 3043.11 770.12 3135.44 781.94 3157.58 759.04"/>
  <path class="st13" d="M3060.1,808.52s54.28,71.26,125.36,38.58,16.1-131.64,16.1-131.64l-141.46,93.05h0Z"/>
  <path class="st8" d="M1679.44,983.54c35.97-11.16,80.62-3.72,85.58,12.4s-6.2,35.97-55.81,39.69-52.27-10.87-55.9-28.38,26.13-23.71,26.13-23.71h0Z"/>
  <path class="st8" d="M1816.18,958.33c26.32.91,46.97,27.04,14.94,29.18s-52.66-1.42-51.95-14.59,16.37-15.3,37.01-14.59h0Z"/>
  <path class="st8" d="M507.81,1181.69c39.1-31.53,90.99-29.04,132.61-19.36s42.59,56.14-52.27,61.95-110.35-18.39-80.34-42.59h0Z"/>
  <path class="st8" d="M674.32,1225.15c21.02-9.93,57.11-25.07,103.58-4.74,46.46,20.33-.97,53.24-58.08,44.53s-74.95-25.86-45.5-39.78h0Z"/>
  <path class="st8" d="M580.68,1258.16c34.19-4.64,85.95-4.84,79.63,16.46s-60.02,21.3-79.63,11.62-26.92-24.42,0-28.07h0Z"/>
  <path class="st8" d="M3280.63,1054.16c19.61-15.55,66.16-16.84,90.22-7.22s20.45,39.7-26.46,43.3c-46.91,3.61-98.64-8.42-63.75-36.09h-.01Z"/>
  <path class="st8" d="M3175.45,1110.69c2.25-20.21,41.43-21.75,67.9-11.48s45.71,42.75,7.22,45.16-78.06-7.22-75.12-33.68h0Z"/>
  <path class="st23" d="M2252.84,861.6c5.9,8.8,32.75,53.24,58.41,51.46s56.23-44.91,57.32-53.64c1.09-8.73-92.8-10.37-103.72-10.37s-19.49,1.4-12.01,12.56h0Z"/>
  <path class="st11" d="M2235.09,843.46c.54,7.77-2.69,15.87,77.84,18.86s74.85-1.11,62.57-13.28c-12.27-12.17-41.91-18.76-54.19-18.46s-47.6-4.19-61.67-1.5c-14.07,2.69-25.15,5.69-24.55,14.37h0Z"/>
  <path class="st23" d="M2441.06,794.06c2.24,4.28,36.23,48.2,53.89,47.9s43.71-24.85,48.5-36.52c4.79-11.68,15.87-20.66-8.98-20.96s-103.29-9.28-93.41,9.58Z"/>
  <path class="st11" d="M2422.8,782.09c4.55,6.68,10.18,14.67,55.98,13.77,45.81-.9,68.56,6.59,80.53,1.8,11.98-4.79,11.08-13.47-23.05-20.96-34.13-7.48-63.47-14.37-86.52-11.38s-32.43,8.7-26.94,16.76h0Z"/>
  <path class="st23" d="M2313.54,702.75c3.85,7.52,41.31,41.61,58.38,41.31s38.92-25.15,46.4-47-42.21-8.68-59.58-8.98c-17.36-.3-51.79,1.8-45.21,14.67h.01Z"/>
  <path class="st11" d="M2295.56,703.35c6.09,2.86,50.9,0,75.15,0s63.17,4.19,67.96-3.89-11.38-27.84-27.24-28.14-33.27,5.99-43.88,5.99-19.89-8.08-43.84-2.4c-23.95,5.69-37.72,23.95-28.14,28.44h-.01Z"/>
</svg>