<?xml version="1.0" encoding="UTF-8"?>
<svg id="Capa_1" xmlns="http://www.w3.org/2000/svg" width="2747.99" height="899.15" xmlns:xlink="http://www.w3.org/1999/xlink" version="1.1" viewBox="0 0 2747.99 899.15">
  <!-- Generator: Adobe Illustrator 29.4.0, SVG Export Plug-In . SVG Version: 2.1.0 Build 152)  -->
  <defs>
    <style>
      .st0, .st1, .st2, .st3 {
        fill: none;
      }

      .st4 {
        fill: #ceb33e;
      }

      .st5 {
        fill: #bca33b;
      }

      .st1 {
        stroke: #edd56e;
      }

      .st1, .st2, .st3 {
        stroke-width: 4px;
      }

      .st1, .st3 {
        stroke-linecap: round;
        stroke-linejoin: round;
      }

      .st6 {
        fill: #597c6b;
      }

      .st7 {
        fill: #415256;
      }

      .st8 {
        clip-path: url(#clippath-1);
      }

      .st9 {
        clip-path: url(#clippath-3);
      }

      .st10 {
        clip-path: url(#clippath-4);
      }

      .st11 {
        clip-path: url(#clippath-2);
      }

      .st12 {
        fill: #a08d3a;
      }

      .st13 {
        fill: #e0bf85;
      }

      .st14 {
        fill: #4a705e;
      }

      .st15 {
        fill: #6b8e7e;
      }

      .st16 {
        fill: #c9d67c;
      }

      .st17 {
        fill: #8c7a2d;
      }

      .st18 {
        clip-path: url(#clippath);
      }

      .st2 {
        stroke: #87b29e;
        stroke-miterlimit: 10;
      }

      .st3 {
        stroke: #ddc55f;
      }
    </style>
    <clipPath id="clippath">
      <path class="st0" d="M2544.55,693.14c64.35.82,136.32-25.71,147.39-92.14,11.07-66.43-39.44-137.01-117.64-129.4-78.19,7.61-128.44,46.61-127.88,111.53s52.46,109.42,98.13,110.01Z"/>
    </clipPath>
    <clipPath id="clippath-1">
      <path class="st0" d="M2384.7,683.34c36.88-15.09,91.34-46.36,88.57-122.48s-82.35-160.54-183.37-112.1c-101.03,48.44-101.72,141.16-73.35,191.68,28.37,50.51,122.48,61.59,168.15,42.9h0Z"/>
    </clipPath>
    <clipPath id="clippath-2">
      <path class="st0" d="M805.28,500.8c-11.99,4.12-26.12,7.74-41.26,10.9l-34.27-66.13,8.28,71c-18.95,3.17-38.43,5.74-56.55,7.79l-7.71-49.05-12.06,51.14c-34.83,3.45-60.72,4.8-60.72,4.8,0,0-32.62-424.19,88.62-430.87,121.23-6.67,115.67,400.42,115.67,400.42h0Z"/>
    </clipPath>
    <clipPath id="clippath-3">
      <path class="st0" d="M1204.58,597.56c-12.13,4.51-24.41,7.88-36.6,10.33l-13.23-18.35v20.64c-5.02.76-10.02,1.36-14.96,1.82l-17.16-43.72-2.83,44.96c-19.3.57-37.48-.64-53.45-2.61l-6.77-45.49-10.53,42.97c-27.2-4.6-44.68-10.55-44.68-10.55,0,0,28.92-255.82,120.13-260.27,91.2-4.44,80.08,260.27,80.08,260.27h0Z"/>
    </clipPath>
    <clipPath id="clippath-4">
      <path class="st0" d="M1067.55,282.83c-14.68,46.71-53.17,306.17-53.17,306.17-19.41,2.49-37.73,3.34-54.96,2.88l-19.62-73.26-10.64,71.05c-38.37-4.63-70.47-15.68-96.33-28.52l5.59-88.18-41.09,67.24c-30.35-21.04-45.44-40.49-45.44-40.49,51.17-213.56,202.43-439.34,292.53-438.23,90.09,1.11,37.81,174.62,23.13,221.34h0Z"/>
    </clipPath>
  </defs>
  <path class="st14" d="M2413.76,582.09c37.13-3.4,153.62,16.83,173.69,88.1,20.07,71.27,9,106.06-46.36,132.95s-229.56,55.27-241.41-51.3c-11.85-106.56,54.86-164.32,114.09-169.75h-.01Z"/>
  <path class="st6" d="M2648.34,592c44.7.17,99.64,23.53,99.64,89.27s-59.51,100.34-130.09,105.18-77.5-33.91-79.58-99.64,110.02-94.8,110.02-94.8h.01Z"/>
  <path class="st6" d="M2253.92,592c-45.67,0-111.41,53.97-110.72,121.1.69,67.12,71.27,128.02,164.69,110.72s68.51-186.14,68.51-186.14l-122.48-45.67h0Z"/>
  <g>
    <path class="st15" d="M2544.55,693.14c64.35.82,136.32-25.71,147.39-92.14,11.07-66.43-39.44-137.01-117.64-129.4-78.19,7.61-128.44,46.61-127.88,111.53s52.46,109.42,98.13,110.01Z"/>
    <g class="st18">
      <g>
        <path class="st2" d="M2600.09,461.3c-.67,6.45-.95,12.94-.83,19.43.04,2.17.13,4.38.92,6.4,1.33,3.42,4.44,5.8,7.54,7.75,9.67,6.11,20.78,9.94,32.16,11.09,6.42.65,13.31.34,18.72-3.17,2.62-1.7,4.94-4.98,3.56-7.79"/>
        <path class="st2" d="M2556.32,469.57c-3.23,33.16,8.8,70.83,38.67,85.58,12.77,6.31,27.33,7.78,41.55,8.56,35.96,1.97,74.55-.69,103.49-22.12,8.1-6,15.8-15.05,14.06-24.98"/>
        <path class="st2" d="M2484.72,479.23c-3.19,32.75,15.5,65.15,42.39,84.13,26.88,18.97,60.73,25.95,93.63,25.89,46.59-.08,93.26-13.71,131.87-39.8,13.33-9.01,26.19-20.14,31.87-35.19"/>
      </g>
    </g>
  </g>
  <g>
    <path class="st15" d="M2384.7,683.34c36.88-15.09,91.34-46.36,88.57-122.48s-82.35-160.54-183.37-112.1c-101.03,48.44-101.72,141.16-73.35,191.68,28.37,50.51,122.48,61.59,168.15,42.9h0Z"/>
    <g class="st8">
      <g>
        <path class="st2" d="M2244.43,461.51c-5.45,12.64-10.95,26.97-5.79,39.73,6,14.83,23.86,20.88,39.82,21.92,25.54,1.66,51.57-5.16,73-19.14,10.79-7.04,20.57-16.02,26.86-27.26s8.8-24.93,5.1-37.27c-2.72-9.07-9.45-17.55-18.69-19.58"/>
        <path class="st2" d="M2176.84,509.92c-1.37,14.23,6.87,28.16,18.34,36.7s25.74,12.44,39.86,14.65c77.86,12.2,161.29-26.3,202.54-93.46,11.44-18.62,19.98-40.88,14.74-62.1"/>
      </g>
    </g>
  </g>
  <path class="st13" d="M2501.1,794.34s.97-48.67,5.84-61.32,37.96-25.31,49.64-33.09c11.68-7.79,6.1-116.8,6.1-116.8,0,0-15.22,101.23-30.13,105.61s-44.11,3.41-52.87,14.11-20.44,44.77-20.44,44.77c0,0-40.08-42.8-66.19-71.05-14-15.15-64.23-93.44-64.23-93.44,0,0,30.16,75.92,46.71,98.31s48.83,94.47,48.26,113.42,77.3-.51,77.3-.51h0Z"/>
  <path class="st16" d="M-7.68,466.2s888.86-82.57,1155.59,24.55c266.73,107.12,535.74,216.47,718.12,258.88,182.38,42.4,462.79,73.89,462.79,73.89l-93.47,75.63H-7.68v-432.95Z"/>
  <g>
    <path class="st7" d="M600.99,635.46l-17.97-104.22-61.4-35-11.09,137.44s16.19,5.37,32.96,1.77c0,0-11.41-13.35-4.36-13.89,7.04-.54,15.17,15.49,15.17,15.49,0,0,33.23-.71,46.69-1.6h0Z"/>
    <path class="st7" d="M664.3,484.49s14.63,82.9,16.8,101.87,0,44.43,0,44.43c0,0,15.17-2.71,29.26-3.79,0,0-14.09-9.75-7.59-12.46s15.71,9.21,15.71,9.21c0,0-.54-12.46,6.5-12.46s4.33,13,4.33,13c0,0,33.59-4.33,44.97-9.21s-15.17-17.34-17.88-34.68c-2.71-17.34-18.96-153.89-18.96-153.89h-73.15v57.98h.01Z"/>
    <path class="st7" d="M831.73,628.08l26.55-110.54,54.19,2.71s-1.63,94.28,0,102.95-4.33,7.04-18.42,7.59c-14.09.54-20.59-6.5-28.18-6.5s-10.3,8.67-18.42,9.21-17.09.32-15.71-5.42h-.01Z"/>
    <path class="st7" d="M1080.44,567.93s-8.13,65.56-8.67,78.57-9.21,16.26,0,16.26h19.51s-8.13-7.59-3.79-10.84,12.46,10.84,12.46,10.84c0,0,9.21,1.08,14.09,0,0,0-8.13-17.34,0-18.96s9.75,10.17,7.59,19.45c0,0,11.38,1.02,20.05,0s-10.3-21.07-10.3-32.45,1.08-75.86,1.08-75.86l-52.02,13h0Z"/>
    <path class="st17" d="M569.48,337.24l151.22-21.46S705.76-10.84,613.97.28c-91.78,11.12-44.49,336.96-44.49,336.96Z"/>
    <path class="st17" d="M720.7,353.98l234.73,12.23s15.57-333.68-98.99-331.45c-114.56,2.22-135.74,319.22-135.74,319.22Z"/>
    <path class="st12" d="M626.21,554.93c-4.95,2.94-12.61,5.68-21.35,8.15l-15.05-34.43-5.31,39.42c-15.55,3.34-30.73,5.76-38.13,6.87l-31.86-64.25-9.17,70.44c-9.29,1.14-20.23,2.2-33.74,3.03,0,0-33.36-445.96,84.15-451.52,117.52-5.56,90.48,410.42,70.46,422.29h0Z"/>
    <g>
      <path class="st5" d="M805.28,500.8c-11.99,4.12-26.12,7.74-41.26,10.9l-34.27-66.13,8.28,71c-18.95,3.17-38.43,5.74-56.55,7.79l-7.71-49.05-12.06,51.14c-34.83,3.45-60.72,4.8-60.72,4.8,0,0-32.62-424.19,88.62-430.87,121.23-6.67,115.67,400.42,115.67,400.42h0Z"/>
      <g class="st11">
        <g>
          <path class="st3" d="M657.82,220.2v34.13"/>
          <path class="st3" d="M683.14,184.97v35.23"/>
          <path class="st3" d="M713.27,210.43c3.11,15.21,5.36,30.59,6.74,46.05"/>
          <path class="st3" d="M691.95,286.26v41.84"/>
          <path class="st3" d="M645.62,299.47c-.44,16.73,1.83,33.53,6.7,49.54"/>
          <path class="st3" d="M752.1,268.77c4.13,13.45,5.75,27.67,4.75,41.71"/>
          <path class="st3" d="M732.69,335.81v47.34"/>
          <path class="st3" d="M677.23,372.11c-1.85,20.16-1.35,40.55,1.49,60.59"/>
          <path class="st3" d="M628.85,404.02c-2.21,15.43-1.6,31.25,1.79,46.46"/>
          <path class="st3" d="M773.08,352.38c1.84,11.63,2.72,23.41,2.65,35.18"/>
          <path class="st3" d="M703.43,436.08c-2.53,15.03-1.17,30.7,3.92,45.07"/>
          <path class="st3" d="M714.09,184.98c.44-5.77-2.29-11.69-6.96-15.1"/>
        </g>
      </g>
    </g>
    <path class="st12" d="M1157.87,398.47s31.45-219.11-52.12-224.68-118.05,331.45-118.05,331.45l160.22-14.49,9.95-92.28h0Z"/>
    <g>
      <path class="st5" d="M1204.58,597.56c-12.13,4.51-24.41,7.88-36.6,10.33l-13.23-18.35v20.64c-5.02.76-10.02,1.36-14.96,1.82l-17.16-43.72-2.83,44.96c-19.3.57-37.48-.64-53.45-2.61l-6.77-45.49-10.53,42.97c-27.2-4.6-44.68-10.55-44.68-10.55,0,0,28.92-255.82,120.13-260.27,91.2-4.44,80.08,260.27,80.08,260.27h0Z"/>
      <g class="st9">
        <g>
          <path class="st3" d="M1134.75,387.17c3.65,8.33,5.29,17.54,4.75,26.62"/>
          <path class="st3" d="M1105.08,405.74c-.54,12.48-.63,24.97-.27,37.46"/>
          <path class="st3" d="M1078.88,451.22v39.22"/>
          <path class="st3" d="M1166.71,444.45c8.33,9.73,13.06,22.49,13.09,35.3"/>
          <path class="st3" d="M1133.87,472.65c1.89,13.26,2.57,26.69,2.03,40.07"/>
          <path class="st3" d="M1080.71,514.52c-.79,4.11.58,8.58,3.55,11.54"/>
          <path class="st3" d="M1103.2,550.17c-.26,13.37-.51,26.74-.77,40.11"/>
          <path class="st3" d="M1171.05,515.55c3.51,12.37,4.9,25.34,4.09,38.18"/>
          <path class="st3" d="M1048.86,500.82c-5.41,10.4-7.3,22.58-5.3,34.13"/>
          <path class="st3" d="M1134.65,434.38c1.04,4.41.5,9.17-1.5,13.23"/>
        </g>
      </g>
    </g>
    <g>
      <path class="st4" d="M1067.55,282.83c-14.68,46.71-53.17,306.17-53.17,306.17-19.41,2.49-37.73,3.34-54.96,2.88l-19.62-73.26-10.64,71.05c-38.37-4.63-70.47-15.68-96.33-28.52l5.59-88.18-41.09,67.24c-30.35-21.04-45.44-40.49-45.44-40.49,51.17-213.56,202.43-439.34,292.53-438.23,90.09,1.11,37.81,174.62,23.13,221.34h0Z"/>
      <g class="st10">
        <g>
          <path class="st1" d="M974.73,149.5l-18.47,32.39"/>
          <path class="st1" d="M1046.1,138.28c-2.53,13.49-8.83,26.26-18.01,36.46"/>
          <path class="st1" d="M999.88,198.75c-5.39,12.04-8.81,24.96-10.09,38.09"/>
          <path class="st1" d="M1035.16,270.74c.15,15.22-1.63,30.46-5.28,45.24"/>
          <path class="st1" d="M982.58,295.56c-1.81,7.78-2.19,15.89-1.12,23.81"/>
          <path class="st1" d="M933.77,256.14c-11.72,13.76-20.93,29.65-27.06,46.65"/>
          <path class="st1" d="M861.18,323.56c-5.15,8.62-9.43,17.76-12.78,27.22"/>
          <path class="st1" d="M938.81,333.2c.85,17.73-10.96,33.15-18.48,49.22"/>
          <path class="st1" d="M984.33,382.58c-.32,11.06-3.41,22.03-8.91,31.64"/>
          <path class="st1" d="M1003.06,438.83c-.13,18.48-1.56,36.96-4.27,55.24"/>
          <path class="st1" d="M952.63,446.73v29.61"/>
          <path class="st1" d="M891.47,409.21c.78,8.65-1.31,17.28-3.37,25.72-2.57,10.48-5.13,20.96-7.7,31.44"/>
          <path class="st1" d="M879.59,488.18v22.7"/>
          <path class="st1" d="M825.6,415.42c-13.09,14.17-22.77,31.48-27.97,50.05"/>
        </g>
      </g>
    </g>
  </g>
</svg>