<?xml version="1.0" encoding="UTF-8"?>
<svg id="Capa_1" xmlns="http://www.w3.org/2000/svg" width="2360.43" height="415.19" version="1.1" viewBox="0 0 2360.43 415.19">
  <!-- Generator: Adobe Illustrator 29.4.0, SVG Export Plug-In . SVG Version: 2.1.0 Build 152)  -->
  <defs>
    <style>
      .st0 {
        fill: #fff;
      }
    </style>
  </defs>
  <path class="st0" d="M145.68,410.15c7.55,21.92,535.83-34.67,601.81-36.24,65.98-1.57,46.89-119.14,0-114.43-46.89,4.7-53.16,42.32-53.16,42.32,0,0,72.11-235.14-1.57-269.62C619.09-2.31,509.36,7.09,413.74,151.31c0,0-28.22-18.81-76.81,15.68-48.6,34.49-45.46,95.62-45.46,95.62,0,0-41.6,3.31-65.62,19.93s-22.17,39.72-22.17,39.72c0,0-91.99-10.81-58,87.89Z"/>
  <path class="st0" d="M142.96,119.82c-21.83-26.55,16.63-51.73,52.65-51.73s96.72,5.54,89,34.18c-7.72,28.63-107.48,59.12-141.65,17.55Z"/>
  <path class="st0" d="M6.41,32.4c14.83-20.94,78.51-27.71,85.9-4.62s-31.41,36.95-59.12,36.02c-27.71-.92-42.49-9.24-26.79-31.41Z"/>
  <path class="st0" d="M2189.22,289.89c67.74-.42,172.79,6.07,171.19-13.3-1.6-19.37-21.04-80.89-85.59-57.62,0,0,5.26-39.82-12.47-54.3-17.73-14.48-36.57-18.84-36.57-18.84,0,0,29.92-157.35-124.11-145.16-154.03,12.19-139.62,187.27-139.62,187.27,0,0-49.23-34.35-88.33-7.76-39.1,26.59-21.37,69.81-21.37,69.81,0,0-57.62-13.21-59.84,19.44-2.22,32.64,272.5,21.23,396.7,20.46Z"/>
</svg>