<?xml version="1.0" encoding="UTF-8"?>
<svg id="Capa_1" xmlns="http://www.w3.org/2000/svg" width="412.45" height="297.98" version="1.1" viewBox="0 0 412.45 297.98">
  <!-- Generator: Adobe Illustrator 29.4.0, SVG Export Plug-In . SVG Version: 2.1.0 Build 152)  -->
  <defs>
    <style>
      .st0 {
        fill: #418a96;
      }
    </style>
  </defs>
  <path class="st0" d="M407.62,179.92l-109.84,30.88,95.05,18.99c-14.99,39.57-33.11,68.19-33.11,68.19H52.72s-16.56-25.78-31.13-62.21l108.74-13.5L6.08,187C-2.49,150.01-3.83,109.63,14.24,75.79l129.86,98.3L66.49,26.03C92.18,12.57,126.8,3.25,172.72.02h.02l33.48,135.09L246.38,0c36.57,2.66,65.7,9.43,88.67,19.22l-55.6,134.23,117.48-82.04c18.46,32.59,18.29,71.88,10.7,108.52Z"/>
</svg>