<?xml version="1.0" encoding="UTF-8"?>
<svg id="Capa_1" xmlns="http://www.w3.org/2000/svg" width="402.81" height="255.23" xmlns:xlink="http://www.w3.org/1999/xlink" version="1.1" viewBox="0 0 402.81 255.23">
  <!-- Generator: Adobe Illustrator 29.4.0, SVG Export Plug-In . SVG Version: 2.1.0 Build 152)  -->
  <defs>
    <style>
      .st0 {
        fill: #415256;
      }

      .st1 {
        fill: none;
        stroke: #5f7d82;
        stroke-miterlimit: 10;
        stroke-width: 6px;
      }

      .st2 {
        clip-path: url(#clippath);
      }
    </style>
    <clipPath id="clippath">
      <path class="st0" d="M172.29,255.23s114.79-.02,190-62.03,29.03-98.94-5.28-94.99-83.12,23.75-120.07,63.33c0,0,75.21-165.91-15.83-161.46-91.04,4.45-83.12,165.42-83.12,165.42,0,0-87.28-124.44-129.3-58.05-54.28,85.75,163.61,147.78,163.61,147.78Z"/>
    </clipPath>
  </defs>
  <path class="st0" d="M172.29,255.23s114.79-.02,190-62.03,29.03-98.94-5.28-94.99-83.12,23.75-120.07,63.33c0,0,75.21-165.91-15.83-161.46-91.04,4.45-83.12,165.42-83.12,165.42,0,0-87.28-124.44-129.3-58.05-54.28,85.75,163.61,147.78,163.61,147.78Z"/>
  <g class="st2">
    <path class="st1" d="M149.28,260.53c-8.68-13.44-17.95-30.04-8.55-45.32,11.46-18.58,46.13-22.58,64.38-13.09,15.36,7.66,20.53,26.62,14.88,42.21-2.38,7.19-6.67,13.99-11.04,20.77"/>
    <path class="st1" d="M117.3,247.63c-4.62-27.77-8.96-58.33,3.98-84.42,20.39-43.49,79.78-51.2,115.17-21.41,34.8,28.74,33.55,78.01,36.81,119.35"/>
    <path class="st1" d="M67.61,234.29c-12.36-20.5-17.9-39.11-11.91-62.84,4.35-17.67,13.26-33.93,23.06-49.16,19.76-30.36,46.21-58.65,82.11-67.64,28.81-7.41,59.87-1.34,85.46,13.38,70.63,41.23,79.59,126.62,54.15,198.12"/>
  </g>
</svg>