<?xml version="1.0" encoding="UTF-8"?>
<svg id="Capa_1" xmlns="http://www.w3.org/2000/svg" width="279" height="405.72" xmlns:xlink="http://www.w3.org/1999/xlink" version="1.1" viewBox="0 0 279 405.72">
  <!-- Generator: Adobe Illustrator 29.4.0, SVG Export Plug-In . SVG Version: 2.1.0 Build 152)  -->
  <defs>
    <style>
      .st0 {
        fill: #d7848b;
      }

      .st1 {
        fill: #2d2b30;
      }

      .st2 {
        fill: #bfa821;
      }

      .st3 {
        fill: #85dddd;
      }

      .st4 {
        fill: none;
        stroke: #2d2b30;
        stroke-linecap: round;
        stroke-linejoin: round;
        stroke-width: 5px;
      }

      .st5 {
        clip-path: url(#clippath-1);
      }

      .st6 {
        clip-path: url(#clippath-2);
      }

      .st7 {
        fill: #fff;
      }

      .st8 {
        fill: #b5e8e6;
      }

      .st9 {
        fill: #348abf;
      }

      .st10 {
        clip-path: url(#clippath);
      }
    </style>
    <clipPath id="clippath">
      <path class="st3" d="M249.03,281.68c7.55-.74,21.99,4.11,24.68-12.68,5.27-32.85-64.57-19.97-100.84-109.22-36.27-89.25-62.98-115.84-98.84-110.85-49.19,6.85-53.05,104.26-43.85,162.2,9.2,57.94,21.66,88.41,55.75,107.98,34.09,19.56,174.11,21.8,179.45-9.18,3.03-17.58-7.06-25.06-16.34-28.25Z"/>
    </clipPath>
    <clipPath id="clippath-1">
      <circle class="st7" cx="38.42" cy="125.99" r="32.1"/>
    </clipPath>
    <clipPath id="clippath-2">
      <circle class="st7" cx="113.47" cy="120.21" r="32.1"/>
    </clipPath>
  </defs>
  <path class="st7" d="M168.6,405.72c-1.14,0-2.28-.27-3.3-.77-3.53-1.74-5.09-5.89-3.67-9.49-.69.21-1.41.31-2.14.31-2.62,0-5.08-1.39-6.43-3.63-1.03-1.71-1.34-3.73-.85-5.67.43-1.72,1.43-3.21,2.85-4.24-1.1-.39-2.1-1.04-2.92-1.91-1.38-1.46-2.1-3.36-2.05-5.36.12-4.09,3.41-7.29,7.5-7.29l15.9.44c.43-5.93.8-16.25,1.05-29.56-17.86-.16-35.7-1.49-51.18-3.82-.2,12.24-.66,31.72-1.56,38.89-.16,1.26-.45,3.55-1.83,5.83l-10.86,22.1c-1.27,2.59-3.85,4.19-6.73,4.19-1.14,0-2.28-.27-3.3-.77-3.53-1.74-5.09-5.89-3.67-9.49-.69.21-1.41.31-2.14.31-2.62,0-5.08-1.39-6.43-3.63-1.03-1.72-1.34-3.73-.85-5.68.43-1.72,1.43-3.21,2.85-4.24-1.1-.39-2.1-1.04-2.92-1.91-1.38-1.46-2.1-3.36-2.05-5.36.11-4.02,3.46-7.29,7.47-7.29l15.93.44c.5-6.93.92-19.78,1.16-36.12-10.83-2.38-19.21-5.25-24.95-8.54-34.03-19.53-46.31-49.53-54.64-91.48-4.75-3.31-9.12-7.97-13.01-13.88-2.18-3.31-5.19-8.38-6.2-14.24-1.74-10.13,3.36-20.93,12.11-26.5-.31-6.02-.47-12.03-.48-17.95-10.14-3.61-17.97-12.24-20.41-22.87-1.46-6.34-.95-12.86,1.45-18.88,2.85-12.33,11.88-22.35,23.64-26.58-.86.1-1.66.16-2.4.16-5.98,0-7.18-4.01-7.41-5.24-1.3-7.05,5.3-16.3,20.46-20.36,1.91-.51,3.79-.9,5.62-1.16,7.76-11.17,17.5-17.93,28.99-20.14-1.28-3.79-1.81-8.26-1.51-13.17.65-10.6,5-21.01,10.85-25.97,3.64-3.35,8.02-5.19,12.34-5.19,3.46,0,6.59,1.19,8.82,3.36l.18.17.16.19c3.99,4.71,3.34,11.33,1.77,17,.26,0,.52-.01.78-.01,7.55,0,13.18,3.97,14.68,10.36l.04.19.03.19c1.12,7.28-3.12,13.28-12.65,17.93,23.81,12.5,45.1,45.37,70.39,107.34,5.47.45,10.85,2.25,16.03,5.35,13.8,8.28,24.86,15.04,34.61,21.02,8,4.9,14.91,9.13,20.94,12.72,4.94,2.94,8.17,7.69,9.34,13.73,1.51,7.83-.7,17.31-5.5,23.58-.75.98-1.59,1.9-2.51,2.75.49.26.98.52,1.47.78,16.1,8.55,30.01,15.93,27.25,33.14-1.8,11.25-8.31,15.06-13.79,16.35,5.26,6.22,7.17,14.6,5.44,24.64-1.63,9.49-11.67,16.69-29.83,21.41-13.37,3.48-30.91,5.6-50.96,6.19-.22,11.94-.67,28.67-1.49,35.22-.16,1.26-.45,3.56-1.83,5.83l-10.86,22.1c-1.27,2.59-3.85,4.19-6.73,4.19Z"/>
  <path class="st9" d="M240.07,236.2c3.4-1.34,6.33-3.42,8.41-6.13,5.77-7.54,8.22-23.64-2.42-29.97-13.19-7.85-30.07-18.45-55.57-33.74-5.75-3.45-11.46-4.86-16.84-4.75-.26-.61-.52-1.22-.77-1.84-29.99-73.81-53.45-104.76-80.95-110.44,9.37-2.47,23.92-7.5,22.43-17.12-1.61-6.83-10.04-7.53-15.39-5.51-1.96.6-2.82,1-2.67.25,1.93-5.03,6.09-15.02,1.88-20-2.92-2.84-9.13-2.89-14.37,2-8.75,7.3-13.2,30.37-4.64,39.49-1.69.09-3.4.26-5.12.5-12.36,1.72-21.86,9.16-29,20.26-2.34.18-4.8.63-7.19,1.27-8.88,2.38-17.95,8.6-16.83,14.62.5,2.7,9.23,0,16.82-1.66-1.36,3.42-2.59,7.01-3.69,10.76-.97.13-1.94.3-2.91.52-12.51,2.87-21.61,12.69-24.18,24.45-2.07,4.97-2.66,10.61-1.37,16.26,2.39,10.41,10.55,18,20.32,20.18.08.03.15.06.23.09-.09,8.29.14,16.55.63,24.54-8.43,3.8-13.93,13.6-12.35,22.78.77,4.46,2.96,8.55,5.45,12.33,3.5,5.31,7.98,10.33,13.34,13.6,9.02,46.57,22.22,72.72,52.63,90.17,6.17,3.54,15.83,6.51,27.52,8.82-.24,18.93-.77,37.86-1.59,44.43-.03.27-.08.57-.13.87l-20.33-.56c-1.35-.06-2.53,1.05-2.57,2.43s1.05,2.53,2.43,2.57l14.12.39-13.43,8.09c-1.18.71-1.56,2.25-.85,3.43.47.78,1.3,1.21,2.14,1.21.44,0,.88-.12,1.29-.36l12.6-7.58-7.02,14.28c-.61,1.24-.1,2.74,1.14,3.35.35.17.73.26,1.1.26.92,0,1.81-.51,2.25-1.4l10.97-22.34c.91-1.38,1.11-2.95,1.24-4.01.82-6.57,1.35-25.27,1.61-44.13,17.93,3.12,39.81,4.78,61.18,4.7-.27,16.94-.77,32.88-1.51,38.81-.03.27-.08.57-.13.87l-20.33-.56c-1.37-.04-2.53,1.05-2.57,2.43-.04,1.38,1.05,2.53,2.43,2.57l14.12.39-13.43,8.09c-1.18.71-1.56,2.25-.85,3.43.47.78,1.3,1.21,2.14,1.21.44,0,.88-.12,1.29-.36l12.6-7.58-7.02,14.28c-.61,1.24-.1,2.74,1.14,3.35.35.17.73.26,1.1.26.92,0,1.81-.51,2.25-1.4l10.97-22.34c.9-1.38,1.11-2.94,1.24-4.01.76-6.03,1.27-22.28,1.54-39.48,40.65-.68,78.07-7.85,80.78-23.57,3.03-17.58-7.06-25.06-16.34-28.25,7.55-.74,21.99,4.11,24.68-12.68,2.58-16.12-12.91-21.23-33.64-32.79Z"/>
  <path class="st4" d="M182.06,283.29c.65,13.14.16,76.33-1.48,89.38-.14,1.09-.3,2.23-.95,3.11-.5.68-1.25,1.13-1.97,1.56-6.06,3.65-12.12,7.29-18.18,10.94"/>
  <polyline class="st4" points="157.57 375.16 179.62 375.78 168.6 398.22"/>
  <path class="st4" d="M115.82,283.29c.65,13.14.16,76.33-1.48,89.38-.14,1.09-.3,2.23-.95,3.11-.5.68-1.25,1.13-1.97,1.56-6.06,3.65-12.12,7.29-18.18,10.94"/>
  <polyline class="st4" points="91.34 375.16 113.39 375.78 102.36 398.22"/>
  <path class="st9" d="M29.29,179.3c-9.77,2.87-16.5,13.66-14.77,23.7.77,4.46,2.96,8.55,5.45,12.33,5.38,8.17,13.07,15.69,22.75,17.1,4.1.6,8.97-.35,10.98-3.97.87-1.57,1.07-3.42,1.21-5.21.64-8.32.23-16.91-2.99-24.61-3.22-7.7-9.61-14.39-17.72-16.36-2.03-.49-4.39-.86-5.48-2.64"/>
  <g>
    <path class="st3" d="M249.03,281.68c7.55-.74,21.99,4.11,24.68-12.68,5.27-32.85-64.57-19.97-100.84-109.22-36.27-89.25-62.98-115.84-98.84-110.85-49.19,6.85-53.05,104.26-43.85,162.2,9.2,57.94,21.66,88.41,55.75,107.98,34.09,19.56,174.11,21.8,179.45-9.18,3.03-17.58-7.06-25.06-16.34-28.25Z"/>
    <g class="st10">
      <path class="st8" d="M39.55,240.42c-.14-9.26.15-18.7,3.09-27.49,2.94-8.79,8.87-16.96,17.36-20.66,12.82-5.59,28.35.45,37.83,10.73,9.49,10.28,14.25,23.94,18.6,37.24,4.35,13.29,8.74,27.01,17.7,37.75,10.18,12.2,25.72,19.85,33.22,33.87,2.2,4.11,3.61,9.01,2.15,13.44-1.64,4.96-6.42,8.15-11.13,10.41-25.67,12.32-56.3,7.98-83.19-1.37-17.09-5.94-35.58-16.3-38.9-34.08"/>
      <circle class="st0" cx="149.39" cy="159.9" r="35.12"/>
      <circle class="st0" cx="10.38" cy="166.42" r="35.12"/>
    </g>
  </g>
  <path class="st2" d="M80.52,136.13c4.08,3.9,9.18,12.1,7.77,28.28-.24,2.76-1.92,5.07-4.17,5.76l-36.61,9.13,25.47-42.07c1.89-2.75,5.26-3.28,7.54-1.1Z"/>
  <g>
    <circle class="st7" cx="38.42" cy="125.99" r="32.1"/>
    <g class="st5">
      <circle class="st1" cx="31.82" cy="129.41" r="26.81"/>
    </g>
  </g>
  <g>
    <circle class="st7" cx="113.47" cy="120.21" r="32.1"/>
    <g class="st6">
      <circle class="st1" cx="106.87" cy="123.63" r="26.81"/>
    </g>
  </g>
  <path class="st9" d="M21.01,85.08c.67,3.6,15.9-2.39,23.63-2.72s14.69.71,13.3-6.72c-1.4-7.43-11.21-7.55-20.09-5.17s-17.95,8.6-16.83,14.62Z"/>
  <path class="st9" d="M129.76,85.75c-1.01,3.52-15.59-3.91-23.26-4.98s-14.69-.71-12.59-7.97,11.88-6.44,20.49-3.22,17.04,10.29,15.35,16.17Z"/>
  <path class="st3" d="M81.98,50.65c-12.19-6.76-7.75-33.71,1.83-41.71,5.25-4.88,11.45-4.83,14.37-2,4.22,4.98.06,14.97-1.88,20-.15.75.71.35,2.67-.25,5.35-2.02,13.78-1.31,15.39,5.51,1.89,12.26-22.24,17.07-28.54,18.62"/>
  <path class="st9" d="M246.06,200.1c10.64,6.33,8.19,22.43,2.42,29.97-7.57,9.89-26.47,11.51-38.65-1.36,1.21,3.47,4.51,14.29-.78,20.93-7.66,9.62-28.05,3.79-38.26-1.59-25.24-13.3-30.24-45.51-30.25-51.09-.05-21.28,24.46-45.88,49.95-30.59,25.49,15.29,42.37,25.89,55.57,33.74Z"/>
</svg>