<?xml version="1.0" encoding="UTF-8"?>
<svg id="Capa_1" xmlns="http://www.w3.org/2000/svg" width="267.69" height="395.72" xmlns:xlink="http://www.w3.org/1999/xlink" version="1.1" viewBox="0 0 267.69 395.72">
  <!-- Generator: Adobe Illustrator 29.4.0, SVG Export Plug-In . SVG Version: 2.1.0 Build 152)  -->
  <defs>
    <style>
      .st0 {
        fill: #d7848b;
      }

      .st1 {
        fill: #2d2b30;
      }

      .st2 {
        fill: #bfa821;
      }

      .st3 {
        fill: #85dddd;
      }

      .st4 {
        fill: none;
        stroke: #2d2b30;
        stroke-linecap: round;
        stroke-linejoin: round;
        stroke-width: 5px;
      }

      .st5 {
        clip-path: url(#clippath-1);
      }

      .st6 {
        clip-path: url(#clippath-2);
      }

      .st7 {
        fill: #fff;
      }

      .st8 {
        fill: #b5e8e6;
      }

      .st9 {
        fill: #348abf;
      }

      .st10 {
        clip-path: url(#clippath);
      }
    </style>
    <clipPath id="clippath">
      <path class="st3" d="M242.72,276.68c7.55-.74,21.99,4.11,24.68-12.68,5.27-32.85-64.57-19.97-100.84-109.22-36.27-89.25-62.98-115.84-98.84-110.85-49.19,6.85-53.05,104.26-43.85,162.2,9.2,57.94,21.66,88.41,55.75,107.98,34.09,19.56,174.11,21.8,179.45-9.18,3.03-17.58-7.06-25.06-16.34-28.25Z"/>
    </clipPath>
    <clipPath id="clippath-1">
      <circle class="st7" cx="32.11" cy="120.99" r="32.1"/>
    </clipPath>
    <clipPath id="clippath-2">
      <circle class="st7" cx="107.16" cy="115.21" r="32.1"/>
    </clipPath>
  </defs>
  <path class="st4" d="M175.75,278.29c.65,13.14.16,76.33-1.48,89.38-.14,1.09-.3,2.23-.95,3.11-.5.68-1.25,1.13-1.97,1.56-6.06,3.65-12.12,7.29-18.18,10.94"/>
  <polyline class="st4" points="151.26 370.16 173.31 370.78 162.29 393.22"/>
  <path class="st4" d="M109.51,278.29c.65,13.14.16,76.33-1.48,89.38-.14,1.09-.3,2.23-.95,3.11-.5.68-1.25,1.13-1.97,1.56-6.06,3.65-12.12,7.29-18.18,10.94"/>
  <polyline class="st4" points="85.02 370.16 107.08 370.78 96.05 393.22"/>
  <path class="st9" d="M22.98,174.3c-9.77,2.87-16.5,13.66-14.77,23.7.77,4.46,2.96,8.55,5.45,12.33,5.38,8.17,13.07,15.69,22.75,17.1,4.1.6,8.97-.35,10.98-3.97.87-1.57,1.07-3.42,1.21-5.21.64-8.32.23-16.91-2.99-24.61-3.22-7.7-9.61-14.39-17.72-16.36-2.03-.49-4.39-.86-5.48-2.64"/>
  <g>
    <path class="st3" d="M242.72,276.68c7.55-.74,21.99,4.11,24.68-12.68,5.27-32.85-64.57-19.97-100.84-109.22-36.27-89.25-62.98-115.84-98.84-110.85-49.19,6.85-53.05,104.26-43.85,162.2,9.2,57.94,21.66,88.41,55.75,107.98,34.09,19.56,174.11,21.8,179.45-9.18,3.03-17.58-7.06-25.06-16.34-28.25Z"/>
    <g class="st10">
      <path class="st8" d="M33.23,235.42c-.14-9.26.15-18.7,3.09-27.49,2.94-8.79,8.87-16.96,17.36-20.66,12.82-5.59,28.35.45,37.83,10.73,9.49,10.28,14.25,23.94,18.6,37.24,4.35,13.29,8.74,27.01,17.7,37.75,10.18,12.2,25.72,19.85,33.22,33.87,2.2,4.11,3.61,9.01,2.15,13.44-1.64,4.96-6.42,8.15-11.13,10.41-25.67,12.32-56.3,7.98-83.19-1.37-17.09-5.94-35.58-16.3-38.9-34.08"/>
      <circle class="st0" cx="143.08" cy="154.9" r="35.12"/>
      <circle class="st0" cx="4.07" cy="161.42" r="35.12"/>
    </g>
  </g>
  <path class="st2" d="M74.21,131.13c4.08,3.9,9.18,12.1,7.77,28.28-.24,2.76-1.92,5.07-4.17,5.76l-36.61,9.13,25.47-42.07c1.89-2.75,5.26-3.28,7.54-1.1Z"/>
  <g>
    <circle class="st7" cx="32.11" cy="120.99" r="32.1"/>
    <g class="st5">
      <circle class="st1" cx="25.51" cy="124.41" r="26.81"/>
    </g>
  </g>
  <g>
    <circle class="st7" cx="107.16" cy="115.21" r="32.1"/>
    <g class="st6">
      <circle class="st1" cx="100.56" cy="118.63" r="26.81"/>
    </g>
  </g>
  <path class="st9" d="M14.7,80.08c.67,3.6,15.9-2.39,23.63-2.72s14.69.71,13.3-6.72c-1.4-7.43-11.21-7.55-20.09-5.17s-17.95,8.6-16.83,14.62Z"/>
  <path class="st9" d="M123.45,80.75c-1.01,3.52-15.59-3.91-23.26-4.98s-14.69-.71-12.59-7.97,11.88-6.44,20.49-3.22,17.04,10.29,15.35,16.17Z"/>
  <path class="st3" d="M75.66,45.65c-12.19-6.76-7.75-33.71,1.83-41.71,5.25-4.88,11.45-4.83,14.37-2,4.22,4.98.06,14.97-1.88,20-.15.75.71.35,2.67-.25,5.35-2.02,13.78-1.31,15.39,5.51,1.89,12.26-22.24,17.07-28.54,18.62"/>
  <path class="st9" d="M239.75,195.1c10.64,6.33,8.19,22.43,2.42,29.97-7.57,9.89-26.47,11.51-38.65-1.36,1.21,3.47,4.51,14.29-.78,20.93-7.66,9.62-28.05,3.79-38.26-1.59-25.24-13.3-30.24-45.51-30.25-51.09-.05-21.28,24.46-45.88,49.95-30.59,25.49,15.29,42.37,25.89,55.57,33.74Z"/>
</svg>