<?xml version="1.0" encoding="UTF-8"?>
<svg id="Capa_1" xmlns="http://www.w3.org/2000/svg" width="1803.15" height="1509.27" xmlns:xlink="http://www.w3.org/1999/xlink" version="1.1" viewBox="0 0 1803.15 1509.27">
  <!-- Generator: Adobe Illustrator 29.4.0, SVG Export Plug-In . SVG Version: 2.1.0 Build 152)  -->
  <defs>
    <style>
      .st0, .st1, .st2, .st3 {
        fill: none;
      }

      .st4 {
        fill: #aa6392;
      }

      .st5 {
        fill: #2d2b30;
      }

      .st1 {
        stroke: #fff;
        stroke-width: 4.71px;
      }

      .st1, .st2, .st3 {
        stroke-miterlimit: 10;
      }

      .st6 {
        fill: #e2a771;
      }

      .st7 {
        fill: #418a96;
      }

      .st8 {
        clip-path: url(#clippath-1);
      }

      .st9 {
        clip-path: url(#clippath-3);
      }

      .st10 {
        clip-path: url(#clippath-2);
      }

      .st11 {
        fill: #c68c58;
      }

      .st2 {
        stroke: #f4d6a6;
      }

      .st2, .st3 {
        stroke-width: 5px;
      }

      .st12 {
        fill: #fff;
      }

      .st13 {
        fill: #29676d;
      }

      .st14 {
        fill: #704465;
      }

      .st3 {
        stroke: #704465;
      }

      .st15 {
        clip-path: url(#clippath);
      }

      .st16 {
        fill: #93537b;
      }
    </style>
    <clipPath id="clippath">
      <path class="st0" d="M12.3.32s22.23,106.71,77.07,109.68c54.84,2.96,81.52-14.82,81.52-14.82,0,0-1.48,286.05,80.04,297.91,81.52,11.86,120.05-139.64,120.05-139.64,0,0-7.89,286.37,121.3,298.23,129.18,11.86,169.2-115.61,169.2-115.61h516.01s7.18,102.27,109.44,94.86c102.27-7.41,90.41-145.25,90.41-145.25,0,0,29.64,142.28,154.14,131.91s111.16-363.12,111.16-363.12c0,0,183.78-34.41,145.25-154.46L12.3.32Z"/>
    </clipPath>
    <clipPath id="clippath-1">
      <path class="st0" d="M495.54,226.51c-15.2-35.93,26.8-58.96,41.09-53.6,14.29,5.36,159,246.54,334.08,244.75,175.08-1.79,359.09-282.27,389.46-280.49,30.37,1.78,48.24,23.22,39.3,55.38-8.93,32.16-114.34,255.47-117.91,398.4-3.57,142.92,1.79,435.91,46.45,477,44.66,41.09,135.78,41.09,135.78,148.28s-7.15,283.27-7.15,283.27l-850.69-.47s-5.63-177.4.01-248.86c5.65-71.46,48.52-81.86,78.89-120.43,30.37-38.57,8.93-445.9,7.15-569.17-1.79-123.27-76.82-287.63-96.47-334.08v.02Z"/>
    </clipPath>
    <clipPath id="clippath-2">
      <circle class="st0" cx="1007.33" cy="654.52" r="47.46" transform="translate(199.9 1544) rotate(-80.78)"/>
    </clipPath>
    <clipPath id="clippath-3">
      <circle class="st0" cx="751.94" cy="654.52" r="47.46"/>
    </clipPath>
  </defs>
  <path class="st12" d="M525.14,1509.14l-38.21-.18-.02-.02-111.21-.58-2.94-3.1c-32.17-33.93-44.26-83.75-31.55-130.03,13.41-48.83,52.29-85.65,106.67-101.04,12.07-3.42,23.92-5.15,35.22-5.15,3.93,0,7.83.21,11.67.62.34-7.61.74-14.41,1.21-20.29,4.3-54.43,29.27-76.63,53.41-98.1,9.44-8.39,19.2-17.07,27.59-27.73,3.38-4.3,11.48-25.22,13.51-126.37,1.45-72.03-.57-161.64-2.32-225.01-22.28-11.83-30.42-35.4-32.91-56.43-8.5,5.55-19.26,8.5-31.81,8.5-10.89,0-20.37-4.28-27.4-12.39-15.3-17.64-16.36-50.41-15.29-70.75-2.8.69-5.77,1.13-8.78,1.13-6.6,0-22.4-2.44-26.43-25.04-3.36-18.79,3.02-45.06,10.09-66.31-22.27-12.05-40.96-33.78-55.66-64.74-12.76-26.87-22.62-60.88-29.32-101.09-4.65-27.94-7.13-54.79-8.43-76.89-18.69,42.58-52.04,95.59-102.29,95.59-3.45,0-6.98-.26-10.47-.77-22.39-3.26-40.81-22.69-54.75-57.75-10.32-25.96-18.5-61.02-24.31-104.21-7.08-52.62-8.91-104.98-9.38-130.26-12.36,4.56-32.17,9.57-59.54,9.57-4.15,0-8.42-.12-12.68-.35-7.09-.38-14.03-2.2-20.65-5.41-5.1-2.47-10.09-5.8-14.83-9.91-.75-.65-1.49-1.31-2.22-1.99-4.11-3.83-8.12-8.35-11.94-13.43-.6-.8-1.2-1.61-1.78-2.44-5.77-8.08-11.24-17.71-16.23-28.6-.4-.88-.8-1.76-1.19-2.64-.78-1.76-1.53-3.52-2.26-5.26-1.04-2.5-2.07-5.1-3.07-7.72-.64-1.68-1.25-3.35-1.84-4.98-1.36-3.78-2.67-7.68-3.9-11.59-.46-1.44-.89-2.85-1.29-4.2-1.22-4.07-2.35-8.12-3.34-12.03-.23-.92-.44-1.76-.63-2.52-.75-3.06-1.12-4.85-1.14-4.93L0-9.68l1795.18-.31,2.23,6.95c9.77,30.45,7.19,58.53-7.68,83.47-31.84,53.42-110.81,75.93-136.89,82.06.47,24.3.84,97.61-9.19,171-7.24,52.96-18.42,95.77-33.24,127.24-19.61,41.65-45.89,64.13-78.11,66.82-4.58.38-9.15.58-13.59.58h-.02c-50.09,0-92.2-24.51-121.76-70.85-4.63-7.25-8.6-14.49-11.99-21.4-3.93,24.99-12.96,54.2-33.06,75.63,19.14,52.75,27.27,88.29,24.17,105.67-4.04,22.6-19.83,25.04-26.43,25.04-3,0-5.97-.44-8.77-1.13,1.22,23.1-.35,62.04-22.39,77.1-3.9,43.47-12.5,115.22-28.59,146.34-13.37,25.87-53.09,58.09-85.92,81.72,10.27,84.08,23.67,107.74,30.84,114.33,12.17,11.2,28.6,19.33,45.99,27.95,39.79,19.7,84.7,41.95,91.99,108.42,12.05,4.2,22.04,12.11,29.05,22.61,2.78-9.02,6.25-19.17,10.45-29.5,18.16-44.62,40.5-69.61,66.41-74.27,7.1-1.28,14.31-1.93,21.42-1.93,25.37,0,49.26,7.99,69.1,23.11,20.38,15.53,34.96,37.55,42.15,63.68,15.16,55.04,12.83,122.82-6.93,201.44-14.62,58.17-33.37,99.8-34.16,101.54l-2.66,5.86-1042.45-.37ZM1192.26,774.59c.53,17.07,1.18,33.68,1.96,49.68,15.38-4.9,28.56-9.73,38.58-14.15,3.68-1.62,13.32-8.77,23.36-39.97,5.75-17.85,9.76-37.67,12.34-53.08-.57-.33-1.14-.68-1.69-1.04-.66,6.56-1.83,13.27-3.75,19.76-7.21,24.4-23.08,38.97-45.88,42.13-2.4.33-4.78.5-7.07.5-6.38,0-12.37-1.3-17.84-3.85Z"/>
  <path class="st14" d="M1151.5,846.83s51.99-12.85,85.34-27.56,45.17-126.12,45.17-126.12h28.4s-7.85,125.05-29.43,166.79c-21.58,41.74-121.63,104.51-121.63,104.51l-7.85-117.62Z"/>
  <path class="st11" d="M475.17,527.6s-25.25,57.09-19.76,87.83,36.86,9.88,36.86,9.88c0,0-12.71,88.93,31.2,88.93s42.82-39.24,42.82-39.24c0,0-15.37,80.96,39.52,93.04,54.89,12.08,28.54-320.58,28.54-320.58l-159.19,80.14h.01Z"/>
  <path class="st11" d="M1331.21,485.33s40.49,99.35,35,130.09-36.86,9.88-36.86,9.88c0,0,12.71,88.93-31.2,88.93s-42.82-39.24-42.82-39.24c0,0,16.15,85.33-39.52,93.04-98.51,13.64-28.54-320.58-28.54-320.58l143.95,37.88h-.01Z"/>
  <g>
    <path class="st6" d="M12.3.32s22.23,106.71,77.07,109.68c54.84,2.96,81.52-14.82,81.52-14.82,0,0-1.48,286.05,80.04,297.91,81.52,11.86,120.05-139.64,120.05-139.64,0,0-7.89,286.37,121.3,298.23,129.18,11.86,169.2-115.61,169.2-115.61h516.01s7.18,102.27,109.44,94.86c102.27-7.41,90.41-145.25,90.41-145.25,0,0,29.64,142.28,154.14,131.91s111.16-363.12,111.16-363.12c0,0,183.78-34.41,145.25-154.46L12.3.32Z"/>
    <g class="st15">
      <g>
        <path class="st2" d="M49.71,163.04c80.87,43.85,181.28,3.26,257.68-47.99C383.78,63.81,459.19-.63,550.98-6.7c62.43-4.13,126.17,21.83,167.96,68.39,36.21,40.35,56.54,94.71,99.35,127.96,31.14,24.19,72.62,34.56,111.48,27.88,60.93-10.48,107.31-58.1,154.98-97.45,47.68-39.36,110.99-73.81,168.93-52.26,88.11,32.75,104.61,172,196.25,192.96,54.92,12.56,107.93-25.85,147.31-66.14,63.65-65.11,115.62-141.61,152.68-224.78"/>
        <path class="st2" d="M108.63,321.56c74.06,21.95,157.67,9.09,221.7-34.12,45.93-30.99,80.75-75.49,121.15-113.42s91-70.84,146.39-69.18c23.76.71,48.26,8.58,64.36,26.07,35.48,38.54,16.19,99.1,9.43,151.04-10.04,77.26,15.07,158.4,66.99,216.49,15.77,17.64,35.13,33.84,58.47,37.75,41.22,6.91,77.72-25.61,105.56-56.78,13.3-14.89,27.19-33.34,22.84-52.83-6.16-27.62-43.4-36.1-56.71-61.08-11.76-22.07-.08-51.04,20.2-65.67,20.27-14.63,46.54-17.9,71.55-18.05,39.77-.24,81.92,7.34,111.56,33.87,33.69,30.14,44.18,77.54,58.66,120.36,14.49,42.82,40.44,88.57,84.69,97.82,29.64,6.2,61.06-6.59,82.69-27.78s34.64-49.75,43.13-78.82c5.29-18.11,9.1-36.9,18.04-53.51,22.94-42.67,77.4-62.14,125-53.14s88.02,41.84,116.37,81.12c28.36,39.28,46.28,84.95,63.91,130.08"/>
        <path class="st2" d="M341.33,514.05c-11.36-34.26,9.58-73.49,41.25-90.81s70.74-16.05,105.28-5.59c20.88,6.32,41.14,16.04,56.82,31.2,29.89,28.9,38.98,72.76,44.08,114.02,6.56,53.12,8.93,106.66,11.31,160.13"/>
        <path class="st2" d="M852.76-31.24c-3.94,65.59,49.02,137.76,114.19,129.37,18.13-2.34,35.02-10.41,50.75-19.72,52.85-31.29,95.84-77.26,148.78-108.4,52.94-31.14,124.03-44.86,173.71-8.74,43.9,31.92,58.15,92.87,100.51,126.8,56.77,45.47,146.63,23.78,195.99-29.66,49.35-53.43,66.68-128.7,74.97-200.97"/>
      </g>
    </g>
  </g>
  <g>
    <path class="st16" d="M495.54,226.51c-15.2-35.93,26.8-58.96,41.09-53.6,14.29,5.36,159,246.54,334.08,244.75,175.08-1.79,359.09-282.27,389.46-280.49s48.24,23.22,39.3,55.38c-8.93,32.16-114.34,255.47-117.91,398.4-3.57,142.92,1.79,435.91,46.45,477,44.66,41.09,135.78,41.09,135.78,148.28s-7.15,283.27-7.15,283.27l-850.69-.47s-5.63-177.4.01-248.86c5.65-71.46,48.52-81.86,78.89-120.43,30.37-38.57,8.93-445.9,7.15-569.17-1.79-123.27-76.82-287.63-96.47-334.08v.02Z"/>
    <g class="st8">
      <g>
        <path class="st3" d="M1029.28,679.95c131.45,23.75,134.76,164.01,63.05,253.1-52.6,79.81-98.37,158.96-114.73,252.97-19.54,101.87-12.65,251.11,87.56,317.03"/>
        <path class="st3" d="M727.06,679.95c-131.45,23.75-134.76,164.01-63.05,253.1,52.6,79.81,98.37,158.96,114.73,252.97,19.54,101.87,12.65,251.11-87.56,317.03"/>
        <path class="st1" d="M1204.98,970.2s-72.08,75.99-69.72,139.44c2.06,55.33,31.86,65.39,88.52,30.84,27.24-16.61,72.83-50.85,121-.15"/>
        <path class="st1" d="M500.82,1287.72c5.94-23.49,20.92-44.68,37.81-59.52,29.96-26.33,72.32-33.02,96.17-66.62,7.08-9.97,12.07-21.9,14.43-34.5,3.33-17.77,1.42-36.22-.49-54.26"/>
      </g>
    </g>
  </g>
  <path class="st5" d="M903.39,799.17c100.26-26.38,175.45,70.43,174.05,167.39,2.88,112.09-25.56,185.3,51.26,270.38,3.44,5.6-1.66,6.66-7.23,6.11-65.82-7.01-148.26-83.64-174.13-155.41-39.57-84.65-67.79-119.23-67.79-227.46,0-24.8-4.49-52.06,23.84-61.01h0Z"/>
  <path class="st5" d="M863.05,799.17c-100.26-26.38-175.45,70.43-174.05,167.39-2.88,112.09,25.56,185.3-51.26,270.38-3.44,5.6,1.66,6.66,7.23,6.11,65.82-7.01,148.26-83.64,174.13-155.41,39.57-84.65,67.79-119.23,67.79-227.46,0-24.8,4.49-52.06-23.84-61.01h0Z"/>
  <path class="st14" d="M855.91,499.13c24-8.64,65.17-6.79,71.96,27.16,6.79,33.95,40.73,251.19,29.87,275.63s-142.57,86.9-164.29,89.62l-55.67-107.27s62.46-24.44,85.54-65.17c23.08-40.73,20.37-126.28,9.5-160.22-10.86-33.95-10.86-47.52,23.08-59.74h0Z"/>
  <path class="st4" d="M728.89,842.91c11.7,23.87,35.96,58.36,64.55,48.62,28.59-9.73,8.12-66.03,0-84.65-8.12-18.61-35.38-30.83-55.67-22.62s-18.49,39.05-8.88,58.64h0Z"/>
  <g>
    <circle class="st12" cx="1007.33" cy="654.52" r="47.46" transform="translate(199.9 1544) rotate(-80.78)"/>
    <g class="st10">
      <circle class="st5" cx="996.68" cy="657.27" r="39.64"/>
    </g>
  </g>
  <path class="st5" d="M949.83,474.88c-22.07,1.81-37.82,51.03-36.02,76.85,1.8,25.82,156.7,104.47,189.72,115.27,86.51,28.9,54.5-27.62,36.02-57.64-30.47-49.51-109.27-141.09-189.72-134.49h0Z"/>
  <g>
    <circle class="st12" cx="751.94" cy="654.52" r="47.46"/>
    <g class="st9">
      <circle class="st5" cx="737.78" cy="657.27" r="39.64"/>
    </g>
  </g>
  <path class="st5" d="M809.43,474.88c22.07,1.81,37.82,51.03,36.02,76.85-1.8,25.82-156.7,104.47-189.72,115.27-86.51,28.9-54.5-27.62-36.02-57.64,30.47-49.51,109.27-141.09,189.72-134.49h0Z"/>
  <path class="st7" d="M995.12,1500.12s65.71-135.59,130.78-130.21,59.69,60.26,59.69,60.26c0,0,31.21-159.26,105.46-205.53s109.76-7.53,111.91,30.13c0,0,23.67-119.44,77.48-129.13,53.8-9.68,105.64,20.97,121.26,77.68,35.44,128.66-40.56,296.2-40.56,296.2l-566.02.6h0Z"/>
  <path class="st7" d="M921.94,1501.19s-47.35-106.53-106.53-106.53-59.78,61.34-59.78,61.34c0,0-8.02-115.14-79.04-130.21s-76.4,67.79-76.4,67.79c0,0-35.51-142.04-149.58-109.76-114.06,32.28-129.77,152.16-70.59,214.57l541.91,2.8h.01Z"/>
  <path class="st13" d="M1211.54,1499.89s37.53-112.4,83.8-132.85,66.95-1.08,68.45,39.81c0,0,56.37-73.46,116.63-48.03,60.27,25.43,66.65,140.69,66.65,140.69l-335.53.37h0Z"/>
  <path class="st13" d="M736.86,1500.12s-27.98-71.68-77.48-69.73c-49.5,1.94-47.35,34.31-47.35,34.31,0,0-45.2-70.03-101.15-56.04-55.96,13.99-30.67,81.71-19.9,90.32l245.88,1.15h0Z"/>
  <path class="st12" d="M1155.01,1040.01s-31.89-17.48-29.88-48.54c.02-.31.04-.62.06-.92,1.51-20.78,30.56-24.24,36.91-4.4.65,2.03,1.19,4.13,1.6,6.32,2.31,12.32-8.69,47.53-8.69,47.53h0Z"/>
  <path class="st12" d="M1142.99,1144.58s.21-46.4,20.73-55.42c.21-.09.41-.18.61-.27,22.99-9.73,45.05,15.87,31.86,37.07-2.31,3.72-5.39,7.24-9.45,10.29-22.04,16.53-43.75,8.33-43.75,8.33h0Z"/>
  <path class="st12" d="M1232.3,1134.79s-1.91,19.98,15.17,30.1c.17.1.34.2.51.3,15.25,8.77,30.02-11.94,16.8-23.56-1.39-1.22-2.94-2.43-4.66-3.63-8.61-5.96-27.82-3.22-27.82-3.22h0Z"/>
  <path class="st12" d="M650.79,1096.19s-19.95-14.3-18.29-40.81c.02-.27.03-.53.05-.79,1.69-22.59,35.04-22.99,36.91-.42.1,1.15.11,2.29.04,3.41-1.1,17.13-10.92,31.91-18.72,38.61h.01Z"/>
  <path class="st12" d="M618.21,1179.19s2.73-25.78-6.76-35.27c-.09-.09-.19-.19-.28-.28-6.84-6.73-18.37-1.66-18.12,7.93.1,3.6.63,7.26,1.95,10.38,4.43,10.44,23.22,17.23,23.22,17.23h0Z"/>
  <path class="st12" d="M549.8,1219.56s30.16-4.75,44.34,6.07c.59.45,1.15.93,1.67,1.42,15.5,14.6.39,40.13-20.14,34.46-3.51-.97-7.11-2.43-10.63-4.55-16.37-9.86-15.25-37.4-15.25-37.4h.01Z"/>
</svg>