<?xml version="1.0" encoding="UTF-8"?>
<svg id="Capa_1" xmlns="http://www.w3.org/2000/svg" width="2267.22" height="1908.79" xmlns:xlink="http://www.w3.org/1999/xlink" version="1.1" viewBox="0 0 2267.22 1908.79">
  <!-- Generator: Adobe Illustrator 29.4.0, SVG Export Plug-In . SVG Version: 2.1.0 Build 152)  -->
  <defs>
    <style>
      .st0 {
        stroke: #2e4144;
      }

      .st0, .st1, .st2 {
        fill: none;
        stroke-miterlimit: 10;
        stroke-width: 6px;
      }

      .st3 {
        fill: #ceb33e;
      }

      .st4 {
        fill: #bca33b;
      }

      .st5 {
        fill: #2d2b30;
      }

      .st1 {
        stroke: #fff;
      }

      .st6 {
        fill: #496163;
      }

      .st7 {
        fill: #61787c;
      }

      .st8 {
        fill: #415256;
      }

      .st9 {
        fill: #346168;
      }

      .st10 {
        clip-path: url(#clippath-1);
      }

      .st11 {
        clip-path: url(#clippath-3);
      }

      .st12 {
        clip-path: url(#clippath-2);
      }

      .st13 {
        fill: #af4545;
      }

      .st14 {
        fill: #fff;
      }

      .st15 {
        fill: #cd6262;
      }

      .st2 {
        stroke: #af4545;
      }

      .st16 {
        clip-path: url(#clippath);
      }
    </style>
    <clipPath id="clippath">
      <path class="st15" d="M0,.2s28.3,135.85,98.12,139.63,103.78-18.87,103.78-18.87c0,0-1.89,364.16,101.89,379.26s152.84-177.77,152.84-177.77c0,0-10.04,364.57,154.42,379.67s215.41-147.18,215.41-147.18h656.92s9.14,130.19,139.33,120.76c130.19-9.43,115.1-184.91,115.1-184.91,0,0,37.74,181.14,196.23,167.93s141.51-462.28,141.51-462.28c0,0,233.97-43.8,184.91-196.64L0,.2Z"/>
    </clipPath>
    <clipPath id="clippath-1">
      <path class="st9" d="M615.2,288.15c-19.35-45.75,34.12-75.05,52.31-68.23s202.42,313.87,425.31,311.59,457.15-359.35,495.82-357.08,61.41,29.57,50.04,70.51-145.56,325.24-150.11,507.19,2.27,554.95,59.13,607.26c56.86,52.31,172.85,52.31,172.85,188.77s-9.1,360.63-9.1,360.63H628.48s-7.19-226.44,0-317.42,61.77-104.22,100.44-153.32,11.37-567.66,9.1-724.59-97.8-366.18-122.82-425.31Z"/>
    </clipPath>
    <clipPath id="clippath-2">
      <circle class="st14" cx="1266.75" cy="833.05" r="60.42"/>
    </clipPath>
    <clipPath id="clippath-3">
      <path class="st14" d="M1002.03,833.05c0,33.37-27.05,60.42-60.42,60.42-33.37,0-60.42-27.05-60.42-60.42,0-33.37,27.05-60.42,60.42-60.42,33.37,0,60.42,27.05,60.42,60.42Z"/>
    </clipPath>
  </defs>
  <path class="st8" d="M1450.29,1077.87s66.19-16.35,108.64-35.09,57.51-160.56,57.51-160.56h36.15s-9.99,159.2-37.46,212.33-154.85,133.05-154.85,133.05l-9.99-149.73Z"/>
  <path class="st13" d="M589.27,671.46s-32.15,72.68-25.16,111.81,46.93,12.58,46.93,12.58c0,0-16.18,113.21,39.72,113.21s54.51-49.96,54.51-49.96c0,0-19.57,103.07,50.32,118.45s36.34-408.12,36.34-408.12l-202.66,102.03Z"/>
  <path class="st13" d="M1679.07,617.66s51.55,126.49,44.56,165.62c-6.99,39.13-46.93,12.58-46.93,12.58,0,0,16.18,113.21-39.72,113.21-55.91,0-54.51-49.96-54.51-49.96,0,0,20.56,108.63-50.32,118.45-125.41,17.36-36.34-408.12-36.34-408.12l183.26,48.22Z"/>
  <g>
    <path class="st15" d="M0,.2s28.3,135.85,98.12,139.63,103.78-18.87,103.78-18.87c0,0-1.89,364.16,101.89,379.26s152.84-177.77,152.84-177.77c0,0-10.04,364.57,154.42,379.67s215.41-147.18,215.41-147.18h656.92s9.14,130.19,139.33,120.76c130.19-9.43,115.1-184.91,115.1-184.91,0,0,37.74,181.14,196.23,167.93s141.51-462.28,141.51-462.28c0,0,233.97-43.8,184.91-196.64L0,.2Z"/>
    <g class="st16">
      <path class="st2" d="M47.62,207.35c102.95,55.83,230.79,4.15,328.04-61.09C472.92,81.02,568.93-1.01,685.79-8.73c79.48-5.25,160.63,27.79,213.83,87.06,46.1,51.36,71.98,120.57,126.49,162.91,39.64,30.79,92.46,44,141.93,35.49,77.57-13.34,136.61-73.96,197.31-124.06,60.7-50.1,141.29-93.96,215.07-66.54,112.17,41.7,133.18,218.97,249.84,245.65,69.92,15.99,137.4-32.91,187.54-84.2,81.03-82.89,147.19-180.28,194.37-286.16"/>
      <path class="st2" d="M122.63,409.16c94.29,27.95,200.72,11.57,282.24-43.44,58.48-39.46,102.8-96.1,154.23-144.39s115.85-90.19,186.36-88.07c30.25.91,61.44,10.92,81.93,33.19,45.17,49.07,20.61,126.16,12.01,192.29-12.78,98.36,19.18,201.66,85.28,275.61,20.07,22.45,44.73,43.09,74.43,48.06,52.47,8.8,98.95-32.6,134.39-72.28,16.93-18.96,34.61-42.44,29.08-67.25-7.84-35.17-55.25-45.96-72.2-77.76-14.97-28.09-.1-64.98,25.71-83.61s59.25-22.79,91.08-22.98c50.63-.3,104.29,9.35,142.02,43.11,42.88,38.38,56.24,98.72,74.68,153.23,18.44,54.51,51.49,112.75,107.82,124.54,37.74,7.89,77.73-8.39,105.27-35.37,27.55-26.97,44.1-63.33,54.91-100.34,6.73-23.05,11.59-46.97,22.96-68.12,29.21-54.32,98.53-79.11,159.14-67.65s112.05,53.27,148.15,103.27,58.92,108.15,81.36,165.6"/>
      <path class="st2" d="M418.88,654.22c-14.46-43.61,12.2-93.56,52.51-115.61s90.05-20.44,134.03-7.11c26.58,8.05,52.37,20.42,72.33,39.72,38.05,36.8,49.63,92.62,56.11,145.16,8.35,67.63,11.37,135.78,14.39,203.86"/>
      <path class="st2" d="M1069.97-39.98c-5.02,83.5,62.4,175.39,145.37,164.69,23.08-2.97,44.58-13.25,64.6-25.1,67.28-39.83,122.01-98.35,189.4-138s157.9-57.11,221.14-11.13c55.89,40.63,74.03,118.23,127.96,161.42,72.28,57.89,186.68,30.27,249.51-37.75,62.83-68.03,84.89-163.85,95.44-255.85"/>
    </g>
  </g>
  <g>
    <path class="st9" d="M615.2,288.15c-19.35-45.75,34.12-75.05,52.31-68.23s202.42,313.87,425.31,311.59,457.15-359.35,495.82-357.08,61.41,29.57,50.04,70.51-145.56,325.24-150.11,507.19,2.27,554.95,59.13,607.26c56.86,52.31,172.85,52.31,172.85,188.77s-9.1,360.63-9.1,360.63H628.48s-7.19-226.44,0-317.42,61.77-104.22,100.44-153.32,11.37-567.66,9.1-724.59-97.8-366.18-122.82-425.31Z"/>
    <g class="st10">
      <path class="st0" d="M1294.7,865.42c167.34,30.24,171.56,208.8,80.26,322.21-66.96,101.6-125.24,202.37-146.06,322.06-24.88,129.69-16.11,319.68,111.47,403.6"/>
      <path class="st0" d="M909.94,865.42c-167.34,30.24-171.56,208.8-80.26,322.21,66.96,101.6,125.24,202.37,146.06,322.06,24.88,129.69,16.11,319.68-111.47,403.6"/>
      <path class="st1" d="M1518.37,1234.93s-91.76,96.74-88.76,177.51c2.62,70.44,40.55,83.24,112.69,39.26,34.68-21.15,92.72-64.74,154.04-.19"/>
      <path class="st1" d="M621.92,1639.15c7.57-29.91,26.63-56.88,48.14-75.77,38.14-33.52,92.06-42.04,122.44-84.81,9.02-12.7,15.37-27.88,18.37-43.92,4.23-22.62,1.81-46.11-.62-69.08"/>
    </g>
  </g>
  <path class="st5" d="M1141.43,1017.2c127.63-33.59,223.36,89.67,221.57,213.1,3.66,142.7-32.54,235.9,65.26,344.21,4.38,7.14-2.11,8.48-9.2,7.78-83.79-8.92-188.75-106.48-221.68-197.84-50.37-107.77-86.3-151.79-86.3-289.57,0-31.57-5.72-66.28,30.35-77.67Z"/>
  <path class="st5" d="M1080.07,1017.2c-127.63-33.59-223.36,89.67-221.57,213.1-3.66,142.7,32.54,235.9-65.26,344.21-4.38,7.14,2.11,8.48,9.2,7.78,83.79-8.92,188.75-106.48,221.68-197.84,50.37-107.77,86.3-151.79,86.3-289.57,0-31.57,5.72-66.28-30.35-77.67Z"/>
  <path class="st7" d="M1073.98,635.22c30.56-11,82.97-8.64,91.62,34.57s51.86,319.79,38.03,350.9-181.5,110.63-209.16,114.09l-70.87-136.56s79.52-31.11,108.9-82.97,25.93-160.76,12.1-203.97-13.83-60.5,29.39-76.06Z"/>
  <path class="st6" d="M912.28,1072.88c14.89,30.38,45.78,74.29,82.18,61.9s10.33-84.07,0-107.76-45.04-39.25-70.87-28.8-23.54,49.71-11.31,74.66Z"/>
  <g>
    <circle class="st14" cx="1266.75" cy="833.05" r="60.42"/>
    <g class="st12">
      <circle class="st5" cx="1253.19" cy="836.54" r="50.46"/>
    </g>
  </g>
  <path class="st5" d="M1193.55,604.35c-28.09,2.31-48.15,64.97-45.86,97.83s199.49,132.99,241.53,146.75c110.14,36.79,69.38-35.16,45.86-73.38-38.79-63.03-139.11-179.62-241.53-171.21Z"/>
  <g>
    <path class="st14" d="M1002.03,833.05c0,33.37-27.05,60.42-60.42,60.42-33.37,0-60.42-27.05-60.42-60.42,0-33.37,27.05-60.42,60.42-60.42,33.37,0,60.42,27.05,60.42,60.42Z"/>
    <g class="st11">
      <circle class="st5" cx="923.59" cy="836.54" r="50.46"/>
    </g>
  </g>
  <path class="st5" d="M1014.81,604.35c28.09,2.31,48.15,64.97,45.86,97.83s-199.49,132.99-241.53,146.75c-110.14,36.79-69.38-35.16-45.86-73.38,38.79-63.03,139.11-179.62,241.53-171.21Z"/>
  <path class="st3" d="M1251.2,1908.79s83.65-172.61,166.49-165.76,75.99,76.72,75.99,76.72c0,0,39.73-202.75,134.25-261.66,94.53-58.91,139.73-9.59,142.47,38.36,0,0,30.14-152.06,98.64-164.39,68.5-12.33,89.05,27.7,102.74,76.86,13.7,49.17,0,399.11,0,399.11l-720.58.76Z"/>
  <path class="st3" d="M1158.04,1908.79s-60.28-135.62-135.62-135.62-76.1,78.09-76.1,78.09c0,0-10.21-146.58-100.62-165.76s-97.27,86.31-97.27,86.31c0,0-45.21-180.83-190.42-139.73s-165.21,193.71-89.87,273.17l689.9,3.56Z"/>
  <path class="st4" d="M1526.56,1908.79s47.95-136.99,106.85-163.02,85.23-1.37,87.14,50.69c0,0,71.76-93.52,148.48-61.15s84.85,173.48,84.85,173.48h-427.33Z"/>
  <path class="st4" d="M922.42,1907.42s-35.62-89.88-98.64-87.41-60.28,43.68-60.28,43.68c0,0-57.54-89.15-128.77-71.35s-39.73,105.48-26.03,116.44l313.71-1.37Z"/>
  <path class="st14" d="M1454.76,1323.8s-40.6-22.25-38.05-61.79c.03-.4.05-.79.08-1.18,1.92-26.45,38.9-30.86,46.99-5.6.83,2.58,1.52,5.26,2.04,8.05,2.95,15.68-11.06,60.51-11.06,60.51Z"/>
  <path class="st14" d="M1439.46,1456.93s.26-59.07,26.39-70.55c.26-.11.52-.23.78-.34,29.26-12.39,57.35,20.21,40.56,47.19-2.95,4.74-6.86,9.22-12.03,13.1-28.06,21.05-55.7,10.6-55.7,10.6Z"/>
  <path class="st14" d="M1553.16,1444.47s-2.43,25.44,19.32,38.32c.22.13.43.26.65.38,19.42,11.17,38.21-15.2,21.39-29.99-1.77-1.55-3.74-3.1-5.93-4.62-10.96-7.58-35.42-4.1-35.42-4.1Z"/>
  <path class="st14" d="M812.84,1395.32s-25.39-18.2-23.29-51.95c.02-.34.04-.67.07-1.01,2.15-28.76,44.61-29.27,46.99-.53.12,1.46.14,2.91.05,4.34-1.41,21.81-13.9,40.63-23.83,49.15Z"/>
  <path class="st14" d="M771.37,1500.98s3.47-32.82-8.61-44.9c-.12-.12-.24-.24-.36-.36-8.7-8.56-23.39-2.11-23.07,10.1.12,4.58.8,9.24,2.49,13.22,5.64,13.29,29.56,21.94,29.56,21.94Z"/>
  <path class="st14" d="M684.27,1552.38s38.4-6.04,56.44,7.73c.75.57,1.46,1.18,2.13,1.81,19.73,18.59.49,51.09-25.64,43.87-4.47-1.24-9.05-3.09-13.53-5.79-20.84-12.55-19.41-47.61-19.41-47.61Z"/>
</svg>