<?xml version="1.0" encoding="UTF-8"?>
<svg id="Capa_1" xmlns="http://www.w3.org/2000/svg" width="1780.9" height="1501.19" xmlns:xlink="http://www.w3.org/1999/xlink" version="1.1" viewBox="0 0 1780.9 1501.19">
  <!-- Generator: Adobe Illustrator 29.4.0, SVG Export Plug-In . SVG Version: 2.1.0 Build 152)  -->
  <defs>
    <style>
      .st0 {
        fill: #aa6392;
      }

      .st1 {
        fill: #2d2b30;
      }

      .st2 {
        stroke: #fff;
        stroke-width: 4.71px;
      }

      .st2, .st3, .st4 {
        fill: none;
        stroke-miterlimit: 10;
      }

      .st5 {
        fill: #e2a771;
      }

      .st6 {
        fill: #418a96;
      }

      .st7 {
        clip-path: url(#clippath-1);
      }

      .st8 {
        clip-path: url(#clippath-3);
      }

      .st9 {
        clip-path: url(#clippath-2);
      }

      .st10 {
        fill: #c68c58;
      }

      .st3 {
        stroke: #f4d6a6;
      }

      .st3, .st4 {
        stroke-width: 5px;
      }

      .st11 {
        fill: #fff;
      }

      .st12 {
        fill: #29676d;
      }

      .st13 {
        fill: #704465;
      }

      .st4 {
        stroke: #704465;
      }

      .st14 {
        clip-path: url(#clippath);
      }

      .st15 {
        fill: #93537b;
      }
    </style>
    <clipPath id="clippath">
      <path class="st5" d="M0,.32s22.23,106.71,77.07,109.68c54.84,2.96,81.52-14.82,81.52-14.82,0,0-1.48,286.05,80.04,297.91,81.52,11.86,120.05-139.64,120.05-139.64,0,0-7.89,286.37,121.3,298.23,129.18,11.86,169.2-115.61,169.2-115.61h516.01s7.18,102.27,109.44,94.86c102.27-7.41,90.41-145.25,90.41-145.25,0,0,29.64,142.28,154.14,131.91,124.5-10.37,111.16-363.12,111.16-363.12,0,0,183.78-34.41,145.25-154.46L0,.32Z"/>
    </clipPath>
    <clipPath id="clippath-1">
      <path class="st15" d="M483.24,226.51c-15.2-35.93,26.8-58.96,41.09-53.6,14.29,5.36,159,246.54,334.08,244.75,175.08-1.79,359.09-282.27,389.46-280.49s48.24,23.22,39.3,55.38c-8.93,32.16-114.34,255.47-117.91,398.4-3.57,142.92,1.79,435.91,46.45,477,44.66,41.09,135.78,41.09,135.78,148.28s-7.15,283.27-7.15,283.27l-850.69-.47s-5.63-177.4.01-248.86c5.65-71.46,48.52-81.86,78.89-120.43,30.37-38.57,8.93-445.9,7.15-569.17-1.79-123.27-76.82-287.63-96.47-334.08Z"/>
    </clipPath>
    <clipPath id="clippath-2">
      <circle class="st11" cx="995.03" cy="654.52" r="47.46"/>
    </clipPath>
    <clipPath id="clippath-3">
      <circle class="st11" cx="739.64" cy="654.52" r="47.46"/>
    </clipPath>
  </defs>
  <path class="st13" d="M1139.2,846.83s51.99-12.85,85.34-27.56c33.35-14.71,45.17-126.12,45.17-126.12h28.4s-7.85,125.05-29.43,166.79c-21.58,41.74-121.63,104.51-121.63,104.51l-7.85-117.62Z"/>
  <path class="st10" d="M462.87,527.6s-25.25,57.09-19.76,87.83c5.49,30.74,36.86,9.88,36.86,9.88,0,0-12.71,88.93,31.2,88.93s42.82-39.24,42.82-39.24c0,0-15.37,80.96,39.52,93.04,54.89,12.08,28.54-320.58,28.54-320.58l-159.19,80.14Z"/>
  <path class="st10" d="M1318.91,485.33s40.49,99.35,35,130.09c-5.49,30.74-36.86,9.88-36.86,9.88,0,0,12.71,88.93-31.2,88.93-43.91,0-42.82-39.24-42.82-39.24,0,0,16.15,85.33-39.52,93.04-98.51,13.64-28.54-320.58-28.54-320.58l143.95,37.88Z"/>
  <g>
    <path class="st5" d="M0,.32s22.23,106.71,77.07,109.68c54.84,2.96,81.52-14.82,81.52-14.82,0,0-1.48,286.05,80.04,297.91,81.52,11.86,120.05-139.64,120.05-139.64,0,0-7.89,286.37,121.3,298.23,129.18,11.86,169.2-115.61,169.2-115.61h516.01s7.18,102.27,109.44,94.86c102.27-7.41,90.41-145.25,90.41-145.25,0,0,29.64,142.28,154.14,131.91,124.5-10.37,111.16-363.12,111.16-363.12,0,0,183.78-34.41,145.25-154.46L0,.32Z"/>
    <g class="st14">
      <path class="st3" d="M37.41,163.04c80.87,43.85,181.28,3.26,257.68-47.99C371.48,63.81,446.89-.63,538.68-6.7c62.43-4.13,126.17,21.83,167.96,68.39,36.21,40.35,56.54,94.71,99.35,127.96,31.14,24.19,72.62,34.56,111.48,27.88,60.93-10.48,107.31-58.1,154.98-97.45,47.68-39.36,110.99-73.81,168.93-52.26,88.11,32.75,104.61,172,196.25,192.96,54.92,12.56,107.93-25.85,147.31-66.14,63.65-65.11,115.62-141.61,152.68-224.78"/>
      <path class="st3" d="M96.33,321.56c74.06,21.95,157.67,9.09,221.7-34.12,45.93-30.99,80.75-75.49,121.15-113.42,40.4-37.93,91-70.84,146.39-69.18,23.76.71,48.26,8.58,64.36,26.07,35.48,38.54,16.19,99.1,9.43,151.04-10.04,77.26,15.07,158.4,66.99,216.49,15.77,17.64,35.13,33.84,58.47,37.75,41.22,6.91,77.72-25.61,105.56-56.78,13.3-14.89,27.19-33.34,22.84-52.83-6.16-27.62-43.4-36.1-56.71-61.08-11.76-22.07-.08-51.04,20.2-65.67,20.27-14.63,46.54-17.9,71.55-18.05,39.77-.24,81.92,7.34,111.56,33.87,33.69,30.14,44.18,77.54,58.66,120.36,14.49,42.82,40.44,88.57,84.69,97.82,29.64,6.2,61.06-6.59,82.69-27.78s34.64-49.75,43.13-78.82c5.29-18.11,9.1-36.9,18.04-53.51,22.94-42.67,77.4-62.14,125-53.14,47.6,9,88.02,41.84,116.37,81.12,28.36,39.28,46.28,84.95,63.91,130.08"/>
      <path class="st3" d="M329.03,514.05c-11.36-34.26,9.58-73.49,41.25-90.81,31.67-17.32,70.74-16.05,105.28-5.59,20.88,6.32,41.14,16.04,56.82,31.2,29.89,28.9,38.98,72.76,44.08,114.02,6.56,53.12,8.93,106.66,11.31,160.13"/>
      <path class="st3" d="M840.46-31.24c-3.94,65.59,49.02,137.76,114.19,129.37,18.13-2.34,35.02-10.41,50.75-19.72,52.85-31.29,95.84-77.26,148.78-108.4,52.94-31.14,124.03-44.86,173.71-8.74,43.9,31.92,58.15,92.87,100.51,126.8,56.77,45.47,146.63,23.78,195.99-29.66,49.35-53.43,66.68-128.7,74.97-200.97"/>
    </g>
  </g>
  <g>
    <path class="st15" d="M483.24,226.51c-15.2-35.93,26.8-58.96,41.09-53.6,14.29,5.36,159,246.54,334.08,244.75,175.08-1.79,359.09-282.27,389.46-280.49s48.24,23.22,39.3,55.38c-8.93,32.16-114.34,255.47-117.91,398.4-3.57,142.92,1.79,435.91,46.45,477,44.66,41.09,135.78,41.09,135.78,148.28s-7.15,283.27-7.15,283.27l-850.69-.47s-5.63-177.4.01-248.86c5.65-71.46,48.52-81.86,78.89-120.43,30.37-38.57,8.93-445.9,7.15-569.17-1.79-123.27-76.82-287.63-96.47-334.08Z"/>
    <g class="st7">
      <path class="st4" d="M1016.98,679.95c131.45,23.75,134.76,164.01,63.05,253.1-52.6,79.81-98.37,158.96-114.73,252.97-19.54,101.87-12.65,251.11,87.56,317.03"/>
      <path class="st4" d="M714.76,679.95c-131.45,23.75-134.76,164.01-63.05,253.1,52.6,79.81,98.37,158.96,114.73,252.97,19.54,101.87,12.65,251.11-87.56,317.03"/>
      <path class="st2" d="M1192.68,970.2s-72.08,75.99-69.72,139.44c2.06,55.33,31.86,65.39,88.52,30.84,27.24-16.61,72.83-50.85,121-.15"/>
      <path class="st2" d="M488.52,1287.72c5.94-23.49,20.92-44.68,37.81-59.52,29.96-26.33,72.32-33.02,96.17-66.62,7.08-9.97,12.07-21.9,14.43-34.5,3.33-17.77,1.42-36.22-.49-54.26"/>
    </g>
  </g>
  <path class="st1" d="M891.09,799.17c100.26-26.38,175.45,70.43,174.05,167.39,2.88,112.09-25.56,185.3,51.26,270.38,3.44,5.6-1.66,6.66-7.23,6.11-65.82-7.01-148.26-83.64-174.13-155.41-39.57-84.65-67.79-119.23-67.79-227.46,0-24.8-4.49-52.06,23.84-61.01Z"/>
  <path class="st1" d="M850.75,799.17c-100.26-26.38-175.45,70.43-174.05,167.39-2.88,112.09,25.56,185.3-51.26,270.38-3.44,5.6,1.66,6.66,7.23,6.11,65.82-7.01,148.26-83.64,174.13-155.41,39.57-84.65,67.79-119.23,67.79-227.46,0-24.8,4.49-52.06-23.84-61.01Z"/>
  <path class="st13" d="M843.61,499.13c24-8.64,65.17-6.79,71.96,27.16,6.79,33.95,40.73,251.19,29.87,275.63-10.86,24.44-142.57,86.9-164.29,89.62l-55.67-107.27s62.46-24.44,85.54-65.17c23.08-40.73,20.37-126.28,9.5-160.22-10.86-33.95-10.86-47.52,23.08-59.74Z"/>
  <path class="st0" d="M716.59,842.91c11.7,23.87,35.96,58.36,64.55,48.62,28.59-9.73,8.12-66.03,0-84.65-8.12-18.61-35.38-30.83-55.67-22.62-20.29,8.21-18.49,39.05-8.88,58.64Z"/>
  <g>
    <circle class="st11" cx="995.03" cy="654.52" r="47.46"/>
    <g class="st9">
      <circle class="st1" cx="984.38" cy="657.27" r="39.64"/>
    </g>
  </g>
  <path class="st1" d="M937.53,474.88c-22.07,1.81-37.82,51.03-36.02,76.85,1.8,25.82,156.7,104.47,189.72,115.27,86.51,28.9,54.5-27.62,36.02-57.64-30.47-49.51-109.27-141.09-189.72-134.49Z"/>
  <g>
    <circle class="st11" cx="739.64" cy="654.52" r="47.46"/>
    <g class="st8">
      <circle class="st1" cx="725.48" cy="657.27" r="39.64"/>
    </g>
  </g>
  <path class="st1" d="M797.13,474.88c22.07,1.81,37.82,51.03,36.02,76.85-1.8,25.82-156.7,104.47-189.72,115.27-86.51,28.9-54.5-27.62-36.02-57.64,30.47-49.51,109.27-141.09,189.72-134.49Z"/>
  <path class="st6" d="M982.82,1500.12s65.71-135.59,130.78-130.21c65.07,5.38,59.69,60.26,59.69,60.26,0,0,31.21-159.26,105.46-205.53,74.25-46.27,109.76-7.53,111.91,30.13,0,0,23.67-119.44,77.48-129.13,53.8-9.68,105.64,20.97,121.26,77.68,35.44,128.66-40.56,296.2-40.56,296.2l-566.02.6Z"/>
  <path class="st6" d="M909.64,1501.19s-47.35-106.53-106.53-106.53-59.78,61.34-59.78,61.34c0,0-8.02-115.14-79.04-130.21s-76.4,67.79-76.4,67.79c0,0-35.51-142.04-149.58-109.76-114.06,32.28-129.77,152.16-70.59,214.57l541.91,2.8Z"/>
  <path class="st12" d="M1199.24,1499.89s37.53-112.4,83.8-132.85c46.27-20.45,66.95-1.08,68.45,39.81,0,0,56.37-73.46,116.63-48.03,60.27,25.43,66.65,140.69,66.65,140.69l-335.53.37Z"/>
  <path class="st12" d="M724.56,1500.12s-27.98-71.68-77.48-69.73c-49.5,1.94-47.35,34.31-47.35,34.31,0,0-45.2-70.03-101.15-56.04-55.96,13.99-30.67,81.71-19.9,90.32l245.88,1.15Z"/>
  <path class="st11" d="M1142.71,1040.01s-31.89-17.48-29.88-48.54c.02-.31.04-.62.06-.92,1.51-20.78,30.56-24.24,36.91-4.4.65,2.03,1.19,4.13,1.6,6.32,2.31,12.32-8.69,47.53-8.69,47.53Z"/>
  <path class="st11" d="M1130.69,1144.58s.21-46.4,20.73-55.42c.21-.09.41-.18.61-.27,22.99-9.73,45.05,15.87,31.86,37.07-2.31,3.72-5.39,7.24-9.45,10.29-22.04,16.53-43.75,8.33-43.75,8.33Z"/>
  <path class="st11" d="M1220,1134.79s-1.91,19.98,15.17,30.1c.17.1.34.2.51.3,15.25,8.77,30.02-11.94,16.8-23.56-1.39-1.22-2.94-2.43-4.66-3.63-8.61-5.96-27.82-3.22-27.82-3.22Z"/>
  <path class="st11" d="M638.49,1096.19s-19.95-14.3-18.29-40.81c.02-.27.03-.53.05-.79,1.69-22.59,35.04-22.99,36.91-.42.1,1.15.11,2.29.04,3.41-1.1,17.13-10.92,31.91-18.72,38.61Z"/>
  <path class="st11" d="M605.91,1179.19s2.73-25.78-6.76-35.27c-.09-.09-.19-.19-.28-.28-6.84-6.73-18.37-1.66-18.12,7.93.1,3.6.63,7.26,1.95,10.38,4.43,10.44,23.22,17.23,23.22,17.23Z"/>
  <path class="st11" d="M537.5,1219.56s30.16-4.75,44.34,6.07c.59.45,1.15.93,1.67,1.42,15.5,14.6.39,40.13-20.14,34.46-3.51-.97-7.11-2.43-10.63-4.55-16.37-9.86-15.25-37.4-15.25-37.4Z"/>
</svg>