<?xml version="1.0" encoding="UTF-8"?>
<svg id="Capa_1" xmlns="http://www.w3.org/2000/svg" width="571.88" height="525.47" xmlns:xlink="http://www.w3.org/1999/xlink" version="1.1" viewBox="0 0 571.88 525.47">
  <!-- Generator: Adobe Illustrator 29.4.0, SVG Export Plug-In . SVG Version: 2.1.0 Build 152)  -->
  <defs>
    <style>
      .st0, .st1, .st2 {
        fill: none;
      }

      .st1 {
        stroke: #e58163;
        stroke-miterlimit: 10;
      }

      .st1, .st2 {
        stroke-width: 8.42px;
      }

      .st3 {
        fill: #d56e48;
      }

      .st4 {
        fill: #2d2b30;
      }

      .st5 {
        fill: #425493;
      }

      .st2 {
        stroke: #2d2b30;
      }

      .st2, .st6 {
        stroke-linecap: round;
        stroke-linejoin: round;
      }

      .st7 {
        clip-path: url(#clippath-1);
      }

      .st8 {
        clip-path: url(#clippath-2);
      }

      .st9, .st6 {
        fill: #fff;
      }

      .st10 {
        fill: #bc5637;
      }

      .st6 {
        stroke: #fff;
        stroke-width: 28px;
      }

      .st11 {
        fill: #913b20;
      }

      .st12 {
        clip-path: url(#clippath);
      }
    </style>
    <clipPath id="clippath">
      <path class="st3" d="M429.55,466.67c-20.94,17.84-43.27,14.85-99.96,8.17-56.69-6.68-170.08-13.37-202.9-56.28-32.82-42.9-71.61-114.19-37.3-172.54,34.31-58.35,79.07-118.03,129.8-131.45,50.73-13.43,134.27-11.94,171.57,41.77,37.3,53.71,70.12,96.98,65.65,177.54-4.48,80.56,7.88,103.19-26.85,132.78Z"/>
    </clipPath>
    <clipPath id="clippath-1">
      <circle class="st0" cx="333.05" cy="300.48" r="59.46"/>
    </clipPath>
    <clipPath id="clippath-2">
      <circle class="st0" cx="191.93" cy="256.74" r="59.46"/>
    </clipPath>
  </defs>
  <path class="st6" d="M464.8,86.82c26.69-19.13,19.13-52.94-7.98-53.39-27.11-.44-21.74,37.82-21.74,37.82-7.92-41.38-63.27-36.93-56.14-1.78,5.83,28.72,36.7,43.12,47.79,47.43-9.44,29.15-23.16,41.6-31,46.59-1.65-2.36-3.3-4.74-4.97-7.14-37.3-53.71-120.85-55.2-171.57-41.77-50.73,13.43-95.48,73.11-129.8,131.45-34.31,58.35,4.48,129.64,37.3,172.54,32.82,42.9,146.21,49.6,202.9,56.28,56.69,6.68,79.02,9.67,99.96-8.17,34.73-29.6,22.38-52.22,26.85-132.78,4.08-73.4-22.81-115.84-55.83-163.43,9.35-5.97,24.09-19.83,34.12-50.78,36.22,11.82,66.12,4.52,65.69-19.52-.44-24.91-35.59-13.35-35.59-13.35Z"/>
  <g>
    <path class="st2" d="M390.72,170.6s30.86-7.97,44.36-68.4"/>
    <path class="st5" d="M430.71,118.32s-44.64-13.7-51.77-48.85,48.22-39.6,56.14,1.78c0,0-5.37-38.26,21.74-37.82,27.11.44,34.67,34.26,7.98,53.39,0,0,35.15-11.57,35.59,13.35s-31.69,31.85-69.68,18.15Z"/>
    <g>
      <path class="st3" d="M429.55,466.67c-20.94,17.84-43.27,14.85-99.96,8.17-56.69-6.68-170.08-13.37-202.9-56.28-32.82-42.9-71.61-114.19-37.3-172.54,34.31-58.35,79.07-118.03,129.8-131.45,50.73-13.43,134.27-11.94,171.57,41.77,37.3,53.71,70.12,96.98,65.65,177.54-4.48,80.56,7.88,103.19-26.85,132.78Z"/>
      <g class="st12">
        <circle class="st10" cx="368.03" cy="344.12" r="42.89"/>
        <circle class="st10" cx="152.28" cy="265.47" r="42.89"/>
        <path class="st1" d="M227.67,66.62c43.58-7.25,94.99,7.11,97.63,57.77.66,22.14-11.57,42.64-25.28,59.31-31.66,39.06-80.4,63.74-131.01,63.64-26.98.13-56.31-8.43-72.59-31.08-15.12-20.22-18.58-49.66-6.93-72.16,1.05-2.09,2.22-4.13,3.5-6.12,24.25-36.26,91.71-65.48,134.33-71.32l.34-.05Z"/>
        <path class="st1" d="M94.13,165.21c39.5,50.71,137.63,57.73,181.18,8.27,17.54-19.83,22.78-47.13,11.96-71.02-17.14-38.04-63.9-52.46-103.23-48.77-36.85,3.71-72.04,18.3-92.46,48.05-13.1,19.61-12.22,44.3,2.38,63.23l.18.24Z"/>
      </g>
    </g>
    <path class="st2" d="M108.8,280.55s18.52,47.73,43.48,63.03"/>
    <polyline class="st2" points="161.94 330.11 132.47 324.01 132.47 354.84"/>
    <path class="st2" d="M417.2,407.99s-31.44,26.57-76.51,4.03"/>
    <polyline class="st2" points="351.17 395.11 369.3 420.68 333.05 429.73"/>
    <path class="st11" d="M396.46,237.73c9.55-12.34-18.26-49.46-37.72-56.96s-30.4.29-29.65,13.36c.75,13.07,19.76,10.37,34.83,21.8s24.94,31.61,32.54,21.8Z"/>
    <path class="st11" d="M162.02,174.22c-2.18-15.45,40.37-33.91,60.99-30.78,20.62,3.13,26.26,15.32,19.13,26.3-7.13,10.98-22.3-.79-41.05,1.67-18.75,2.46-37.33,15.09-39.07,2.8Z"/>
    <g>
      <circle class="st9" cx="333.05" cy="300.48" r="59.46"/>
      <g class="st7">
        <circle class="st4" cx="319.32" cy="301.5" r="49.66"/>
      </g>
    </g>
    <g>
      <circle class="st9" cx="191.93" cy="256.74" r="59.46"/>
      <g class="st8">
        <circle class="st4" cx="178.2" cy="257.76" r="49.66"/>
      </g>
    </g>
    <path class="st4" d="M200.33,346.64c9.37-9.5,23.78,5.81,39.44,8.75s27.83-14.99,42.22,0c14.38,14.99-12.48,49.78-48.69,44.54-29.78-4.31-43.05-43.07-32.96-53.29Z"/>
  </g>
</svg>