<?xml version="1.0" encoding="UTF-8"?>
<svg id="Capa_1" xmlns="http://www.w3.org/2000/svg" width="571.88" height="525.47" xmlns:xlink="http://www.w3.org/1999/xlink" version="1.1" viewBox="0 0 571.88 525.47">
  <!-- Generator: Adobe Illustrator 29.4.0, SVG Export Plug-In . SVG Version: 2.1.0 Build 152)  -->
  <defs>
    <style>
      .st0 {
        fill: #2d2b30;
      }

      .st1 {
        clip-path: url(#clippath-1);
      }

      .st2 {
        clip-path: url(#clippath-2);
      }

      .st3 {
        fill: #602b4e;
      }

      .st4 {
        fill: #fff;
      }

      .st5 {
        fill: #7a3864;
      }

      .st6 {
        fill: #91537b;
      }

      .st7 {
        opacity: .2;
      }

      .st8 {
        fill: #a76591;
      }

      .st9 {
        fill: #fdd395;
      }

      .st10 {
        clip-path: url(#clippath);
      }
    </style>
    <clipPath id="clippath">
      <path class="st6" d="M69.97,350.48c-.79-30.91,10.8-127.75,32.39-158.33,21.59-30.59,107.05-84.56,175.42-74.67,68.37,9.9,100.76,26.99,124.15,57.58s60.27,64.23,53.08,115.33-13.49,112.27-43.18,136.56c-29.69,24.29-52.18,37.78-107.05,36.88s-158.33-30.59-193.42-46.78c-35.08-16.19-40.81-44.21-41.38-66.57Z"/>
    </clipPath>
    <clipPath id="clippath-1">
      <circle class="st4" cx="168.56" cy="286.11" r="59.46"/>
    </clipPath>
    <clipPath id="clippath-2">
      <circle class="st4" cx="329.96" cy="302.98" r="59.46"/>
    </clipPath>
  </defs>
  <g>
    <g class="st7">
      <circle class="st9" cx="468.94" cy="102.93" r="102.93"/>
    </g>
    <path class="st4" d="M543.45,323.11c-1.18-4.49-4.04-8.25-8.04-10.59-.46-.27-.93-.51-1.4-.74.29-1,.46-1.71.55-2.08,2.07-9.31-3.82-18.6-13.13-20.71-6.93-1.57-13.87,1.28-17.85,6.68-.52-.35-1.06-.67-1.62-.96-4.12-2.15-8.83-2.57-13.26-1.18-4.43,1.39-8.05,4.42-10.2,8.53-2.15,4.12-2.57,8.82-1.18,13.25l4.55,14.5c-1.25,1.25-2.53,2.48-3.86,3.69-4.12,3.75-9.57,5.41-16.32,4.97,1.91-11.61,3.52-23.33,5.1-34.76.53-3.86,1.06-7.68,1.59-11.44,6.68-47.45-19.76-81.27-42.11-108.52,9.84-5.11,20.22-12.9,29.66-24.77,3.04,3.22,6.36,6.18,9.92,8.85,6.62,4.97,15.4,5.91,22.91,2.45,7.45-3.44,12.39-10.67,12.9-18.86.21-3.47.33-6.99.34-10.45,0-2.93-.06-5.88-.2-8.82,3.55.09,7.11-.04,10.63-.38,3-.29,6.02-.75,8.97-1.36,8.14-1.68,14.64-7.67,16.97-15.64,2.33-7.94.09-16.47-5.83-22.24-3.42-3.33-7.15-6.38-11.09-9.04-3.07-2.08-6.29-3.95-9.62-5.59.5-1.62.95-3.26,1.33-4.91,1.34-5.73,1.96-11.64,1.86-17.56-.14-7.79-4.23-14.81-10.96-18.79-6.72-3.98-14.83-4.18-21.72-.56-3.86,2.03-7.6,4.35-11.13,6.89-5.59,4.03-10.74,8.68-15.33,13.86-1.15-.71-2.31-1.41-3.48-2.07-3.44-1.95-7.04-3.72-10.7-5.25-7.72-3.23-16.51-1.92-22.96,3.44-6.41,5.33-9.31,13.69-7.55,21.83.7,3.23,1.62,6.43,2.73,9.53,1.17,3.26,2.58,6.45,4.2,9.53-1.69,1.17-3.35,2.4-4.96,3.67-2.66,2.1-5.25,4.35-7.69,6.71-5.76,5.56-8.09,13.53-6.22,21.31,1.86,7.77,7.52,13.8,15.15,16.14,2.74.84,5.54,1.55,8.35,2.12-6.78,6.44-13.67,10.06-19.39,12.08-26.17-28.03-61.88-42.79-123.64-51.73-74.16-10.73-164.11,45.85-188.39,80.24-9.07,12.85-15.92,33.83-20.96,55.19-.3-.41-.62-.8-.96-1.18-3.07-3.48-7.32-5.55-11.95-5.83-1.4-.09-2.78,0-4.12.23-1.83-2.69-4.43-4.9-7.64-6.25-8.13-3.41-17.43-.14-21.74,7.29-5.1-2.07-11.1-1.71-16.06,1.52-8.02,5.23-10.3,16.01-5.07,24.04l11.22,17.22c-.05,8.08,1.26,15.24,3.91,21.32,4.16,9.58,11.52,16.55,21.28,20.15,6.12,2.26,12.25,3.97,18.35,5.13-.89,11.08-1.27,20.63-1.09,27.64.36,13.96,1.45,56.44,49.22,78.48,10.04,4.63,25.02,10.19,42.82,15.9l1.81,37.72h-26.36c-9.58,0-17.38,7.79-17.38,17.38s7.8,17.38,17.38,17.38h44.59c4.73,0,9.31-1.96,12.57-5.38,3.27-3.42,5.01-8.1,4.78-12.83l-2.1-43.79c37.37,10.25,73,17.48,100.18,20.32l-1.13,23.48c-.23,4.73,1.52,9.4,4.78,12.82,3.26,3.42,7.85,5.39,12.58,5.39h44.59c9.58,0,17.38-7.79,17.38-17.38s-7.79-17.38-17.38-17.38h-26.36l.27-5.71c50.98-1.68,74.66-17.75,101.64-39.82,15.32-12.54,26.38-33.27,34.37-64.69,18.17,2.37,34.48-2.4,46.68-13.53,3.38-3.09,6.6-6.29,9.59-9.57l20.05-5.28c9.26-2.44,14.82-11.96,12.38-21.22Z"/>
  </g>
  <g>
    <path class="st0" d="M530.39,326.54c-.54-2.07-2.66-3.31-4.74-2.76l-14.37,3.78c8.01-11.88,9.97-20.26,10.09-20.79.46-2.08-.85-4.14-2.93-4.61-2.08-.47-4.16.84-4.64,2.92-.03.12-2.13,8.77-10.88,20.86l-5.33-16.98c-.64-2.04-2.81-3.18-4.86-2.54-2.04.64-3.18,2.82-2.54,4.86l6.9,21.99c-2.85,3.28-6.15,6.71-9.99,10.21-21.23,19.36-54.27-.25-54.6-.45-1.83-1.11-4.21-.53-5.32,1.3-1.11,1.83-.53,4.21,1.3,5.33.38.23,9.56,5.76,21.88,8.57,4.66,1.06,9.14,1.59,13.41,1.59,11.13,0,20.85-3.58,28.55-10.6,4.38-3.99,8.1-7.89,11.29-11.61l24.01-6.32c2.07-.54,3.31-2.66,2.76-4.74Z"/>
    <path class="st0" d="M94.22,304.79c-.63-2.04-2.81-3.18-4.85-2.56-.17.05-17.58,5.19-42.79-4.11-4.31-1.59-7.3-4.43-9.15-8.67-1.98-4.55-2.44-10.12-2.08-15.8l23.6-20.87c1.6-1.42,1.76-3.87.34-5.47-1.42-1.6-3.87-1.75-5.47-.34l-16.71,14.77c2.14-9.74,5.37-17.56,5.43-17.71.83-1.97-.1-4.25-2.08-5.07-1.98-.83-4.25.1-5.07,2.07-.28.68-3.84,9.28-6.07,20.08l-8.7-13.36c-1.17-1.79-3.57-2.3-5.36-1.13-1.79,1.17-2.3,3.57-1.13,5.36l13.55,20.8c-.46,6.9.1,13.87,2.64,19.73,2.7,6.21,7.27,10.54,13.58,12.86,12.98,4.79,24.06,6.09,32.27,6.09,9.43,0,15.09-1.72,15.52-1.85,2.04-.64,3.17-2.81,2.53-4.85Z"/>
    <path class="st0" d="M390.22,179.68c-.51,0-.84-.01-.97-.02-2.14-.1-3.79-1.91-3.69-4.05.1-2.14,1.91-3.8,4.04-3.69,1.71.06,41.88,1.07,63.43-49.69.84-1.97,3.12-2.89,5.08-2.05,1.97.84,2.89,3.11,2.05,5.08-22.13,52.12-62.94,54.42-69.94,54.42Z"/>
    <path class="st0" d="M344.81,504.18h-44.59c-1.06,0-2.07-.43-2.81-1.2-.73-.77-1.12-1.8-1.07-2.86l3.04-63.4c.1-2.14,1.91-3.78,4.06-3.69,2.14.1,3.79,1.92,3.69,4.06l-2.85,59.34h40.52c2.14,0,3.88,1.74,3.88,3.88s-1.74,3.88-3.88,3.88Z"/>
    <path class="st0" d="M168.56,504.18h-44.59c-2.14,0-3.88-1.74-3.88-3.88s1.74-3.88,3.88-3.88h40.52l-2.85-59.34c-.1-2.14,1.55-3.96,3.69-4.06,2.15-.1,3.96,1.55,4.06,3.69l3.04,63.4c.05,1.06-.33,2.09-1.07,2.86-.73.77-1.75,1.2-2.81,1.2Z"/>
    <g>
      <path class="st6" d="M69.97,350.48c-.79-30.91,10.8-127.75,32.39-158.33,21.59-30.59,107.05-84.56,175.42-74.67,68.37,9.9,100.76,26.99,124.15,57.58s60.27,64.23,53.08,115.33-13.49,112.27-43.18,136.56c-29.69,24.29-52.18,37.78-107.05,36.88s-158.33-30.59-193.42-46.78c-35.08-16.19-40.81-44.21-41.38-66.57Z"/>
      <g class="st10">
        <circle class="st5" cx="123.97" cy="327.34" r="42.04"/>
        <circle class="st5" cx="367.29" cy="352.16" r="42.04"/>
        <path class="st8" d="M332.29,511.48c-4.63,0-9.28-.37-13.95-1.18-14.46-2.5-31.44-11.09-35.71-27.66-1.15-4.48-1.31-9.49-.45-14.89,3.21-20.22,18.15-35.07,30.13-43.96,18.69-13.89,43.96-22.2,71.14-23.42,25.06-1.12,48.3,4.22,62.14,14.28h0c4.15,3.02,6.8,7.53,7.67,13.05,1.68,10.73-3.56,23.72-9.49,31.85-8.58,11.74-21.33,19.24-34.73,26.52-23.09,12.53-49.47,25.42-76.74,25.43ZM390.15,407.89c-25.02,0-52.68,6.85-73.23,22.12-10.82,8.04-24.3,21.32-27.1,38.95-.69,4.35-.59,8.3.3,11.74,3.36,13.02,18,19.97,29.53,21.96,29.71,5.15,59.8-9.39,85.67-23.42,13.08-7.1,24.53-13.82,32.17-24.27,4.83-6.61,9.42-17.59,8.09-26.07-.56-3.54-2.05-6.15-4.56-7.98h0c-11.55-8.4-30.32-13.03-50.87-13.03Z"/>
        <path class="st8" d="M337.92,525.47c-12.25,0-23.7-1.33-33.58-4.02-23.76-6.47-37.5-19.93-39.71-38.94-6.36-54.46,31.05-89.09,68.17-103.33,43.69-16.76,103.41-11.87,133.03,29.91.06.08.11.16.16.24,13.68,22.75,12.91,45.37-2.24,65.4-14.02,18.54-40.58,34.32-72.87,43.29-17.78,4.94-36.11,7.45-52.95,7.45ZM381.98,377.9c-16.05,0-32.13,3.04-46.41,8.52-34.4,13.2-69.09,45.14-63.25,95.2,2.3,19.71,19.79,28.48,34.05,32.36,44.04,11.98,122.45-5.93,151.18-43.92,13.24-17.5,13.86-36.55,1.86-56.6-17.8-25.01-47.56-35.56-77.43-35.56Z"/>
      </g>
    </g>
    <g>
      <circle class="st4" cx="168.56" cy="286.11" r="59.46"/>
      <g class="st1">
        <circle class="st0" cx="152.83" cy="280.14" r="49.66"/>
      </g>
    </g>
    <g>
      <circle class="st4" cx="329.96" cy="302.98" r="59.46"/>
      <g class="st2">
        <circle class="st0" cx="314.23" cy="297" r="49.66"/>
      </g>
    </g>
    <path class="st3" d="M299.27,201.16c-2.94,11.76,20.73,21.59,44.05,28.5,23.32,6.91,43.51,18.42,50.42,9.78,6.91-8.64-19.74-37.6-39.61-47.1-19.86-9.5-51.4-5-54.86,8.82Z"/>
    <path class="st3" d="M215.49,192.07c2.06,11.95-22.28,19.99-46.04,25.15-23.77,5.16-44.76,15.13-51.01,6.01-6.25-9.13,22.48-36.03,43-44.03,20.52-8,51.63-1.17,54.05,12.87Z"/>
    <path class="st0" d="M237.08,354.69c18.45,2.14,23.63,10.44,25.85,22.76,2.21,12.32-7.37,24.64-25.85,23.95s-21.22-17.11-20.53-28.74,7.87-19.43,20.53-17.97Z"/>
    <path class="st9" d="M414.84,113.91c-4.85,4.68-2.92,12.86,3.52,14.83,3.13.96,6.61,1.8,10.41,2.38,7.15,1.1,13.49,1,18.59.49,3.55-.36,6.93,1.5,8.63,4.64,1.74,3.21,3.99,6.7,6.9,10.23,3.59,4.35,7.41,7.81,11.06,10.55,5.66,4.25,13.79.62,14.23-6.45.19-3.07.3-6.29.31-9.64.01-4.61-.18-8.97-.5-13.05-.43-5.44,4.11-9.99,9.54-9.5,4.02.36,8.59.43,13.57-.06,2.68-.26,5.21-.66,7.56-1.15,6.95-1.43,9.52-10.04,4.44-15-2.59-2.52-5.65-5.1-9.23-7.53-3.92-2.66-7.75-4.64-11.23-6.14-4.43-1.9-6.52-6.89-4.82-11.4.82-2.19,1.58-4.59,2.19-7.21,1.21-5.18,1.58-10.01,1.51-14.25-.11-6.52-7.12-10.68-12.89-7.65-3.04,1.6-6.26,3.54-9.53,5.9-6.65,4.79-11.69,9.98-15.43,14.59-2.88,3.55-8,4.4-11.78,1.82-1.89-1.29-3.94-2.58-6.15-3.83-3.18-1.8-6.29-3.3-9.26-4.55-6.56-2.75-13.59,3-12.09,9.96.53,2.47,1.26,5.09,2.24,7.81,1.54,4.28,3.4,7.96,5.27,11.04,2.49,4.12,1.27,9.42-2.8,11.98-2.44,1.53-4.99,3.31-7.58,5.35-2.46,1.93-4.67,3.89-6.67,5.82Z"/>
  </g>
</svg>