<?xml version="1.0" encoding="UTF-8"?>
<svg id="Capa_1" xmlns="http://www.w3.org/2000/svg" width="349.96" height="502.7" xmlns:xlink="http://www.w3.org/1999/xlink" version="1.1" viewBox="0 0 349.96 502.7">
  <!-- Generator: Adobe Illustrator 29.4.0, SVG Export Plug-In . SVG Version: 2.1.0 Build 152)  -->
  <defs>
    <style>
      .st0 {
        fill: #d56e48;
      }

      .st1 {
        fill: #2d2b30;
      }

      .st2 {
        fill: #ffd597;
      }

      .st3 {
        fill: #aa6593;
      }

      .st4 {
        fill: #425493;
      }

      .st5 {
        clip-path: url(#clippath-1);
      }

      .st6 {
        clip-path: url(#clippath-3);
      }

      .st7 {
        clip-path: url(#clippath-2);
      }

      .st8 {
        fill: #602b4e;
      }

      .st9 {
        fill: #fff;
      }

      .st10 {
        fill: #7a3864;
      }

      .st11 {
        fill: #bc5637;
      }

      .st12 {
        opacity: .2;
      }

      .st13 {
        fill: #913b20;
      }

      .st14 {
        fill: #e58163;
      }

      .st15 {
        clip-path: url(#clippath);
      }

      .st16 {
        fill: #93537b;
      }
    </style>
    <clipPath id="clippath">
      <path class="st16" d="M36.42,403.58c-.51-19.93,6.96-82.38,20.88-102.1s69.04-54.53,113.13-48.15,64.98,17.4,80.06,37.13,38.87,41.42,34.23,74.37c-4.64,32.95-8.7,72.4-27.85,88.07s-33.65,24.37-69.04,23.79c-35.39-.58-102.1-19.72-124.73-30.17s-26.32-28.51-26.69-42.93Z"/>
    </clipPath>
    <clipPath id="clippath-1">
      <path class="st0" d="M68.91,257.15c12.43,10.59,25.68,8.81,59.33,4.85,33.65-3.96,100.95-7.94,120.43-33.4,19.48-25.46,42.51-67.78,22.14-102.41s-46.93-70.05-77.04-78.02-79.7-7.08-101.84,24.79-41.62,57.56-38.96,105.38-4.67,61.24,15.94,78.81Z"/>
    </clipPath>
    <clipPath id="clippath-2">
      <circle class="st9" cx="100" cy="362.07" r="38.35"/>
    </clipPath>
    <clipPath id="clippath-3">
      <circle class="st9" cx="204.08" cy="372.94" r="38.35"/>
    </clipPath>
  </defs>
  <g class="st12">
    <circle class="st2" cx="293.71" cy="243.94" r="56.26"/>
  </g>
  <path class="st1" d="M290.38,409.59c-2.76,0-5.65-.34-8.65-1.02-7.94-1.81-13.86-5.37-14.11-5.52-1.18-.72-1.55-2.26-.84-3.44.72-1.18,2.26-1.55,3.43-.84h0c.21.13,21.52,12.77,35.21.29,14.41-13.13,17.19-24.65,17.22-24.76.31-1.34,1.64-2.19,2.99-1.88,1.34.3,2.19,1.63,1.89,2.98-.12.53-3.05,13.07-18.73,27.36-4.97,4.53-11.23,6.84-18.41,6.84Z"/>
  <path class="st1" d="M314.67,395.55c-1.07,0-2.05-.69-2.38-1.75l-4.87-15.51c-.41-1.32.32-2.72,1.64-3.13,1.32-.41,2.72.32,3.13,1.64l4.15,13.23,13.94-3.67c1.33-.35,2.7.45,3.05,1.78.35,1.33-.45,2.7-1.78,3.05l-16.25,4.28c-.21.06-.43.08-.64.08Z"/>
  <path class="st1" d="M40.42,378.43c-5.3,0-12.44-.84-20.81-3.93-4.07-1.5-7.02-4.29-8.75-8.3-5.36-12.34,2.92-32.36,3.27-33.21.53-1.27,2-1.87,3.27-1.34,1.27.53,1.87,2,1.34,3.27-.08.19-7.81,18.9-3.29,29.28,1.19,2.74,3.12,4.57,5.9,5.59,16.26,6,27.48,2.69,27.6,2.65,1.31-.41,2.72.33,3.12,1.65.41,1.32-.32,2.71-1.63,3.12-.28.09-3.93,1.19-10.01,1.19Z"/>
  <path class="st1" d="M11.7,355.31c-.11,0-.22,0-.34-.02-.72-.1-1.36-.5-1.76-1.11l-9.2-14.11c-.75-1.16-.43-2.71.73-3.46,1.16-.75,2.71-.43,3.46.73l7.61,11.69,13.79-12.2c1.03-.91,2.61-.82,3.53.22.91,1.04.82,2.61-.22,3.53l-15.96,14.11c-.46.41-1.05.63-1.66.63Z"/>
  <path class="st1" d="M242.94,293.43c-.33,0-.54,0-.63-.01-1.38-.06-2.45-1.23-2.38-2.61.06-1.38,1.23-2.43,2.61-2.38,1.12.05,27.01.69,40.9-32.04.54-1.27,2.01-1.86,3.28-1.32,1.27.54,1.86,2.01,1.32,3.28-14.27,33.61-40.59,35.1-45.1,35.1Z"/>
  <path class="st1" d="M91.96,83.92c-.21,0-.42-.03-.62-.08-.81-.21-19.89-5.54-28.14-42.47-.3-1.35.55-2.68,1.9-2.98,1.35-.3,2.68.55,2.98,1.9,3.95,17.67,10.44,27.28,15.2,32.22,5.08,5.28,9.29,6.49,9.33,6.51,1.32.37,2.11,1.73,1.76,3.06-.3,1.12-1.3,1.86-2.41,1.86Z"/>
  <path class="st4" d="M68.22,50.39s26.49-8.13,30.73-28.99-28.62-23.5-33.32,1.06c0,0,3.19-22.71-12.9-22.45s-20.58,20.33-4.74,31.69c0,0-20.86-6.87-21.13,7.92s18.81,18.91,41.36,10.77Z"/>
  <path class="st1" d="M213.66,502.7h-28.75c-.68,0-1.34-.28-1.81-.78s-.72-1.16-.69-1.84l1.96-40.88c.07-1.38,1.22-2.43,2.62-2.38,1.38.07,2.44,1.24,2.38,2.62l-1.84,38.26h26.13c1.38,0,2.5,1.12,2.5,2.5s-1.12,2.5-2.5,2.5Z"/>
  <path class="st1" d="M100,502.7h-28.75c-1.38,0-2.5-1.12-2.5-2.5s1.12-2.5,2.5-2.5h26.13l-1.84-38.26c-.07-1.38,1-2.55,2.38-2.62,1.39-.07,2.55,1,2.62,2.38l1.96,40.88c.03.68-.22,1.35-.69,1.84s-1.13.78-1.81.78Z"/>
  <g>
    <path class="st16" d="M36.42,403.58c-.51-19.93,6.96-82.38,20.88-102.1s69.04-54.53,113.13-48.15,64.98,17.4,80.06,37.13,38.87,41.42,34.23,74.37c-4.64,32.95-8.7,72.4-27.85,88.07s-33.65,24.37-69.04,23.79c-35.39-.58-102.1-19.72-124.73-30.17s-26.32-28.51-26.69-42.93Z"/>
    <g class="st15">
      <circle class="st10" cx="71.24" cy="388.66" r="27.11"/>
      <circle class="st10" cx="228.15" cy="404.66" r="27.11"/>
      <path class="st3" d="M172.73,486.92c-.21,0-.41-.03-.62-.08-1.34-.34-2.14-1.7-1.8-3.04,3.54-13.86,13.45-26.61,27.17-35,11.61-7.09,25.9-11.3,42.47-12.49,18.99-1.37,33.95,2.27,44.44,10.8,1.07.87,1.23,2.45.36,3.52-.87,1.07-2.44,1.23-3.52.36-9.47-7.71-23.25-10.96-40.93-9.69-15.76,1.14-29.3,5.1-40.22,11.77-12.62,7.71-21.71,19.36-24.94,31.97-.29,1.13-1.3,1.88-2.42,1.88Z"/>
      <path class="st3" d="M158.5,486.92c-.29,0-.58-.05-.86-.15-1.3-.48-1.96-1.91-1.48-3.21,6.27-17.05,14.08-38.26,30.62-51.21,15.15-11.86,36.88-16.31,64.6-13.22,12.52,1.39,28.27,4.39,39.06,15.29.97.98.96,2.56-.02,3.54-.98.97-2.56.96-3.54-.02-9.69-9.78-24.36-12.53-36.06-13.83-26.37-2.93-46.88,1.17-60.96,12.19-15.42,12.08-22.96,32.55-29.01,49-.37,1.01-1.33,1.64-2.35,1.64Z"/>
      <path class="st10" d="M83.96,264.75c-4.07,1.87-8.59,4.27-9.67,8.61-.98,3.92,1.47,8.09,4.92,10.18s7.67,2.47,11.71,2.33c16.18-.58,31.07-8.66,46.89-12.07,20.77-4.49,43.4-1.03,62.62-10.08,5.11-2.41,10.48-7.31,8.85-12.71-.65-2.14-2.32-3.82-4.06-5.23-14.05-11.33-34.36-10.08-51.87-5.69-24.08,6.04-46.67,16.78-69.08,27.46"/>
    </g>
  </g>
  <g>
    <path class="st0" d="M68.91,257.15c12.43,10.59,25.68,8.81,59.33,4.85,33.65-3.96,100.95-7.94,120.43-33.4,19.48-25.46,42.51-67.78,22.14-102.41s-46.93-70.05-77.04-78.02-79.7-7.08-101.84,24.79-41.62,57.56-38.96,105.38-4.67,61.24,15.94,78.81Z"/>
    <g class="st5">
      <circle class="st11" cx="105.43" cy="184.41" r="25.46"/>
      <circle class="st11" cx="233.48" cy="137.73" r="25.46"/>
      <path class="st14" d="M214.17,107.28c-5.16,0-10.28-.31-15.26-.71-9.06-.72-19.42-1.95-27.8-7.36-8.15-5.28-14.19-14.41-17.01-25.73-2.57-10.31-2.26-21.04-1.77-30.28.07-1.38,1.24-2.43,2.63-2.36,1.38.07,2.44,1.25,2.36,2.63-.47,8.88-.77,19.17,1.63,28.81,2.51,10.08,7.79,18.16,14.87,22.74,7.39,4.79,16.64,5.87,25.48,6.58,11.48.91,23.68,1.36,35.17-1.55,12.22-3.1,22.2-10,27.38-18.94.69-1.2,2.23-1.6,3.42-.91,1.2.69,1.6,2.22.91,3.42-5.85,10.1-16.95,17.85-30.48,21.28-7.09,1.8-14.35,2.39-21.53,2.39Z"/>
      <path class="st14" d="M216.64,128.85c-5.89,0-11.98-.48-18.25-1.45-13.46-2.08-25.14-6.05-34.73-11.82-22.58-13.58-37.91-40.41-40-70.02-.1-1.38.94-2.57,2.32-2.67,1.37-.11,2.57.94,2.67,2.32,1.98,28.01,16.38,53.33,37.59,66.09,9.03,5.43,20.11,9.19,32.92,11.17,16,2.47,30.71,1.65,43.72-2.43,14.75-4.63,27.04-13.54,34.58-25.11.75-1.16,2.31-1.48,3.46-.73,1.16.75,1.48,2.3.73,3.46-8.18,12.54-21.41,22.18-37.27,27.15-8.6,2.7-17.88,4.05-27.73,4.05Z"/>
    </g>
  </g>
  <g>
    <circle class="st9" cx="100" cy="362.07" r="38.35"/>
    <g class="st7">
      <circle class="st1" cx="89.85" cy="358.21" r="32.03"/>
    </g>
  </g>
  <g>
    <circle class="st9" cx="204.08" cy="372.94" r="38.35"/>
    <g class="st6">
      <circle class="st1" cx="193.94" cy="369.09" r="32.03"/>
    </g>
  </g>
  <path class="st8" d="M184.29,307.29c-1.9,7.58,13.37,13.92,28.41,18.38s28.06,11.88,32.52,6.31-12.73-24.25-25.54-30.38c-12.81-6.13-33.15-3.22-35.38,5.69Z"/>
  <path class="st8" d="M130.26,301.42c1.33,7.7-14.37,12.89-29.69,16.22-15.33,3.33-28.86,9.76-32.89,3.87s14.5-23.24,27.73-28.39c13.23-5.16,33.3-.75,34.86,8.3Z"/>
  <path class="st1" d="M144.18,406.29c11.9,1.38,15.24,6.73,16.67,14.68s-4.75,15.89-16.67,15.45-13.68-11.03-13.24-18.54,5.08-12.53,13.24-11.59Z"/>
  <path class="st1" d="M131.65,188.26c-1.9,0-3.81-.32-5.73-.95-13.9-4.6-23.28-24.64-23.67-25.49-.58-1.25-.03-2.74,1.22-3.32,1.25-.58,2.74-.03,3.32,1.22.09.19,8.87,18.93,20.71,22.84,3.62,1.2,7.07.85,10.56-1.05,3.7-2.01,5.93-4.81,6.83-8.54,2.69-11.17-7.59-26.42-7.7-26.57-.78-1.14-.49-2.69.65-3.47,1.14-.78,2.69-.49,3.47.65.48.7,11.64,17.21,8.44,30.55-1.23,5.12-4.36,9.07-9.3,11.77-2.88,1.57-5.83,2.35-8.81,2.35Z"/>
  <path class="st1" d="M204.82,161.01c-2.28,0-4.52-.4-6.69-1.19-12.69-4.63-18.5-21.18-18.74-21.88-.45-1.31.25-2.73,1.55-3.18,1.31-.45,2.73.25,3.18,1.55.08.24,5.33,15.03,15.74,18.81,4.71,1.71,9.92.88,15.5-2.46,5.29-3.17,8.07-6.93,8.49-11.47,1.04-11.09-12.32-23.11-12.46-23.23-1.03-.92-1.12-2.5-.21-3.53.92-1.03,2.49-1.13,3.53-.21.63.56,15.38,13.81,14.12,27.42-.57,6.16-4.24,11.31-10.9,15.3-4.5,2.7-8.89,4.06-13.11,4.06Z"/>
  <path class="st1" d="M176.81,210.81c-3.32,0-6.32-.84-8.95-2.53-6.58-4.21-8.28-12.15-8.35-12.49-.28-1.35.6-2.67,1.95-2.95,1.35-.28,2.67.59,2.95,1.95.01.05,1.37,6.25,6.17,9.29,2.78,1.76,6.27,2.17,10.39,1.2,3.75-.88,6.31-2.62,7.62-5.17,2.64-5.16-.24-12.25-.27-12.33-.53-1.27.07-2.74,1.35-3.27,1.27-.53,2.73.07,3.27,1.34.16.38,3.81,9.26.12,16.51-2,3.93-5.68,6.55-10.94,7.79-1.85.44-3.62.65-5.3.65Z"/>
  <path class="st1" d="M233.48,186.58c-.84,0-1.66-.42-2.13-1.19-.72-1.18-.35-2.72.83-3.44,13.92-8.53,24.68-35.91,24.78-36.18.5-1.29,1.94-1.93,3.24-1.43,1.29.5,1.92,1.95,1.43,3.23-.46,1.19-11.47,29.22-26.83,38.63-.41.25-.86.37-1.3.37Z"/>
  <path class="st1" d="M245.24,193.28c-1.38,0-2.5-1.12-2.5-2.5v-15.23l-14.48,3c-1.35.28-2.68-.59-2.96-1.94-.28-1.35.59-2.67,1.94-2.95l17.49-3.62c.74-.15,1.5.03,2.08.51.58.47.92,1.19.92,1.94v18.3c0,1.38-1.12,2.5-2.5,2.5Z"/>
  <path class="st1" d="M100.09,232.64c-15.26,0-24.9-7.94-25.47-8.42-1.05-.89-1.19-2.47-.3-3.52.89-1.05,2.46-1.19,3.52-.3.73.61,17.83,14.5,42.69,2.07,1.23-.62,2.74-.12,3.35,1.12.62,1.23.12,2.74-1.12,3.35-8.42,4.21-16.08,5.7-22.68,5.7Z"/>
  <path class="st1" d="M126.19,237.72c-.2,0-.4-.02-.61-.07l-21.52-5.37c-.8-.2-1.45-.78-1.74-1.56s-.17-1.64.3-2.31l10.76-15.18c.8-1.13,2.36-1.39,3.49-.59,1.13.8,1.39,2.36.59,3.49l-8.64,12.2,17.97,4.48c1.34.33,2.15,1.69,1.82,3.03-.28,1.14-1.3,1.9-2.42,1.9Z"/>
  <path class="st13" d="M85.83,125.47c8.17,4.37,27.14-15.59,29.6-27.72s-3.18-17.76-10.76-16.03-4.11,12.59-9.31,22.54-16.03,17.73-9.53,21.2Z"/>
  <path class="st13" d="M214.84,80.63c-2.41,8.94-29.94,9.11-40.46,2.6-10.53-6.51-10.77-14.48-4.32-18.81s11.99,5.62,22.8,8.64c10.81,3.02,23.9.45,21.98,7.57Z"/>
  <path class="st2" d="M258.82,251.02c-3.13,3.02-1.89,8.29,2.27,9.57,2.02.62,4.26,1.16,6.71,1.54,4.61.71,8.7.65,11.99.32,2.29-.23,4.47.97,5.57,2.99s2.57,4.32,4.45,6.6c2.31,2.81,4.78,5.04,7.13,6.8,3.65,2.74,8.89.4,9.18-4.16.12-1.98.2-4.06.2-6.22,0-2.97-.11-5.78-.32-8.42-.28-3.51,2.65-6.44,6.15-6.13,2.59.23,5.54.28,8.75-.04,1.73-.17,3.36-.43,4.88-.74,4.48-.92,6.14-6.48,2.86-9.67-1.67-1.63-3.64-3.29-5.95-4.86-2.53-1.71-5-2.99-7.24-3.96-2.85-1.22-4.2-4.45-3.11-7.35.53-1.41,1.02-2.96,1.41-4.65.78-3.34,1.02-6.45.97-9.19-.07-4.2-4.59-6.89-8.31-4.93-1.96,1.03-4.04,2.29-6.14,3.81-4.29,3.09-7.54,6.44-9.95,9.41-1.86,2.29-5.16,2.84-7.6,1.18-1.22-.83-2.54-1.66-3.96-2.47-2.05-1.16-4.06-2.13-5.97-2.93-4.23-1.77-8.77,1.94-7.8,6.42.34,1.59.81,3.28,1.44,5.04.99,2.76,2.19,5.13,3.4,7.12,1.61,2.65.82,6.07-1.81,7.72-1.57.99-3.22,2.13-4.89,3.45-1.58,1.25-3.01,2.51-4.3,3.75Z"/>
</svg>