<?xml version="1.0" encoding="UTF-8"?>
<svg id="Capa_1" xmlns="http://www.w3.org/2000/svg" width="350.11" height="502.71" xmlns:xlink="http://www.w3.org/1999/xlink" version="1.1" viewBox="0 0 350.11 502.71">
  <!-- Generator: Adobe Illustrator 29.4.0, SVG Export Plug-In . SVG Version: 2.1.0 Build 152)  -->
  <defs>
    <style>
      .st0 {
        stroke: #e58163;
        stroke-miterlimit: 10;
      }

      .st0, .st1, .st2 {
        stroke-width: 5px;
      }

      .st0, .st1, .st2, .st3 {
        fill: none;
      }

      .st4 {
        fill: #d56e48;
      }

      .st1 {
        stroke: #aa6593;
      }

      .st1, .st2, .st3 {
        stroke-linecap: round;
        stroke-linejoin: round;
      }

      .st5 {
        fill: #2d2b30;
      }

      .st6 {
        fill: #ffd597;
      }

      .st7 {
        fill: #425493;
      }

      .st2, .st3 {
        stroke: #2d2b30;
      }

      .st3 {
        stroke-width: 4.7px;
      }

      .st8 {
        clip-path: url(#clippath-1);
      }

      .st9 {
        clip-path: url(#clippath-3);
      }

      .st10 {
        clip-path: url(#clippath-2);
      }

      .st11 {
        fill: #602b4e;
      }

      .st12 {
        fill: #fff;
      }

      .st13 {
        fill: #7a3864;
      }

      .st14 {
        fill: #bc5637;
      }

      .st15 {
        opacity: .2;
      }

      .st16 {
        fill: #913b20;
      }

      .st17 {
        clip-path: url(#clippath);
      }

      .st18 {
        fill: #93537b;
      }
    </style>
    <clipPath id="clippath">
      <path class="st18" d="M36.57,403.58c-.51-19.93,6.96-82.38,20.88-102.1s69.04-54.53,113.13-48.15c44.09,6.38,64.98,17.4,80.06,37.13s38.87,41.42,34.23,74.37c-4.64,32.95-8.7,72.4-27.85,88.07s-33.65,24.37-69.04,23.79c-35.39-.58-102.1-19.72-124.73-30.17s-26.32-28.51-26.69-42.93Z"/>
    </clipPath>
    <clipPath id="clippath-1">
      <path class="st4" d="M69.06,257.15c12.43,10.59,25.68,8.81,59.33,4.85,33.65-3.96,100.95-7.94,120.43-33.4,19.48-25.46,42.51-67.78,22.14-102.41-20.37-34.63-46.93-70.05-77.04-78.02s-79.7-7.08-101.84,24.79c-22.14,31.88-41.62,57.56-38.96,105.38,2.66,47.82-4.67,61.24,15.94,78.81Z"/>
    </clipPath>
    <clipPath id="clippath-2">
      <circle class="st12" cx="100.14" cy="362.07" r="38.35"/>
    </clipPath>
    <clipPath id="clippath-3">
      <circle class="st12" cx="204.23" cy="372.94" r="38.35"/>
    </clipPath>
  </defs>
  <g class="st15">
    <circle class="st6" cx="293.86" cy="243.94" r="56.26"/>
  </g>
  <path class="st2" d="M269.06,400.91s22.91,13.93,38.19,0c15.28-13.93,17.97-26.06,17.97-26.06"/>
  <polyline class="st2" points="309.95 377.55 314.81 393.05 331.06 388.78"/>
  <path class="st2" d="M16.57,333.97s-13.33,31.77,4.04,38.19,29.2,2.7,29.2,2.7"/>
  <polyline class="st2" points="2.65 338.7 11.84 352.81 27.81 338.7"/>
  <path class="st2" d="M242.58,290.92s28.51,1.32,43.31-33.56"/>
  <path class="st2" d="M92.1,81.42s-18.32-4.73-26.33-40.6"/>
  <path class="st7" d="M68.37,50.39s26.49-8.13,30.73-28.99-28.62-23.5-33.32,1.06c0,0,3.19-22.71-12.9-22.45s-20.58,20.33-4.74,31.69c0,0-20.86-6.87-21.13,7.92s18.81,18.91,41.36,10.77Z"/>
  <polyline class="st2" points="187.01 459.31 185.05 500.2 213.8 500.2"/>
  <polyline class="st2" points="98.18 459.31 100.14 500.2 71.39 500.2"/>
  <g>
    <path class="st18" d="M36.57,403.58c-.51-19.93,6.96-82.38,20.88-102.1s69.04-54.53,113.13-48.15c44.09,6.38,64.98,17.4,80.06,37.13s38.87,41.42,34.23,74.37c-4.64,32.95-8.7,72.4-27.85,88.07s-33.65,24.37-69.04,23.79c-35.39-.58-102.1-19.72-124.73-30.17s-26.32-28.51-26.69-42.93Z"/>
    <g class="st17">
      <circle class="st13" cx="71.39" cy="388.66" r="27.11"/>
      <circle class="st13" cx="228.3" cy="404.66" r="27.11"/>
      <path class="st1" d="M277.32,446.97c-17.13-12.45-57.85-12.8-82.99,5.88-8.92,6.62-16.71,15.77-18.45,26.74-.45,2.85-.48,5.79.24,8.59,2.33,9.02,11.85,14.41,21.04,16,19.73,3.42,39.26-5.82,56.87-15.37,8.01-4.34,16.2-9.02,21.57-16.38s9.09-20.1,1.73-25.46Z"/>
      <path class="st1" d="M164.58,488.43c-7.83-67.13,91.77-92.81,125.22-45.61,37.95,63.12-119.1,98.06-125.22,45.61Z"/>
      <path class="st13" d="M84.1,264.75c-4.07,1.87-8.59,4.27-9.67,8.61-.98,3.92,1.47,8.09,4.92,10.18s7.67,2.47,11.71,2.33c16.18-.58,31.07-8.66,46.89-12.07,20.77-4.49,43.4-1.03,62.62-10.08,5.11-2.41,10.48-7.31,8.85-12.71-.65-2.14-2.32-3.82-4.06-5.23-14.05-11.33-34.36-10.08-51.87-5.69-24.08,6.04-46.67,16.78-69.08,27.46"/>
    </g>
  </g>
  <g>
    <path class="st4" d="M69.06,257.15c12.43,10.59,25.68,8.81,59.33,4.85,33.65-3.96,100.95-7.94,120.43-33.4,19.48-25.46,42.51-67.78,22.14-102.41-20.37-34.63-46.93-70.05-77.04-78.02s-79.7-7.08-101.84,24.79c-22.14,31.88-41.62,57.56-38.96,105.38,2.66,47.82-4.67,61.24,15.94,78.81Z"/>
    <g class="st8">
      <circle class="st14" cx="105.57" cy="184.41" r="25.46"/>
      <circle class="st14" cx="233.63" cy="137.73" r="25.46"/>
      <path class="st0" d="M188.88,19.7c-25.87-4.31-56.38,4.22-57.95,34.29-.39,13.14,6.87,25.31,15,35.21,18.79,23.18,47.72,37.83,77.76,37.77,16.01.08,33.42-5,43.09-18.44,8.97-12,11.03-29.48,4.11-42.83-.62-1.24-1.32-2.45-2.07-3.63-14.39-21.52-54.44-38.86-79.73-42.33l-.2-.03Z"/>
      <path class="st0" d="M268.14,78.22c-23.45,30.1-81.69,34.26-107.54,4.91-10.41-11.77-13.52-27.97-7.1-42.15,10.18-22.58,37.93-31.14,61.27-28.95,21.87,2.2,42.76,10.86,54.88,28.52,7.78,11.64,7.26,26.29-1.41,37.53l-.11.14Z"/>
    </g>
  </g>
  <g>
    <circle class="st12" cx="100.14" cy="362.07" r="38.35"/>
    <g class="st10">
      <circle class="st5" cx="90" cy="358.21" r="32.03"/>
    </g>
  </g>
  <g>
    <circle class="st12" cx="204.23" cy="372.94" r="38.35"/>
    <g class="st9">
      <circle class="st5" cx="194.09" cy="369.09" r="32.03"/>
    </g>
  </g>
  <path class="st11" d="M184.43,307.29c-1.9,7.58,13.37,13.92,28.41,18.38s28.06,11.88,32.52,6.31-12.73-24.25-25.54-30.38c-12.81-6.13-33.15-3.22-35.38,5.69Z"/>
  <path class="st11" d="M130.41,301.42c1.33,7.7-14.37,12.89-29.69,16.22-15.33,3.33-28.86,9.76-32.89,3.87s14.5-23.24,27.73-28.39c13.23-5.16,33.3-.75,34.86,8.3Z"/>
  <path class="st5" d="M144.33,406.29c11.9,1.38,15.24,6.73,16.67,14.68s-4.75,15.89-16.67,15.45-13.68-11.03-13.24-18.54c.44-7.5,5.08-12.53,13.24-11.59Z"/>
  <path class="st3" d="M139.41,145s19.3,28.2,0,38.71c-19.3,10.51-34.74-22.94-34.74-22.94"/>
  <path class="st3" d="M181.9,137.13s10.99,32.02,34.89,17.68c23.9-14.34-3.59-38.71-3.59-38.71"/>
  <path class="st3" d="M190.77,186.83s7.17,17.07-9.08,20.9-19.58-12.43-19.58-12.43"/>
  <path class="st2" d="M259.44,146.68s-10.99,28.33-25.81,37.41"/>
  <polyline class="st2" points="227.89 176.09 245.38 172.47 245.38 190.78"/>
  <path class="st2" d="M76.39,222.32s18.66,15.77,45.41,2.39"/>
  <polyline class="st2" points="115.58 214.67 104.82 229.85 126.34 235.22"/>
  <path class="st16" d="M85.98,125.47c8.17,4.37,27.14-15.59,29.6-27.72s-3.18-17.76-10.76-16.03-4.11,12.59-9.31,22.54-16.03,17.73-9.53,21.2Z"/>
  <path class="st16" d="M214.99,80.63c-2.41,8.94-29.94,9.11-40.46,2.6-10.53-6.51-10.77-14.48-4.32-18.81,6.45-4.34,11.99,5.62,22.8,8.64,10.81,3.02,23.9.45,21.98,7.57Z"/>
  <path class="st6" d="M258.96,251.02c-3.13,3.02-1.89,8.29,2.27,9.57,2.02.62,4.26,1.16,6.71,1.54,4.61.71,8.7.65,11.99.32,2.29-.23,4.47.97,5.57,2.99s2.57,4.32,4.45,6.6c2.31,2.81,4.78,5.04,7.13,6.8,3.65,2.74,8.89.4,9.18-4.16.12-1.98.2-4.06.2-6.22,0-2.97-.11-5.78-.32-8.42-.28-3.51,2.65-6.44,6.15-6.13,2.59.23,5.54.28,8.75-.04,1.73-.17,3.36-.43,4.88-.74,4.48-.92,6.14-6.48,2.86-9.67-1.67-1.63-3.64-3.29-5.95-4.86-2.53-1.71-5-2.99-7.24-3.96-2.85-1.22-4.2-4.45-3.11-7.35.53-1.41,1.02-2.96,1.41-4.65.78-3.34,1.02-6.45.97-9.19-.07-4.2-4.59-6.89-8.31-4.93-1.96,1.03-4.04,2.29-6.14,3.81-4.29,3.09-7.54,6.44-9.95,9.41-1.86,2.29-5.16,2.84-7.6,1.18-1.22-.83-2.54-1.66-3.96-2.47-2.05-1.16-4.06-2.13-5.97-2.93-4.23-1.77-8.77,1.94-7.8,6.42.34,1.59.81,3.28,1.44,5.04.99,2.76,2.19,5.13,3.4,7.12,1.61,2.65.82,6.07-1.81,7.72-1.57.99-3.22,2.13-4.89,3.45-1.58,1.25-3.01,2.51-4.3,3.75Z"/>
</svg>