<?xml version="1.0" encoding="UTF-8"?>
<svg id="Capa_1" xmlns="http://www.w3.org/2000/svg" width="272.18" height="374.33" xmlns:xlink="http://www.w3.org/1999/xlink" version="1.1" viewBox="0 0 272.18 374.33">
  <!-- Generator: Adobe Illustrator 29.4.0, SVG Export Plug-In . SVG Version: 2.1.0 Build 152)  -->
  <defs>
    <style>
      .st0 {
        fill: #ba321c;
      }

      .st1 {
        fill: #2d2b30;
      }

      .st2 {
        fill: #8fc3d0;
      }

      .st3 {
        fill: #342a66;
      }

      .st4 {
        clip-path: url(#clippath-1);
      }

      .st5 {
        clip-path: url(#clippath-2);
      }

      .st6 {
        fill: #fff;
      }

      .st7 {
        fill: #5cacb7;
      }

      .st8 {
        clip-path: url(#clippath);
      }
    </style>
    <clipPath id="clippath">
      <path class="st2" d="M36.72,167.56c-.4-21.66,21.91-91.14,114.11-88.83s100.39,77.16,83.06,108.64c-17.33,31.48-51.28,56.75-106.89,50.25-55.61-6.5-89.56-31.06-90.28-70.06Z"/>
    </clipPath>
    <clipPath id="clippath-1">
      <circle class="st6" cx="187.8" cy="160.46" r="34.54"/>
    </clipPath>
    <clipPath id="clippath-2">
      <circle class="st6" cx="93.18" cy="160.46" r="34.54"/>
    </clipPath>
  </defs>
  <path class="st0" d="M140.72,0c10.83,0,18.06,25.28,28.89,29.61,10.83,4.33,101.83,46.22,102.56,119.17.72,72.94-45.5,124.94-131.44,122.78S-10.22,208,1.33,141.56C12.89,75.11,84.39,45.5,101,40.44S125.56,0,140.72,0Z"/>
  <path class="st1" d="M225.15,303.09c-.1,0-.21,0-.31-.02-17.55-2.19-47.69-15.69-48.97-16.27-1.26-.57-1.82-2.05-1.25-3.31.57-1.26,2.04-1.82,3.31-1.25.31.14,30.74,13.76,47.54,15.87,1.37.17,2.34,1.42,2.17,2.79-.16,1.26-1.24,2.19-2.48,2.19Z"/>
  <path class="st1" d="M215.95,309.61c-.83,0-1.64-.41-2.12-1.17l-6.39-10.16c-.37-.59-.48-1.31-.3-1.99.18-.67.64-1.24,1.26-1.56l12.77-6.6c1.23-.63,2.74-.15,3.37,1.07.63,1.23.15,2.74-1.07,3.37l-10.36,5.35,4.94,7.86c.74,1.17.38,2.71-.79,3.45-.41.26-.87.38-1.33.38Z"/>
  <path class="st1" d="M55.26,309.61c-.96,0-1.88-.56-2.29-1.5-.55-1.27.03-2.74,1.29-3.29,16.16-7.04,37.51-34.45,37.72-34.72.85-1.09,2.42-1.29,3.51-.45,1.09.85,1.29,2.42.45,3.51-.9,1.17-22.35,28.69-39.67,36.25-.33.14-.66.21-1,.21Z"/>
  <path class="st1" d="M63.51,313.95c-.17,0-.34-.02-.51-.05-1.35-.28-2.22-1.6-1.94-2.96l1.73-8.34-7.97-1.41c-1.36-.24-2.27-1.54-2.02-2.9.24-1.36,1.54-2.26,2.9-2.03l10.51,1.86c.67.12,1.25.5,1.63,1.06.38.56.52,1.25.38,1.91l-2.26,10.86c-.25,1.18-1.29,1.99-2.45,1.99Z"/>
  <path class="st1" d="M163.03,374.33h-13.9c-1.38,0-2.5-1.12-2.5-2.5v-58.24c0-1.38,1.12-2.5,2.5-2.5s2.5,1.12,2.5,2.5v55.74h11.4c1.38,0,2.5,1.12,2.5,2.5s-1.12,2.5-2.5,2.5Z"/>
  <path class="st1" d="M124.07,374.33h-13.9c-1.38,0-2.5-1.12-2.5-2.5v-58.24c0-1.38,1.12-2.5,2.5-2.5s2.5,1.12,2.5,2.5v55.74h11.4c1.38,0,2.5,1.12,2.5,2.5s-1.12,2.5-2.5,2.5Z"/>
  <path class="st0" d="M127.72,246.28c19.49-1.03,48.39,2.89,49.11,29.61.72,26.72-2.31,61.39-41.96,58.5-39.65-2.89-48.32-13.72-48.32-30.33s0-55.61,41.17-57.78Z"/>
  <g>
    <path class="st2" d="M36.72,167.56c-.4-21.66,21.91-91.14,114.11-88.83s100.39,77.16,83.06,108.64c-17.33,31.48-51.28,56.75-106.89,50.25-55.61-6.5-89.56-31.06-90.28-70.06Z"/>
    <g class="st8">
      <circle class="st7" cx="64.89" cy="184.79" r="37.67"/>
      <circle class="st7" cx="215.95" cy="177.65" r="37.67"/>
    </g>
  </g>
  <g>
    <circle class="st6" cx="187.8" cy="160.46" r="34.54"/>
    <g class="st4">
      <circle class="st1" cx="195.54" cy="162.46" r="28.85"/>
    </g>
  </g>
  <g>
    <circle class="st6" cx="93.18" cy="160.46" r="34.54"/>
    <g class="st5">
      <circle class="st1" cx="100.93" cy="162.46" r="28.85"/>
    </g>
  </g>
  <path class="st3" d="M60.02,105.96c2.59-7.23,11.65-10.05,18.41-12.48,10.95-3.43,22.88-4.34,33.14.81,5.98,3.11,7.87,9.31,1.95,12.86-5.63,3.42-16.18,2.03-22.68,2.84-12.76,1.58-32.48,10.44-30.86-3.9l.04-.14Z"/>
  <path class="st3" d="M226.01,105.96c-2.59-7.23-11.65-10.05-18.41-12.48-10.95-3.43-22.88-4.34-33.14.81-5.98,3.11-7.87,9.31-1.95,12.86,5.63,3.42,16.18,2.03,22.68,2.84,12.76,1.58,32.48,10.44,30.86-3.9l-.04-.14Z"/>
  <path class="st1" d="M139.64,213.19c-.26,0-.52,0-.78-.02-10.17-.42-13.36-8.82-13.63-13.2-.08-1.38.96-2.56,2.34-2.65,1.36-.07,2.56.96,2.65,2.33.06.85.83,8.2,8.85,8.53,8.63.34,11.74-7.21,11.87-7.54.51-1.28,1.96-1.91,3.24-1.41,1.28.5,1.92,1.94,1.42,3.22-1.46,3.78-6.64,10.73-15.95,10.73Z"/>
</svg>