<?xml version="1.0" encoding="UTF-8"?>
<svg id="Capa_1" xmlns="http://www.w3.org/2000/svg" width="252.15" height="412.89" xmlns:xlink="http://www.w3.org/1999/xlink" version="1.1" viewBox="0 0 252.15 412.89">
  <!-- Generator: Adobe Illustrator 29.4.0, SVG Export Plug-In . SVG Version: 2.1.0 Build 152)  -->
  <defs>
    <style>
      .st0 {
        fill: #d7848b;
      }

      .st1 {
        fill: #2d2b30;
      }

      .st2 {
        fill: #1e7c44;
      }

      .st3 {
        clip-path: url(#clippath-1);
      }

      .st4 {
        clip-path: url(#clippath-3);
      }

      .st5 {
        clip-path: url(#clippath-2);
      }

      .st6 {
        fill: #fff;
      }

      .st7 {
        fill: #e5a1ac;
      }

      .st8 {
        fill: #bc616c;
      }

      .st9 {
        fill: #135b32;
      }

      .st10 {
        fill: #ffeab6;
      }

      .st11 {
        clip-path: url(#clippath);
      }
    </style>
    <clipPath id="clippath">
      <path class="st0" d="M172.64,118.47c-27.94-.45-55.3,11.96-79.22,69.25s-36.37,112.6-29.39,149.96c6.97,37.37,33.38,47.83,69.25,49.32,35.87,1.49,77.72,1.99,95.16-4.98,17.44-6.97,20.92-36.87,17.44-79.71-3.49-42.85-10.96-182.84-73.24-183.84Z"/>
    </clipPath>
    <clipPath id="clippath-1">
      <circle class="st6" cx="197.78" cy="235.49" r="32.1"/>
    </clipPath>
    <clipPath id="clippath-2">
      <circle class="st6" cx="119.06" cy="231.13" r="32.1"/>
    </clipPath>
    <clipPath id="clippath-3">
      <path class="st9" d="M86.96,122.85c1.41-26.63,25.53-27.43,39.47-25.64-5.47-2.57-11.17-8.5-10.92-22.05.47-25.84,35.66-23.02,35.66-23.02,0,0-39.89-50.28,16.14-46.99,56.03,3.29,24.77,44.64,24.77,44.64,0,0,35.25.47,37.8,21.14,2.54,20.67-22.65,27.25-22.65,27.25,0,0,39.37-7.76,36.08,27.51-3.29,35.26-47.93,34.17-76,33.79-22.44-.3-82.34.96-80.35-36.63Z"/>
    </clipPath>
  </defs>
  <g>
    <path class="st6" d="M185.13,412.89c-4.14,0-7.5-3.36-7.5-7.5s3.36-7.5,7.5-7.5h6.4v-5.34c-5.96.25-12.54.38-19.66.38-11,0-23.56-.3-38.37-.91v13.37c0,4.14-3.36,7.5-7.5,7.5h-13.9c-4.14,0-7.5-3.36-7.5-7.5s3.36-7.5,7.5-7.5h6.4v-7.09c-15.54-2.02-27.65-6.35-36.91-13.19-11.87-8.77-19.22-21.53-22.49-39.01-2.13-11.43-2.56-24.75-1.28-39.64-5.04-1.73-9.88-4.39-14.44-7.95-6.02-4.7-11.44-10.87-16.54-18.84-1.47-.66-2.63-1.42-3.28-1.85l-13.58-8.89c-3.46-2.27-4.43-6.93-2.16-10.38,1.39-2.12,3.74-3.39,6.28-3.39,1.28,0,2.54.33,3.65.95-.07-.9-.1-1.79-.09-2.66.03-4.1,3.4-7.44,7.5-7.44,2.06.01,3.94.81,5.34,2.24,1.04,1.06,1.73,2.37,2.02,3.8,1.38-1.52,3.37-2.45,5.54-2.45.5,0,.99.05,1.48.15,4.04.8,6.69,4.75,5.88,8.81-1.05,5.31-2.44,10.6-4.12,15.74,3.62,5.22,7.34,9.29,11.32,12.4,2.24,1.75,4.62,3.21,7.07,4.34,4.23-27.74,13.64-59.89,27.44-93.65-1.33-.45-2.47-.98-3.44-1.6-1.9-1.22-2.93-3.27-2.75-5.48.14-1.65.49-5.92,14.93-12.44,2.64-5.27,5.37-10.19,8.18-14.7-11.67-5.32-23.03-15.13-22.08-33.07,1-18.77,12.28-29.61,31.91-30.84-2.13-4.06-3.5-9.47-3.37-16.67.29-15.86,11.82-25.95,31.22-27.74-5.67-9.1-12.78-23.99-7.43-35.08,3.93-8.14,13.34-12.26,27.96-12.26,1.69,0,3.49.06,5.33.16,19.28,1.13,31.43,6.85,36.12,17.01,4.56,9.88.57,21.16-3.16,28.34,11.83,1.64,32.09,7.05,34.28,24.82,1.25,10.12-3.01,17.75-8.83,23.14,5.6,1.19,11.35,3.65,15.7,8.42,5.33,5.85,7.54,14.01,6.59,24.27-1.39,14.9-9.43,25.55-23.91,31.72,2.18,4.96,4.24,10.36,6.16,16.12,5.46,3.24,7.77,5.94,7.88,9.08.07,2.09-.96,4.03-2.77,5.19-.24.15-.48.3-.74.44,10.12,38.01,13.52,81.94,15.38,105.97.2,2.64.39,5.06.57,7.23,2.81,34.51,3.01,75.33-20.56,84.76-5.57,2.23-13.38,3.83-23.76,4.86v13.87c0,4.14-3.36,7.5-7.5,7.5h-13.9Z"/>
    <path class="st6" d="M245.88,302.31c-1.88-23.04-4.91-74.18-17-116.69,1.65-.39,3.05-.9,4.07-1.56,1.69-1.09-1.31-3.79-6.56-6.68-2.56-7.94-5.48-15.46-8.81-22.31,13.66-4.39,24.2-12.93,25.73-29.38,3.29-35.26-36.08-27.51-36.08-27.51,0,0,25.19-6.58,22.65-27.25-2.54-20.67-37.8-21.14-37.8-21.14,0,0,31.26-41.35-24.77-44.64-56.03-3.29-16.14,46.99-16.14,46.99,0,0-35.19-2.82-35.66,23.02-.25,13.55,5.45,19.47,10.92,22.05-13.94-1.8-38.06-1-39.47,25.64-.87,16.44,10.1,25.45,24.6,30.41-4.08,5.98-8.09,12.91-12.02,20.93-9.01,3.88-15.46,8.39-13.15,9.87,1.7,1.09,4.43,1.78,7.66,2.19-.21.49-.41.97-.62,1.47-15.17,36.35-25.72,71.9-29.63,102.57-4.91-1.26-9.81-3.71-14.24-7.16-4.98-3.88-9.53-9.08-13.9-15.8.19-.23.36-.49.46-.79,1.83-5.37,3.31-10.91,4.41-16.47.27-1.35-.61-2.67-1.97-2.94-1.35-.27-2.67.61-2.94,1.97-.85,4.29-1.95,8.57-3.25,12.76-3.26-6-4.73-11.01-4.7-15.84.01-1.38-1.1-2.51-2.48-2.52h-.02c-1.37,0-2.49,1.11-2.5,2.48-.04,4.96,1.34,9.7,3.13,13.85l-10.33-6.76c-1.15-.76-2.7-.43-3.46.72-.76,1.15-.43,2.7.72,3.46l13.58,8.89c.87.57,2.26,1.47,3.89,1.96.04.06.08.13.12.19,5,8.06,10.29,14.2,16.15,18.77,5.25,4.1,10.94,6.88,16.74,8.24-1.65,15.7-1.48,30.02.82,42.37,6.33,33.88,28.63,45.64,59.48,48.66v16.55h-11.4c-1.38,0-2.5,1.12-2.5,2.5s1.12,2.5,2.5,2.5h13.9c1.38,0,2.5-1.12,2.5-2.5v-18.65c1.57.11,3.16.2,4.77.26,21.08.88,44.21,1.41,63.25.29v15.6h-11.4c-1.38,0-2.5,1.12-2.5,2.5s1.12,2.5,2.5,2.5h13.9c1.38,0,2.5-1.12,2.5-2.5v-18.44c11.18-.88,20.63-2.41,26.91-4.93,17.44-6.97,20.92-36.87,17.44-79.71Z"/>
  </g>
  <g>
    <path class="st10" d="M2.67,213.96c2.22-.5,10.04-.99,10.04-.99.49-1.16,1.32-10.91,2.35-13.25.26-.6.64-1.29,1.29-1.35.74-.07,1.25.72,1.54,1.4,1.68,4,2.19,8.49,1.43,12.76,3.68.31,7.35.62,11.02.92,1.12.09,2.47.36,2.84,1.42.54,1.55-1.5,2.65-3.1,3.02-3.89.9-7.79,1.8-11.68,2.71-.45,3.48-.72,6.98-.81,10.49-.04,1.4-.28,3.14-1.6,3.59-1,.34-2.12-.35-2.62-1.28s-.55-2.03-.58-3.09c-.09-3.3-.19-6.61-.29-9.92-3.4-.82-6.8-1.63-10.2-2.45-.93-.23-2.02-.6-2.25-1.53-.33-1.31,1.3-2.2,2.62-2.5h0Z"/>
    <path class="st10" d="M44.59,231.27c-4.49,2.63-5.98-1.21-5.4,4.6.25,1.93.5,4.32-1.93,3.48-2.06-1.52-1.38-3.01-1.9-5.29,0-1.71-4.03-.93-5.17-1.28-2.05.07-3.59-1.95-1.74-3.44,2.22-1.45,5.26-1.14,7.57-2.29-.77-9.9,5.42-6.39,3.77,1.09,1.38.52,7.67.73,4.81,3.13h0Z"/>
    <path class="st10" d="M31.53,203.66c-2.13-4.75,1.85-5.81-3.99-5.87-1.95.04-4.35.03-3.25-2.3,1.73-1.88,3.14-1.05,5.46-1.31,1.7.18,1.36-3.91,1.83-5,.15-2.05,2.33-3.36,3.61-1.36,1.2,2.36.56,5.35,1.45,7.77,9.93.31,5.76,6.08-1.49,3.63-.67,1.32-1.56,7.55-3.63,4.44h0Z"/>
    <g>
      <path class="st1" d="M126.01,407.89h-13.9c-1.38,0-2.5-1.12-2.5-2.5s1.12-2.5,2.5-2.5h11.4v-55.74c0-1.38,1.12-2.5,2.5-2.5s2.5,1.12,2.5,2.5v58.24c0,1.38-1.12,2.5-2.5,2.5Z"/>
      <path class="st1" d="M199.03,407.89h-13.9c-1.38,0-2.5-1.12-2.5-2.5s1.12-2.5,2.5-2.5h11.4v-55.74c0-1.38,1.12-2.5,2.5-2.5s2.5,1.12,2.5,2.5v58.24c0,1.38-1.12,2.5-2.5,2.5Z"/>
      <path class="st1" d="M70,296.25s-.07,0-.11,0c-8.06-.34-16.16-3.51-23.42-9.17-5.86-4.57-11.14-10.71-16.15-18.77-3.32-5.34-7.72-13.47-7.66-22.31.01-1.37,1.13-2.48,2.5-2.48h.02c1.38,0,2.49,1.14,2.48,2.52-.04,5.82,2.09,11.88,6.91,19.64,4.69,7.55,9.59,13.27,14.97,17.47,6.34,4.95,13.64,7.83,20.55,8.12,1.38.06,2.45,1.22,2.39,2.6-.06,1.34-1.16,2.4-2.5,2.4Z"/>
      <path class="st1" d="M32.44,268.47c-2.58,0-4.89-1.51-6.13-2.32l-13.58-8.89c-1.15-.76-1.48-2.31-.72-3.46.76-1.16,2.31-1.48,3.46-.72l13.58,8.89c.61.4,1.82,1.19,2.84,1.43,1.52-4.68,2.77-9.48,3.73-14.29.27-1.35,1.59-2.24,2.94-1.97,1.35.27,2.23,1.58,1.97,2.94-1.1,5.56-2.58,11.1-4.41,16.47-.24.71-.8,1.28-1.5,1.54-.73.27-1.46.38-2.16.38Z"/>
      <g>
        <path class="st0" d="M172.64,118.47c-27.94-.45-55.3,11.96-79.22,69.25s-36.37,112.6-29.39,149.96c6.97,37.37,33.38,47.83,69.25,49.32,35.87,1.49,77.72,1.99,95.16-4.98,17.44-6.97,20.92-36.87,17.44-79.71-3.49-42.85-10.96-182.84-73.24-183.84Z"/>
        <g class="st11">
          <circle class="st8" cx="225.36" cy="257.78" r="40.3"/>
          <circle class="st8" cx="86.96" cy="253.37" r="40.3"/>
          <path class="st7" d="M155.98,359.03c2.23-.75,4.61-1.59,6.31-3.3s2.42-4.15,1.88-6.46c-1.03-4.36-6.3-6.41-10.2-4.65-7.71,3.48-10.58,13.92-6.85,21.23,2.16,4.24,6.75,7.03,11.16,8.42,4.91,1.55,10.38,1.45,15.13-.58,4.04-1.73,7.25-4.99,9.84-8.46,2.87-3.84,5.07-8.26,6.42-12.86,1.24-4.23,1.69-8.71.56-13.02-1.15-4.39-3.83-8.28-7.3-11.17-7.63-6.37-17.68-8.06-27.34-7.31-5.57.43-11.1,1.73-16.05,4.36-4,2.13-7.52,5.21-10.45,8.65-5.26,6.2-8.81,13.83-10.25,21.83s-.9,16.05,2.14,23.43c3.11,7.54,8.8,13.89,16.11,17.58,8.79,4.43,19.35,4.58,28.81,2.54s19.16-6.68,25.45-14.5c3.63-4.52,6.38-9.63,8.8-14.88,2.11-4.59,4.14-9.23,5.46-14.12,2.41-8.96,2.86-18.83-.46-27.63-1.68-4.46-4.25-8.52-7.61-11.91-3.85-3.87-8.68-6.89-13.4-9.56-10.3-5.83-22.2-9.69-34.14-8.5-9.97.99-19.47,4.65-27.57,10.54s-14.44,13.34-19.39,21.79-8.39,18.1-10.3,27.89c-2.03,10.39-2.14,21.51,1.46,31.58,1.75,4.88,4.33,9.35,7.7,13.28,1.26,1.47,3.37-.66,2.12-2.12-13.08-15.23-11.06-37.53-4.82-55.24,5.91-16.78,17.55-32.3,33.89-40.03,8.92-4.23,19.18-5.92,28.94-4.24,10.79,1.85,20.77,7.04,29.55,13.44,7.05,5.13,11.45,12.93,12.61,21.53s-.62,17.5-3.86,25.5c-1.94,4.8-4.13,9.57-6.72,14.06s-5.56,8.66-9.57,11.79c-7,5.48-16.06,8.55-24.85,9.37s-17.5-.57-24.7-5.66c-5.96-4.22-10.14-10.52-12.06-17.53-3.84-13.97.67-29.96,10.75-40.25,3.1-3.17,6.7-5.77,10.84-7.4,4.91-1.94,10.21-2.71,15.47-2.73,8.55-.02,17.4,2.13,23.44,8.58,2.77,2.96,4.6,6.77,4.92,10.83s-.73,8-2.19,11.67c-2.95,7.47-8.6,15.6-16.97,17.23-7.92,1.55-19.02-2.53-20.13-11.51-.44-3.55.57-7.4,2.85-10.18,2.12-2.59,6.24-5.03,9.03-1.86,1.17,1.33,1.18,3.3.1,4.71-1.25,1.64-3.5,2.33-5.37,2.95s-1.04,3.51.8,2.89h0Z"/>
        </g>
      </g>
      <g>
        <circle class="st6" cx="197.78" cy="235.49" r="32.1"/>
        <g class="st3">
          <circle class="st1" cx="190.57" cy="237.35" r="26.81"/>
        </g>
      </g>
      <g>
        <circle class="st6" cx="119.06" cy="231.13" r="32.1"/>
        <g class="st5">
          <circle class="st1" cx="111.86" cy="232.98" r="26.81"/>
        </g>
      </g>
      <path class="st1" d="M152.49,281.71c-1.85,0-3.61-.36-5.19-1.09-5.48-2.53-8.32-9.79-6.33-16.18.41-1.32,1.81-2.05,3.13-1.64,1.32.41,2.05,1.81,1.64,3.13-1.11,3.57.09,8.5,3.65,10.15,1.75.8,3.99.84,6.31.11,4.71-1.49,8.46-5.95,9.12-10.84.19-1.37,1.44-2.33,2.81-2.14,1.37.19,2.33,1.45,2.14,2.81-.93,6.85-5.98,12.85-12.56,14.94-1.6.51-3.19.76-4.73.76Z"/>
      <path class="st1" d="M165.5,325.38c-1.16,0-2.33-.02-3.49-.06-1.38-.05-2.46-1.2-2.42-2.58.05-1.38,1.25-2.45,2.58-2.42,20.17.69,40.02-5.05,59.21-10.6,1.32-.39,2.71.38,3.1,1.71.38,1.33-.38,2.71-1.71,3.1-18.47,5.34-37.54,10.85-57.27,10.85Z"/>
      <path class="st1" d="M167.31,338.86c-.74,0-1.47-.33-1.96-.95-.86-1.08-.67-2.66.41-3.51,2.3-1.82,7.82-8.14,11.14-12.06l-12.58-8.85c-1.13-.79-1.4-2.35-.61-3.48.79-1.13,2.36-1.4,3.48-.61l14.81,10.41c.57.4.95,1.02,1.04,1.71.09.69-.11,1.39-.55,1.93-1.01,1.21-9.94,11.96-13.63,14.87-.46.36-1,.54-1.55.54Z"/>
      <path class="st9" d="M232.95,184.07c5.63-3.62-40.73-25.16-49.52-11.98-8.79,13.18,8.79,13.98,17.97,14.38s25.96,1.2,31.55-2.4Z"/>
      <path class="st9" d="M86.39,184.07c-5.63-3.62,40.73-25.16,49.52-11.98s-8.79,13.98-17.97,14.38-25.96,1.2-31.55-2.4Z"/>
      <g>
        <path class="st9" d="M86.96,122.85c1.41-26.63,25.53-27.43,39.47-25.64-5.47-2.57-11.17-8.5-10.92-22.05.47-25.84,35.66-23.02,35.66-23.02,0,0-39.89-50.28,16.14-46.99,56.03,3.29,24.77,44.64,24.77,44.64,0,0,35.25.47,37.8,21.14,2.54,20.67-22.65,27.25-22.65,27.25,0,0,39.37-7.76,36.08,27.51-3.29,35.26-47.93,34.17-76,33.79-22.44-.3-82.34.96-80.35-36.63Z"/>
        <g class="st4">
          <path class="st2" d="M123.37,130.64c-1.26,0-2.5-.12-3.72-.37-6.09-1.23-10.75-5.36-15.01-9.49l-.51-.5c-3.6-3.5-7.33-7.12-11.81-8.6-4.08-1.34-9.56-.24-11.22,3.54l-4.58-2.01c2.84-6.47,11.22-8.3,17.36-6.28,5.57,1.83,9.72,5.87,13.73,9.76l.51.49c3.72,3.61,7.75,7.21,12.52,8.18,6.23,1.26,12.71-2.31,17.03-5.54,1.8-1.34,3.59-2.83,5.31-4.28,3.53-2.96,7.19-6.01,11.46-8.22,6.04-3.12,15.45-4.81,22.13.68,1.67,1.37,2.92,3,4.13,4.58.5.65,1,1.31,1.53,1.93,4.16,4.91,10.66,7.85,17.83,8.08,7.18.23,13.85-2.3,18.31-6.93.81-.84,1.57-1.74,2.37-2.7,1.59-1.9,3.24-3.87,5.41-5.44,3.47-2.5,8.06-3.48,12.62-2.69,4.55.79,8.55,3.27,10.96,6.8l-4.13,2.82c-1.66-2.42-4.46-4.13-7.69-4.7-3.23-.57-6.45.1-8.83,1.81-1.66,1.2-3.04,2.85-4.5,4.59-.82.98-1.67,2-2.6,2.96-5.44,5.65-13.48,8.75-22.07,8.47-8.58-.27-16.42-3.86-21.49-9.84-.58-.69-1.13-1.4-1.68-2.12-1.09-1.42-2.12-2.75-3.34-3.76-4.49-3.69-11.6-2.71-16.66-.1-3.78,1.96-7.07,4.71-10.55,7.62-1.78,1.49-3.62,3.03-5.54,4.46-6.07,4.52-11.87,6.8-17.29,6.8Z"/>
          <path class="st2" d="M234.79,81.73c-3.14-4.21-7.05-8.92-12.19-11.96-5.07-2.99-10.78-3.75-15.27-2.04-3.12,1.19-5.76,3.51-8.56,5.97-3.17,2.79-6.45,5.67-10.7,7.1-6.23,2.1-13.51.34-18.1-4.36-1.56-1.6-2.77-3.44-3.94-5.21-1.69-2.58-3.29-5.01-5.64-6.11-3.98-1.87-8.85.69-10.76,1.87-1.48.92-2.88,1.97-4.35,3.08-2.29,1.72-4.65,3.49-7.38,4.79-6.53,3.11-14.56,2.94-20.96-.44-6.05-3.2-10.55-9.24-11.95-15.94-.14-.04-.28-.09-.42-.15-1.5-.68-2.02-2.51-1.65-3.9.39-1.45,1.69-2.35,3.17-2.2,1.12.11,3.09.83,3.63,4.35.87,5.62,4.53,10.76,9.55,13.42,5.03,2.66,11.33,2.79,16.47.35,2.28-1.09,4.34-2.64,6.53-4.28,1.5-1.13,3.05-2.29,4.72-3.33,5.5-3.42,11.16-4.2,15.53-2.15,3.62,1.7,5.69,4.85,7.69,7.89,1.09,1.65,2.11,3.21,3.33,4.47,3.23,3.31,8.55,4.59,12.93,3.12,3.3-1.11,6.07-3.54,9-6.11,3.01-2.64,6.12-5.37,10.08-6.88,5.9-2.25,13.23-1.35,19.6,2.41,5.94,3.51,10.41,8.94,13.65,13.27l-4.01,2.99ZM105.68,53.55c-.78,0-1.48.4-1.84.94l3.3,2.19c.29-.25.51-.58.61-.96.27-1.02-.61-1.73-1.12-1.96-.32-.14-.64-.21-.95-.21Z"/>
        </g>
      </g>
    </g>
  </g>
</svg>