<?xml version="1.0" encoding="UTF-8"?>
<svg id="Capa_1" xmlns="http://www.w3.org/2000/svg" width="762.59" height="536.44" xmlns:xlink="http://www.w3.org/1999/xlink" version="1.1" viewBox="0 0 762.59 536.44">
  <!-- Generator: Adobe Illustrator 29.4.0, SVG Export Plug-In . SVG Version: 2.1.0 Build 152)  -->
  <defs>
    <style>
      .st0 {
        fill: #d7848b;
      }

      .st1 {
        fill: #2d2b30;
      }

      .st2 {
        fill: #98eae8;
      }

      .st3 {
        fill: #d0f4f1;
      }

      .st4 {
        fill: #bfa821;
      }

      .st5 {
        stroke: #2d2b30;
        stroke-linecap: round;
        stroke-linejoin: round;
      }

      .st5, .st6 {
        fill: none;
        stroke-width: 5px;
      }

      .st7 {
        clip-path: url(#clippath-1);
      }

      .st8 {
        clip-path: url(#clippath-3);
      }

      .st9 {
        clip-path: url(#clippath-4);
      }

      .st10 {
        clip-path: url(#clippath-2);
      }

      .st11 {
        clip-path: url(#clippath-6);
      }

      .st12 {
        clip-path: url(#clippath-5);
      }

      .st13 {
        fill: #fff;
      }

      .st14 {
        fill: #e5a1ac;
      }

      .st15 {
        fill: #348abf;
      }

      .st16 {
        fill: #bc616c;
      }

      .st17 {
        fill: #4a705e;
      }

      .st18 {
        fill: #af6e28;
      }

      .st6 {
        stroke: #648e79;
        stroke-miterlimit: 10;
      }

      .st19 {
        clip-path: url(#clippath);
      }

      .st20 {
        fill: #91571d;
      }
    </style>
    <clipPath id="clippath">
      <path class="st0" d="M74.45,231.25c27.94-.45,55.3,11.96,79.22,69.25,23.91,57.29,36.37,112.6,29.39,149.96s-33.38,47.83-69.25,49.32-77.72,1.99-95.16-4.98S-2.27,457.94,1.22,415.09s10.96-182.84,73.24-183.84Z"/>
    </clipPath>
    <clipPath id="clippath-1">
      <circle class="st13" cx="49.32" cy="348.27" r="32.1"/>
    </clipPath>
    <clipPath id="clippath-2">
      <circle class="st13" cx="128.03" cy="343.91" r="32.1"/>
    </clipPath>
    <clipPath id="clippath-3">
      <path class="st17" d="M160.14,235.63c-1.41-26.63-25.53-27.43-39.47-25.64,5.47-2.57,11.17-8.5,10.92-22.05-.47-25.84-35.66-23.02-35.66-23.02,0,0,39.89-50.28-16.14-46.99-56.03,3.29-24.77,44.64-24.77,44.64,0,0-35.25.47-37.8,21.14-2.54,20.67,22.65,27.25,22.65,27.25,0,0-39.37-7.76-36.08,27.51s47.93,34.17,76,33.79c22.44-.3,82.34.96,80.35-36.63Z"/>
    </clipPath>
    <clipPath id="clippath-4">
      <path class="st2" d="M737.62,417.39c7.55-.74,21.99,4.11,24.68-12.68,5.27-32.85-64.57-19.97-100.84-109.22-36.27-89.25-62.98-115.84-98.84-110.85-49.19,6.85-53.05,104.26-43.85,162.2,9.2,57.94,21.66,88.41,55.75,107.98,34.09,19.56,174.11,21.8,179.45-9.18,3.03-17.58-7.06-25.06-16.34-28.25Z"/>
    </clipPath>
    <clipPath id="clippath-5">
      <circle class="st13" cx="527.01" cy="261.7" r="32.1"/>
    </clipPath>
    <clipPath id="clippath-6">
      <circle class="st13" cx="602.06" cy="255.92" r="32.1"/>
    </clipPath>
  </defs>
  <g>
    <path class="st13" d="M244.45,331.39c1.32.3,2.95,1.18,2.62,2.5-.23.92-1.32,1.3-2.25,1.53-3.4.82-6.8,1.63-10.2,2.45-.09,3.3-.19,6.61-.29,9.92-.03,1.06-.07,2.16-.58,3.09s-1.62,1.62-2.62,1.28c-1.33-.45-1.57-2.19-1.6-3.59-.09-3.51-.36-7.01-.81-10.49-3.89-.9-7.79-1.8-11.68-2.71-1.6-.37-3.64-1.48-3.1-3.02.37-1.06,1.72-1.33,2.84-1.42,3.68-.31,7.35-.62,11.02-.92-.76-4.27-.25-8.76,1.43-12.76.29-.69.8-1.47,1.54-1.4.65.06,1.03.75,1.29,1.35,1.03,2.34,1.86,12.08,2.35,13.25,0,0,7.82.48,10.04.99h0Z"/>
    <path class="st13" d="M202.53,348.72c-2.87-2.4,3.42-2.6,4.81-3.13-1.65-7.47,4.54-10.99,3.77-1.09,2.31,1.15,5.35.84,7.57,2.29,1.85,1.49.31,3.51-1.74,3.44-1.13.35-5.16-.43-5.17,1.28-.51,2.28.16,3.77-1.9,5.29-2.44.84-2.18-1.55-1.93-3.48.57-5.81-.91-1.97-5.4-4.6h0Z"/>
    <path class="st13" d="M215.6,321.1c-2.07,3.11-2.96-3.12-3.63-4.44-7.25,2.45-11.42-3.32-1.49-3.63.89-2.42.25-5.41,1.45-7.77,1.28-2,3.46-.69,3.61,1.36.47,1.09.13,5.18,1.83,5,2.32.26,3.73-.57,5.46,1.31,1.1,2.33-1.3,2.34-3.25,2.3-5.84.06-1.86,1.12-3.99,5.87h0Z"/>
    <g>
      <polyline class="st5" points="121.08 459.93 121.08 518.17 134.98 518.17"/>
      <polyline class="st5" points="48.06 459.93 48.06 518.17 61.96 518.17"/>
      <path class="st5" d="M177.1,406.53c8-.33,15.68-3.72,21.99-8.65,6.31-4.92,11.34-11.32,15.56-18.12,3.96-6.37,7.34-13.47,7.28-20.98"/>
      <path class="st5" d="M209.03,362.37c1.08,5.47,2.53,10.87,4.32,16.15,2.05.75,4.24-.49,6.06-1.69,4.53-2.96,9.05-5.93,13.58-8.89"/>
      <g>
        <path class="st0" d="M74.45,231.25c27.94-.45,55.3,11.96,79.22,69.25,23.91,57.29,36.37,112.6,29.39,149.96s-33.38,47.83-69.25,49.32-77.72,1.99-95.16-4.98S-2.27,457.94,1.22,415.09s10.96-182.84,73.24-183.84Z"/>
        <g class="st19">
          <circle class="st16" cx="21.73" cy="370.56" r="40.3"/>
          <circle class="st16" cx="160.14" cy="366.15" r="40.3"/>
          <path class="st14" d="M91.91,468.91c-1.87-.63-4.12-1.32-5.37-2.95-1.18-1.55-1.03-3.7.41-5.01,3.03-2.76,6.94-.2,8.97,2.47,2.17,2.86,3.11,6.71,2.55,10.25-.64,4.03-3.22,6.88-6.69,8.85-4.09,2.33-9.13,3.21-13.75,2.21-4.06-.88-7.3-3.25-10.02-6.31-2.88-3.24-5.15-7.13-6.71-11.17-1.43-3.71-2.44-7.76-2.02-11.76.89-8.58,8.11-14.64,15.88-17.25,4.23-1.42,8.62-1.81,13.06-1.75,5.19.07,10.42.89,15.24,2.87,14.31,5.9,22.57,22.49,22.55,37.4-.01,7.14-1.91,14.25-5.99,20.16-4.47,6.47-11.35,10.89-19.01,12.52-8.89,1.89-18.43.59-26.86-2.62-4.09-1.56-8.06-3.68-11.47-6.44-4.04-3.27-7.08-7.72-9.6-12.21-8.37-14.91-15.49-34.74-6.14-50.89,2.22-3.84,5.29-7.12,8.88-9.7,4.49-3.23,9.23-6.11,14.25-8.44,9.96-4.62,20.82-6.62,31.68-4.52,17.92,3.46,32.17,16.36,40.78,32.01,4.43,8.06,7.35,16.85,9.05,25.88,1.8,9.59,1.79,19.78-1.44,29.06-1.57,4.5-3.95,8.7-7.06,12.31-1.25,1.46.86,3.59,2.12,2.12,14.19-16.53,12.19-40.68,4.99-59.84s-20.19-34.76-38.73-41.89c-10.45-4.02-21.85-4.59-32.63-1.57-5.68,1.59-11.13,4.02-16.25,6.94-4.79,2.74-9.69,5.83-13.52,9.85-6.52,6.85-9.54,16.07-9.49,25.43.05,10.11,3.49,19.43,7.72,28.47,2.39,5.11,5.12,10.07,8.7,14.45,3.25,3.97,7.27,7.04,11.81,9.4,8.76,4.55,19.07,6.75,28.92,5.84,9.04-.84,17.46-4.63,23.47-11.54,5.22-6,8.05-13.62,8.68-21.51s-1.04-16.25-4.5-23.53c-3.63-7.65-9.57-14.78-17.18-18.7-5.11-2.63-10.81-3.89-16.51-4.23-4.91-.3-9.98-.06-14.73,1.27-8.69,2.44-17.06,8.57-19.21,17.75s2.06,18.81,7.41,25.81c2.62,3.43,5.85,6.55,9.89,8.2,4.87,2,10.55,1.94,15.49.19,4.23-1.5,8.57-4.27,10.57-8.44,1.81-3.76,1.97-8.23.61-12.17s-4.1-7.38-7.95-8.95c-4.06-1.66-9.29.9-9.94,5.38-.76,5.27,4.09,7.77,8.29,9.18,1.83.62,2.62-2.28.8-2.89h0Z"/>
        </g>
      </g>
      <g>
        <circle class="st13" cx="49.32" cy="348.27" r="32.1"/>
        <g class="st7">
          <circle class="st1" cx="56.52" cy="350.13" r="26.81"/>
        </g>
      </g>
      <g>
        <circle class="st13" cx="128.03" cy="343.91" r="32.1"/>
        <g class="st10">
          <circle class="st1" cx="135.23" cy="345.76" r="26.81"/>
        </g>
      </g>
      <path class="st5" d="M79.79,378.46c.8,5.87,5.2,11.1,10.84,12.89,2.64.84,5.6.94,8.11-.22,4.65-2.15,6.52-8.27,4.99-13.16"/>
      <path class="st5" d="M25.02,424.9c19.6,5.67,39.6,11.39,59.98,10.7"/>
      <path class="st5" d="M81.33,424.22l-14.81,10.41s9.66,11.67,13.26,14.51"/>
      <path class="st17" d="M14.14,296.85c-5.63-3.62,40.73-25.16,49.52-11.98s-8.79,13.98-17.97,14.38-25.96,1.2-31.55-2.4Z"/>
      <path class="st17" d="M160.7,296.85c5.63-3.62-40.73-25.16-49.52-11.98-8.79,13.18,8.79,13.98,17.97,14.38,9.19.4,25.96,1.2,31.55-2.4Z"/>
      <g>
        <path class="st17" d="M160.14,235.63c-1.41-26.63-25.53-27.43-39.47-25.64,5.47-2.57,11.17-8.5,10.92-22.05-.47-25.84-35.66-23.02-35.66-23.02,0,0,39.89-50.28-16.14-46.99-56.03,3.29-24.77,44.64-24.77,44.64,0,0-35.25.47-37.8,21.14-2.54,20.67,22.65,27.25,22.65,27.25,0,0-39.37-7.76-36.08,27.51s47.93,34.17,76,33.79c22.44-.3,82.34.96,80.35-36.63Z"/>
        <g class="st8">
          <path class="st6" d="M-.59,225.82c4.27-6.24,13.92-7.93,20.05-3.5,2.93,2.11,4.93,5.24,7.44,7.84,10.38,10.79,30.17,10.16,39.85-1.26,1.77-2.08,3.23-4.46,5.34-6.19,5.29-4.35,13.31-3.53,19.39-.39s10.94,8.2,16.43,12.29,12.31,7.34,19.02,5.98c5.42-1.1,9.79-4.98,13.76-8.83s8.03-7.95,13.28-9.68,12.07-.15,14.29,4.91"/>
          <path class="st6" d="M10.3,193.01c3.63-4.86,7.7-9.54,12.92-12.62s11.77-4.38,17.43-2.22c7.27,2.77,11.8,10.55,19.17,13.03,5.32,1.79,11.6.27,15.52-3.74,3.7-3.78,5.51-9.59,10.3-11.84,4.18-1.97,9.22-.43,13.14,2.01s7.32,5.75,11.49,7.74c5.84,2.78,12.99,2.63,18.71-.4s9.87-8.86,10.85-15.25c.15-.95.46-2.15,1.41-2.24s.44,1.96-.08,1.17"/>
        </g>
      </g>
    </g>
    <path class="st5" d="M670.65,419c.65,13.14.16,76.33-1.48,89.38-.14,1.09-.3,2.23-.95,3.11-.5.68-1.25,1.13-1.97,1.56-6.06,3.65-12.12,7.29-18.18,10.94"/>
    <polyline class="st5" points="646.16 510.88 668.22 511.49 657.19 533.94"/>
    <path class="st5" d="M604.41,419c.65,13.14.16,76.33-1.48,89.38-.14,1.09-.3,2.23-.95,3.11-.5.68-1.25,1.13-1.97,1.56-6.06,3.65-12.12,7.29-18.18,10.94"/>
    <polyline class="st5" points="579.93 510.88 601.98 511.49 590.95 533.94"/>
    <path class="st15" d="M517.88,315.02c-9.77,2.87-16.5,13.66-14.77,23.7.77,4.46,2.96,8.55,5.45,12.33,5.38,8.17,13.07,15.69,22.75,17.1,4.1.6,8.97-.35,10.98-3.97.87-1.57,1.07-3.42,1.21-5.21.64-8.32.23-16.91-2.99-24.61s-9.61-14.39-17.72-16.36c-2.03-.49-4.39-.86-5.48-2.64"/>
    <g>
      <path class="st2" d="M737.62,417.39c7.55-.74,21.99,4.11,24.68-12.68,5.27-32.85-64.57-19.97-100.84-109.22-36.27-89.25-62.98-115.84-98.84-110.85-49.19,6.85-53.05,104.26-43.85,162.2,9.2,57.94,21.66,88.41,55.75,107.98,34.09,19.56,174.11,21.8,179.45-9.18,3.03-17.58-7.06-25.06-16.34-28.25Z"/>
      <g class="st9">
        <path class="st3" d="M528.14,376.13c-.14-9.26.15-18.7,3.09-27.49,2.94-8.79,8.87-16.96,17.36-20.66,12.82-5.59,28.35.45,37.83,10.73,9.49,10.28,14.25,23.94,18.6,37.24s8.74,27.01,17.7,37.75c10.18,12.2,25.72,19.85,33.22,33.87,2.2,4.11,3.61,9.01,2.15,13.44-1.64,4.96-6.42,8.15-11.13,10.41-25.67,12.32-56.3,7.98-83.19-1.37-17.09-5.94-35.58-16.3-38.9-34.08"/>
        <circle class="st0" cx="637.98" cy="295.61" r="35.12"/>
        <circle class="st0" cx="498.97" cy="302.13" r="35.12"/>
      </g>
    </g>
    <path class="st4" d="M569.11,271.84c4.08,3.9,9.18,12.1,7.77,28.28-.24,2.76-1.92,5.07-4.17,5.76l-36.61,9.13,25.47-42.07c1.89-2.75,5.26-3.28,7.54-1.1Z"/>
    <g>
      <circle class="st13" cx="527.01" cy="261.7" r="32.1"/>
      <g class="st12">
        <circle class="st1" cx="520.41" cy="265.12" r="26.81"/>
      </g>
    </g>
    <g>
      <circle class="st13" cx="602.06" cy="255.92" r="32.1"/>
      <g class="st11">
        <circle class="st1" cx="595.46" cy="259.34" r="26.81"/>
      </g>
    </g>
    <path class="st15" d="M509.6,220.79c.67,3.6,15.9-2.39,23.63-2.72s14.69.71,13.3-6.72-11.21-7.55-20.09-5.17-17.95,8.6-16.83,14.62Z"/>
    <path class="st15" d="M618.36,221.46c-1.01,3.52-15.59-3.91-23.26-4.98s-14.69-.71-12.59-7.97,11.88-6.44,20.49-3.22c8.61,3.22,17.04,10.29,15.35,16.17Z"/>
    <path class="st2" d="M570.57,186.36c-12.19-6.76-7.75-33.71,1.83-41.71,5.25-4.88,11.45-4.83,14.37-2,4.22,4.98.06,14.97-1.88,20-.15.75.71.35,2.67-.25,5.35-2.02,13.78-1.31,15.39,5.51,1.89,12.26-22.24,17.07-28.54,18.62"/>
    <path class="st15" d="M734.65,335.82c10.64,6.33,8.19,22.43,2.42,29.97-7.57,9.89-26.47,11.51-38.65-1.36,1.21,3.47,4.51,14.29-.78,20.93-7.66,9.62-28.05,3.79-38.26-1.59-25.24-13.3-30.24-45.51-30.25-51.09-.05-21.28,24.46-45.88,49.95-30.59,25.49,15.29,42.37,25.89,55.57,33.74Z"/>
  </g>
  <g>
    <path class="st20" d="M429.82,357.17l11.79-4.73s7.67,96.42,20.05,127.67c12.38,31.25,17.69,35.38,17.69,35.38h-21.23s-23-56.16-23.59-88.81-4.72-69.51-4.72-69.51Z"/>
    <path class="st17" d="M271.68,265.64s-.56,12.04-7.71,17.53-14.21,8.21-14.99,3.69,2.43-12.5,8.48-17.4c6.05-4.89,14.22-3.83,14.22-3.83Z"/>
    <path class="st17" d="M252.64,238.54s-7.49-4.68-4.14-26.58,15.2-27.37,21.29-20.98,6.39,17.64,3.95,25.85c-2.43,8.21-11.48,23.36-21.1,21.71Z"/>
    <polygon class="st18" points="382.65 212.87 451.26 247.37 448.7 254.74 372.71 224.01 382.65 212.87"/>
    <path class="st20" d="M294.79,290.33s38.88-23.45,69.56-66.31,25.38-39.75,25.38-39.75l11.83,4.55s-65.49,101.6-102.64,115.66l-4.13-14.15Z"/>
    <polygon class="st20" points="286.57 267.87 239.07 217.9 232.38 224.01 290.42 289.69 286.57 267.87"/>
    <path class="st18" d="M290.42,482.96s35.06-94.07,41-130.52l14.1,13.74-31.91,134.74-23.19-17.96Z"/>
    <path class="st18" d="M328.4,469.47s52.48-23.11,86.09-42.8,51.89-33.25,51.89-33.25l7.08,21.23s-41.28,17.1-64.27,27.12-80.78,43.05-80.78,43.05v-15.35Z"/>
    <path class="st18" d="M432.85,471.7l13.18,7.55s-12,30.84-26.74,39.38l-9.43-10.17s20.05-12.62,23-36.76Z"/>
    <path class="st18" d="M406.82,433.96s-24.77-91.07-30.66-111.8l7.08-3.63s32.05,104.15,41.67,106.14-18.09,9.28-18.09,9.28Z"/>
    <path class="st18" d="M324.27,390.7s-21.82-33.66-25.36-86.23-2.36-74.68-2.36-74.68l-12.38,2.66s-1.07,137.39,33.8,181.62l6.3-23.36Z"/>
    <path class="st18" d="M387.49,346.88s22.55-7.18,28.48-20.01l5.54,6.16s-13.84,18.99-29.67,23.73l-4.35-9.89Z"/>
    <path class="st17" d="M417.32,333.89c-2.11.94-3.36-5.55-4.29-7.92-3.1-9.54-3.27-22.67.71-32.44,1.98-5.14,4.25-10.54,7.68-12.89,3.01-2.01,5.84.81,7.03,3.53,6.34,12.35,4.76,35.49-11.05,49.68l-.08.04Z"/>
    <path class="st17" d="M416.2,333.83c.21.42,1.36.6,3.34.82,2.87.31,6.8.53,10.04.35,7.68.22,19.01-5.32,20.69-12.36.49-5.63-6.93-6.48-11.25-5.26-6.41,1.67-13.72,7.5-18.4,11.64-1.6,1.44-4.98,4.43-4.44,4.77l.02.04Z"/>
    <path class="st17" d="M258.55,520.25h81.94c9.28,0,28.99-8.12,22.61-17.97s-31.31-5.82-31.31-5.82c0,0,6.96-9.25,11.02-27.8,4.06-18.55-16.23-11.02-24.35,0-8.12,11.02-15.07,20.17-15.07,20.17,0,0-5.8-72.35-26.67-79.31-20.87-6.96-26.09,12.03-20.87,36.74,5.22,24.71,9.25,42.69,9.25,42.69,0,0-38.24-36.82-46.94-24.79-8.7,12.03,18.61,56.1,40.4,56.1Z"/>
  </g>
</svg>