<?xml version="1.0" encoding="UTF-8"?>
<svg id="Capa_1" xmlns="http://www.w3.org/2000/svg" width="762.59" height="536.44" xmlns:xlink="http://www.w3.org/1999/xlink" version="1.1" viewBox="0 0 762.59 536.44">
  <!-- Generator: Adobe Illustrator 29.4.0, SVG Export Plug-In . SVG Version: 2.1.0 Build 152)  -->
  <defs>
    <style>
      .st0, .st1, .st2 {
        fill: none;
      }

      .st3 {
        fill: #d7848b;
      }

      .st4 {
        fill: #2d2b30;
      }

      .st5 {
        fill: #bfa821;
      }

      .st6 {
        fill: #85dddd;
      }

      .st1 {
        stroke: #2d2b30;
        stroke-linecap: round;
        stroke-linejoin: round;
      }

      .st1, .st2 {
        stroke-width: 5px;
      }

      .st7 {
        clip-path: url(#clippath-1);
      }

      .st8 {
        clip-path: url(#clippath-3);
      }

      .st9 {
        clip-path: url(#clippath-4);
      }

      .st10 {
        clip-path: url(#clippath-2);
      }

      .st11 {
        clip-path: url(#clippath-7);
      }

      .st12 {
        clip-path: url(#clippath-6);
      }

      .st13 {
        clip-path: url(#clippath-5);
      }

      .st2 {
        stroke: #1e7c44;
        stroke-miterlimit: 10;
      }

      .st14 {
        fill: #fff;
      }

      .st15 {
        fill: #b5e8e6;
      }

      .st16 {
        fill: #e5a1ac;
      }

      .st17 {
        fill: #348abf;
      }

      .st18 {
        fill: #335112;
      }

      .st19 {
        fill: #bc616c;
      }

      .st20 {
        fill: #af6e28;
      }

      .st21 {
        fill: #135b32;
      }

      .st22 {
        clip-path: url(#clippath);
      }

      .st23 {
        fill: #91571d;
      }
    </style>
    <clipPath id="clippath">
      <path class="st0" d="M318.33,93.31v359.47h137.41V93.31h-137.41ZM364.48,264.33c-4.91-5.8-10.55-11.22-16.23-16.66.75-.6,1.5-1.21,2.26-1.79,2.64-2.05,5.5-4.17,8.27-6.23,1.41-1.05,2.81-2.09,4.2-3.14,4.51,3.4,9.24,6.83,13.53,10.16.98.76,1.96,1.53,2.93,2.32-5.53,5.32-10.5,10.21-14.96,15.34Z"/>
    </clipPath>
    <clipPath id="clippath-1">
      <path class="st3" d="M74.45,231.25c27.94-.45,55.3,11.96,79.22,69.25,23.91,57.29,36.37,112.6,29.39,149.96s-33.38,47.83-69.25,49.32-77.72,1.99-95.16-4.98S-2.27,457.94,1.22,415.09s10.96-182.84,73.24-183.84Z"/>
    </clipPath>
    <clipPath id="clippath-2">
      <circle class="st14" cx="49.32" cy="348.27" r="32.1"/>
    </clipPath>
    <clipPath id="clippath-3">
      <circle class="st14" cx="128.03" cy="343.91" r="32.1"/>
    </clipPath>
    <clipPath id="clippath-4">
      <path class="st21" d="M160.14,235.63c-1.41-26.63-25.53-27.43-39.47-25.64,5.47-2.57,11.17-8.5,10.92-22.05-.47-25.84-35.66-23.02-35.66-23.02,0,0,39.89-50.28-16.14-46.99-56.03,3.29-24.77,44.64-24.77,44.64,0,0-35.25.47-37.8,21.14-2.54,20.67,22.65,27.25,22.65,27.25,0,0-39.37-7.76-36.08,27.51s47.93,34.17,76,33.79c22.44-.3,82.34.96,80.35-36.63Z"/>
    </clipPath>
    <clipPath id="clippath-5">
      <path class="st6" d="M737.62,417.39c7.55-.74,21.99,4.11,24.68-12.68,5.27-32.85-64.57-19.97-100.84-109.22-36.27-89.25-62.98-115.84-98.84-110.85-49.19,6.85-53.05,104.26-43.85,162.2,9.2,57.94,21.66,88.41,55.75,107.98,34.09,19.56,174.11,21.8,179.45-9.18,3.03-17.58-7.06-25.06-16.34-28.25Z"/>
    </clipPath>
    <clipPath id="clippath-6">
      <circle class="st14" cx="527.01" cy="261.7" r="32.1"/>
    </clipPath>
    <clipPath id="clippath-7">
      <circle class="st14" cx="602.06" cy="255.92" r="32.1"/>
    </clipPath>
  </defs>
  <path class="st20" d="M332.85,68.8c-.71,0-17.44-.39-33.01-26.1l5.13-3.11c7.18,11.86,14.43,17.55,19.25,20.23,5.14,2.86,8.66,2.98,8.69,2.98l-.06,6Z"/>
  <path class="st23" d="M394.79,68.8l-.03-6,.02,3-.05-3c.14,0,14.26-.63,27.94-23.21l5.13,3.11c-15.58,25.72-32.31,26.1-33.01,26.1Z"/>
  <path class="st18" d="M405.2,428.3c-.36-1.98-5.63.32-7.78.82-8.37,2.46-17.86,8.79-22.92,16.44-2.71,3.95-5.47,8.23-5.47,11.84.04,3.14,3.45,3.8,5.99,3.31,11.97-1.52,27.79-14.02,30.21-32.32v-.08Z"/>
  <path class="st18" d="M404.61,426.07c.4-.06,1.1.68,2.23,1.99,1.63,1.91,3.72,4.61,5.18,7.03,3.93,5.4,5.52,16.25,1.3,20.91-3.8,3.11-8.05-1.79-9.3-5.48-1.95-5.42-1.36-13.53-.69-18.92.25-1.85.73-5.75,1.24-5.53h.04Z"/>
  <path class="st18" d="M312.57,58.03s-11.95-1.57-18.62,4.51-10.58,12.54-6.27,14.11,12.74-.2,18.62-5.29,6.27-13.33,6.27-13.33Z"/>
  <path class="st18" d="M304.86,45.17s4.82-3.02,2.67-17.13c-2.16-14.11-9.8-17.64-13.72-13.52-3.92,4.12-4.12,11.37-2.55,16.66s7.4,15.05,13.6,13.99Z"/>
  <path class="st23" d="M447.14,459.02c-1.03-1.51-25.67-36.84-66.98-29.69l-1.54-8.87c47.11-8.17,74.81,31.79,75.96,33.5l-7.45,5.05,3.72-2.53-3.72,2.53Z"/>
  <g>
    <path class="st20" d="M445.34,450.78c-10.98-23.7-26.64-46.11-46.8-62.75-6.65-5.36-14-10.08-21.63-14.76-16.62-10.49-35.31-18.81-47.14-35.58-9.46-13.34-11.06-29.4-8.1-45.02.52-2.35,1.15-5.48,1.79-7.76,1.61-5.17,3.59-10.52,6.41-15.19,5.18-9.15,13-16.7,21.25-23.05,6.16-4.77,13.22-9.76,19.23-14.57,4.77-3.84,10.43-8.81,14.85-13.08,21.19-20.61,35.72-47.57,45.49-75.31,2.39-7.15,4.71-14.97,6.3-22.34,1.9-8.62,3.23-17.35,3.66-26.06,0,0,10.9.53,10.9.53-.53,9.43-1.9,18.7-3.74,27.84-7.25,34.16-20.91,67.49-41.93,95.55-5.45,7.35-12.43,14.7-18.96,21.13-8.8,8.71-18.42,17.25-25.78,26.38-2.94,3.66-5.51,7.74-7.52,11.97-.28.76-1.18,2.95-1.5,3.68-.65,2.15-1.43,4.17-1.85,6.44-.7,2.51-1.11,5.65-1.56,8.22-1.26,9.43-1.53,18.68,2.85,27.28,6.67,13.77,22.53,25.02,35.2,34.41,25.81,18.06,44.4,41.49,58.44,69.57,3.14,6.32,6.02,12.57,8.54,19.21,0,0-8.39,3.28-8.39,3.28h0Z"/>
    <path class="st23" d="M273.91,447.5c10.38-26.21,24.99-50.78,45.15-70.77,10.27-9.98,21.65-17.68,32.72-26.17,15.03-11.6,29.38-25.33,27.95-45-.23-4.42-.92-9.63-1.72-14.1-.83-3.46-1.62-7.05-3.01-10.29,0,0-.98-2.47-.98-2.47l-1.22-2.4c-1.18-2.44-2.88-4.99-4.5-7.18-7.65-10.37-18.03-19.25-27.58-28.77-6.53-6.42-13.51-13.78-18.96-21.13-21.02-28.06-34.68-61.38-41.93-95.55-1.83-9.14-3.21-18.4-3.74-27.84,0,0,10.9-.53,10.9-.53.43,8.7,1.76,17.44,3.66,26.06,1.37,6.22,3.25,13.14,5.28,19.18,4,12.6,9.49,24.88,15.59,36.58,8.31,15.27,18.42,29.87,30.92,41.88,4.43,4.29,10.08,9.24,14.85,13.08,6,4.81,13.08,9.8,19.23,14.57,8.25,6.35,16.08,13.89,21.25,23.05,2.82,4.67,4.81,10.02,6.41,15.19.74,2.26,1.21,5.46,1.8,7.76,1.64,9.56,2.15,19.38-.6,29.08-5.75,21.65-24.95,34.07-42.94,44.49-11.41,6.81-23.2,13.65-33.33,21.78-6.64,5.4-12.83,11.54-18.49,18.23-9.96,11.71-18.57,24.85-25.53,38.62-.97,1.96-1.96,4.02-2.78,5.91,0,0-8.39-3.28-8.39-3.28h0Z"/>
    <g class="st22">
      <path class="st20" d="M445.34,450.78c-10.98-23.7-26.64-46.11-46.8-62.75-6.65-5.36-14-10.08-21.63-14.76-16.62-10.49-35.31-18.81-47.14-35.58-9.46-13.34-11.06-29.4-8.1-45.02.52-2.35,1.15-5.48,1.79-7.76,1.61-5.17,3.59-10.52,6.41-15.19,5.18-9.15,13-16.7,21.25-23.05,6.16-4.77,13.22-9.76,19.23-14.57,4.77-3.84,10.43-8.81,14.85-13.08,21.19-20.61,35.72-47.57,45.49-75.31,2.39-7.15,4.71-14.97,6.3-22.34,1.9-8.62,3.23-17.35,3.66-26.06,0,0,10.9.53,10.9.53-.53,9.43-1.9,18.7-3.74,27.84-7.25,34.16-20.91,67.49-41.93,95.55-5.45,7.35-12.43,14.7-18.96,21.13-8.8,8.71-18.42,17.25-25.78,26.38-2.94,3.66-5.51,7.74-7.52,11.97-.28.76-1.18,2.95-1.5,3.68-.65,2.15-1.43,4.17-1.85,6.44-.7,2.51-1.11,5.65-1.56,8.22-1.26,9.43-1.53,18.68,2.85,27.28,6.67,13.77,22.53,25.02,35.2,34.41,25.81,18.06,44.4,41.49,58.44,69.57,3.14,6.32,6.02,12.57,8.54,19.21,0,0-8.39,3.28-8.39,3.28h0Z"/>
    </g>
  </g>
  <path class="st23" d="M406.94,164.02c-16.24-9.19-30.95-20.78-44.1-33.98-1.38-1.5-4.37-4.7-5.68-6.16-1.12-1.33-4.22-5.06-5.37-6.46-1.13-1.52-3.94-5.31-5.01-6.78-15.68-23-23.36-51.06-22.24-78.76.28-4.58.63-9.07,1.59-13.67,0,0,4.6.73,4.6.73-.1,1.6-.12,3.38-.09,5.08.48,25.54,8.71,50.92,23.26,71.89,1.75,2.23,4.31,5.77,6.22,7.83,0,0,3.31,3.77,3.31,3.77,2.05,2.03,5.01,5.22,7.16,7.1,9.21,8.66,19.56,16.29,30.26,23.02,4.86,3.01,10.13,6.08,15.18,8.6,0,0-9.09,17.8-9.09,17.8h0Z"/>
  <path class="st20" d="M242.1,459.93s29.65-76.46,42.75-171.9c13.1-95.43,28.78-177.49,28.78-177.49l14.66,2.76-49.65,387.41-28.96,6.31-7.58-47.09Z"/>
  <path class="st18" d="M227.68,520.04h66.57c7.54,0,23.55-6.59,18.37-14.6s-25.44-4.73-25.44-4.73c0,0,5.65-7.52,8.95-22.59s-13.19-8.95-19.78,0-12.25,16.39-12.25,16.39c0,0-4.71-58.78-21.67-64.43s-21.2,9.77-16.96,29.85,7.51,34.68,7.51,34.68c0,0-31.07-29.91-38.13-20.14s15.12,45.57,32.82,45.57Z"/>
  <path class="st18" d="M322.44,428.3c.36-1.98,5.63.32,7.78.82,8.37,2.46,17.86,8.79,22.92,16.44,2.71,3.95,5.47,8.23,5.47,11.84-.04,3.14-3.45,3.8-5.99,3.31-11.97-1.52-27.79-14.02-30.21-32.32v-.08Z"/>
  <path class="st18" d="M323.03,426.07c-.4-.06-1.1.68-2.23,1.99-1.63,1.91-3.72,4.61-5.18,7.03-3.93,5.4-5.52,16.25-1.3,20.91,3.8,3.11,8.05-1.79,9.3-5.48,1.95-5.42,1.36-13.53.69-18.92-.25-1.85-.73-5.75-1.24-5.53h-.04Z"/>
  <path class="st20" d="M280.5,459.02l-7.45-5.06c1.16-1.71,28.86-41.67,75.96-33.5l-1.54,8.87c-41.31-7.16-65.95,28.18-66.98,29.69Z"/>
  <path class="st20" d="M311.61,146.22c13.39-6.86,26.27-15.29,37.85-24.93,3.59-3.02,7.96-6.85,11.21-10.2,0,0,3.53-3.59,3.53-3.59l3.31-3.77,1.66-1.89,1.51-1.98,3.05-3.96c1.34-1.98,2.77-4.22,4.1-6.22,5.67-9.36,10.33-19.62,13.44-30.12,2.8-8.97,4.56-18.38,5.38-27.79.15-2.45.36-5.3.35-7.76.02-1.71,0-3.49-.09-5.08l4.6-.73c3.35,18.12,1.62,36.76-3.13,54.48-3.08,10.8-7.22,21-12.93,30.84-1.01,1.57-3.59,5.6-4.58,7.12-1.07,1.45-3.91,5.28-5.01,6.78-10.92,13.77-24.24,25.77-38.5,35.98-5.46,3.81-10.75,7.37-16.65,10.62,0,0-9.09-17.8-9.09-17.8h0Z"/>
  <path class="st18" d="M415.07,58.03s11.95-1.57,18.62,4.51c6.66,6.07,10.58,12.54,6.27,14.11s-12.74-.2-18.62-5.29c-5.88-5.09-6.27-13.33-6.27-13.33Z"/>
  <path class="st18" d="M422.78,45.17s-4.82-3.02-2.67-17.13,9.8-17.64,13.72-13.52c3.92,4.12,4.12,11.37,2.55,16.66-1.57,5.29-7.4,15.05-13.6,13.99Z"/>
  <path class="st20" d="M485.54,459.93s-29.65-76.46-42.75-171.9c-13.1-95.43-28.78-177.49-28.78-177.49l-14.66,2.76,49.65,387.41,28.96,6.31,7.58-47.09Z"/>
  <path class="st18" d="M499.96,520.04c-8.23,0-59.03,0-66.57,0s-23.55-6.59-18.37-14.6,25.44-4.73,25.44-4.73c0,0-5.65-7.52-8.95-22.59s13.19-8.95,19.78,0,12.25,16.39,12.25,16.39c0,0,4.71-58.78,21.67-64.43,16.96-5.65,21.2,9.77,16.96,29.85s-7.51,34.68-7.51,34.68c0,0,31.07-29.91,38.13-20.14,7.07,9.78-15.12,45.57-32.82,45.57Z"/>
  <path class="st18" d="M282.69,135.85s-12.54-17.27-24.13-13.83,12.07,18.69,12.07,18.69c0,0-21.94-6.24-20.66,5.36s23.94,5.15,23.94,5.15c0,0-11.05,7.12-5.47,12.79s12.46-10.22,12.46-10.22c0,0-1.27,12.37,9.46,6.67s-7.66-24.62-7.66-24.62Z"/>
  <path class="st18" d="M443.62,135.85s12.54-17.27,24.13-13.83c11.6,3.44-12.07,18.69-12.07,18.69,0,0,21.94-6.24,20.66,5.36-1.29,11.6-23.94,5.15-23.94,5.15,0,0,11.05,7.12,5.47,12.79-5.58,5.67-12.46-10.22-12.46-10.22,0,0,1.27,12.37-9.46,6.67s7.66-24.62,7.66-24.62Z"/>
  <path class="st6" d="M360.52.25c9.98-2.38,16.98,12.99,10.38,25.3,0,0,11.89-10.41,19.69-5.38,7.8,5.03.28,22.91-14.48,21.72,0,0,18.66,5.24,12.03,19.44s-26.98-13.18-26.98-13.18c0,0,.05,19.96-15.65,16.12s4.47-27.11,4.47-27.11c0,0-20.68-1.33-15.1-14.96s21.46.94,21.46.94c0,0-9.22-19.71,4.19-22.9Z"/>
  <path class="st14" d="M244.45,331.39c1.32.3,2.95,1.18,2.62,2.5-.23.92-1.32,1.3-2.25,1.53-3.4.82-6.8,1.63-10.2,2.45-.09,3.3-.19,6.61-.29,9.92-.03,1.06-.07,2.16-.58,3.09s-1.62,1.62-2.62,1.28c-1.33-.45-1.57-2.19-1.6-3.59-.09-3.51-.36-7.01-.81-10.49-3.89-.9-7.79-1.8-11.68-2.71-1.6-.37-3.64-1.48-3.1-3.02.37-1.06,1.72-1.33,2.84-1.42,3.68-.31,7.35-.62,11.02-.92-.76-4.27-.25-8.76,1.43-12.76.29-.69.8-1.47,1.54-1.4.65.06,1.03.75,1.29,1.35,1.03,2.34,1.86,12.08,2.35,13.25,0,0,7.82.48,10.04.99h0Z"/>
  <path class="st14" d="M202.53,348.72c-2.87-2.4,3.42-2.6,4.81-3.13-1.65-7.47,4.54-10.99,3.77-1.09,2.31,1.15,5.35.84,7.57,2.29,1.85,1.49.31,3.51-1.74,3.44-1.13.35-5.16-.43-5.17,1.28-.51,2.28.16,3.77-1.9,5.29-2.44.84-2.18-1.55-1.93-3.48.57-5.81-.91-1.97-5.4-4.6h0Z"/>
  <path class="st14" d="M215.6,321.1c-2.07,3.11-2.96-3.12-3.63-4.44-7.25,2.45-11.42-3.32-1.49-3.63.89-2.42.25-5.41,1.45-7.77,1.28-2,3.46-.69,3.61,1.36.47,1.09.13,5.18,1.83,5,2.32.26,3.73-.57,5.46,1.31,1.1,2.33-1.3,2.34-3.25,2.3-5.84.06-1.86,1.12-3.99,5.87h0Z"/>
  <g>
    <polyline class="st1" points="121.08 459.93 121.08 518.17 134.98 518.17"/>
    <polyline class="st1" points="48.06 459.93 48.06 518.17 61.96 518.17"/>
    <path class="st1" d="M177.1,406.53c8-.33,15.68-3.72,21.99-8.65,6.31-4.92,11.34-11.32,15.56-18.12,3.96-6.37,7.34-13.47,7.28-20.98"/>
    <path class="st1" d="M209.03,362.37c1.08,5.47,2.53,10.87,4.32,16.15,2.05.75,4.24-.49,6.06-1.69,4.53-2.96,9.05-5.93,13.58-8.89"/>
    <g>
      <path class="st3" d="M74.45,231.25c27.94-.45,55.3,11.96,79.22,69.25,23.91,57.29,36.37,112.6,29.39,149.96s-33.38,47.83-69.25,49.32-77.72,1.99-95.16-4.98S-2.27,457.94,1.22,415.09s10.96-182.84,73.24-183.84Z"/>
      <g class="st7">
        <circle class="st19" cx="21.73" cy="370.56" r="40.3"/>
        <circle class="st19" cx="160.14" cy="366.15" r="40.3"/>
        <path class="st16" d="M91.91,468.91c-1.87-.63-4.12-1.32-5.37-2.95-1.18-1.55-1.03-3.7.41-5.01,3.03-2.76,6.94-.2,8.97,2.47,2.17,2.86,3.11,6.71,2.55,10.25-.64,4.03-3.22,6.88-6.69,8.85-4.09,2.33-9.13,3.21-13.75,2.21-4.06-.88-7.3-3.25-10.02-6.31-2.88-3.24-5.15-7.13-6.71-11.17-1.43-3.71-2.44-7.76-2.02-11.76.89-8.58,8.11-14.64,15.88-17.25,4.23-1.42,8.62-1.81,13.06-1.75,5.19.07,10.42.89,15.24,2.87,14.31,5.9,22.57,22.49,22.55,37.4-.01,7.14-1.91,14.25-5.99,20.16-4.47,6.47-11.35,10.89-19.01,12.52-8.89,1.89-18.43.59-26.86-2.62-4.09-1.56-8.06-3.68-11.47-6.44-4.04-3.27-7.08-7.72-9.6-12.21-8.37-14.91-15.49-34.74-6.14-50.89,2.22-3.84,5.29-7.12,8.88-9.7,4.49-3.23,9.23-6.11,14.25-8.44,9.96-4.62,20.82-6.62,31.68-4.52,17.92,3.46,32.17,16.36,40.78,32.01,4.43,8.06,7.35,16.85,9.05,25.88,1.8,9.59,1.79,19.78-1.44,29.06-1.57,4.5-3.95,8.7-7.06,12.31-1.25,1.46.86,3.59,2.12,2.12,14.19-16.53,12.19-40.68,4.99-59.84s-20.19-34.76-38.73-41.89c-10.45-4.02-21.85-4.59-32.63-1.57-5.68,1.59-11.13,4.02-16.25,6.94-4.79,2.74-9.69,5.83-13.52,9.85-6.52,6.85-9.54,16.07-9.49,25.43.05,10.11,3.49,19.43,7.72,28.47,2.39,5.11,5.12,10.07,8.7,14.45,3.25,3.97,7.27,7.04,11.81,9.4,8.76,4.55,19.07,6.75,28.92,5.84,9.04-.84,17.46-4.63,23.47-11.54,5.22-6,8.05-13.62,8.68-21.51s-1.04-16.25-4.5-23.53c-3.63-7.65-9.57-14.78-17.18-18.7-5.11-2.63-10.81-3.89-16.51-4.23-4.91-.3-9.98-.06-14.73,1.27-8.69,2.44-17.06,8.57-19.21,17.75s2.06,18.81,7.41,25.81c2.62,3.43,5.85,6.55,9.89,8.2,4.87,2,10.55,1.94,15.49.19,4.23-1.5,8.57-4.27,10.57-8.44,1.81-3.76,1.97-8.23.61-12.17s-4.1-7.38-7.95-8.95c-4.06-1.66-9.29.9-9.94,5.38-.76,5.27,4.09,7.77,8.29,9.18,1.83.62,2.62-2.28.8-2.89h0Z"/>
      </g>
    </g>
    <g>
      <circle class="st14" cx="49.32" cy="348.27" r="32.1"/>
      <g class="st10">
        <circle class="st4" cx="56.52" cy="350.13" r="26.81"/>
      </g>
    </g>
    <g>
      <circle class="st14" cx="128.03" cy="343.91" r="32.1"/>
      <g class="st8">
        <circle class="st4" cx="135.23" cy="345.76" r="26.81"/>
      </g>
    </g>
    <path class="st1" d="M79.79,378.46c.8,5.87,5.2,11.1,10.84,12.89,2.64.84,5.6.94,8.11-.22,4.65-2.15,6.52-8.27,4.99-13.16"/>
    <path class="st1" d="M25.02,424.9c19.6,5.67,39.6,11.39,59.98,10.7"/>
    <path class="st1" d="M81.33,424.22l-14.81,10.41s9.66,11.67,13.26,14.51"/>
    <path class="st21" d="M14.14,296.85c-5.63-3.62,40.73-25.16,49.52-11.98s-8.79,13.98-17.97,14.38-25.96,1.2-31.55-2.4Z"/>
    <path class="st21" d="M160.7,296.85c5.63-3.62-40.73-25.16-49.52-11.98-8.79,13.18,8.79,13.98,17.97,14.38,9.19.4,25.96,1.2,31.55-2.4Z"/>
    <g>
      <path class="st21" d="M160.14,235.63c-1.41-26.63-25.53-27.43-39.47-25.64,5.47-2.57,11.17-8.5,10.92-22.05-.47-25.84-35.66-23.02-35.66-23.02,0,0,39.89-50.28-16.14-46.99-56.03,3.29-24.77,44.64-24.77,44.64,0,0-35.25.47-37.8,21.14-2.54,20.67,22.65,27.25,22.65,27.25,0,0-39.37-7.76-36.08,27.51s47.93,34.17,76,33.79c22.44-.3,82.34.96,80.35-36.63Z"/>
      <g class="st9">
        <path class="st2" d="M-.59,225.82c4.27-6.24,13.92-7.93,20.05-3.5,2.93,2.11,4.93,5.24,7.44,7.84,10.38,10.79,30.17,10.16,39.85-1.26,1.77-2.08,3.23-4.46,5.34-6.19,5.29-4.35,13.31-3.53,19.39-.39s10.94,8.2,16.43,12.29,12.31,7.34,19.02,5.98c5.42-1.1,9.79-4.98,13.76-8.83s8.03-7.95,13.28-9.68,12.07-.15,14.29,4.91"/>
        <path class="st2" d="M10.3,193.01c3.63-4.86,7.7-9.54,12.92-12.62s11.77-4.38,17.43-2.22c7.27,2.77,11.8,10.55,19.17,13.03,5.32,1.79,11.6.27,15.52-3.74,3.7-3.78,5.51-9.59,10.3-11.84,4.18-1.97,9.22-.43,13.14,2.01s7.32,5.75,11.49,7.74c5.84,2.78,12.99,2.63,18.71-.4s9.87-8.86,10.85-15.25c.15-.95.46-2.15,1.41-2.24s.44,1.96-.08,1.17"/>
      </g>
    </g>
  </g>
  <path class="st1" d="M670.65,419c.65,13.14.16,76.33-1.48,89.38-.14,1.09-.3,2.23-.95,3.11-.5.68-1.25,1.13-1.97,1.56-6.06,3.65-12.12,7.29-18.18,10.94"/>
  <polyline class="st1" points="646.16 510.88 668.22 511.49 657.19 533.94"/>
  <path class="st1" d="M604.41,419c.65,13.14.16,76.33-1.48,89.38-.14,1.09-.3,2.23-.95,3.11-.5.68-1.25,1.13-1.97,1.56-6.06,3.65-12.12,7.29-18.18,10.94"/>
  <polyline class="st1" points="579.93 510.88 601.98 511.49 590.95 533.94"/>
  <path class="st17" d="M517.88,315.02c-9.77,2.87-16.5,13.66-14.77,23.7.77,4.46,2.96,8.55,5.45,12.33,5.38,8.17,13.07,15.69,22.75,17.1,4.1.6,8.97-.35,10.98-3.97.87-1.57,1.07-3.42,1.21-5.21.64-8.32.23-16.91-2.99-24.61s-9.61-14.39-17.72-16.36c-2.03-.49-4.39-.86-5.48-2.64"/>
  <g>
    <path class="st6" d="M737.62,417.39c7.55-.74,21.99,4.11,24.68-12.68,5.27-32.85-64.57-19.97-100.84-109.22-36.27-89.25-62.98-115.84-98.84-110.85-49.19,6.85-53.05,104.26-43.85,162.2,9.2,57.94,21.66,88.41,55.75,107.98,34.09,19.56,174.11,21.8,179.45-9.18,3.03-17.58-7.06-25.06-16.34-28.25Z"/>
    <g class="st13">
      <path class="st15" d="M528.14,376.13c-.14-9.26.15-18.7,3.09-27.49,2.94-8.79,8.87-16.96,17.36-20.66,12.82-5.59,28.35.45,37.83,10.73,9.49,10.28,14.25,23.94,18.6,37.24s8.74,27.01,17.7,37.75c10.18,12.2,25.72,19.85,33.22,33.87,2.2,4.11,3.61,9.01,2.15,13.44-1.64,4.96-6.42,8.15-11.13,10.41-25.67,12.32-56.3,7.98-83.19-1.37-17.09-5.94-35.58-16.3-38.9-34.08"/>
      <circle class="st3" cx="637.98" cy="295.61" r="35.12"/>
      <circle class="st3" cx="498.97" cy="302.13" r="35.12"/>
    </g>
  </g>
  <path class="st5" d="M569.11,271.84c4.08,3.9,9.18,12.1,7.77,28.28-.24,2.76-1.92,5.07-4.17,5.76l-36.61,9.13,25.47-42.07c1.89-2.75,5.26-3.28,7.54-1.1Z"/>
  <g>
    <circle class="st14" cx="527.01" cy="261.7" r="32.1"/>
    <g class="st12">
      <circle class="st4" cx="520.41" cy="265.12" r="26.81"/>
    </g>
  </g>
  <g>
    <circle class="st14" cx="602.06" cy="255.92" r="32.1"/>
    <g class="st11">
      <circle class="st4" cx="595.46" cy="259.34" r="26.81"/>
    </g>
  </g>
  <path class="st17" d="M509.6,220.79c.67,3.6,15.9-2.39,23.63-2.72s14.69.71,13.3-6.72-11.21-7.55-20.09-5.17-17.95,8.6-16.83,14.62Z"/>
  <path class="st17" d="M618.36,221.46c-1.01,3.52-15.59-3.91-23.26-4.98s-14.69-.71-12.59-7.97,11.88-6.44,20.49-3.22c8.61,3.22,17.04,10.29,15.35,16.17Z"/>
  <path class="st6" d="M570.57,186.36c-12.19-6.76-7.75-33.71,1.83-41.71,5.25-4.88,11.45-4.83,14.37-2,4.22,4.98.06,14.97-1.88,20-.15.75.71.35,2.67-.25,5.35-2.02,13.78-1.31,15.39,5.51,1.89,12.26-22.24,17.07-28.54,18.62"/>
  <path class="st17" d="M734.65,335.82c10.64,6.33,8.19,22.43,2.42,29.97-7.57,9.89-26.47,11.51-38.65-1.36,1.21,3.47,4.51,14.29-.78,20.93-7.66,9.62-28.05,3.79-38.26-1.59-25.24-13.3-30.24-45.51-30.25-51.09-.05-21.28,24.46-45.88,49.95-30.59,25.49,15.29,42.37,25.89,55.57,33.74Z"/>
</svg>