<?xml version="1.0" encoding="UTF-8"?>
<svg id="Capa_1" xmlns="http://www.w3.org/2000/svg" width="265.69" height="402.89" xmlns:xlink="http://www.w3.org/1999/xlink" version="1.1" viewBox="0 0 265.69 402.89">
  <!-- Generator: Adobe Illustrator 29.4.0, SVG Export Plug-In . SVG Version: 2.1.0 Build 152)  -->
  <defs>
    <style>
      .st0 {
        fill: #d7848b;
      }

      .st1 {
        fill: #2d2b30;
      }

      .st2 {
        stroke: #2d2b30;
        stroke-linecap: round;
        stroke-linejoin: round;
      }

      .st2, .st3 {
        fill: none;
        stroke-width: 5px;
      }

      .st4 {
        clip-path: url(#clippath-1);
      }

      .st5 {
        clip-path: url(#clippath-3);
      }

      .st6 {
        clip-path: url(#clippath-2);
      }

      .st3 {
        stroke: #1e7c44;
        stroke-miterlimit: 10;
      }

      .st7 {
        fill: #fff;
      }

      .st8 {
        fill: #e5a1ac;
      }

      .st9 {
        fill: #bc616c;
      }

      .st10 {
        fill: #135b32;
      }

      .st11 {
        clip-path: url(#clippath);
      }
    </style>
    <clipPath id="clippath">
      <path class="st0" d="M93.02,113.47c27.94-.45,55.3,11.96,79.22,69.25,23.91,57.29,36.37,112.6,29.39,149.96s-33.38,47.83-69.25,49.32-77.72,1.99-95.16-4.98-20.92-36.87-17.44-79.71S30.75,114.47,93.02,113.47Z"/>
    </clipPath>
    <clipPath id="clippath-1">
      <circle class="st7" cx="67.89" cy="230.49" r="32.1"/>
    </clipPath>
    <clipPath id="clippath-2">
      <circle class="st7" cx="146.61" cy="226.13" r="32.1"/>
    </clipPath>
    <clipPath id="clippath-3">
      <path class="st10" d="M178.71,117.85c-1.41-26.63-25.53-27.43-39.47-25.64,5.47-2.57,11.17-8.5,10.92-22.05-.47-25.84-35.66-23.02-35.66-23.02,0,0,39.89-50.28-16.14-46.99-56.03,3.29-24.77,44.64-24.77,44.64,0,0-35.25.47-37.8,21.14-2.54,20.67,22.65,27.25,22.65,27.25,0,0-39.37-7.76-36.08,27.51s47.93,34.17,76,33.79c22.44-.3,82.34.96,80.35-36.63Z"/>
    </clipPath>
  </defs>
  <path class="st7" d="M263.03,213.61c1.32.3,2.95,1.18,2.62,2.5-.23.92-1.32,1.3-2.25,1.53-3.4.82-6.8,1.63-10.2,2.45-.09,3.3-.19,6.61-.29,9.92-.03,1.06-.07,2.16-.58,3.09s-1.62,1.62-2.62,1.28c-1.33-.45-1.57-2.19-1.6-3.59-.09-3.51-.36-7.01-.81-10.49-3.89-.9-7.79-1.8-11.68-2.71-1.6-.37-3.64-1.48-3.1-3.02.37-1.06,1.72-1.33,2.84-1.42,3.68-.31,7.35-.62,11.02-.92-.76-4.27-.25-8.76,1.43-12.76.29-.69.8-1.47,1.54-1.4.65.06,1.03.75,1.29,1.35,1.03,2.34,1.86,12.08,2.35,13.25,0,0,7.82.48,10.04.99h0Z"/>
  <path class="st7" d="M221.1,230.94c-2.87-2.4,3.42-2.6,4.81-3.13-1.65-7.47,4.54-10.99,3.77-1.09,2.31,1.15,5.35.84,7.57,2.29,1.85,1.49.31,3.51-1.74,3.44-1.13.35-5.16-.43-5.17,1.28-.51,2.28.16,3.77-1.9,5.29-2.44.84-2.18-1.55-1.93-3.48.57-5.81-.91-1.97-5.4-4.6h0Z"/>
  <path class="st7" d="M234.17,203.33c-2.07,3.11-2.96-3.12-3.63-4.44-7.25,2.45-11.42-3.32-1.49-3.63.89-2.42.25-5.41,1.45-7.77,1.28-2,3.46-.69,3.61,1.36.47,1.09.13,5.18,1.83,5,2.32.26,3.73-.57,5.46,1.31,1.1,2.33-1.3,2.34-3.25,2.3-5.84.06-1.86,1.12-3.99,5.87h0Z"/>
  <g>
    <polyline class="st2" points="139.65 342.15 139.65 400.39 153.56 400.39"/>
    <polyline class="st2" points="66.63 342.15 66.63 400.39 80.54 400.39"/>
    <path class="st2" d="M195.67,288.75c8-.33,15.68-3.72,21.99-8.65,6.31-4.92,11.34-11.32,15.56-18.12,3.96-6.37,7.34-13.47,7.28-20.98"/>
    <path class="st2" d="M227.6,244.59c1.08,5.47,2.53,10.87,4.32,16.15,2.05.75,4.24-.49,6.06-1.69,4.53-2.96,9.05-5.93,13.58-8.89"/>
    <g>
      <path class="st0" d="M93.02,113.47c27.94-.45,55.3,11.96,79.22,69.25,23.91,57.29,36.37,112.6,29.39,149.96s-33.38,47.83-69.25,49.32-77.72,1.99-95.16-4.98-20.92-36.87-17.44-79.71S30.75,114.47,93.02,113.47Z"/>
      <g class="st11">
        <circle class="st9" cx="40.3" cy="252.78" r="40.3"/>
        <circle class="st9" cx="178.71" cy="248.37" r="40.3"/>
        <path class="st8" d="M110.48,351.13c-1.87-.63-4.12-1.32-5.37-2.95-1.18-1.55-1.03-3.7.41-5.01,3.03-2.76,6.94-.2,8.97,2.47,2.17,2.86,3.11,6.71,2.55,10.25-.64,4.03-3.22,6.88-6.69,8.85-4.09,2.33-9.13,3.21-13.75,2.21-4.06-.88-7.3-3.25-10.02-6.31-2.88-3.24-5.15-7.13-6.71-11.17-1.43-3.71-2.44-7.76-2.02-11.76.89-8.58,8.11-14.64,15.88-17.25,4.23-1.42,8.62-1.81,13.06-1.75,5.19.07,10.42.89,15.24,2.87,14.31,5.9,22.57,22.49,22.55,37.4-.01,7.14-1.91,14.25-5.99,20.16-4.47,6.47-11.35,10.89-19.01,12.52-8.89,1.89-18.43.59-26.86-2.62-4.09-1.56-8.06-3.68-11.47-6.44-4.04-3.27-7.08-7.72-9.6-12.21-8.37-14.91-15.49-34.74-6.14-50.89,2.22-3.84,5.29-7.12,8.88-9.7,4.49-3.23,9.23-6.11,14.25-8.44,9.96-4.62,20.82-6.62,31.68-4.52,17.92,3.46,32.17,16.36,40.78,32.01,4.43,8.06,7.35,16.85,9.05,25.88,1.8,9.59,1.79,19.78-1.44,29.06-1.57,4.5-3.95,8.7-7.06,12.31-1.25,1.46.86,3.59,2.12,2.12,14.19-16.53,12.19-40.68,4.99-59.84-6.86-18.24-20.19-34.76-38.73-41.89-10.45-4.02-21.85-4.59-32.63-1.57-5.68,1.59-11.13,4.02-16.25,6.94-4.79,2.74-9.69,5.83-13.52,9.85-6.52,6.85-9.54,16.07-9.49,25.43.05,10.11,3.49,19.43,7.72,28.47,2.39,5.11,5.12,10.07,8.7,14.45,3.25,3.97,7.27,7.04,11.81,9.4,8.76,4.55,19.07,6.75,28.92,5.84,9.04-.84,17.46-4.63,23.47-11.54,5.22-6,8.05-13.62,8.68-21.51.64-8.05-1.04-16.25-4.5-23.53-3.63-7.65-9.57-14.78-17.18-18.7-5.11-2.63-10.81-3.89-16.51-4.23-4.91-.3-9.98-.06-14.73,1.27-8.69,2.44-17.06,8.57-19.21,17.75s2.06,18.81,7.41,25.81c2.62,3.43,5.85,6.55,9.89,8.2,4.87,2,10.55,1.94,15.49.19,4.23-1.5,8.57-4.27,10.57-8.44,1.81-3.76,1.97-8.23.61-12.17s-4.1-7.38-7.95-8.95c-4.06-1.66-9.29.9-9.94,5.38-.76,5.27,4.09,7.77,8.29,9.18,1.83.62,2.62-2.28.8-2.89h0Z"/>
      </g>
    </g>
    <g>
      <circle class="st7" cx="67.89" cy="230.49" r="32.1"/>
      <g class="st4">
        <circle class="st1" cx="75.09" cy="232.35" r="26.81"/>
      </g>
    </g>
    <g>
      <circle class="st7" cx="146.61" cy="226.13" r="32.1"/>
      <g class="st6">
        <circle class="st1" cx="153.81" cy="227.98" r="26.81"/>
      </g>
    </g>
    <path class="st2" d="M98.36,260.68c.8,5.87,5.2,11.1,10.84,12.89,2.64.84,5.6.94,8.11-.22,4.65-2.15,6.52-8.27,4.99-13.16"/>
    <path class="st2" d="M43.59,307.12c19.6,5.67,39.6,11.39,59.98,10.7"/>
    <path class="st2" d="M99.91,306.44l-14.81,10.41s9.66,11.67,13.26,14.51"/>
    <path class="st10" d="M32.71,179.07c-5.63-3.62,40.73-25.16,49.52-11.98s-8.79,13.98-17.97,14.38-25.96,1.2-31.55-2.4Z"/>
    <path class="st10" d="M179.28,179.07c5.63-3.62-40.73-25.16-49.52-11.98s8.79,13.98,17.97,14.38,25.96,1.2,31.55-2.4Z"/>
    <g>
      <path class="st10" d="M178.71,117.85c-1.41-26.63-25.53-27.43-39.47-25.64,5.47-2.57,11.17-8.5,10.92-22.05-.47-25.84-35.66-23.02-35.66-23.02,0,0,39.89-50.28-16.14-46.99-56.03,3.29-24.77,44.64-24.77,44.64,0,0-35.25.47-37.8,21.14-2.54,20.67,22.65,27.25,22.65,27.25,0,0-39.37-7.76-36.08,27.51s47.93,34.17,76,33.79c22.44-.3,82.34.96,80.35-36.63Z"/>
      <g class="st5">
        <path class="st3" d="M17.99,108.04c4.27-6.24,13.92-7.93,20.05-3.5,2.93,2.11,4.93,5.24,7.44,7.84,10.38,10.79,30.17,10.16,39.85-1.26,1.77-2.08,3.23-4.46,5.34-6.19,5.29-4.35,13.31-3.53,19.39-.39s10.94,8.2,16.43,12.29,12.31,7.34,19.02,5.98c5.42-1.1,9.79-4.98,13.76-8.83s8.03-7.95,13.28-9.68,12.07-.15,14.29,4.91"/>
        <path class="st3" d="M28.88,75.23c3.63-4.86,7.7-9.54,12.92-12.62s11.77-4.38,17.43-2.22c7.27,2.77,11.8,10.55,19.17,13.03,5.32,1.79,11.6.27,15.52-3.74,3.7-3.78,5.51-9.59,10.3-11.84,4.18-1.97,9.22-.43,13.14,2.01s7.32,5.75,11.49,7.74c5.84,2.78,12.99,2.63,18.71-.4,5.72-3.03,9.87-8.86,10.85-15.25.15-.95.46-2.15,1.41-2.24s.44,1.96-.08,1.17"/>
      </g>
    </g>
  </g>
</svg>