<?xml version="1.0" encoding="UTF-8"?>
<svg id="Capa_1" xmlns="http://www.w3.org/2000/svg" width="328.76" height="308.41" xmlns:xlink="http://www.w3.org/1999/xlink" version="1.1" viewBox="0 0 328.76 308.41">
  <!-- Generator: Adobe Illustrator 29.4.0, SVG Export Plug-In . SVG Version: 2.1.0 Build 152)  -->
  <defs>
    <style>
      .st0, .st1, .st2 {
        fill: none;
      }

      .st3 {
        fill: #348abf;
        isolation: isolate;
        opacity: .38;
      }

      .st4 {
        fill: #2d2b30;
      }

      .st5 {
        fill: #ffc878;
      }

      .st6 {
        fill: #e85f43;
      }

      .st1 {
        stroke: #2d2b30;
      }

      .st1, .st2 {
        stroke-linecap: round;
        stroke-linejoin: round;
        stroke-width: 5px;
      }

      .st2 {
        stroke: #348abf;
      }

      .st7 {
        clip-path: url(#clippath-1);
      }

      .st8 {
        clip-path: url(#clippath-2);
      }

      .st9 {
        fill: #fff;
      }

      .st10 {
        clip-path: url(#clippath);
      }

      .st11 {
        fill: #93537b;
      }
    </style>
    <clipPath id="clippath">
      <path class="st0" d="M13.49,224.46c-1.84-28.16,8.07-68.55,40.36-76,32.29-7.45,98.72-11.31,186.27-11.31s85.68,49.76,82.58,79.28c-3.1,29.51-19.25,45.66-113,46.9-93.76,1.24-193.1,8.57-196.21-38.87Z"/>
    </clipPath>
    <clipPath id="clippath-1">
      <circle class="st0" cx="224.68" cy="200.81" r="34.54"/>
    </clipPath>
    <clipPath id="clippath-2">
      <circle class="st0" cx="80" cy="200.81" r="34.54"/>
    </clipPath>
  </defs>
  <path class="st9" d="M261.7,308.41c-4,0-7.29-3.13-7.49-7.13l-1.72-34.98c-4.85.45-10.05.83-15.54,1.14l1.4,33.15c.17,4.13-3.05,7.63-7.18,7.81h-.32c-4.03,0-7.32-3.15-7.49-7.18l-1.4-33.16c-3.95.12-8.03.2-12.21.26-9.49.12-19.19.32-28.56.5-15.9.31-32.35.64-47.81.64-12.58,0-23.53-.22-33.26-.66l1.56,31.73c.2,4.13-2.99,7.65-7.12,7.86h-.37c-4,0-7.29-3.13-7.49-7.13l-1.64-33.41c-5.62-.46-10.81-1.01-15.67-1.67l1.45,34.4c.18,4.13-3.04,7.63-7.18,7.81h-.32c-4.03,0-7.32-3.15-7.49-7.18l-1.59-37.69c-29.52-6.52-44.5-19.22-45.78-38.75-1.09-16.59,1.75-34.11,7.78-48.07,7.76-17.96,20.36-29.41,36.44-33.12,4.41-1.02,9.55-1.99,15.31-2.89,1.24-1.43,2.45-2.97,3.71-4.58,3.93-5.01,8.25-10.52,14.36-13.04C46.78,105.57,10.24,82.67,1.86,55.88-2.15,43.09.33,30.38,9.23,18.1,16.52,8.04,28.19,2.5,42.08,2.5c28.56,0,61.04,22.07,82.76,56.22,12.41,19.53,22.66,42.82,29.2,59.34,6.67-17.13,17.23-41.47,30.18-61.84C205.93,22.07,238.41,0,266.97,0c13.89,0,25.56,5.54,32.85,15.61,8.92,12.31,11.39,25.06,7.33,37.9-8.77,27.76-47.7,51.37-89.1,69.23,5.03,1.77,8.86,5.54,12.14,9.44,3.28,0,6.58-.02,9.92-.02,34.99,0,59.93,7.99,74.11,23.74,17.78,19.75,14.85,47.65,13.44,61.06-2.55,24.21-13.67,40.71-60.24,47.58l1.77,36.01c.2,4.13-2.99,7.65-7.12,7.86h-.37,0Z"/>
  <g>
    <path class="st3" d="M158.31,144.42s-15.2-47.64-37.7-83.02C87.08,8.65,33.3-6.59,13.27,21.04c-36.11,49.83,52.31,94.59,145.04,123.38Z"/>
    <path class="st2" d="M158.31,144.42S70.81,50.2,31.01,25.7"/>
    <polyline class="st2" points="70.32 23.48 77.71 63.67 31.01 61.86"/>
    <polyline class="st2" points="111.42 61.86 120.05 104.71 75.29 104.71"/>
  </g>
  <g>
    <path class="st3" d="M150.74,141.92s15.2-47.64,37.7-83.02C221.97,6.16,275.75-9.09,295.77,18.54c36.11,49.83-52.31,94.59-145.04,123.38h.01Z"/>
    <path class="st2" d="M150.74,141.92s87.5-94.22,127.3-118.72"/>
    <polyline class="st2" points="238.73 20.98 231.33 61.17 278.04 59.36"/>
    <polyline class="st2" points="197.63 59.36 189 102.21 233.76 102.21"/>
  </g>
  <line class="st1" x1="61.4" y1="254.46" x2="63.36" y2="300.91"/>
  <line class="st1" x1="91.92" y1="254.46" x2="94.2" y2="300.91"/>
  <line class="st1" x1="228.9" y1="254.46" x2="230.86" y2="300.91"/>
  <line class="st1" x1="259.42" y1="254.46" x2="261.7" y2="300.91"/>
  <g>
    <path class="st5" d="M13.49,224.46c-1.84-28.16,8.07-68.55,40.36-76,32.29-7.45,98.72-11.31,186.27-11.31s85.68,49.76,82.58,79.28c-3.1,29.51-19.25,45.66-113,46.9-93.76,1.24-193.1,8.57-196.21-38.87h0Z"/>
    <g class="st10">
      <g>
        <circle class="st6" cx="45.04" cy="230.63" r="41.89"/>
        <circle class="st6" cx="269.28" cy="224.46" r="41.89" transform="translate(4.58 454.31) rotate(-80.78)"/>
      </g>
    </g>
  </g>
  <g>
    <circle class="st9" cx="224.68" cy="200.81" r="34.54"/>
    <g class="st7">
      <circle class="st4" cx="215.54" cy="195.12" r="28.85"/>
    </g>
  </g>
  <g>
    <circle class="st9" cx="80" cy="200.81" r="34.54"/>
    <g class="st8">
      <circle class="st4" cx="70.86" cy="195.12" r="28.85"/>
    </g>
  </g>
  <path class="st11" d="M52.72,158.93c1.11,3.11,17.89,3.65,33.59-3.29,15.7-6.94,23.36-26.45,9.49-28.74s-18.98,14.14-28.84,21.8-16.06,5.11-14.24,10.22h0Z"/>
  <path class="st11" d="M252.39,158.93c-1.11,3.11-17.89,3.65-33.59-3.29-15.7-6.94-23.36-26.45-9.49-28.74s18.98,14.14,28.84,21.8c9.86,7.67,16.06,5.11,14.24,10.22h0Z"/>
  <path class="st1" d="M137.37,235.35s.76-14.08,14.09-13.1,14.85,16.76,14.85,16.76"/>
  <path class="st11" d="M136.23,175.05c.61,3.81,1.25,7.69,3.08,11.09,4.82,9.22,15.62,8.46,19.77-.98,1.85-4.32,1.76-9.21,1.41-13.9,1,4.58,2.53,9.81,6.85,11.62,4.17,1.7,9.19-.73,11.56-4.47,1.8-2.69,2.66-5.88,3.18-9.08,1.3-8.71,2.27-18.33-1.34-26.62-6.22-14.99-25.97-13.27-39.4-10.94-6.97.88-14.43,5.71-18.83,11.69-7.92,10.76-11.92,27.69-4.04,39.75,3.21,4.37,9.61,3.95,13.2.21,2.29-2.25,3.64-5.29,4.56-8.36h0Z"/>
</svg>