<?xml version="1.0" encoding="UTF-8"?>
<svg id="Capa_1" xmlns="http://www.w3.org/2000/svg" width="318.73" height="176.72" xmlns:xlink="http://www.w3.org/1999/xlink" version="1.1" viewBox="0 0 318.73 176.72">
  <!-- Generator: Adobe Illustrator 29.4.0, SVG Export Plug-In . SVG Version: 2.1.0 Build 152)  -->
  <defs>
    <style>
      .st0, .st1 {
        fill: none;
      }

      .st2 {
        fill: #2d2b30;
      }

      .st3 {
        fill: #ffc878;
      }

      .st4 {
        fill: #e85f43;
      }

      .st1 {
        stroke: #2d2b30;
        stroke-linecap: round;
        stroke-linejoin: round;
        stroke-width: 5px;
      }

      .st5 {
        clip-path: url(#clippath);
      }

      .st6 {
        fill: #93537b;
      }
    </style>
    <clipPath id="clippath">
      <path class="st0" d="M8.48,97.44c-1.84-28.16,8.07-68.55,40.36-76,32.29-7.45,98.72-11.31,186.27-11.31s85.68,49.76,82.58,79.28c-3.1,29.51-19.25,45.66-113,46.9S11.58,144.88,8.48,97.44Z"/>
    </clipPath>
  </defs>
  <g>
    <line class="st1" x1="56.39" y1="127.43" x2="58.35" y2="173.89"/>
    <line class="st1" x1="86.91" y1="127.43" x2="89.19" y2="173.89"/>
    <line class="st1" x1="223.89" y1="127.43" x2="225.85" y2="173.89"/>
    <line class="st1" x1="254.41" y1="127.43" x2="256.7" y2="173.89"/>
    <g>
      <path class="st3" d="M8.48,97.44c-1.84-28.16,8.07-68.55,40.36-76,32.29-7.45,98.72-11.31,186.27-11.31s85.68,49.76,82.58,79.28c-3.1,29.51-19.25,45.66-113,46.9S11.58,144.88,8.48,97.44Z"/>
      <g class="st5">
        <g>
          <circle class="st4" cx="40.03" cy="103.61" r="41.89"/>
          <circle class="st4" cx="264.27" cy="97.44" r="41.89" transform="translate(125.76 342.69) rotate(-80.78)"/>
        </g>
      </g>
    </g>
    <path class="st6" d="M131.22,48.03c.61,3.81,1.25,7.69,3.08,11.09,4.82,9.22,15.62,8.46,19.77-.98,1.85-4.32,1.76-9.21,1.41-13.9,1,4.58,2.53,9.81,6.85,11.62,4.17,1.7,9.19-.73,11.56-4.47,1.8-2.69,2.66-5.88,3.18-9.08,1.3-8.71,2.27-18.33-1.34-26.62-6.22-14.99-25.97-13.27-39.4-10.94-6.97.88-14.43,5.71-18.83,11.69-7.92,10.76-11.92,27.69-4.04,39.75,3.21,4.37,9.61,3.95,13.2.21,2.29-2.25,3.64-5.29,4.56-8.36h0Z"/>
  </g>
  <path class="st1" d="M58.35,98.59s-2.41-54.5,18.3-51.54c20.71,2.96,16.01,51.54,16.01,51.54"/>
  <path class="st1" d="M207.53,98.59s-2.41-54.5,18.3-51.54,16.01,51.54,16.01,51.54"/>
  <path class="st2" d="M128.52,95.48c2.13-6.79,9.03-2.79,16.21,0s17.96-10.18,24.27-5.93c9.38,6.3-1.01,24.5-16.34,24.44-18.26-.07-26.97-9.49-24.14-18.5h0Z"/>
  <path class="st6" d="M251.04,36.62c2.16-2.5-5.62-17.37-19.38-27.62-13.76-10.25-34.52-7.33-29.69,5.88,4.83,13.2,21.65,9.57,33.17,14.38s12.35,11.47,15.9,7.37h0Z"/>
  <path class="st6" d="M37.12,36.62c-2.16-2.5,5.62-17.37,19.38-27.62s34.52-7.33,29.69,5.88-21.65,9.57-33.17,14.38c-11.52,4.81-12.35,11.47-15.9,7.37h0Z"/>
</svg>