<?xml version="1.0" encoding="UTF-8"?>
<svg id="Capa_1" xmlns="http://www.w3.org/2000/svg" width="318.73" height="176.72" xmlns:xlink="http://www.w3.org/1999/xlink" version="1.1" viewBox="0 0 318.73 176.72">
  <!-- Generator: Adobe Illustrator 29.4.0, SVG Export Plug-In . SVG Version: 2.1.0 Build 152)  -->
  <defs>
    <style>
      .st0, .st1 {
        fill: none;
      }

      .st2 {
        fill: #2d2b30;
      }

      .st3 {
        fill: #ffc878;
      }

      .st4 {
        fill: #e85f43;
      }

      .st1 {
        stroke: #2d2b30;
        stroke-linecap: round;
        stroke-linejoin: round;
        stroke-width: 5px;
      }

      .st5 {
        clip-path: url(#clippath-1);
      }

      .st6 {
        clip-path: url(#clippath-2);
      }

      .st7 {
        fill: #fff;
      }

      .st8 {
        clip-path: url(#clippath);
      }

      .st9 {
        fill: #93537b;
      }
    </style>
    <clipPath id="clippath">
      <path class="st0" d="M8.48,97.77c-1.84-28.16,8.07-68.55,40.36-76,32.29-7.45,98.72-11.31,186.27-11.31s85.68,49.76,82.58,79.28c-3.1,29.51-19.25,45.66-113,46.9-93.76,1.24-193.1,8.57-196.21-38.87Z"/>
    </clipPath>
    <clipPath id="clippath-1">
      <circle class="st0" cx="219.67" cy="74.12" r="34.54"/>
    </clipPath>
    <clipPath id="clippath-2">
      <circle class="st0" cx="75" cy="74.12" r="34.54"/>
    </clipPath>
  </defs>
  <line class="st1" x1="56.39" y1="127.77" x2="58.35" y2="174.22"/>
  <line class="st1" x1="86.91" y1="127.77" x2="89.19" y2="174.22"/>
  <line class="st1" x1="223.89" y1="127.77" x2="225.85" y2="174.22"/>
  <line class="st1" x1="254.41" y1="127.77" x2="256.7" y2="174.22"/>
  <g>
    <path class="st3" d="M8.48,97.77c-1.84-28.16,8.07-68.55,40.36-76,32.29-7.45,98.72-11.31,186.27-11.31s85.68,49.76,82.58,79.28c-3.1,29.51-19.25,45.66-113,46.9-93.76,1.24-193.1,8.57-196.21-38.87Z"/>
    <g class="st8">
      <g>
        <circle class="st4" cx="40.03" cy="103.94" r="41.89"/>
        <circle class="st4" cx="264.27" cy="97.77" r="41.89" transform="translate(138.25 349.79) rotate(-83.74)"/>
      </g>
    </g>
  </g>
  <g>
    <circle class="st7" cx="219.67" cy="74.12" r="34.54"/>
    <g class="st5">
      <circle class="st2" cx="210.53" cy="68.43" r="28.85"/>
    </g>
  </g>
  <g>
    <circle class="st7" cx="75" cy="74.12" r="34.54"/>
    <g class="st6">
      <circle class="st2" cx="65.85" cy="68.43" r="28.85"/>
    </g>
  </g>
  <path class="st9" d="M47.71,32.24c1.11,3.11,17.89,3.65,33.59-3.29,15.7-6.94,23.36-26.45,9.49-28.74s-18.98,14.14-28.84,21.8c-9.86,7.66-16.06,5.11-14.24,10.22h0Z"/>
  <path class="st9" d="M247.38,32.24c-1.11,3.11-17.89,3.65-33.59-3.29-15.7-6.94-23.36-26.45-9.49-28.74s18.98,14.14,28.84,21.8c9.86,7.67,16.06,5.11,14.24,10.22h0Z"/>
  <path class="st1" d="M132.36,108.66s.76-14.08,14.09-13.1,14.85,16.76,14.85,16.76"/>
  <path class="st9" d="M131.22,48.36c.61,3.81,1.25,7.69,3.08,11.09,4.82,9.22,15.62,8.46,19.77-.98,1.85-4.32,1.76-9.21,1.41-13.9,1,4.58,2.53,9.81,6.85,11.62,4.17,1.7,9.19-.73,11.56-4.47,1.8-2.69,2.66-5.88,3.18-9.08,1.3-8.71,2.27-18.33-1.34-26.62-6.22-14.99-25.97-13.27-39.4-10.94-6.97.88-14.43,5.71-18.83,11.69-7.92,10.76-11.92,27.69-4.04,39.75,3.21,4.37,9.61,3.95,13.2.21,2.29-2.25,3.64-5.29,4.56-8.36h0Z"/>
</svg>