<?xml version="1.0" encoding="UTF-8"?>
<svg id="Capa_1" xmlns="http://www.w3.org/2000/svg" width="3342.14" height="1377.08" xmlns:xlink="http://www.w3.org/1999/xlink" version="1.1" viewBox="0 0 3342.14 1377.08">
  <!-- Generator: Adobe Illustrator 29.4.0, SVG Export Plug-In . SVG Version: 2.1.0 Build 152)  -->
  <defs>
    <style>
      .st0 {
        stroke: #2e4144;
      }

      .st0, .st1, .st2 {
        stroke-width: 5px;
      }

      .st0, .st1, .st2, .st3 {
        fill: none;
        stroke-miterlimit: 10;
      }

      .st4 {
        fill: #e2d388;
      }

      .st5 {
        fill: #bca33b;
      }

      .st6 {
        fill: #d87544;
      }

      .st7 {
        fill: #a57171;
      }

      .st8 {
        fill: #4a707c;
      }

      .st9 {
        fill: #99a040;
      }

      .st10 {
        fill: #aa573a;
      }

      .st11 {
        fill: #d38e5b;
      }

      .st12 {
        fill: #415256;
      }

      .st13 {
        clip-path: url(#clippath-17);
      }

      .st14 {
        clip-path: url(#clippath-11);
      }

      .st15 {
        clip-path: url(#clippath-16);
      }

      .st16 {
        clip-path: url(#clippath-10);
      }

      .st17 {
        clip-path: url(#clippath-15);
      }

      .st18 {
        clip-path: url(#clippath-13);
      }

      .st19 {
        clip-path: url(#clippath-14);
      }

      .st20 {
        clip-path: url(#clippath-12);
      }

      .st21 {
        clip-path: url(#clippath-1);
      }

      .st22 {
        clip-path: url(#clippath-3);
      }

      .st23 {
        clip-path: url(#clippath-4);
      }

      .st24 {
        clip-path: url(#clippath-2);
      }

      .st25 {
        clip-path: url(#clippath-7);
      }

      .st26 {
        clip-path: url(#clippath-6);
      }

      .st27 {
        clip-path: url(#clippath-9);
      }

      .st28 {
        clip-path: url(#clippath-8);
      }

      .st29 {
        clip-path: url(#clippath-5);
      }

      .st30 {
        fill: #c68c58;
      }

      .st1 {
        stroke: #c66767;
      }

      .st31 {
        fill: #ad5555;
      }

      .st2 {
        stroke: #538591;
      }

      .st32 {
        fill: #f2e7af;
      }

      .st33 {
        fill: #b77c4b;
      }

      .st34 {
        fill: #a08d3a;
      }

      .st35 {
        fill: #6f929b;
      }

      .st36 {
        fill: #bc8282;
      }

      .st37 {
        fill: #5f756a;
      }

      .st38 {
        fill: #305442;
      }

      .st39 {
        fill: #4a705e;
      }

      .st40 {
        fill: #6b8e7e;
      }

      .st41 {
        fill: #dbc04d;
      }

      .st42 {
        fill: #51665b;
      }

      .st3 {
        stroke: #547565;
        stroke-width: 6px;
      }

      .st43 {
        clip-path: url(#clippath);
      }
    </style>
    <clipPath id="clippath">
      <path class="st7" d="M2124.4,768.35s36.32.9-64.15,25.43c-46.7,11.4-96.61-51.04-96.61-51.04,0,0-45.32,75.55-87.89,75.61s-74.94-75.61-74.94-75.61c0,0-41.35,51.24-95.28,25.7-53.93-25.54-57.28-66.45-57.28-66.45,0,0-13.46,60.53-47.99,59.8s-49.15-86.79-49.15-86.79c0,0-20.67,19.26-61.32,0s-11.32-79.53-11.32-79.53l53.55-206.13,619,163.12-26.62,215.9Z"/>
    </clipPath>
    <clipPath id="clippath-1">
      <path class="st37" d="M802.86,416.87c13.52,60.6,23.65,200.16,54.06,246.07,30.41,45.91,76.02,280.96,67.58,326.87-8.45,45.91,62.51,23.87,82.78,23.87s-3.38-297.49,0-325.03c3.38-27.55,74.33-132.71,74.33-132.71l-76.02-43.58s-20.79,67.63-42.5,120.13-50.42,26.25-67.31-5.62-20.27-187.41-20.27-187.41l-72.64-22.58Z"/>
    </clipPath>
    <clipPath id="clippath-2">
      <path class="st39" d="M1582.87,987.71c26.06,7.91,84.85,19.76,125.53,0,40.68-19.76-26.73-106.28-29.06-176.93s33.71-79.77,34.87-117.63,7.21-104.11,7.21-104.11l-54.87,5.81s19.83,95.63-9.3,107.14c-29.13,11.51-81.36-107.14-81.36-107.14l-34.87,12.22s34.87,110.99,33.71,153.99-36.26,213.18,8.14,226.65Z"/>
    </clipPath>
    <clipPath id="clippath-3">
      <path class="st33" d="M942.24,244.74s-66.8-94.38-158.88-64.45-59.85,98.93-59.85,98.93c0,0-85.17,35.86-50.64,137.65s96.68,60.67,96.68,60.67c0,0,21.59,73.35,110.93,29.62l89.34-43.74s-20.72,160.55,151.92,128.61,132.45-264.45,132.45-264.45l-311.95-82.84Z"/>
    </clipPath>
    <clipPath id="clippath-4">
      <path class="st39" d="M1108.19,1050.96s112.49,24.77,204.2,12.39c91.72-12.39,91.72.65,84.8-88.73-6.92-89.37-22.5-167.58-29.42-212.26s102.1-68.89,117.68-126.61c15.57-57.72,12.11-113.58,12.11-113.58l-32.88,7.45s6.92,109.86-55.38,128.48c-62.3,18.62-90.59,71.73-96.91,13.13s20.77-171.89,20.77-171.89l-49.97-64.68-38.28,22.34s-1.73,176.89-6.92,197.37-22.5,18.62-83.07-13.03-77.87-59.58-81.34-106.13,0-100.55,0-100.55l-51.92,13.78s-1.73,111.4,27.69,172.63,60.57,44.47,74.41,104.06c13.84,59.58,13.84,161.99,0,221.57-13.84,59.58-32.88,78.2-15.57,104.27Z"/>
    </clipPath>
    <clipPath id="clippath-5">
      <path class="st39" d="M2772.57,762.53s1.4,153.47,6.98,178.59c5.58,25.11-5.58,30.23-34.88,31.86s-47.71,7.83-45.48-8.53,24.31-183.78,19.55-238.19,62.2-79.53,62.2-79.53l-8.36,115.8Z"/>
    </clipPath>
    <clipPath id="clippath-6">
      <path class="st5" d="M1021.64,118.21c-116.34,49.91-149.02,274.03-65.52,267.6,0,0-38.53,122.03,49.24,117.75s105.26-29.01,105.26-29.01c0,0,2.39,84.68,89.86,78.25s91.75-58.03,91.75-58.03c0,0,8.02,116.12,74.36,111.99s111.89-64.94,111.89-64.94l-36.75-423.61s-178.03-111.32-247.25-10.7c0,0-43.08-44.96-172.83,10.7Z"/>
    </clipPath>
    <clipPath id="clippath-7">
      <path class="st12" d="M1387.3,541.82s1.11,66.53,4.44,104.23,33.27,66.53,24.4,99.8-129.74,129.74-131.96,242.84,0,145.26,0,145.26c0,0,241.74,17.74,284.98,0s16.63-58.77,0-108.67c-16.63-49.9-37.42-103.01-34.79-179.58s45.14-155.3,58.26-191.9,5.36-98.69,5.36-98.69l-68.75-3.33s14.42,133.07-17.74,155.24-42.14,27.72-53.23-7.76-27.72-52.12-26.61-79.84,10.07-77.62,10.07-77.62h-54.43Z"/>
    </clipPath>
    <clipPath id="clippath-8">
      <path class="st31" d="M1346.34,45.03c-41.4,5.63-181.72,252.12-137.27,353.98s114.82-20.37,114.82-20.37c0,0-44.26,155.11,33.34,181.49s107.45-37.23,107.45-37.23c0,0-18.35,126.65,19.39,126.27s36.7-74.41,36.7-74.41c0,0,81.78,42.35,133.15,0,51.37-42.35-29.36-217.44-29.36-217.44L1346.34,45.03Z"/>
    </clipPath>
    <clipPath id="clippath-9">
      <path class="st12" d="M2802.31,828.8c0,44.33,47.46,34.38,52.19,64.43s4.73,61.7-19.67,79.75c-24.39,18.05-37.94,57.35-32.52,79.03,5.42,21.68,269.67,4.07,285.93,0,16.26-4.07,14.91-75.74-23.04-106.3-37.94-30.57-55.56-53.6-54.21-88.84s48.78-86.73,40.65-105.7c-8.13-18.97-44.72,0-44.72,0,0,0-21.68,90.79-46.07,105.7s-51.5,21.68-69.11,4.07-37.25-50.15-37.25-50.15l-52.19,18.02Z"/>
    </clipPath>
    <clipPath id="clippath-10">
      <path class="st39" d="M3083.3,707.97c5.05,30.33,2.53,178.18,0,203.45-2.53,25.27,78.35,18.96,78.35,18.96l-5.05-237.23-58.48-18.16-14.81,32.98Z"/>
    </clipPath>
    <clipPath id="clippath-11">
      <path class="st37" d="M1913.09,607.06c0,15.88-23.18,346.42-43.06,391.46s134.69,32.89,144.62,28.48-22.85-179.95-21.36-227.42,18.05-158.97,18.05-158.97l-98.25-33.55Z"/>
    </clipPath>
    <clipPath id="clippath-12">
      <path class="st5" d="M2712.15,708.94s15.97,138.8,115.46,133.89c99.5-4.91,109.32-61.16,109.32-61.16,0,0,63.87,43.81,132.66-13.23,0,0,81.07,52.13,120.38,0,18.14-24.05,107.49-86.06,107.5-135.6.02-117.78-97.67-102.01-97.67-102.01l-61.42-95.81-292.35-79.84-133.89,353.76Z"/>
    </clipPath>
    <clipPath id="clippath-13">
      <path class="st12" d="M3157.21,1157.26l105.31,10.04s9.4-178.63,0-274.21c-9.4-95.57-35.73-308.48-33.85-400.36s-71.46-58.27-71.46-58.27c0,0,31.97,251.14,0,263.4-31.97,12.25-101.55-56.29-103.43-78.04s26.33-112.35,26.33-112.35h-45.26s-13.04,115.24-11.16,162.3,122.47,75.43,121.41,116.16c-1.06,40.72-21.74,276.91-19.86,331.38s31.97,39.94,31.97,39.94Z"/>
    </clipPath>
    <clipPath id="clippath-14">
      <path class="st12" d="M1680.81,1179.19c34.05,23.5,86.03,19.91,98.58,19.91,0,0-15.79-23.48-5.58-27.56,10.21-4.08,17.35,13.88,17.35,13.88,0,0,6.12-20.19,13.27-14.48s0,28.36,0,28.36c0,0,51.04-6.72,57.16-14.69s-18.37-135.93-5.1-211.28c0,0,40.83-20.23,78.6-24.32s69.41-2.04,76.56-24.5c7.15-22.46,59.43-274.2,59.43-274.2l-26.65-7.15s-44.01,195.6-61.36,212.95-36.74,41.56-120.45,37.11c0,0,26.54-226.98,30.62-260.67,4.08-33.69,14.29-88.81,14.29-88.81l-109.23,6.12s-31.64,153.12-39.81,169.45-51.04,24.5-61.25,11.23-1.02-308.28-1.02-308.28h-44.92s-9.19,243.53-9.19,291.22-6.12,98.73,38.79,118.12c44.92,19.4,46.96,24.5,47.98,52.06,1.02,27.56-48.08,295.51-48.08,295.51Z"/>
    </clipPath>
    <clipPath id="clippath-15">
      <path class="st40" d="M1293.39,0c-30.87,85.64,20.58,334.66,166.7,353.18,0,0,52.39,173.63,117.31,121.36,0,0,7.21,129.42,94.16,120.31,86.95-9.11,95.18-53.03,95.18-53.03,0,0,95.38,126.34,154.35,104.91s94.67-71.96,94.67-71.96l19.68-526.17L1585.63,0h-292.24Z"/>
    </clipPath>
    <clipPath id="clippath-16">
      <path class="st8" d="M2830.62,362.74s3.1,192.39,79.13,197.04,72.92-21.72,72.92-21.72c0,0,39.53,39.95,122.16-3.3,0,0-9.88,66.9,28.33,65.36s28.49-82.23,28.49-82.23c0,0,5.12,67.18,44.43,56.88,39.32-10.3,49.65-93.33,49.65-93.33,0,0,71.97-2.34,86.41-44.23V0h-487.64l-23.88,362.74Z"/>
    </clipPath>
    <clipPath id="clippath-17">
      <path class="st10" d="M248.68,1112.45c-7.43,24.76,14.86,86.66,133.76,92.69,118.9,6.03,136.94-10.5,138.01-25.59,1.06-15.09-4.25-26.76-28.66-52.24-24.42-25.48,0-115.71-82.8-121.02-82.8-5.31-75.37,60.97-101.91,74.01-26.54,13.04-48.83.31-58.39,32.15Z"/>
    </clipPath>
  </defs>
  <g>
    <path class="st7" d="M2124.4,768.35s36.32.9-64.15,25.43c-46.7,11.4-96.61-51.04-96.61-51.04,0,0-45.32,75.55-87.89,75.61s-74.94-75.61-74.94-75.61c0,0-41.35,51.24-95.28,25.7-53.93-25.54-57.28-66.45-57.28-66.45,0,0-13.46,60.53-47.99,59.8s-49.15-86.79-49.15-86.79c0,0-20.67,19.26-61.32,0s-11.32-79.53-11.32-79.53l53.55-206.13,619,163.12-26.62,215.9Z"/>
    <g class="st43">
      <path class="st36" d="M1491.37,626.86c5.69,21.61,24.84,35.95,44.71,43.82,11.6,4.6,23.81,7.43,35.96,10.17,12.87,2.9,25.83,5.5,38.94,7.08s26.19,2.06,39.23.61,24.54-4.94,36.55-8.68,23.58-7.37,35.88-8.26c11.14-.81,23.23.66,31.59,8.77,4.1,3.98,7.14,8.85,10.47,13.45,3.2,4.42,6.72,8.6,10.59,12.44,7.7,7.63,16.73,13.98,26.74,18.21,20.01,8.46,44.47,7.71,62.54-5.1,9.29-6.58,16.03-16.21,25.65-22.36,9.26-5.92,20.43-7.68,31.25-6.66,23.79,2.22,43.2,17.38,61.25,31.71,18.11,14.38,37.5,29.7,61.15,32.94,22.38,3.06,44.66-5.63,62.32-18.97,4.38-3.31,8.53-6.91,12.43-10.78,1.37-1.36-.75-3.48-2.12-2.12-15.6,15.48-36.19,27.71-58.5,29.33-11.31.82-22.49-1.41-32.86-5.91-10.64-4.63-20.33-11.18-29.54-18.18-18.5-14.06-36.19-30.81-58.84-37.92-10.38-3.26-21.62-4.43-32.35-2.27-5.21,1.05-10.29,2.96-14.84,5.72-4.88,2.96-9.09,6.87-13.14,10.85s-7.89,7.99-12.39,11.34-9.24,5.81-14.38,7.61c-10.2,3.57-21.38,4.32-32,2.39-21.55-3.92-39.43-18.22-51.8-35.8-3.24-4.61-6.43-9.4-10.7-13.14s-9.15-6.02-14.48-7.32c-11.3-2.76-23.35-1.19-34.53,1.42-11.96,2.79-23.51,7.06-35.35,10.28s-24.94,4.98-37.75,4.9-26.03-1.72-38.86-4.04-25.07-5.02-37.41-8.24c-21.56-5.62-44.07-14.75-56.5-34.39-2.68-4.24-4.72-8.81-6-13.67-.49-1.87-3.39-1.07-2.89.8h0Z"/>
      <path class="st36" d="M1971.25,772.38c-13.84-.59-26.58-6.52-38.56-13.01s-23.59-13.71-36.63-17.93c-11.98-3.88-25.56-5.6-37.56-.84-6,2.38-11.06,6.24-15.55,10.83s-8.43,9.69-13.02,14.19c-8.85,8.69-20.93,13.75-33.43,12.54-10.64-1.04-19.37-7.26-25.76-15.52-11.93-15.41-16.81-35.92-31.59-49.21-7.7-6.92-17.55-10.51-27.93-9.39s-20.26,6.27-26.61,14.58c-1.57,2.05-2.88,4.27-3.91,6.63-.76,1.75,1.82,3.28,2.59,1.51,4.16-9.53,12.98-16.23,22.94-18.8s20.21-.65,28.41,5.59c7.61,5.79,12.74,14.2,17.24,22.48s8.86,17.7,14.56,25.79,13.16,15.03,22.81,17.94c11.69,3.52,24.84.96,34.97-5.63,10.72-6.96,16.94-18.69,27.16-26.2,10.55-7.75,23.9-8.45,36.32-5.68,13.22,2.95,24.97,9.41,36.68,15.95,11.73,6.55,23.8,13.26,37.09,15.96,3.22.66,6.49,1.06,9.78,1.2,1.93.08,1.93-2.92,0-3h0Z"/>
    </g>
  </g>
  <path class="st7" d="M3138.26,768.44s-43.15,51.05-84.89,49.91c0,0-19.62,75.54-93.1,73.19s-115.57-32.6-115.57-32.6c0,0,8.36,42.09-43.58,34.29s-81.11-42.32-81.11-42.32c0,0-42.91,37.99-71.31,20.87-28.4-17.13,0-196.78,0-196.78l489.55,93.44Z"/>
  <g>
    <path class="st37" d="M802.86,416.87c13.52,60.6,23.65,200.16,54.06,246.07,30.41,45.91,76.02,280.96,67.58,326.87-8.45,45.91,62.51,23.87,82.78,23.87s-3.38-297.49,0-325.03c3.38-27.55,74.33-132.71,74.33-132.71l-76.02-43.58s-20.79,67.63-42.5,120.13-50.42,26.25-67.31-5.62-20.27-187.41-20.27-187.41l-72.64-22.58Z"/>
    <g class="st21">
      <path class="st42" d="M851.79,490.47c-3.08,21.63-6.2,43.39-5.8,65.29.38,20.67,4.49,40.93,11.09,60.48,6.51,19.3,15.13,37.81,24.2,56.01s18.2,35.45,29.08,52.14c5.43,8.33,11.25,16.41,17.54,24.12s13.27,15.07,20.19,22.35c13.56,14.25,27.3,28.8,35.82,46.76,4.08,8.6,6.93,17.92,7.52,27.45.54,8.73-.9,17.4-4.21,25.49-6.32,15.43-18.74,27.92-32.63,36.79-15.82,10.1-34.08,15.95-52.47,19.2-19.04,3.36-38.47,3.96-57.76,3.71-4.73-.06-9.46-.18-14.18-.32-1.93-.06-1.93,2.94,0,3,19.53.6,39.14.71,58.59-1.47,19.13-2.15,38.08-6.57,55.48-14.96,15.31-7.39,29.32-18.12,38.95-32.28,4.64-6.82,8.16-14.47,9.95-22.54,2.01-9.08,1.74-18.49-.29-27.55-4.31-19.21-15.81-35.73-28.62-50.27-6.7-7.6-13.8-14.82-20.73-22.21s-13.55-15.01-19.62-23.1c-12.08-16.11-22.26-33.54-31.61-51.34s-18.62-36.47-26.24-55.42-13.61-38.54-15.92-58.8c-2.5-21.89-.51-43.96,2.35-65.71.7-5.34,1.47-10.68,2.23-16.02.12-.81-.2-1.6-1.05-1.85-.7-.2-1.73.25-1.85,1.05h0Z"/>
      <path class="st42" d="M941.22,1047.74c-1.15-22.91-2.38-47.07,7.08-68.58,4-9.1,9.78-17.46,17.58-23.71s17.21-9.81,26.56-12.85c9.54-3.09,19.28-5.69,28.4-9.93,9.02-4.19,16.86-10.24,23-18.08,12.75-16.28,18.31-37.42,20.35-57.68,2.24-22.17-.34-44.87-7.49-65.98-6.58-19.42-17.09-37.37-30.66-52.73s-29.22-27.36-47.03-36.26c-8.52-4.26-18.48-8.2-23.39-16.94-2.68-4.76-3.57-10.32-3.72-15.71s.52-10.87,1.83-16.15c5.07-20.4,18.79-38.25,34.09-52.22s32.58-24,51.66-30.35c4.65-1.55,9.37-2.85,14.15-3.91,1.88-.42,1.09-3.31-.8-2.89-19.82,4.41-38.68,13.06-55.02,25.11-16.56,12.21-31.37,28.06-40.62,46.57-4.83,9.67-8.06,20.23-8.3,31.09-.12,5.43.41,11.06,2.36,16.17,1.84,4.8,4.92,8.84,8.94,12.02s8.2,5.34,12.6,7.51,8.86,4.38,13.15,6.87c8.7,5.06,16.89,10.98,24.42,17.65,14.97,13.26,27.37,29.38,36.18,47.35,9.86,20.1,15.06,42.43,15.41,64.79.18,11.32-.87,22.65-3.2,33.73-2.09,9.91-5.18,19.68-9.9,28.67s-10.91,16.97-19.08,22.81-17.7,9.2-27.19,12.2-19.24,5.71-28.19,10.25-16.5,11.14-22.21,19.42c-12.83,18.64-15.12,41.87-14.68,63.9.12,5.97.42,11.93.72,17.89.1,1.92,3.1,1.93,3,0h0Z"/>
    </g>
  </g>
  <g>
    <path class="st39" d="M1582.87,987.71c26.06,7.91,84.85,19.76,125.53,0,40.68-19.76-26.73-106.28-29.06-176.93s33.71-79.77,34.87-117.63,7.21-104.11,7.21-104.11l-54.87,5.81s19.83,95.63-9.3,107.14c-29.13,11.51-81.36-107.14-81.36-107.14l-34.87,12.22s34.87,110.99,33.71,153.99-36.26,213.18,8.14,226.65Z"/>
    <g class="st24">
      <path class="st38" d="M1573.55,688.27c-6.47,29.74,8.82,58.19,24.82,82.1,8.4,12.56,17.34,24.81,24.51,38.15s12.4,27.46,15.73,42.12c3.31,14.57,5.07,30.01,3.67,44.94-.71,7.58-2.59,14.97-5.76,21.9-2.95,6.45-6.73,12.48-10.6,18.41s-7.81,11.78-11.3,17.93-6.33,11.94-8.98,18.15c-5.25,12.32-9.17,25.19-11.47,38.38-4.53,26.05-2.75,53.34,7.7,77.81,1.26,2.95,2.64,5.83,4.13,8.67.9,1.71,3.49.19,2.59-1.51-12.36-23.44-15.87-50.47-12.66-76.58s13.43-51.95,28.03-74.39c7.83-12.03,16.3-24.03,19.64-38.22,3.45-14.68,2.35-30.44.02-45.22s-6.59-29-12.61-42.57-14.19-26.15-22.58-38.46c-16.27-23.88-34.64-50.07-33.33-80.39.15-3.5.6-6.97,1.35-10.4.41-1.88-2.48-2.69-2.89-.8h0Z"/>
      <path class="st38" d="M1629.07,684.1c-.06,15.35-.35,30.79.46,46.12.68,12.89,2.47,26.07,8.13,37.81s16.04,21.14,28.39,26.41c14,5.97,29.32,7.16,44.37,7.26,6.94.05,14,.24,20.9-.56,5.84-.67,11.73-2.16,16.39-5.92,1.13-.91,2.13-1.95,3.01-3.09,1.17-1.51-.94-3.64-2.12-2.12-7.63,9.8-22.5,8.65-33.57,8.69-14.75.05-29.81-.45-43.85-5.45-12.27-4.37-22.95-12.23-29.37-23.71-6.07-10.86-8.2-23.48-9.08-35.75-.53-7.4-.58-14.82-.63-22.23-.06-9.15-.08-18.3-.05-27.46,0-1.93-2.99-1.93-3,0h0Z"/>
    </g>
  </g>
  <g>
    <path class="st33" d="M942.24,244.74s-66.8-94.38-158.88-64.45-59.85,98.93-59.85,98.93c0,0-85.17,35.86-50.64,137.65s96.68,60.67,96.68,60.67c0,0,21.59,73.35,110.93,29.62l89.34-43.74s-20.72,160.55,151.92,128.61,132.45-264.45,132.45-264.45l-311.95-82.84Z"/>
    <g class="st22">
      <path class="st11" d="M691.34,225.37c5.18,13.42,14.79,24.69,26.77,32.57,11.87,7.8,26.08,12.26,40.32,12.09,16.79-.21,31.85-7.73,46.28-15.59,7.75-4.22,15.49-8.59,23.7-11.88,6.56-2.63,13.55-4.31,20.61-4.78,13.24-.89,27.84,2.66,35.31,14.57,7.23,11.54,5.59,26.14,4.36,39.03s-3.13,27.25,3.23,39.14c3.6,6.73,9.66,11.48,16.54,14.56,8.11,3.63,17.03,5.78,25.76,7.33,17.75,3.15,36.78,2.81,53.38-4.92,13.52-6.3,25.18-17.48,30.51-31.57,1.28-3.38,2.11-6.89,2.57-10.47.11-.81-.77-1.49-1.5-1.5-.9,0-1.4.7-1.5,1.5-1.91,14.63-11.64,27.2-23.77,35.1-14.6,9.51-32.41,11.89-49.5,10.26-9.15-.87-18.26-2.84-27.03-5.58-7.54-2.36-15.08-5.73-20.13-12.03-8.21-10.23-7.14-24.49-6.04-36.73,1.17-13.04,3.47-27.21-1.4-39.79-2.38-6.14-6.41-11.42-11.84-15.17s-11.9-5.71-18.42-6.49c-6.94-.83-14.04-.25-20.85,1.25-7.55,1.66-14.64,4.71-21.53,8.15-15.25,7.63-29.77,17.56-46.66,21.26-13.66,2.99-28.23.95-40.9-4.81s-23.79-15.16-30.94-27.18c-1.73-2.9-3.22-5.94-4.44-9.1-.69-1.78-3.59-1.01-2.89.8h0Z"/>
      <path class="st11" d="M645.42,416.48c10.86.25,21.72.51,32.58.76,5.35.13,10.71.3,16.06.35,4.94.05,9.92-.11,14.78-1.09,7.9-1.59,14.83-5.75,20.37-11.55,5.21-5.46,9.2-11.99,12.83-18.57,3.82-6.91,7.28-14.04,11.46-20.75,4.67-7.47,10.28-14.32,16.65-20.4,6.47-6.17,13.7-11.53,21.51-15.87,6.69-3.71,14.19-6.38,21.83-7.12,7.21-.69,14.92.35,20.78,4.93s8.82,12.12,8.71,19.67c-.13,8.17-3.02,16.19-6.89,23.29-4.09,7.51-9.62,14.14-14.54,21.09s-9.7,14.57-11.96,22.99c-2.05,7.63-1.81,15.74.93,23.17,5.5,14.91,19.04,25.83,33.29,31.97s29.62,7.82,44.66,6.35,29.55-6.11,42.69-13.41,24.73-17.21,33.74-29.22c4.49-5.98,8.28-12.48,11.22-19.35s5.25-14.14,9.62-20.28c1.98-2.78,4.49-5.21,7.57-6.72,4.26-2.08,9.1-1.83,13.59-.73s9.09,2.97,13.51,4.72c4.07,1.62,8.09,3.34,12.04,5.22,15.64,7.45,30.48,17.54,40.02,32.31s12.76,31.01,14.43,47.63,1.65,34.91,3.54,52.29c.9,8.29,2.11,16.69,4.58,24.68,2.3,7.44,5.65,14.65,10.13,21.04s9.59,11.56,16.12,15.17,14.05,5.03,21.48,3.89c16.83-2.59,28.97-17.35,37.28-31.07,9.97-16.45,17.21-34.59,21.36-53.38,2.01-9.11,3.3-18.37,3.86-27.68.12-1.93-2.88-1.92-3,0-1.16,19.18-5.54,38.13-12.85,55.9-3.65,8.88-8.06,17.48-13.17,25.61-4.45,7.1-9.71,13.83-16.2,19.17s-13.78,8.72-21.92,8.87c-7.26.13-14.13-2.51-19.87-6.86-12.21-9.24-19.19-24.48-22.27-39.12-3.58-17.04-3.87-34.54-4.83-51.86-.92-16.82-2.31-34.01-8.22-49.93-2.91-7.83-6.9-15.2-12.09-21.76-5.32-6.74-11.85-12.45-18.91-17.29s-15.06-9.02-23.09-12.55c-3.99-1.75-8.03-3.38-12.11-4.92-4.58-1.73-9.24-3.42-14.16-3.85-4.22-.37-8.5.46-12.15,2.66-3.07,1.85-5.52,4.52-7.54,7.44-4.25,6.16-6.53,13.38-9.47,20.19-5.91,13.7-15.2,25.73-26.56,35.34s-24.83,16.82-39.12,21.04c-14.21,4.2-29.39,5.48-44.04,3.06-15.47-2.56-30.52-9.38-41.25-21.06-5.08-5.52-8.99-12.2-10.52-19.59-1.67-8.01-.15-16.23,3.23-23.59,3.65-7.97,8.98-15.02,14.15-22.05s9.79-13.68,12.96-21.6c2.92-7.3,4.59-15.36,3.3-23.2-1.22-7.43-5.64-14.11-12.16-17.93-13.25-7.77-30.89-3.09-43.41,3.91-15.4,8.6-28.62,21.07-38.19,35.87-8.34,12.9-13.59,28.05-24.12,39.47-5.37,5.82-12.02,9.91-19.84,11.43-4.9.96-9.94,1-14.92.92-5.38-.09-10.77-.24-16.15-.37-10.45-.24-20.89-.49-31.34-.73-1.93-.05-1.93,2.95,0,3h0Z"/>
    </g>
  </g>
  <g>
    <path class="st39" d="M1108.19,1050.96s112.49,24.77,204.2,12.39c91.72-12.39,91.72.65,84.8-88.73-6.92-89.37-22.5-167.58-29.42-212.26s102.1-68.89,117.68-126.61c15.57-57.72,12.11-113.58,12.11-113.58l-32.88,7.45s6.92,109.86-55.38,128.48c-62.3,18.62-90.59,71.73-96.91,13.13s20.77-171.89,20.77-171.89l-49.97-64.68-38.28,22.34s-1.73,176.89-6.92,197.37-22.5,18.62-83.07-13.03-77.87-59.58-81.34-106.13,0-100.55,0-100.55l-51.92,13.78s-1.73,111.4,27.69,172.63,60.57,44.47,74.41,104.06c13.84,59.58,13.84,161.99,0,221.57-13.84,59.58-32.88,78.2-15.57,104.27Z"/>
    <g class="st23">
      <path class="st38" d="M1195.66,521.89c-10.03,16.8-17.91,34.88-23.35,53.68-2.8,9.68-5.01,19.56-6.43,29.54s-2.03,21.02-.65,31.48c2.59,19.75,12.06,37.83,21.14,55.27,8.46,16.26,17.79,32.25,29.94,46.07,5.89,6.69,12.44,12.75,19.64,18.01,6.75,4.93,13.98,9.17,21.39,13.01,15.04,7.79,30.83,13.97,46.02,21.46s29.32,16.13,40.69,28.46c11.38,12.34,19.29,27.49,24.44,43.38s7.85,33.4,8.8,50.47c1.01,18.19,1.12,37.32-4.62,54.82-1.43,4.36-3.26,8.55-5.51,12.55-.95,1.68,1.64,3.2,2.59,1.51,9.33-16.55,11.08-35.97,10.97-54.62-.1-17.25-1.62-34.6-5.47-51.44s-9.82-32.38-19.25-46.34-22.07-24.93-36.49-33.5c-14.46-8.6-30.09-14.97-45.36-21.95s-30.57-14.7-43.41-25.73c-13.96-11.98-24.65-27.16-33.77-43.01-4.6-7.98-8.83-16.17-12.96-24.4-4.56-9.08-8.93-18.29-12.04-27.98-3.18-9.9-4.68-20.08-4.51-30.48s1.79-20.81,4.01-31c4.17-19.16,10.84-37.77,19.82-55.2,2.19-4.25,4.52-8.43,6.97-12.54.99-1.66-1.6-3.17-2.59-1.51h0Z"/>
      <path class="st38" d="M1113.39,783c7.19,14.65,21.18,24.41,35.98,30.37,18.05,7.26,37.69,8.8,56.64,12.42,16.66,3.18,33.86,8.25,47.02,19.45,5.87,4.99,10.81,11.13,13.68,18.33,2.7,6.78,3.84,14.29,2.85,21.54s-3.94,13.6-9.08,18.45c-6.54,6.17-15.45,9.04-23.51,12.61-16.95,7.51-33.09,16.82-48.09,27.71-7.48,5.43-14.69,11.25-21.57,17.44-6.63,5.96-13.4,12.41-17.03,20.72s-3.95,18.31-3.32,27.62c.54,8,1.58,16,3.41,23.81,3.56,15.15,10.46,30.19,22.99,39.96,13.49,10.52,30.79,13.13,46.05,20.03,3.73,1.68,7.32,3.64,10.68,5.99,1.59,1.11,3.09-1.49,1.51-2.59-13.93-9.73-31.19-12.13-46.23-19.51-7.27-3.57-13.65-8.43-18.7-14.8-4.8-6.05-8.25-13.14-10.72-20.42s-4.18-15.5-5.14-23.45c-1.06-8.72-1.9-17.89-.39-26.61.79-4.55,2.3-8.88,4.71-12.82s5.42-7.31,8.65-10.51c6.5-6.43,13.58-12.35,20.83-17.93,14.63-11.26,30.46-20.97,47.12-28.92,4.12-1.97,8.29-3.8,12.49-5.58s8.3-3.54,12.14-5.9c6.58-4.03,11.56-9.77,14.24-17.03,5.03-13.62,1.66-29.99-7.03-41.37-10.18-13.32-25.76-21.03-41.56-25.57-18.83-5.4-38.57-6.5-57.53-11.35-15.74-4.03-31.55-11.13-42.18-23.85-2.49-2.98-4.6-6.26-6.31-9.75-.85-1.73-3.44-.21-2.59,1.51h0Z"/>
      <path class="st38" d="M1265.18,512.96c-.76,15.98.06,32,2.4,47.82,1.17,7.92,2.73,15.78,4.67,23.55,1.83,7.31,3.84,14.69,6.73,21.66,2.62,6.33,6.13,12.51,11.36,17.06,4.88,4.24,11.15,7.2,17.7,7.24,14.26.09,22.89-13.84,30-24.22,8.8-12.86,16.75-26.3,23.78-40.2.87-1.72,1.73-3.45,2.57-5.18s-1.75-3.25-2.59-1.51c-6.55,13.46-13.93,26.51-22.11,39.04-3.92,6-7.9,12.09-12.43,17.66-3.84,4.71-8.48,9.24-14.51,10.84s-12.65-.33-17.8-3.86c-5.47-3.74-9.26-9.37-12.03-15.29-3.06-6.54-5.03-13.61-6.88-20.56-1.95-7.35-3.56-14.8-4.82-22.3-2.86-17.07-3.85-34.43-3.03-51.72.09-1.93-2.91-1.93-3,0h0Z"/>
    </g>
  </g>
  <g>
    <path class="st39" d="M2772.57,762.53s1.4,153.47,6.98,178.59c5.58,25.11-5.58,30.23-34.88,31.86s-47.71,7.83-45.48-8.53,24.31-183.78,19.55-238.19,62.2-79.53,62.2-79.53l-8.36,115.8Z"/>
    <g class="st29">
      <path class="st38" d="M2791.03,865.93c-.97,6.5.53,12.93.2,19.44-.16,3.08-.89,6.09-2.6,8.7-1.48,2.26-3.6,4.03-5.86,5.46-4.89,3.08-10.47,4.83-15.72,7.18-5.7,2.55-11.21,5.58-16.24,9.31s-9.51,8.08-13.15,13.19c-3.9,5.48-6.72,11.66-9.01,17.97-4.78,13.18-8.54,27.69-6.33,41.77,1.96,12.48,9.79,24.66,22.09,28.92,1.83.63,2.61-2.26.8-2.89-10.52-3.65-17.29-13.94-19.55-24.46-2.94-13.63.85-28.01,5.31-40.88,2.16-6.24,4.83-12.34,8.55-17.83,3.37-4.99,7.69-9.34,12.5-12.95s10.26-6.68,15.82-9.21c5.15-2.35,10.63-4.08,15.53-6.95,5.51-3.23,9.61-8,10.59-14.46,1.08-7.15-1.08-14.35-.02-21.49.28-1.89-2.61-2.7-2.89-.8h0Z"/>
    </g>
  </g>
  <path class="st34" d="M1447.57,501.15s44.83,188.89,161.01,148.03c0,0,30.31,35.03,95-20.02,0,0,125.25,34.41,123.88-60.56-1.38-94.97-143.15-108.74-143.15-108.74l-236.74,41.29Z"/>
  <g>
    <path class="st5" d="M1021.64,118.21c-116.34,49.91-149.02,274.03-65.52,267.6,0,0-38.53,122.03,49.24,117.75s105.26-29.01,105.26-29.01c0,0,2.39,84.68,89.86,78.25s91.75-58.03,91.75-58.03c0,0,8.02,116.12,74.36,111.99s111.89-64.94,111.89-64.94l-36.75-423.61s-178.03-111.32-247.25-10.7c0,0-43.08-44.96-172.83,10.7Z"/>
    <g class="st26">
      <path class="st41" d="M947.18,127.16c-9.95,17.27-12.03,38.61-6.3,57.64,5.6,18.57,18.79,33.85,36.07,42.56,8.48,4.28,17.72,6.95,27.18,7.79,10.02.89,20.06-.56,29.58-3.73,20.65-6.88,37.85-20.6,56.15-31.89s40.95-21.79,63.2-16.73c4.8,1.09,9.4,2.95,11.68,7.61,1.77,3.62,1.67,8.02,1.06,11.9-.7,4.47-2.07,8.81-3.62,13.06-1.79,4.91-3.55,9.8-4.84,14.87-2.62,10.25-3.78,21.08-1.79,31.55,1.69,8.89,5.89,17.26,12.37,23.62,11.39,11.17,28.11,15.28,43.69,14.29,8.19-.52,16.27-2.4,23.82-5.61,8.51-3.62,16.17-9.11,22.97-15.32,14.88-13.57,25.59-31.03,35.13-48.57,2.34-4.3,4.62-8.64,6.89-12.98.89-1.71-1.69-3.23-2.59-1.51-9.16,17.53-18.53,35.29-31.43,50.42-6.36,7.46-13.58,14.23-21.8,19.61-6.87,4.49-14.39,7.67-22.4,9.45-15.03,3.33-31.95,1.94-45.18-6.4-6.62-4.18-11.91-10.11-15.23-17.21-4.42-9.46-5-20.3-3.57-30.52.73-5.21,1.96-10.34,3.51-15.36,1.45-4.69,3.35-9.21,4.83-13.89,2.39-7.56,4.63-17.37-.15-24.5-2.81-4.2-7.36-6.17-12.13-7.3-5.23-1.24-10.65-1.69-16.02-1.42-10.93.54-21.51,3.88-31.43,8.37-19.88,9.01-36.74,23.16-55.85,33.54-9.24,5.02-19.05,9.11-29.44,10.95-9.21,1.63-18.72,1.2-27.79-1.03-18.08-4.45-34.46-15.95-43.83-32.16s-11.79-38.02-5.88-56.62c1.44-4.52,3.36-8.86,5.73-12.97.97-1.68-1.63-3.19-2.59-1.51h0Z"/>
      <path class="st41" d="M905.23,395.37c17.12,12.73,36.77,22.02,57.45,27.25,10.37,2.63,21.11,4.36,31.81,4.74s21.59-1.39,30.72-7.59c8.42-5.72,14.98-13.63,22.67-20.2s16.02-11.78,25.02-15.93c18.01-8.31,38.27-11.76,58-9.68,9.49,1,20.21,2.85,26.48,10.79,5.32,6.75,6.29,15.89,6.63,24.18.37,9.15-.06,18.3,1.4,27.38s4.49,18.18,8.82,26.43c8.63,16.44,22.89,30.02,40.61,36.07,17.15,5.85,36.87,4.81,52.94-3.76,8.57-4.57,15.34-11.32,21.22-18.96,6.19-8.04,11.44-16.81,18.25-24.37,12.84-14.25,31.89-21.79,51.02-20.48,4.55.31,9.03,1.17,13.39,2.5,1.85.57,2.64-2.33.8-2.89-18.1-5.56-38.51-2.52-54.41,7.71-8.32,5.35-14.75,12.65-20.53,20.58s-11.36,16.87-18.6,24.01c-13.11,12.93-32.04,18.04-50.09,15.81-18.57-2.29-34.96-12.77-45.87-27.83-5.46-7.54-9.58-16.02-12.22-24.94-1.32-4.46-2.3-9.04-2.85-13.66s-.63-9.14-.68-13.72c-.1-8.81.07-17.97-2.62-26.46-1.25-3.94-3.17-7.66-5.94-10.75-3.25-3.63-7.51-6.05-12.09-7.6s-9.85-2.39-14.86-2.96-9.96-.77-14.94-.64c-9.91.26-19.8,1.82-29.31,4.61s-18.56,6.74-26.99,11.83-16.15,11.66-23.34,18.68-14.99,14.39-25.18,17.18-21.85,1.8-32.45.24c-21.14-3.12-41.62-10.48-59.91-21.53-4.42-2.67-8.7-5.55-12.84-8.63-1.55-1.15-3.05,1.45-1.51,2.59h0Z"/>
    </g>
  </g>
  <g>
    <path class="st12" d="M1387.3,541.82s1.11,66.53,4.44,104.23,33.27,66.53,24.4,99.8-129.74,129.74-131.96,242.84,0,145.26,0,145.26c0,0,241.74,17.74,284.98,0s16.63-58.77,0-108.67c-16.63-49.9-37.42-103.01-34.79-179.58s45.14-155.3,58.26-191.9,5.36-98.69,5.36-98.69l-68.75-3.33s14.42,133.07-17.74,155.24-42.14,27.72-53.23-7.76-27.72-52.12-26.61-79.84,10.07-77.62,10.07-77.62h-54.43Z"/>
    <g class="st25">
      <path class="st0" d="M1248.43,1058.44c21.49-13.16,46.77-18.35,71.38-23.79s49.83-11.64,70.28-26.38,35.22-40.12,30.2-64.82c-4.23-20.83-21.42-37.75-23.47-58.91-1.73-17.85,7.78-34.89,19.02-48.85,6.66-8.27,15.01-16.46,25.58-17.49,5.61-.55,11.2,1.02,16.55,2.78,15.1,4.97,29.72,11.65,45.34,14.6,15.62,2.95,32.96,1.68,45.59-7.98,17.26-13.19,20.81-37.31,23.03-58.92"/>
      <path class="st0" d="M1553.89,872.13c-16.97-7.17-37.8-1.65-50.81,11.38-13.01,13.03-18.57,32.4-17.03,50.75.57,6.83,2.07,13.65,5.21,19.74,6.27,12.16,18.23,20.11,29.18,28.32,21.58,16.19,42.47,39.1,40.69,66.02-.91,13.78-7.8,26.49-16.03,37.58-22.52,30.33-62.61,52.57-97.94,39.21"/>
      <path class="st0" d="M1359.32,796.22c30.84,2.8,62.86,5.45,91.98-5.11,29.11-10.56,54.44-38.37,51.58-69.21-2.72-29.38-28.58-50.74-53.73-66.17s-53.29-30.09-66.49-56.47c-12.22-24.42-8.27-55.28,7.28-77.73"/>
    </g>
  </g>
  <g>
    <path class="st31" d="M1346.34,45.03c-41.4,5.63-181.72,252.12-137.27,353.98s114.82-20.37,114.82-20.37c0,0-44.26,155.11,33.34,181.49s107.45-37.23,107.45-37.23c0,0-18.35,126.65,19.39,126.27s36.7-74.41,36.7-74.41c0,0,81.78,42.35,133.15,0,51.37-42.35-29.36-217.44-29.36-217.44L1346.34,45.03Z"/>
    <g class="st28">
      <path class="st1" d="M1175.09,288.49c-.52,14.55,2.63,29.22,9.07,42.28,4.35,8.82,10.48,17.15,19.13,21.83,20.92,11.3,46.1-2.39,65.73-15.79,19.63-13.4,44.47-27.44,65.68-16.7,14.81,7.5,21.74,24.47,32.68,36.96,18.78,21.43,51.86,28.86,77.99,17.51s43.3-40.59,40.45-68.94"/>
      <path class="st1" d="M1281.76,507.36c29.74-15.8,63.26-24.41,96.93-24.9,17.22-.25,34.99,1.75,50.07,10.06,24.38,13.43,39.1,41.78,65.33,51.12,26.16,9.31,54.35-3.21,80.82-11.6s60.64-10.28,76.73,12.35"/>
    </g>
  </g>
  <g>
    <path class="st12" d="M2802.31,828.8c0,44.33,47.46,34.38,52.19,64.43s4.73,61.7-19.67,79.75c-24.39,18.05-37.94,57.35-32.52,79.03,5.42,21.68,269.67,4.07,285.93,0,16.26-4.07,14.91-75.74-23.04-106.3-37.94-30.57-55.56-53.6-54.21-88.84s48.78-86.73,40.65-105.7c-8.13-18.97-44.72,0-44.72,0,0,0-21.68,90.79-46.07,105.7s-51.5,21.68-69.11,4.07-37.25-50.15-37.25-50.15l-52.19,18.02Z"/>
    <g class="st27">
      <path class="st0" d="M2859.6,799.24c-.27,13.36-9.98,25.29-9.64,38.64.33,12.87,9.77,23.44,18.65,32.75,19.44,20.37,39.59,41.26,65.4,52.51,25.46,11.1,57.62,13.99,72.7,37.32,11.88,18.38,7.8,43.34-3.14,62.3s-27.65,33.75-42.27,50.04-27.79,35.65-28.9,57.5"/>
      <path class="st0" d="M2838.24,916.69c-.06,12.26,8.6,23.38,19.49,29.01,10.89,5.63,23.63,6.56,35.87,5.75,10.23-.68,20.45-2.49,30.68-1.84,10.24.65,20.87,4.18,27.28,12.19,7.2,8.99,7.61,22.13,3.17,32.76-4.44,10.63-13.03,19.02-22.42,25.68-6.63,4.7-14.09,8.8-22.2,9.31-12.49.79-23.88-6.98-32.98-15.58-11.26-10.64-20.74-23.06-32.19-33.49s-25.61-19.02-41.09-19.54-31.97,9.13-35.25,24.27"/>
      <path class="st0" d="M3074.26,1072.74c-15.67-34.07-7.48-75.63,13.2-106.91,6.61-10.01,14.72-20.04,15.33-32.02.66-12.98-7.81-24.71-17.47-33.41-15.19-13.67-33.92-22.65-52.46-31.25-8.46-3.92-17.14-7.94-23.69-14.58-10.68-10.83-14-26.83-15.47-41.97-2.45-25.27,1.23-55.13,22.86-68.41"/>
    </g>
  </g>
  <g>
    <path class="st39" d="M3083.3,707.97c5.05,30.33,2.53,178.18,0,203.45-2.53,25.27,78.35,18.96,78.35,18.96l-5.05-237.23-58.48-18.16-14.81,32.98Z"/>
    <g class="st16">
      <path class="st38" d="M3113.42,770.74c-7.38,5.56-6.52,15.6-4.99,23.69,1.04,5.53,2.25,11.02,3.13,16.58.95,6.03,1.69,12.09,2.21,18.18,1.01,11.86,1.49,24.01.57,35.9-.21,2.65-.71,5.4-2.38,7.55-1.47,1.9-3.58,3.22-5.7,4.3-4.72,2.41-9.86,3.92-15,5.14-11.59,2.75-23.65,4-34.44,9.39-1.73.86-.21,3.45,1.51,2.59,9.61-4.8,20.41-6.18,30.8-8.43,5.13-1.11,10.23-2.45,15.08-4.47,4.45-1.86,9.31-4.31,11.47-8.9,1.12-2.39,1.5-4.98,1.68-7.59.2-2.99.26-6,.31-9,.1-5.99-.01-11.99-.33-17.98-.64-12.11-2.12-24.17-4.41-36.08-1.03-5.32-2.45-10.61-2.56-16.06-.09-4.46.77-9.36,4.56-12.21,1.52-1.15.03-3.75-1.51-2.59h0Z"/>
    </g>
  </g>
  <g>
    <path class="st37" d="M1913.09,607.06c0,15.88-23.18,346.42-43.06,391.46s134.69,32.89,144.62,28.48-22.85-179.95-21.36-227.42,18.05-158.97,18.05-158.97l-98.25-33.55Z"/>
    <g class="st14">
      <path class="st42" d="M2003.55,630.05c-14.73,6.77-28.35,16.17-39.74,27.73-11.12,11.28-20.2,24.81-25.13,39.94-2.42,7.44-3.78,15.25-3.92,23.07-.17,9.6,1.59,19.16,4.37,28.32,2.92,9.62,6.92,18.87,11.05,28.03s8.7,18.83,13.2,28.18c8.99,18.69,18.23,37.26,26.79,56.16,4.28,9.45,8.39,18.97,12.18,28.62,3.68,9.36,7,18.89,9.15,28.72s2.9,19.44,1.9,29.24c-.92,9.06-3.33,17.94-6.6,26.43-6.73,17.45-17.11,33.27-27.78,48.52-11.07,15.84-22.14,31.98-35.72,45.81-12.7,12.94-28.13,23.84-45.9,28.35-4.28,1.09-8.64,1.76-13.05,2-1.92.1-1.93,3.1,0,3,18.2-.98,35.07-9.18,49.15-20.4,15.19-12.11,27.07-27.77,38.32-43.45,10.96-15.28,22.07-30.64,30.75-47.37,8.47-16.3,14.5-34.18,14.26-52.74-.27-20.46-7.76-39.97-15.52-58.6-7.97-19.12-16.92-37.8-25.95-56.42-9.01-18.58-18.23-37.1-26.35-56.1-7.43-17.39-13.25-36.02-10.57-55.12,2.2-15.66,9.34-30.3,19.11-42.62,10.09-12.72,22.85-23.26,36.93-31.29,3.45-1.96,6.98-3.77,10.59-5.43,1.75-.81.23-3.39-1.51-2.59h0Z"/>
      <path class="st42" d="M1889.45,771.01c-.9,13.2-1.78,26.49-.53,39.7,1.19,12.56,4.56,24.59,10.58,35.71,11.22,20.7,28.89,36.82,42.47,55.86,14.35,20.14,24.79,43.39,28.19,68,3.3,23.9-.4,49.14-12.04,70.4s-31.25,36.89-51.25,50.25c-2.46,1.64-4.93,3.26-7.42,4.87-1.62,1.05-.11,3.64,1.51,2.59,20.37-13.19,40.82-27.63,54.68-47.94,13.81-20.24,19.71-45.29,18.49-69.61-1.24-24.78-9.87-48.79-22.79-69.83-6.37-10.37-13.93-19.86-21.75-29.15-7.62-9.05-15.42-17.99-21.99-27.85s-11.88-21.22-14.25-33.29c-2.58-13.16-2.3-26.7-1.53-40.02.19-3.23.4-6.46.62-9.69.13-1.93-2.87-1.92-3,0h0Z"/>
    </g>
  </g>
  <g>
    <path class="st5" d="M2712.15,708.94s15.97,138.8,115.46,133.89c99.5-4.91,109.32-61.16,109.32-61.16,0,0,63.87,43.81,132.66-13.23,0,0,81.07,52.13,120.38,0,18.14-24.05,107.49-86.06,107.5-135.6.02-117.78-97.67-102.01-97.67-102.01l-61.42-95.81-292.35-79.84-133.89,353.76Z"/>
    <g class="st20">
      <path class="st41" d="M2806.14,597.64c15.2-6.09,30.63-11.81,46.6-15.57s31.39-5.45,46.95-2.59c7.61,1.4,14.98,3.91,21.76,7.65,7.13,3.93,13.39,9.14,19.22,14.78s11.36,11.77,17.15,17.55c5.69,5.69,11.76,10.97,18.23,15.76,12.89,9.55,27.24,17.1,42.37,22.4,14.76,5.17,30.5,8.42,46.18,8.44s30.3-3.01,42.81-11.44c12.8-8.62,20.77-22.12,25.57-36.52,2.51-7.53,4.21-15.3,5.51-23.12,1.5-9.02,2.46-18.12,2.86-27.25.8-18.21-.61-36.51-4.18-54.38-.88-4.42-1.9-8.8-3.04-13.16-.49-1.87-3.38-1.07-2.89.8,4.62,17.61,7.08,35.74,7.31,53.95.22,17.48-1.43,35.19-5.56,52.2-3.54,14.58-9.45,29.23-20.59,39.7-10.88,10.23-25.66,14.91-40.31,15.96-15.42,1.11-31-1.38-45.77-5.77s-29.8-11.43-43-20.33c-6.55-4.41-12.75-9.32-18.54-14.69s-11.4-11.5-17.06-17.3c-5.61-5.75-11.46-11.33-18.04-15.97-6.38-4.49-13.46-7.92-20.93-10.16-14.81-4.46-30.57-4.15-45.7-1.64-16.06,2.66-31.62,7.78-46.81,13.54-3.65,1.38-7.28,2.81-10.9,4.26-1.77.71-1,3.61.8,2.89h0Z"/>
      <path class="st41" d="M2707.33,740.6c14.06-3.01,28.45-4.33,42.82-4.02s28.84,2.27,42.85,5.82,27.47,8.63,40.23,15.26,24.68,15.56,37.63,22.28c6.2,3.22,12.74,5.96,19.57,7.5,5.91,1.33,12.02,1.81,18.06,1.46,12.11-.7,24.05-4.59,34.25-11.17,5.13-3.31,9.85-7.3,13.88-11.89s7.22-9.67,10.07-15.01c5.62-10.54,9.84-22.06,17.21-31.58,3.62-4.68,8.07-8.7,13.36-11.39,5.77-2.93,12.27-4.07,18.7-3.86,13.33.43,26.26,6.18,36.96,13.89,11.74,8.46,21.73,19.02,32.67,28.42,10.22,8.78,21.3,16.19,34.11,20.61,11.72,4.05,24.29,5.72,36.67,5.1,12.49-.63,24.82-3.56,36.2-8.74s21.8-12.94,30.26-22.38,15.52-21.12,20.63-33.16,8.79-25.28,11.11-38.45c2.31-13.09,2.9-26.44,5.53-39.48,2.56-12.65,7.46-24.88,17.65-33.3s22.49-11.52,34.77-13.49c6.14-.98,12.34-1.58,18.54-2.12,1.91-.17,1.93-3.17,0-3-12.75,1.1-25.75,2.42-37.87,6.78-11.94,4.29-22.29,11.79-28.56,23-6.48,11.57-8.39,25.01-9.92,37.98-1.57,13.24-3.2,26.36-6.63,39.27-3.41,12.84-8.22,25.35-14.98,36.81s-15.14,21.44-25.59,29.25-21.42,12.63-33.47,15.5-24.81,3.46-37.11,1.58-24.21-6.18-34.71-12.9c-12.24-7.84-22.46-18.31-33.22-27.97s-21.37-17.78-34.6-22.52c-12.22-4.38-26.16-5.49-38.11.34-10.99,5.36-17.85,15.77-23.25,26.33-5.48,10.71-9.93,22.27-17.8,31.55-7.87,9.28-18.45,16.11-30.01,19.83-11.49,3.7-23.99,4.4-35.72,1.39-14.14-3.63-26.39-12-38.59-19.67s-25.1-14.34-38.75-19.31c-13.5-4.91-27.54-8.26-41.78-10.07-14.32-1.83-28.84-2.05-43.2-.6-6.93.7-13.81,1.77-20.62,3.23-1.89.4-1.09,3.3.8,2.89h0Z"/>
    </g>
  </g>
  <g>
    <path class="st12" d="M3157.21,1157.26l105.31,10.04s9.4-178.63,0-274.21c-9.4-95.57-35.73-308.48-33.85-400.36s-71.46-58.27-71.46-58.27c0,0,31.97,251.14,0,263.4-31.97,12.25-101.55-56.29-103.43-78.04s26.33-112.35,26.33-112.35h-45.26s-13.04,115.24-11.16,162.3,122.47,75.43,121.41,116.16c-1.06,40.72-21.74,276.91-19.86,331.38s31.97,39.94,31.97,39.94Z"/>
    <g class="st18">
      <path class="st0" d="M3206.27,556.97c-4.13,15.76-8.26,31.51-12.39,47.27-3.12,11.9-6.25,23.88-7.22,36.14-2.74,34.45,11.58,67.63,24.09,99.84,12.51,32.21,23.61,67.49,14.41,100.8-9.96,36.09-41.3,61.56-71.12,84.22-29.81,22.65-61.53,47.3-72.92,82.97"/>
      <path class="st0" d="M3261.38,809.5c5.5,27.93,1.49,57.64-11.22,83.11-9.09,18.21-22.3,33.99-33.32,51.1-11.02,17.11-20.1,36.57-19.3,56.9.52,13.25,5.22,25.98,10.74,38.04,13.96,30.5,33.58,58.4,57.57,81.84,5.75,5.61,11.96,11.31,14.55,18.91,2.59,7.6-.12,17.71-7.75,20.21"/>
      <path class="st0" d="M3116.58,663.21c-11.68,29.72.48,66.91,27.45,84,6.88,4.36,14.78,7.72,19.62,14.27,5.89,7.96,5.89,18.84,3.99,28.55-7.57,38.6-43.96,69.54-83.28,70.81"/>
    </g>
  </g>
  <g>
    <path class="st12" d="M1680.81,1179.19c34.05,23.5,86.03,19.91,98.58,19.91,0,0-15.79-23.48-5.58-27.56,10.21-4.08,17.35,13.88,17.35,13.88,0,0,6.12-20.19,13.27-14.48s0,28.36,0,28.36c0,0,51.04-6.72,57.16-14.69s-18.37-135.93-5.1-211.28c0,0,40.83-20.23,78.6-24.32s69.41-2.04,76.56-24.5c7.15-22.46,59.43-274.2,59.43-274.2l-26.65-7.15s-44.01,195.6-61.36,212.95-36.74,41.56-120.45,37.11c0,0,26.54-226.98,30.62-260.67,4.08-33.69,14.29-88.81,14.29-88.81l-109.23,6.12s-31.64,153.12-39.81,169.45-51.04,24.5-61.25,11.23-1.02-308.28-1.02-308.28h-44.92s-9.19,243.53-9.19,291.22-6.12,98.73,38.79,118.12c44.92,19.4,46.96,24.5,47.98,52.06,1.02,27.56-48.08,295.51-48.08,295.51Z"/>
    <g class="st19">
      <path class="st0" d="M1677.16,1166.48c-3.82-24.02,5.65-49.32,23.01-66.35,17.36-17.03,41.91-25.94,66.23-26.01,18.19-.05,36.04,4.53,54.08,6.93s37.26,2.41,53.36-6.07c16.1-8.48,27.73-27.56,22.64-45.03"/>
      <path class="st0" d="M1701.62,1013.92c28.89-11.27,57.21-25.86,78.67-48.25s35.31-53.65,31.06-84.37c-5.49-39.63-38.21-69.18-56.56-104.72-12.02-23.29-17.89-49.73-16.86-75.92"/>
      <path class="st0" d="M1768.15,630.4c4.69,20.04,13.92,39,26.8,55.05,7.45,9.29,16.5,17.85,27.77,21.69,14.97,5.11,31.61,1.14,45.98-5.48,44.09-20.31,74.87-66.78,76.37-115.3"/>
      <path class="st0" d="M1873.95,881.37c21.29,18.38,49.15,30.32,77.2,28.27s55.51-19.83,64.87-46.35c12.62-35.72-7.87-78.96,11.26-111.65,10.67-18.22,31.02-28.06,50.21-36.87"/>
    </g>
  </g>
  <g>
    <path class="st40" d="M1293.39,0c-30.87,85.64,20.58,334.66,166.7,353.18,0,0,52.39,173.63,117.31,121.36,0,0,7.21,129.42,94.16,120.31,86.95-9.11,95.18-53.03,95.18-53.03,0,0,95.38,126.34,154.35,104.91s94.67-71.96,94.67-71.96l19.68-526.17L1585.63,0h-292.24Z"/>
    <g class="st17">
      <path class="st3" d="M1289.97,171.67c27.4,53.65,90.19,86.87,149.96,79.34,56.94-7.17,106.21-46.8,163.34-52.19,48.4-4.56,98.47,18.18,126.87,57.63"/>
      <path class="st3" d="M1476.72,405.84c19.91,19.19,41,37.15,63.12,53.75,34.18,25.65,73.7,48.86,116.41,47.38,41.17-1.43,77.54-25.36,113.79-44.93,36.25-19.56,79.47-35.59,117.81-20.53,6.54,2.57,13.21,6.5,15.79,13.03,3.32,8.39-1.22,17.76-6.46,25.1-19.98,27.99-52.96,49.39-58.36,83.35-.64,4.01-.83,8.24.65,12.02,4.14,10.59,18.28,12.4,29.59,11.25,53.85-5.45,103.58-41.28,125.81-90.63"/>
    </g>
  </g>
  <g>
    <path class="st8" d="M2830.62,362.74s3.1,192.39,79.13,197.04,72.92-21.72,72.92-21.72c0,0,39.53,39.95,122.16-3.3,0,0-9.88,66.9,28.33,65.36s28.49-82.23,28.49-82.23c0,0,5.12,67.18,44.43,56.88,39.32-10.3,49.65-93.33,49.65-93.33,0,0,71.97-2.34,86.41-44.23V0h-487.64l-23.88,362.74Z"/>
    <g class="st15">
      <path class="st2" d="M3049.58,266.39c23.18,20.26,58.22,20.1,87.71,11.26,29.49-8.85,56.38-25,85.88-33.8,16.19-4.83,33.06-7.4,49.95-7.6,11.37-.14,23.58,1.11,32.32,8.39,16.61,13.84,11.13,42.21-4.3,57.36s-37.16,21.45-56.85,30.4c-33.97,15.45-64.47,41.34-78.83,75.79-7.84,18.83-9.44,43.32,5.63,57.07,7.58,6.92,17.99,9.75,28.11,11.47,85.81,14.59,170.94-34.7,257.87-30.34"/>
      <path class="st2" d="M3070.19,209.43c38.82,8.77,81.02,1.5,114.67-19.77,25.33-16.01,47.47-40.15,77.14-44.29,24.78-3.46,49.72,8.46,67.79,25.77s30.48,39.55,42.61,61.43"/>
    </g>
  </g>
  <path class="st30" d="M1224.7,1297.62c49.15,0,299.34-12.57,326.15-18.57,26.81-6-8.94-251.59-91.59-247.19s-55.85,64.33-55.85,64.33c0,0-91.59-159.13-189.88-120.7s-31.27,158.07-31.27,158.07c0,0-134.03-73.78-136.27,8.28s178.71,155.78,178.71,155.78Z"/>
  <path class="st30" d="M3025.81,1219.17c28.35,3.89,173.51,29.2,207.24,16.87,33.73-12.33,126.76-171.02,66.73-188.89-60.03-17.87-100.24,53.86-100.24,53.86,0,0-15.51-66.14-74.79-34.07-59.28,32.07-34.2,87.56-34.2,87.56,0,0-39.13-51.15-64.74-33.04s11.35,47.84,11.35,47.84c0,0-66.77,42.28-11.35,49.88Z"/>
  <path class="st35" d="M1537.67,1316.03c-9.84-18.33-9.1-70.2,20.8-72.8s65-24.7,93.61-24.7,96.21,35.1,98.81,48.75c2.6,13.65,5.2,35.75-6.5,48.75-11.7,13-53.01,8.65-53.01,8.65,0,0,10.6-8.01,6.3-12.93-4.3-4.91-15.36,12.93-15.36,12.93,0,0-68.19.02-78.63,0,0,0,15.36-37.5,4.91-38.73-10.44-1.23-16.59,24.57-16.59,24.57,0,0,4.3-25.19-8.6-25.19s7.99,40.15-1.23,40.04c-9.22-.11-39.24.45-44.5-9.35Z"/>
  <path class="st6" d="M1937.89,1082.98c21.02-9.93,57.11-25.07,103.58-4.74,46.46,20.33-.97,53.24-58.08,44.53-57.11-8.71-74.95-25.86-45.5-39.78Z"/>
  <path class="st6" d="M1890.69,1150.21c-39.78,7.96-12.75,39.67,22.67,41.08,35.42,1.42,80.75-21.25,56.67-34s-51-12.75-79.33-7.08Z"/>
  <path class="st6" d="M3164.68,1371.1c68.42,18.16,161.27-7.99,124.45-39.06-36.83-31.07-111.16-17.91-135-13.46-23.84,4.44-49.65,36.54,10.55,52.52Z"/>
  <path class="st35" d="M916.3,1143.42c1.19-21.42,2.38-92.55-40.46-94.47-42.84-1.91-67.82,19.5-101.14,19.5-33.32,0-63.06,17.19-78.53,47.86-15.47,30.67-5.95,27.1,29.75,27.1,35.7,0,52.35.13,52.35.13,0,0-16.66-17.45-15.47-27.23,1.19-9.78,23.8,2.16,29.75,12.25,0,0,25.11-25.6,30.4-16.08,5.29,9.52-5.42,31.06-5.42,31.06l98.76-.13Z"/>
  <g>
    <path class="st4" d="M277.35,1261.13h45.65s-12.74-36.47,0-34.19c12.74,2.28,22.29,28.82,22.29,28.82,0,0,0-26.54,12.74-22.29,12.74,4.25,0,27.67,0,27.67h92.36s5.31-105.45-64.76-111.68c-70.06-6.22-98.73,82.02-108.28,111.68Z"/>
    <g>
      <path class="st10" d="M248.68,1112.45c-7.43,24.76,14.86,86.66,133.76,92.69,118.9,6.03,136.94-10.5,138.01-25.59,1.06-15.09-4.25-26.76-28.66-52.24-24.42-25.48,0-115.71-82.8-121.02-82.8-5.31-75.37,60.97-101.91,74.01-26.54,13.04-48.83.31-58.39,32.15Z"/>
      <g class="st13">
        <path class="st32" d="M235.4,1104.87c29.68-5.3,61.1-.29,87.67,13.97,12.06,6.47,23.07,14.74,34.94,21.55,29.57,16.95,64.46,24.44,98.38,21.13,14.17-1.38,28.13-4.6,42.34-5.45s29.12.85,41.13,8.5c12.01,7.65,20.3,22.28,17.28,36.19-2.48,11.43-11.72,20.14-21.35,26.78-27.85,19.19-62.38,27.12-96.2,26.93s-67.17-8.07-99.42-18.27c-30.83-9.75-61.7-22.1-85.73-43.73-24.03-21.63-40.27-54.21-35.05-86.12.67-4.08,3.31-9.19,7.31-8.15"/>
      </g>
    </g>
  </g>
  <path class="st6" d="M818.83,1271.95c20.4-12.96,86.04-28.91,123.41-10.82s16.49,46.51-32.76,46.51-117.45-18.66-90.65-35.69Z"/>
  <path class="st6" d="M733.28,1206.41c-25.04.97-5.68,33.1,13.26,34.01,18.95.91,49.06-3.01,39.69-21.9-9.37-18.88-32.11-12.92-52.95-12.11Z"/>
  <path class="st6" d="M43.58,1078.38c35.79-4.3,47.37,4.49,47.37,27.82s-49.26,24.04-75.79,18-18.95-40.14,28.42-45.83Z"/>
  <path class="st9" d="M69.13,1231.2c2.8-.99,5.08.94,6.62,3.15,1.93,2.78,2.79,5.94,3.59,9.19,2,8.22,3.1,16.62,3.34,25.07.05,1.93,3.05,1.93,3,0-.26-9.5-1.59-18.98-4.03-28.17-1.49-5.6-6.01-14.7-13.3-12.13-1.81.64-1.03,3.54.8,2.89h0Z"/>
  <path class="st9" d="M104.58,1224.38c0,15.88,0,31.76,0,47.64,0,1.93,3,1.93,3,0,0-15.88,0-31.76,0-47.64,0-1.93-3-1.93-3,0h0Z"/>
  <path class="st9" d="M120.84,1269.13c-.41-4.26-.89-8.67-.05-12.91s2.91-7.49,5.16-10.87c4.87-7.3,10.03-14.42,15.43-21.35,1.17-1.5-.93-3.64-2.12-2.12-5.65,7.24-11.07,14.67-16.14,22.32-2.38,3.59-4.55,7.36-5.3,11.66s-.4,8.84.03,13.26c.18,1.9,3.19,1.92,3,0h0Z"/>
  <path class="st9" d="M140.7,1268.56c-.2-5.38,1.68-10.72,5.3-14.72,1.29-1.43-.82-3.56-2.12-2.12-4.14,4.58-6.41,10.66-6.17,16.84.07,1.92,3.07,1.93,3,0h0Z"/>
  <path class="st9" d="M555.74,985.29c7.12,9.01,10.88,20.43,10.67,31.89-.04,1.93,2.96,1.93,3,0,.23-12.31-3.93-24.37-11.55-34.02-1.2-1.51-3.31.62-2.12,2.12h0Z"/>
  <path class="st9" d="M577.74,977.34v37.27c0,1.93,3,1.93,3,0v-37.27c0-1.93-3-1.93-3,0h0Z"/>
  <path class="st9" d="M603.82,987.01c-9.47,5.88-15.52,16.46-15.78,27.6-.05,1.93,2.95,1.93,3,0,.24-10.07,5.74-19.69,14.3-25.01,1.64-1.02.13-3.61-1.51-2.59h0Z"/>
  <path class="st9" d="M135.19,950.16c9.62,6.22,15.96,17.05,16.65,28.49.12,1.92,3.12,1.93,3,0-.76-12.54-7.59-24.26-18.14-31.08-1.63-1.05-3.13,1.54-1.51,2.59h0Z"/>
  <path class="st9" d="M158.84,943.93c-.66,10.01-.28,20.04,1.07,29.98.11.81,1.14,1.23,1.85,1.05.87-.23,1.16-1.05,1.05-1.85-1.31-9.66-1.6-19.45-.96-29.18.13-1.93-2.87-1.92-3,0h0Z"/>
  <path class="st9" d="M180.35,946.81c-4.86,10.82-7.48,22.51-7.64,34.38-.03,1.93,2.97,1.93,3,0,.15-11.31,2.6-22.54,7.23-32.86.78-1.75-1.8-3.27-2.59-1.51h0Z"/>
  <path class="st9" d="M196.98,960.12c-2.7,9.05-3.34,18.53-1.97,27.87.28,1.9,3.17,1.09,2.89-.8-1.28-8.79-.57-17.77,1.97-26.27.55-1.85-2.34-2.65-2.89-.8h0Z"/>
  <path class="st9" d="M938.16,1186.66c10.96,8.15,17.59,21.56,17.58,35.2,0,1.93,3,1.93,3,0,.01-14.77-7.23-28.99-19.06-37.79-1.55-1.15-3.05,1.45-1.51,2.59h0Z"/>
  <path class="st9" d="M969.2,1174.22c.52,14.89,1.04,29.78,1.56,44.67.07,1.93,3.07,1.93,3,0-.52-14.89-1.04-29.78-1.56-44.67-.07-1.93-3.07-1.93-3,0h0Z"/>
  <path class="st9" d="M991.29,1186.06l-4.44,46.17c-.18,1.92,2.82,1.91,3,0l4.44-46.17c.18-1.92-2.82-1.91-3,0h0Z"/>
  <path class="st9" d="M1016.37,1193.67c-6.18,10.92-10.53,22.83-12.83,35.17-.35,1.89,2.54,2.7,2.89.8,2.26-12.1,6.48-23.74,12.53-34.45.95-1.68-1.64-3.2-2.59-1.51h0Z"/>
  <path class="st9" d="M1816.62,1243.69c14.76,2.03,27.5,13.36,31.09,27.85.46,1.87,3.36,1.08,2.89-.8-2.95-11.92-11.82-22.13-23.04-27.04-3.25-1.42-6.63-2.42-10.14-2.9-.81-.11-1.6.2-1.85,1.05-.2.7.25,1.73,1.05,1.85h0Z"/>
  <path class="st9" d="M1858.64,1232.29v31.27c0,1.93,3,1.93,3,0v-31.27c0-1.93-3-1.93-3,0h0Z"/>
  <path class="st9" d="M1878.34,1237.57c-5.51,9.14-8.29,19.79-7.93,30.46.07,1.93,3.07,1.93,3,0-.34-10.17,2.26-20.23,7.52-28.95,1-1.66-1.59-3.17-2.59-1.51h0Z"/>
  <path class="st9" d="M2859.37,1089.57c14.6,5.76,26.69,17.15,33.49,31.27.71,1.47,2.66.57,2.8-.76.12-1.21.24-2.43.36-3.64.19-1.92-2.81-1.91-3,0-.12,1.21-.24,2.43-.36,3.64l2.8-.76c-7.16-14.86-19.97-26.6-35.29-32.65-1.8-.71-2.58,2.19-.8,2.89h0Z"/>
  <path class="st9" d="M2898.77,1083.96c-1.16,12.5.3,25.18,4.24,37.1.6,1.82,3.5,1.04,2.89-.8-3.87-11.69-5.27-24.04-4.14-36.3.18-1.92-2.82-1.91-3,0h0Z"/>
  <path class="st9" d="M2925.02,1089.17c-7.06,8.36-9.9,19.71-7.54,30.41.41,1.88,3.31,1.09,2.89-.8-2.11-9.58.44-19.99,6.77-27.49,1.24-1.47-.87-3.6-2.12-2.12h0Z"/>
</svg>