<?xml version="1.0" encoding="UTF-8"?>
<svg id="Capa_1" xmlns="http://www.w3.org/2000/svg" width="1524.17" height="506.4" version="1.1" viewBox="0 0 1524.17 506.4">
  <!-- Generator: Adobe Illustrator 29.4.0, SVG Export Plug-In . SVG Version: 2.1.0 Build 152)  -->
  <defs>
    <style>
      .st0 {
        fill: #ceb33e;
      }

      .st1 {
        fill: #bca33b;
      }

      .st2 {
        fill: #415256;
      }

      .st3 {
        fill: #c9d67c;
      }

      .st4 {
        fill: #8c7a2d;
      }

      .st5 {
        fill: none;
        stroke: #ddc55f;
        stroke-linecap: round;
        stroke-linejoin: round;
        stroke-width: 4px;
      }
    </style>
  </defs>
  <path class="st3" d="M0,328.83s403.98-88.82,561.47-124.4c157.48-35.58,471.07-5,719.97,52.43,248.9,57.43,242.72,189.54,242.72,189.54L0,506.4v-177.58Z"/>
  <g>
    <path class="st2" d="M622.55,233.97c0,9.05-4.94,37.84,0,41.96s32.08,4.94,41.13,0c9.05-4.94,0-47.71,0-47.71l-41.13,5.76Z"/>
    <path class="st1" d="M579.65,234.41c-9.97,14.34,90.02,22.84,122.27,8.06s-4.45-49.71-11.63-88.68-11.58-87.34-42.97-76.59c-31.39,10.75-46.17,126.3-67.67,157.2Z"/>
    <path class="st5" d="M679.94,180.51c3.51,12.37,4.9,25.34,4.09,38.18"/>
    <path class="st5" d="M652.84,174.59c-3.74,8.43-5.62,17.67-5.49,26.89"/>
    <path class="st5" d="M633.82,147.32c.48,10.15-.75,20.38-3.63,30.12"/>
    <path class="st5" d="M656.07,110.91l1.8,33.53"/>
    <path class="st5" d="M617.73,199.52c-1.47,10.49-2.2,21.08-2.2,31.66"/>
  </g>
  <g>
    <path class="st2" d="M475.26,283.8s-6.58,32.99-4.94,42.82,38.67,5.8,39.49,0-5.76-48.08-5.76-48.08l-28.79,5.26Z"/>
    <path class="st4" d="M447.69,285.45c1.6,13.9,82.49,13.61,95.66,5.55s6.45-169.58-20.42-170.11-79.27,129.44-75.24,164.56Z"/>
    <path class="st5" d="M482.9,238.54c-.96,11.63-1.28,23.3-.97,34.96"/>
    <path class="st5" d="M527.98,231.81c1.02,10.41.3,20.99-2.12,31.17"/>
    <path class="st5" d="M508.18,202.13c1.29,9.23,1.88,18.56,1.78,27.89-.03,2.6-.14,5.32-1.44,7.57"/>
    <path class="st5" d="M514.17,147.2c-1.28.7-1.66,2.31-1.92,3.75-.62,3.41-1.23,6.81-1.85,10.22-.96,5.29-1.92,10.65-1.41,16"/>
    <path class="st5" d="M530.95,176.21c.19,8.79.14,17.58-.14,26.37"/>
  </g>
  <g>
    <path class="st2" d="M944.46,289.13s4.94,19.74,4.94,26.33-29.62,8.23-29.62,3.29,3.29-29.62,3.29-29.62h21.39Z"/>
    <path class="st1" d="M902.17,297.93c5.99,11.27,53,9.41,61.06,0s-4.44-85.11-28.42-86.22-42.45,67.76-32.64,86.22Z"/>
    <path class="st5" d="M931.66,249.57c-1.21,1-1.3,2.79-1.3,4.36.02,9.25.04,18.49.05,27.74"/>
    <path class="st5" d="M943.04,231.54c2.38,6.88,3.7,14.12,3.88,21.4"/>
    <path class="st5" d="M916.03,269.27v24.16"/>
  </g>
  <g>
    <path class="st2" d="M310.51,204.75c0,25.58-7.1,107.26,5.68,116.15,12.79,8.89,60.67-.96,55.91-10.96s-23.23-113.71-23.23-113.71l-38.36,8.52Z"/>
    <path class="st0" d="M275.11,212.68c16.06,13.09,94.33,11.93,119.27,0C419.32,200.76,341.25-6.67,305.47.17c-35.78,6.84-59.64,188.66-30.36,212.52Z"/>
    <path class="st5" d="M303.78,135.46c-1.69,16.59.15,33.52,5.38,49.35"/>
    <path class="st5" d="M341.67,123.43c.62,13.66,2.1,27.27,4.43,40.74"/>
    <path class="st5" d="M310.42,69.41c2.48,17.21,4.96,34.41,7.44,51.62"/>
    <path class="st5" d="M319.61,35.97c3.46,10.73,6.93,21.45,10.39,32.18"/>
  </g>
</svg>