<?xml version="1.0" encoding="UTF-8"?>
<svg id="Capa_1" xmlns="http://www.w3.org/2000/svg" width="3460.69" height="918.61" version="1.1" viewBox="0 0 3460.69 918.61">
  <!-- Generator: Adobe Illustrator 29.4.0, SVG Export Plug-In . SVG Version: 2.1.0 Build 152)  -->
  <defs>
    <style>
      .st0 {
        fill: #7f9aa0;
      }
    </style>
  </defs>
  <path class="st0" d="M0,525.35c38.63-27.77,119.27-88.6,161-141.65s52.69-168.14,80.1-177.27,138.84-16.44,182.68-9.13S442.04,0,568.09,0s126.05,12.79,142.49,43.84,51.15,295.94,115.09,305.07,230.18-52.98,284.98,9.13,18.27,128.6,84.03,127.33,111.43-143.77,135.18-145.59,109.61,7.31,155.28,12.79,38.36,181.53,102.3,183.36,115.92-3.65,142.91-5.48,6.89-101.34,43.43-103.17,157.1,10.96,182.68-3.65c25.58-14.61,49.32-215.37,157.1-220.85s175.37,1.06,199.12,59.9c23.75,58.84,21.92,177.58,65.76,199.5,43.84,21.92,108.65,57.96,239.69,63.17,131.04,5.22,205.92-83.28,231.45-129.23,25.53-45.95,49.35-140.74,153.16-133.34,103.81,7.4,270.59,21.02,331.85,29.53s85.09,175.29,93.6,197.41c8.51,22.12,32.5,25.53,32.5,25.53v403.36H0v-393.26Z"/>
</svg>