<?xml version="1.0" encoding="UTF-8"?>
<svg id="Capa_1" xmlns="http://www.w3.org/2000/svg" width="645.31" height="374.54" version="1.1" viewBox="0 0 645.31 374.54">
  <!-- Generator: Adobe Illustrator 29.4.0, SVG Export Plug-In . SVG Version: 2.1.0 Build 152)  -->
  <defs>
    <style>
      .st0 {
        fill: #fff;
      }
    </style>
  </defs>
  <path class="st0" d="M47.03,273.8c38.75,32.78,401.12,4.22,450.36,6.76,49.24,2.53,41.61-86.12,6.42-85.25-35.19.87-41.98,28.55-41.98,28.55,0,0,66.91-171.12,13.96-200.95-52.95-29.82-135.23-28.97-214.55,73.1,0,0-19.97-15.6-58.1,7.37-38.14,22.97-39.23,68.69-39.23,68.69,0,0-31.18.13-50,11.17-18.82,11.04-18.74,28.35-18.74,28.35,0,0-107.67,11.85-48.14,62.22Z"/>
  <path class="st0" d="M557.73.6c-30.74,2.93-31.04,41.02-9.98,47.67s97.55,13.3,97.55-8.87S604.29-3.84,557.73.6Z"/>
  <path class="st0" d="M29.09,329.84c22.01.77,73.02-1.11,71.91,24.39s-50.99,21.06-80.93,17.74-25.95-43.35,9.02-42.13Z"/>
</svg>