<?xml version="1.0" encoding="UTF-8"?>
<svg id="Capa_1" xmlns="http://www.w3.org/2000/svg" width="1416.77" height="1015.29" xmlns:xlink="http://www.w3.org/1999/xlink" version="1.1" viewBox="0 0 1416.77 1015.29">
  <!-- Generator: Adobe Illustrator 29.4.0, SVG Export Plug-In . SVG Version: 2.1.0 Build 152)  -->
  <defs>
    <style>
      .st0 {
        stroke: #2e4144;
      }

      .st0, .st1 {
        fill: none;
        stroke-miterlimit: 10;
        stroke-width: 5px;
      }

      .st2 {
        fill: #415256;
      }

      .st3 {
        clip-path: url(#clippath-1);
      }

      .st4 {
        fill: #cd6262;
      }

      .st1 {
        stroke: #af4545;
      }

      .st5 {
        clip-path: url(#clippath);
      }
    </style>
    <clipPath id="clippath">
      <path class="st2" d="M72.22,1014.67s36.58,1.41,81.61,0c45.02-1.41,76.11-9.28,76.11-9.28,0,0-39.53-58.71-19.83-66.93s39.07,44.58,39.07,44.58c0,0-15.55-70.67,9.97-67.36,25.53,3.31,10.05,57.64,10.05,57.64,0,0,15.22-30.41,29.42-21.97,14.2,8.44-9.72,54.04-9.72,54.04,0,0,44.53,13.24,128.5,0,83.96-13.24,137.61-21.68,174.81-14.64s65.34-7.71,65.34-7.71c0,0-88.94-87.97-95.83-176.61-6.89-88.64-30.81-171.66,102.86-232.16,133.67-60.5,208.24-146.33,287.03-167.43,78.79-21.11,218.09-60.5,272.96-80.2s35.18-211.05,35.18-211.05l-32.36,16.88s12.66,26.73-25.33,109.75-173.06,67.54-173.06,67.54c0,0,83.01-50.65,111.15-147.74,28.14-97.08,21.11-112.56,21.11-112.56h-73.88s-6.32,181.5-131.54,253.26-234.97,129.45-275.77,118.19c-40.8-11.26,9.85-212.46,9.85-212.46h-66.13s-26.73,240.6-132.96,299.69c-106.23,59.09-158.29-46.43-173.77-111.15s-14.72-187.13-14.72-187.13l-76.73,15.48-7.04,280s-80.47-22.51-90.32-108.34-16.09-161.81-16.09-161.81l-27.52,8.44s-5.63,240.6,43.62,303.92,90.32,68.94,90.32,68.94c0,0-98.49,209.65-146.33,398.19Z"/>
    </clipPath>
    <clipPath id="clippath-1">
      <path class="st4" d="M25.9,0s-90.24,222.45,66.17,271.78,227.4-45.72,227.4-45.72c0,0-25.27,133.55,91.44,133.55s117.91-146.79,117.91-146.79c0,0-16.41,132.35,176.48,86.63,192.9-45.72,176.05-143.18,176.05-143.18,0,0-9.63,105.88,43.31,107.08s73.39-72.19,73.39-72.19c0,0,350.13,125.41,418.71-191.16H25.9Z"/>
    </clipPath>
  </defs>
  <g>
    <path class="st2" d="M72.22,1014.67s36.58,1.41,81.61,0c45.02-1.41,76.11-9.28,76.11-9.28,0,0-39.53-58.71-19.83-66.93s39.07,44.58,39.07,44.58c0,0-15.55-70.67,9.97-67.36,25.53,3.31,10.05,57.64,10.05,57.64,0,0,15.22-30.41,29.42-21.97,14.2,8.44-9.72,54.04-9.72,54.04,0,0,44.53,13.24,128.5,0,83.96-13.24,137.61-21.68,174.81-14.64s65.34-7.71,65.34-7.71c0,0-88.94-87.97-95.83-176.61-6.89-88.64-30.81-171.66,102.86-232.16,133.67-60.5,208.24-146.33,287.03-167.43,78.79-21.11,218.09-60.5,272.96-80.2s35.18-211.05,35.18-211.05l-32.36,16.88s12.66,26.73-25.33,109.75-173.06,67.54-173.06,67.54c0,0,83.01-50.65,111.15-147.74,28.14-97.08,21.11-112.56,21.11-112.56h-73.88s-6.32,181.5-131.54,253.26-234.97,129.45-275.77,118.19c-40.8-11.26,9.85-212.46,9.85-212.46h-66.13s-26.73,240.6-132.96,299.69c-106.23,59.09-158.29-46.43-173.77-111.15s-14.72-187.13-14.72-187.13l-76.73,15.48-7.04,280s-80.47-22.51-90.32-108.34-16.09-161.81-16.09-161.81l-27.52,8.44s-5.63,240.6,43.62,303.92,90.32,68.94,90.32,68.94c0,0-98.49,209.65-146.33,398.19Z"/>
    <g class="st5">
      <path class="st0" d="M66.92,1082.23c-10.44-55.93,7.65-114.58,39.98-161.4,32.33-46.82,77.84-83.05,125.78-113.69,66.15-42.29,138.22-75.29,213.45-97.74,64.8-19.34,132.43-31.08,193.36-60.44,103.88-50.06,180.94-152.31,200.44-265.96,4.68-27.31,6.13-55.99-2.87-82.2"/>
      <path class="st0" d="M740.54,355.5c-2.81,54.56-34.94,102.98-69.4,145.37-35.84,44.08-76.91,86.14-128.95,108.94-31.89,13.97-66.56,20.11-100.85,26.14-50.1,8.81-100.2,17.62-150.38,26-45.17,7.54-91.05,14.93-132.61,34.17-77.24,35.76-130.84,108.24-172.36,182.54"/>
      <path class="st0" d="M197.16,353.51c13.21,34.72,46.01,61.21,82.73,66.82,15.41,2.35,32.41.84,44.51-8.99,7.65-6.21,12.58-15.08,17.14-23.81,6.63-12.68,12.88-25.57,18.75-38.62"/>
      <path class="st0" d="M1057.43,402.92c-10.66-19.87-29.26-34.9-50.18-43.32s-44.03-10.54-66.48-8.41c-3.69.35-7.48.85-10.69,2.7-3.5,2.02-5.93,5.44-8.25,8.75-7.96,11.36-15.92,22.72-23.27,34.48-8.69,13.89-16.67,31.33-9.39,46.01"/>
      <path class="st0" d="M601.41,814.31c-30.36-15.95-67.48-18.45-99.7-6.71-32.22,11.74-59.04,37.52-72.03,69.26-10.43,25.48-12.06,53.69-11.2,81.21.49,15.66,1.78,31.53,7.16,46.24,16.18,44.34,63.86,67.38,107.22,86.04"/>
    </g>
  </g>
  <g>
    <path class="st4" d="M25.9,0s-90.24,222.45,66.17,271.78,227.4-45.72,227.4-45.72c0,0-25.27,133.55,91.44,133.55s117.91-146.79,117.91-146.79c0,0-16.41,132.35,176.48,86.63,192.9-45.72,176.05-143.18,176.05-143.18,0,0-9.63,105.88,43.31,107.08s73.39-72.19,73.39-72.19c0,0,350.13,125.41,418.71-191.16H25.9Z"/>
    <g class="st3">
      <path class="st1" d="M103.49-51.79c-6.86,49.55,13.81,102.02,52.62,133.58,65.3,53.1,162.07,40.54,240.4,9.75,78.33-30.79,152.65-77.33,236.44-85.29,164.87-15.67,320.75,121.61,483.14,89.13,72.55-14.51,134.25-61.52,187.7-112.67,35.61-34.08,70.35-73.47,78.92-122"/>
      <path class="st1" d="M-9.02,263.76c25-72.59,113.36-116.2,186.19-91.91,81.69,27.25,125.57,119.11,203.44,155.85,11.23,5.3,23.71,9.43,35.93,7.18,9.88-1.82,18.56-7.64,26.32-14.02,43.42-35.67,65.86-89.99,91.54-139.98,25.68-49.98,60.36-101.01,113.85-118.24,34.69-11.17,72.4-6.32,108.08,1.15,21.01,4.39,42.88,10.22,58.3,25.14,14.51,14.05,21.16,34.06,28.54,52.85,54.84,139.51,179.9,249.31,325.34,285.64"/>
      <path class="st1" d="M1296.26,236.92c4.57-27.41,7.78-59.47-11.75-79.24-6.38-6.46-14.58-10.79-22.84-14.55-32.56-14.8-73.7-21.15-102.01.71-10.61,8.19-18.28,19.54-25.34,30.93-17.6,28.38-32.67,58.33-44.96,89.38"/>
    </g>
  </g>
</svg>