<?xml version="1.0" encoding="UTF-8"?>
<svg id="Capa_1" xmlns="http://www.w3.org/2000/svg" width="2299.76" height="986.94" xmlns:xlink="http://www.w3.org/1999/xlink" version="1.1" viewBox="0 0 2299.76 986.94">
  <!-- Generator: Adobe Illustrator 29.4.0, SVG Export Plug-In . SVG Version: 2.1.0 Build 152)  -->
  <defs>
    <style>
      .st0 {
        stroke: #606028;
      }

      .st0, .st1 {
        fill: none;
        stroke-miterlimit: 10;
        stroke-width: 5px;
      }

      .st2 {
        fill: #d87544;
      }

      .st3 {
        fill: #e2a771;
      }

      .st4 {
        clip-path: url(#clippath-1);
      }

      .st5 {
        fill: #797a43;
      }

      .st1 {
        stroke: #f4d6a6;
      }

      .st6 {
        fill: #c9d67c;
      }

      .st7 {
        clip-path: url(#clippath);
      }
    </style>
    <clipPath id="clippath">
      <path class="st5" d="M537.79,482.68s-10.21-38.91,7.43-64.48c17.64-25.57,51.77-29.29,55.59-52.5s-3.6-115.16-3.6-115.16l62.2-86.3,32.49,19.5s-10.21,103.98,0,149.47,30.64,50.13,52.92,62.2,32.49,47.35,26.92,65.92l-233.96,21.35Z"/>
    </clipPath>
    <clipPath id="clippath-1">
      <path class="st3" d="M911.01,48.19c-29.71-41.78-77.99-60.35-169.9-32.49-91.91,27.85-205.18,2.79-265.52-13.93-50.18-13.9-138.33,55.7-127.19,154.12,11.14,98.41,30.64,192.18,79.84,184.75s47.35-63.13,47.35-63.13c0,0,8.97,84.49,59.26,69.63,50.29-14.85,47.5-126.26,47.5-126.26,0,0,8.36,83.56,50.13,60.35,18.74-10.41,28.14-24.19,32.81-36.21-4.7,34.86-8.83,91.28,13.61,91.92,23.16.66,27.45-59.99,28.01-94.89,3.1,20.76,15.7,46.89,60.19,42.9,61.2-5.49,64.05-73.98,63.46-95.06,1.5,21.78,9.44,94.13,48.88,94.13,46.42,0,61.27-194.04,31.57-235.82Z"/>
    </clipPath>
  </defs>
  <g>
    <path class="st5" d="M537.79,482.68s-10.21-38.91,7.43-64.48c17.64-25.57,51.77-29.29,55.59-52.5s-3.6-115.16-3.6-115.16l62.2-86.3,32.49,19.5s-10.21,103.98,0,149.47,30.64,50.13,52.92,62.2,32.49,47.35,26.92,65.92l-233.96,21.35Z"/>
    <g class="st7">
      <path class="st0" d="M587.71,339.1c-1.71,16.55-3.03,34.71,6.49,48.35,8.36,11.98,23.34,17.56,37.81,19.54s29.25,1.04,43.67,3.37c26.97,4.36,51.79,20.64,66.53,43.64,14.74,23,19.16,52.36,11.85,78.68"/>
      <path class="st0" d="M629.53,263.39c-2.86,30.19,1.62,61.05,12.95,89.18,3.17,7.88,6.94,15.64,12.47,22.09,14.07,16.41,38.74,21.8,59.29,15.07,20.55-6.73,36.62-24.26,44.13-44.54"/>
    </g>
  </g>
  <g>
    <path class="st3" d="M911.01,48.19c-29.71-41.78-77.99-60.35-169.9-32.49-91.91,27.85-205.18,2.79-265.52-13.93-50.18-13.9-138.33,55.7-127.19,154.12,11.14,98.41,30.64,192.18,79.84,184.75s47.35-63.13,47.35-63.13c0,0,8.97,84.49,59.26,69.63,50.29-14.85,47.5-126.26,47.5-126.26,0,0,8.36,83.56,50.13,60.35,18.74-10.41,28.14-24.19,32.81-36.21-4.7,34.86-8.83,91.28,13.61,91.92,23.16.66,27.45-59.99,28.01-94.89,3.1,20.76,15.7,46.89,60.19,42.9,61.2-5.49,64.05-73.98,63.46-95.06,1.5,21.78,9.44,94.13,48.88,94.13,46.42,0,61.27-194.04,31.57-235.82Z"/>
    <g class="st4">
      <path class="st1" d="M307.98,164.66c3.71-15.94,18.75-26.55,33.68-33.23,30.36-13.58,65.11-17.09,97.57-9.87,33.2,7.39,62.94,25.32,94.41,38.23,60.68,24.88,132.06,30.25,190.87,1.23,44.14-21.77,78.2-61.68,96.56-107.34s21.59-96.67,13.18-145.16c-3.6-20.75-10.11-42.5-26.32-55.94"/>
      <path class="st1" d="M354.35,52.86c16.55-20.42,47.04-28.14,71.32-18.05,23.88,9.92,38.86,33.4,58.85,49.79,30.12,24.7,74.31,32.25,109.72,16.02,35.41-16.23,58.9-56.84,52.34-95.24-6.56-38.4-44.69-69.6-83.44-65.61"/>
      <path class="st1" d="M336.28,233.31c-6.59-16.84,4.92-36.42,20.82-45.04s34.81-9.03,52.9-9.1c22.65-.09,46.27.27,66.4,10.66,19.78,10.21,33.6,28.76,48.97,44.88,23.57,24.73,52.82,45,85.98,53.2,33.16,8.21,70.44,3.17,97.41-17.79,32.21-25.04,45.67-68.1,76.34-95.01,15.99-14.02,35.97-22.94,56.58-28.17,48.46-12.3,101.73-4.31,144.45,21.65"/>
    </g>
  </g>
  <path class="st6" d="M0,864.25s225.53-124.68,358.62-272.84c133.09-148.16,237.4-145.08,386.14-142.85s665.02,237.88,748.4,255.66c83.38,17.77,159.96-81.71,354.39-79.86s296.52,220.43,452.21,249.61l-1317.45,112.97L0,864.25Z"/>
  <path class="st2" d="M509.57,540.84c21.2,0,6.75,40.48-8.67,53.97-15.42,13.49-28.84,13.59-36.23,0s18.88-53.97,44.9-53.97Z"/>
  <path class="st2" d="M702.76,478.92c-9.89,14.27,17.07,24.86,41.26,23.64,28.42-1.43,42.29-11.69,29.22-23.64-6.46-5.91-55.84-21.13-70.48,0Z"/>
  <path class="st2" d="M745.06,538.49c-.46,14.32,5.7,18.42,33.65,18.42s15.42-26.02,0-27.95c-15.42-1.93-33.31-1.21-33.65,9.53Z"/>
  <path class="st2" d="M799.92,478.92c-6.09,12.11,8.67,31.73,37.59,33.66s13.49-29.73,0-33.66c-13.49-3.93-30.84-13.42-37.59,0Z"/>
</svg>