<?xml version="1.0" encoding="UTF-8"?>
<svg id="Capa_1" xmlns="http://www.w3.org/2000/svg" width="3460.69" height="959.64" version="1.1" viewBox="0 0 3460.69 959.64">
  <!-- Generator: Adobe Illustrator 29.4.0, SVG Export Plug-In . SVG Version: 2.1.0 Build 152)  -->
  <defs>
    <style>
      .st0 {
        fill: #bfc6d1;
      }

      .st1 {
        fill: #7f9aa0;
      }
    </style>
  </defs>
  <path class="st0" d="M2960.54,441.08s-5.87-225.12,61.05-222.77,65.75,153.8,65.75,153.8c0,0,18.79-93.93,76.31-92.75s68.1,175.92,68.1,175.92c0,0,2.7-69.67,44.79-68.2s80.84,167.01,80.84,167.01l-54.01,101.89-351.05-107.76,8.22-107.14Z"/>
  <path class="st1" d="M0,551.33c82.64-4.31,179.9-290.97,233.65-293.53s224.63-21.43,278.68-14.55,125.89,241.35,180.83,234.17,78.44-88.17,126.61-90.92,202.2-71.67,263.63-24.68,145.89,122.77,240.59,115.59,227.8,83.32,227.8,83.32l380.21-83.32s226.33-309.2,298.03-403.9S2392.04-1.25,2460.78,9.26s155.03,388.66,220.66,408.18,237.67-1.61,350.01,0,178.17,154.55,245.08,184.3,93.66-223.64,139.9-259.47l44.26-21.49v638.87H0v-408.31"/>
</svg>