<?xml version="1.0" encoding="UTF-8"?>
<svg id="Capa_1" xmlns="http://www.w3.org/2000/svg" width="567.93" height="292.45" version="1.1" viewBox="0 0 567.93 292.45">
  <!-- Generator: Adobe Illustrator 29.4.0, SVG Export Plug-In . SVG Version: 2.1.0 Build 152)  -->
  <defs>
    <style>
      .st0 {
        fill: #fff;
      }
    </style>
  </defs>
  <path class="st0" d="M396.72,289.89c67.74-.42,172.79,6.07,171.19-13.3-1.6-19.37-21.04-80.89-85.59-57.62,0,0,5.26-39.82-12.47-54.3-17.73-14.48-36.57-18.84-36.57-18.84,0,0,29.92-157.35-124.11-145.16-154.03,12.19-139.62,187.27-139.62,187.27,0,0-49.23-34.35-88.33-7.76-39.1,26.59-21.37,69.81-21.37,69.81,0,0-57.62-13.21-59.84,19.44-2.22,32.64,272.5,21.23,396.7,20.46Z"/>
</svg>