<?xml version="1.0" encoding="UTF-8"?>
<svg id="Capa_1" xmlns="http://www.w3.org/2000/svg" width="572.49" height="385.59" version="1.1" viewBox="0 0 572.49 385.59">
  <!-- Generator: Adobe Illustrator 29.4.0, SVG Export Plug-In . SVG Version: 2.1.0 Build 152)  -->
  <defs>
    <style>
      .st0 {
        fill: #fff;
      }
    </style>
  </defs>
  <path class="st0" d="M.97,240.06c4.53,20.82,416.27,5.81,466.7,0,50.43-5.81,4.37-106.53-72.35-79.41,0,0,29.41-87.16-30.43-87.16s-71.46,50.36-71.46,50.36c0,0-30.14-172.38-174.32-110.4C-17.75,72.29,57.11,199.38,57.11,199.38c0,0-65.82-3.87-56.14,40.67Z"/>
  <path class="st0" d="M413.22,304.87c-2.01-19.55,30.17-28.46,55.42-25.81,25.26,2.65,38.58,20.19,27.36,34.22-11.22,14.03-79.98,18.94-82.78-8.42Z"/>
  <path class="st0" d="M515.7,352.49c23.42.11,62.53,1.66,56.08,18.93-6.45,17.26-97.56,19.57-98.32,2.39-.76-17.18,17.33-21.43,42.24-21.32Z"/>
</svg>