<?xml version="1.0" encoding="UTF-8"?>
<svg id="Capa_1" xmlns="http://www.w3.org/2000/svg" width="3456" height="1572.96" xmlns:xlink="http://www.w3.org/1999/xlink" version="1.1" viewBox="0 0 3456 1572.96">
  <!-- Generator: Adobe Illustrator 29.4.0, SVG Export Plug-In . SVG Version: 2.1.0 Build 152)  -->
  <defs>
    <style>
      .st0, .st1, .st2, .st3 {
        fill: none;
      }

      .st4 {
        fill: #e2d388;
      }

      .st1 {
        stroke: #305442;
        stroke-miterlimit: 10;
      }

      .st1, .st2, .st3 {
        stroke-width: 5px;
      }

      .st5 {
        fill: #d87544;
      }

      .st6 {
        fill: #4a707c;
      }

      .st7 {
        fill: #99a040;
      }

      .st8 {
        fill: #aa573a;
      }

      .st2 {
        stroke: #c9f4f2;
      }

      .st2, .st3 {
        stroke-linecap: round;
        stroke-linejoin: round;
      }

      .st3 {
        stroke: #99a040;
      }

      .st9 {
        clip-path: url(#clippath-1);
      }

      .st10 {
        clip-path: url(#clippath-2);
      }

      .st11 {
        fill: #c68c58;
      }

      .st12 {
        fill: #b6bf56;
      }

      .st13 {
        fill: #f2e7af;
      }

      .st14 {
        fill: #6f929b;
      }

      .st15 {
        fill: #9ce5e3;
      }

      .st16 {
        fill: #4a705e;
      }

      .st17 {
        fill: #6b8e7e;
      }

      .st18 {
        clip-path: url(#clippath);
      }
    </style>
    <clipPath id="clippath">
      <path class="st0" d="M818.73,616.17h675.53s91.78-204.89,47.73-206.72-111.98,113.96-111.98,113.96c0,0,97.29-164.47,62.41-164.92s-82.61,74.95-82.61,74.95c0,0,64.25-142.85,14.69-136.66s-148.33,158.71-148.33,158.71c0,0,98.76-462.75,38.19-455.41-60.57,7.34-178.06,433.35-178.06,433.35,0,0-3.67-178.19-42.22-174.52s-64.25,218.45-64.25,218.45c0,0-58.74-402.01-102.8-372.64s-42.22,442.23-42.22,442.23c0,0-31.21-174.23-77.1-159.54-45.89,14.69,11.01,228.75,11.01,228.75h0Z"/>
    </clipPath>
    <clipPath id="clippath-1">
      <path class="st0" d="M795.55,972.1c254.79-2.96,518.46-19.9,654.7-34.64,136.25-14.74,26.54-60.75-74.32-74.9-100.86-14.16-70.78-42.47,49.55-42.47s86.7-47.88,58.39-49.6-38.07-23.95,86.54-38.88,39.09-60.81-137.85-69.33-681.25-14.15-594.54,32.18c86.7,46.32-38.93,92.01-120.32,95.55s-668.44,19.01-577.85,88.47,476.99,35.78,522.99,35.58-92.01,29-56.62,49.79,125.56,8.99,189.33,8.25h0Z"/>
    </clipPath>
    <clipPath id="clippath-2">
      <path class="st0" d="M3140.75,877.12c-7.43,24.76,14.86,86.66,133.76,92.69s136.94-10.5,138.01-25.59-4.25-26.76-28.66-52.24,0-115.71-82.8-121.02-75.37,60.97-101.91,74.01-48.83.31-58.39,32.15h-.01Z"/>
    </clipPath>
  </defs>
  <g>
    <path class="st12" d="M3059.46,594.33c-37.33-8.3-76-15.18-115.59-20.85,8.32-11.75,17.23-28.24,7.28-34.51-16.16-10.18-27.61,21.24-27.61,21.24,0,0-10.18-24.29-21.37-14.36-6.6,5.85.59,15.85,7.61,23.08-256.36-31.86-545.82-15.91-760.74-1.87-.77-12.34-3.43-36.69-12.33-37.21-9.32-.55-10.51,26.74-10.58,38.72-6.48.43-12.88.85-19.2,1.27,2.6-20.27,6.22-60.38-5.62-61.86-15.86-1.98-16.85,50.05-16.85,50.05,0,0-11.9-33.2-32.47-28.27-13.64,3.26,2.64,27.05,15.17,42.71-9.01.59-17.83,1.16-26.44,1.71-254.9,16.22-498.96,28.01-652.44,0s-405.5-137.84-785.57-141.64c-232.23-2.32-441.69,188.42-601.54,164.19v976.23h3456v-991.16s-270.87,40.74-397.71,12.53h0Z"/>
    <path class="st17" d="M168.01,771.49h104.08s82.81-6.44,61.35-58.54-66.83,9.13-66.83,9.13c0,0,52.59-83.15,13.15-87.54s-70.11,78.4-70.11,78.4c0,0,1.1-61.97-21.91-53.21s-5.48,62.34-5.48,62.34c0,0-35.06-37-49.3-9.13-14.24,27.86,35.06,58.54,35.06,58.54h0Z"/>
    <g>
      <path class="st16" d="M818.73,616.17h675.53s91.78-204.89,47.73-206.72-111.98,113.96-111.98,113.96c0,0,97.29-164.47,62.41-164.92s-82.61,74.95-82.61,74.95c0,0,64.25-142.85,14.69-136.66s-148.33,158.71-148.33,158.71c0,0,98.76-462.75,38.19-455.41s-178.06,433.35-178.06,433.35c0,0-3.67-178.19-42.22-174.52s-64.25,218.45-64.25,218.45c0,0-58.74-402.01-102.8-372.64s-42.22,442.23-42.22,442.23c0,0-31.21-174.23-77.1-159.54-45.89,14.69,11.01,228.75,11.01,228.75h0Z"/>
      <g class="st18">
        <g>
          <path class="st1" d="M1319.16-.06c-2.16,14.34-7.12,28.08-11.87,41.79-35.1,101.22-60.19,205.91-74.77,312.05-5.47,39.78-9.47,79.83-17.85,119.11-11.52,53.96-31.3,106.52-34.75,161.59"/>
          <path class="st1" d="M1439.95,302.1c-58.39,113.66-110.75,230.42-156.79,349.63"/>
          <path class="st1" d="M1498.75,357.76l-142.35,264.68"/>
          <path class="st1" d="M1546.53,416.04c1.84,16.38-7.09,31.82-15.45,46.02-37.72,64.09-70.6,131.04-98.27,200.07"/>
          <path class="st1" d="M1094.17,265.58c-7.14,148.91-14.27,297.81-21.41,446.72"/>
          <path class="st1" d="M931.63,106.5c-9.44,184.67-.48,370.27,26.72,553.16"/>
          <path class="st1" d="M801.09,387.46c18.92,98.27,43.39,195.47,73.25,290.99"/>
          <path class="st1" d="M932.01,376.83c20.29-49.51,58.53-91.63,69.63-143.97"/>
          <path class="st1" d="M942.09,523.68c-30.17-28.41-57.08-60.27-80.04-94.77"/>
          <path class="st1" d="M1085.1,467.13c-21.41-35.74-39.26-73.6-53.22-112.86"/>
          <path class="st1" d="M1092.46,350.41c1.38-6.73,5.91-12.33,10.37-17.57,11.48-13.47,23.47-26.49,35.47-39.5"/>
          <path class="st1" d="M1207.85,503.69c-10.86-69.91-45.61-134.09-59.41-203.48"/>
          <path class="st1" d="M1260.32,199.79c-16.69-45.21-32.94-90.58-48.73-136.1"/>
          <path class="st1" d="M1239.31,316.19c31.67-17.41,63.6-34.35,95.77-50.82"/>
          <path class="st1" d="M827.13,507.47c1.46-8.66,4.64-16.92,7.81-25.11,10.79-27.91,21.58-55.82,32.36-83.73"/>
          <path class="st1" d="M848.8,588.5c-21.09-13.06-43.2-24.46-66.07-34.06"/>
          <path class="st1" d="M1316.11,569.13c-2.61-63.62-3.91-127.29-3.87-190.96"/>
          <path class="st1" d="M1354.26,482.98c-.52-6.91,4.34-12.94,8.92-18.14,29.76-33.89,59.53-67.78,89.29-101.67"/>
          <path class="st1" d="M1414.17,353.07c-4.2-20.01-8.4-40.03-12.95-59.97-1.86-8.15-3.81-16.4-7.72-23.8"/>
          <path class="st1" d="M1374.66,588.27c41.95-40.37,70.73-95.41,107.68-146.52"/>
          <path class="st1" d="M1444.1,460.8c-1.51-29.42-.73-58.95,2.32-88.25"/>
          <path class="st1" d="M1475.29,571.71c-3.69-34.97-7.01-69.98-9.96-105.03"/>
          <path class="st1" d="M1506.78,505.35c24.19-8.61,47.88-18.62,70.92-29.96"/>
          <path class="st1" d="M1080.32,582.37c15.67-1.31,29.38-10.49,43.1-18.18,24.34-13.66,50.68-23.34,76.88-32.95"/>
          <path class="st1" d="M1316.86,569.67c-35.35-40.57-67.92-83.55-97.41-128.55"/>
          <path class="st1" d="M949.49,586.6c45.65-26.67,91.04-53.79,136.16-81.36"/>
        </g>
      </g>
    </g>
    <g>
      <path class="st15" d="M795.55,972.1c254.79-2.96,518.46-19.9,654.7-34.64,136.25-14.74,26.54-60.75-74.32-74.9-100.86-14.16-70.78-42.47,49.55-42.47s86.7-47.88,58.39-49.6-38.07-23.95,86.54-38.88,39.09-60.81-137.85-69.33-681.25-14.15-594.54,32.18c86.7,46.32-38.93,92.01-120.32,95.55s-668.44,19.01-577.85,88.47,476.99,35.78,522.99,35.58-92.01,29-56.62,49.79,125.56,8.99,189.33,8.25h0Z"/>
      <g class="st9">
        <g>
          <path class="st2" d="M754.03,896.44c-15.11,1.99-29.2,10.74-37.68,23.4-3.31,4.94-5.45,12.39-.89,16.22,2.53,2.13,6.17,2.16,9.48,2.09,39.45-.88,78.9-1.77,118.35-2.65"/>
          <path class="st2" d="M809.02,898.53c-3.86-1.12-6.09,5.33-3.33,8.25s7.33,2.9,11.35,2.67c11.81-.67,23.62-1.34,35.43-2.02"/>
          <path class="st2" d="M1316.24,691.92c30.8-.19,61.6-.37,92.39-.56,8.18-.05,16.63-.05,24.18,3.11s14.04,10.34,13.77,18.52c-.38,11.44-12.58,18.35-23.32,22.31s-23.27,8.85-26.28,19.89c-.24.88-.41,1.82-.14,2.69.9,2.93,5.11,2.46,8.01,3.47,5.7,1.98,5.69,10.92,1.22,14.96-4.48,4.04-11.08,4.42-17.11,4.33-6.03-.1-12.48-.36-17.6,2.83"/>
          <path class="st2" d="M1307.13,725.88c5.72,1.53,11.76-.48,17.69-.29,5.92.19,12.81,4.5,11.72,10.32-.33,1.77-1.37,3.32-2.49,4.74-7.96,10.09-20.72,15.4-33.44,17.27-12.71,1.87-25.65.7-38.48.1-29.14-1.36-58.42.26-87.23,4.83"/>
          <path class="st2" d="M996.27,690.21c-26.25-3.62-53.32-1.08-78.44,7.36-5.37,1.81-11.28,4.51-13.03,9.9-2.02,6.25,2.95,12.94,8.99,15.52s12.85,2.28,19.4,2.66c7.38.43,14.72,1.78,21.77,4.01,6.17,1.95,12.71,5.16,15.02,11.21s-3.15,14.5-9.28,12.44"/>
          <path class="st2" d="M221.12,849.15c-10.14,5.7-9.24,21.87-1.07,30.16s20.45,10.67,31.97,12.31c58.75,8.32,118.49,7.63,177.6,2.52"/>
          <path class="st2" d="M288.75,852.37c-2.7,1.89-5.47,3.83-7.32,6.56s-2.62,6.44-1.06,9.34c1.86,3.44,6.15,4.59,10,5.29,12.81,2.33,25.87,3.31,38.89,2.92"/>
          <path class="st2" d="M335.15,846.07c-3.34-.22-6.87-.06-9.75,1.65s-4.79,5.42-3.52,8.51c4.18.19,8.35.38,12.53.56,3.06.14,6.14.27,9.17-.21,4.62-.74,8.88-2.88,13.06-4.99.55-.28,1.2-.73,1.09-1.34s-1.37-.2-.89.2"/>
          <path class="st2" d="M1385.79,888c12.15-2.3,24.88-1.46,36.62,2.4,2.8.92,5.8,2.23,7.09,4.88,1.59,3.27-.08,7.24-2.47,9.99-6.61,7.58-17.51,9.41-27.52,10.46-33.22,3.48-66.78,3.6-100.02.35"/>
        </g>
      </g>
    </g>
    <path class="st14" d="M1119.21,1002.55c-1.19-21.42-2.38-92.55,40.46-94.47s67.82,19.5,101.14,19.5,63.06,17.19,78.53,47.86,5.95,27.1-29.75,27.1-52.35.13-52.35.13c0,0,16.66-17.45,15.47-27.23-1.19-9.78-23.8,2.16-29.75,12.25,0,0-25.11-25.6-30.4-16.08s5.42,31.06,5.42,31.06l-98.76-.13h-.01Z"/>
    <g>
      <path class="st4" d="M3169.41,1025.8h45.65s-12.74-36.47,0-34.19,22.29,28.82,22.29,28.82c0,0,0-26.54,12.74-22.29s0,27.67,0,27.67h92.36s5.31-105.45-64.76-111.68-98.73,82.02-108.28,111.68h0Z"/>
      <g>
        <path class="st8" d="M3140.75,877.12c-7.43,24.76,14.86,86.66,133.76,92.69s136.94-10.5,138.01-25.59-4.25-26.76-28.66-52.24,0-115.71-82.8-121.02-75.37,60.97-101.91,74.01-48.83.31-58.39,32.15h-.01Z"/>
        <g class="st10">
          <path class="st13" d="M3127.47,869.54c29.68-5.3,61.1-.29,87.67,13.97,12.06,6.47,23.07,14.74,34.94,21.55,29.57,16.95,64.46,24.44,98.38,21.13,14.17-1.38,28.13-4.6,42.34-5.45s29.12.85,41.13,8.5c12.01,7.65,20.3,22.28,17.28,36.19-2.48,11.43-11.72,20.14-21.35,26.78-27.85,19.19-62.38,27.12-96.2,26.93s-67.17-8.07-99.42-18.27c-30.83-9.75-61.7-22.1-85.73-43.73s-40.27-54.21-35.05-86.12c.67-4.08,3.31-9.19,7.31-8.15"/>
        </g>
      </g>
    </g>
    <path class="st6" d="M3020.17,633.1c-7.53-24.3,24.42-98.67,90.23-102.91s82.8-2.85,93.42,27.77,53.08,92.33,12.74,94.39-182.59,25.29-196.39-19.24h0Z"/>
    <path class="st11" d="M1456.69,641.81h118.32s86.57-51.65,57.9-69.88c-28.66-18.23-62.63,11.5-62.63,11.5,0,0,38.22-58.39,13.8-62.63-24.42-4.25-52.02,47.71-52.02,47.71,0,0,3.14-64.37-23.38-61.88s-26.52,81.12-26.52,81.12c0,0-28.05-41.77-43.75-23.04s18.27,77.12,18.27,77.12v-.02Z"/>
    <g>
      <path class="st3" d="M1536.5,1037.78c-2.95-16.82-12.25-32.44-25.64-43.04"/>
      <path class="st3" d="M1557.36,1040.38v-87.38"/>
      <path class="st3" d="M1584.12,1035.52c-1.09-14.7.51-29.59,4.72-43.71"/>
      <path class="st3" d="M1610.4,1038.06c-.48-22.72,10.88-45.36,29.38-58.55"/>
    </g>
    <path class="st3" d="M95.81,961.89c8.19,1.93,14.53,8.74,18.04,16.38s4.61,16.13,5.68,24.48"/>
    <path class="st3" d="M143.99,938.05v58.69"/>
    <path class="st3" d="M185.53,952.65c-13.64,14.84-20.16,35.95-17.27,55.89"/>
    <path class="st3" d="M202.5,970.83c-5.86,11.59-8.55,24.76-7.7,37.71"/>
    <path class="st3" d="M751.41,682.92c7.7-.68,15.13,4.1,19.44,10.51s6.01,14.22,6.94,21.9"/>
    <path class="st3" d="M785.81,669.93v45.26"/>
    <path class="st3" d="M819.02,687.35c-6.76.14-12.76,5.13-15.57,11.27-2.81,6.15-2.87,13.22-1.82,19.9"/>
    <g>
      <path class="st3" d="M2987.9,644.51c8.64-1.6,18,1.37,24.14,7.65s8.9,15.7,7.11,24.31"/>
      <path class="st3" d="M3038.44,624.12l4.77,50.69"/>
      <path class="st3" d="M3074.5,628.46c-9.51,11.63-14.91,26.56-15.04,41.59"/>
      <path class="st3" d="M3098.49,639.84c-6.25,2.07-11.29,7.06-14.18,12.98-2.89,5.91-3.74,12.67-3.28,19.24"/>
    </g>
    <path class="st5" d="M3309.51,669.1c19.61-15.55,66.16-16.84,90.22-7.22s20.45,39.7-26.46,43.3c-46.91,3.61-98.64-8.42-63.75-36.09h-.01Z"/>
    <path class="st5" d="M3236.45,688.12c26.32.91,46.97,27.04,14.94,29.18s-52.66-1.42-51.95-14.59,16.37-15.3,37.01-14.59h0Z"/>
    <path class="st5" d="M723.61,1009.95c21.02-9.93,57.11-25.07,103.58-4.74s-.97,53.24-58.08,44.53-74.95-25.86-45.5-39.78h0Z"/>
    <path class="st5" d="M911.13,1029.24c-26.32-.91-46.97-27.04-14.94-29.18s52.66,1.42,51.95,14.59-16.37,15.3-37.01,14.59Z"/>
  </g>
  <path class="st7" d="M3460.97,1203.68h0v369.28H0v-382.71c40.11-1.51,118.24,1.5,118.24,1.5,0,0,1.42-20.68,10.69-21.39,9.27-.71,14.02,21.39,14.02,21.39,0,0,30.01,0,85.04-3.34s137.82-1.67,137.82-1.67c0,0-6.42-24.77,0-25.69,6.42-.92,21.1,21.1,21.1,21.1,0,0-17.43-47.7,0-51.37s28.44,50.45,28.44,50.45c0,0,22.93-35.78,33.02-34.86s0,42.2,0,42.2c0,0,71.55-2.76,133.01-4.59s399.49,3.89,399.49,3.89c5.34-6.24-8.91-32.96,3.56-34.74s28.5,25.83,28.5,25.83c0,0,7.13-32.96,22.27-32.96s10.69,39.19,10.69,39.19c0,0,79.27,0,172.8.89s175.51-3.83,175.51-3.83c0,0,0-42.77,13.36-42.77s18.71,43.36,18.71,43.36h67.71s3.57-21.08,14.26-21.08,12.47,25.84,12.47,25.84c0,0-5.35.89,30.1,2.5s236.84-14.5,356.06-14.5,290,17.72,290,17.72c0,0,3.23-18.33,15.09-19.4,11.86-1.07,15.09,23.72,15.09,23.72,0,0,76.25,7.88,139.26,11.59s389.92,0,389.92,0c0,0-7.88-53.62,7.89-54.41s25.23,48.86,25.23,48.86c0,0,10.25-23.63,21.29-23.63s10.25,23.63,10.25,23.63h640.08Z"/>
</svg>