<?xml version="1.0" encoding="UTF-8"?>
<svg id="Capa_1" xmlns="http://www.w3.org/2000/svg" width="169.36" height="169.36" xmlns:xlink="http://www.w3.org/1999/xlink" version="1.1" viewBox="0 0 169.36 169.36">
  <!-- Generator: Adobe Illustrator 29.4.0, SVG Export Plug-In . SVG Version: 2.1.0 Build 152)  -->
  <defs>
    <style>
      .st0 {
        fill: #342a66;
      }

      .st1 {
        fill: #ffd597;
      }

      .st2 {
        fill: #425493;
      }

      .st3 {
        fill: #fff;
      }

      .st4 {
        opacity: .2;
      }

      .st5 {
        clip-path: url(#clippath);
      }
    </style>
    <clipPath id="clippath">
      <path class="st0" d="M20.45,109.43c-12.27-19.64,8.34-52.61,17.73-60.2s42.58-26.36,75.1-5.47c25.99,16.69,42.37,23.39,46.54,47.38,4.17,23.99-14.21,30.12-60.1,31.51s-68.84,3.47-79.27-13.22Z"/>
    </clipPath>
  </defs>
  <g class="st4">
    <circle class="st1" cx="84.68" cy="84.68" r="84.68"/>
  </g>
  <g class="st4">
    <circle class="st1" cx="84.68" cy="84.68" r="66.48"/>
  </g>
  <g>
    <path class="st0" d="M20.45,109.43c-12.27-19.64,8.34-52.61,17.73-60.2s42.58-26.36,75.1-5.47c25.99,16.69,42.37,23.39,46.54,47.38,4.17,23.99-14.21,30.12-60.1,31.51s-68.84,3.47-79.27-13.22Z"/>
    <g class="st5">
      <path class="st2" d="M152.58,68.1c-13.28-1.83-27.65-2.24-39.2,5.64-9.89,6.75-16.59,18.67-16.41,30.74.13,8.29,3.62,15.89,7.13,23.22.83,1.74,3.42.22,2.59-1.51-2.98-6.22-6.04-12.68-6.62-19.65-.46-5.61.71-11.28,3.14-16.35,2.43-5.05,5.99-9.61,10.47-12.99,4.93-3.72,10.76-5.88,16.85-6.75,7.03-1,14.24-.42,21.25.55.81.11,1.6-.2,1.85-1.05.2-.7-.25-1.73-1.05-1.85h0Z"/>
      <path class="st2" d="M140.16,55.28c-8.27-.27-16.67-.54-24.82,1.24-7.51,1.64-14.49,5.29-19.69,11.02-9.34,10.29-12.87,25.64-9.37,39.04,2.39,9.17,8.55,16.52,14.79,23.39,1.3,1.43,3.42-.69,2.12-2.12-5.24-5.77-10.57-11.9-13.19-19.36-2.2-6.27-2.57-13.18-1.37-19.69,1.17-6.34,3.75-12.53,7.81-17.57,4.51-5.59,10.59-9.4,17.51-11.28,8.52-2.31,17.48-1.95,26.21-1.67,1.93.06,1.93-2.94,0-3h0Z"/>
    </g>
  </g>
  <path class="st3" d="M34.64,22.98c.53-2.37,2.12-5.3,4.48-4.71,1.66.42,2.33,2.37,2.74,4.04,1.47,6.1,2.93,12.21,4.4,18.31,5.93.17,11.87.35,17.8.52,1.9.06,3.87.13,5.54,1.04s2.91,2.91,2.3,4.71c-.81,2.38-3.94,2.81-6.45,2.88-6.3.16-12.58.64-18.83,1.45-1.62,6.99-3.24,13.98-4.86,20.97-.67,2.87-2.65,6.54-5.43,5.57-1.9-.67-2.38-3.09-2.55-5.1-.55-6.6-1.11-13.19-1.66-19.79-7.67,1.36-15.73.45-22.91-2.57-1.23-.52-2.64-1.43-2.52-2.76.11-1.17,1.34-1.85,2.42-2.32,4.2-1.84,21.69-3.33,23.78-4.21,0,0,.87-14.04,1.77-18.02Z"/>
  <path class="st3" d="M63.64,64.93c2.07-3.11,2.96,3.12,3.63,4.44,7.25-2.45,11.42,3.32,1.49,3.63-.89,2.42-.25,5.41-1.45,7.77-1.28,2-3.46.69-3.61-1.36-.47-1.09-.13-5.18-1.83-5-2.32-.26-3.73.57-5.46-1.31-1.1-2.33,1.3-2.34,3.25-2.3,5.84-.06,1.86-1.12,3.99-5.87Z"/>
</svg>